<?xml version="1.0" encoding="UTF-8" standalone="no"?>
<!-- Created with Inkscape (http://www.inkscape.org/) -->

<svg
   width="100"
   height="100"
   viewBox="0 0 26.458333 26.458333"
   version="1.1"
   id="svg5"
   xml:space="preserve"
   inkscape:version="1.2.1 (9c6d41e410, 2022-07-14)"
   sodipodi:docname="pantograph.svg"
   xmlns:inkscape="http://www.inkscape.org/namespaces/inkscape"
   xmlns:sodipodi="http://sodipodi.sourceforge.net/DTD/sodipodi-0.dtd"
   xmlns="http://www.w3.org/2000/svg"
   xmlns:svg="http://www.w3.org/2000/svg"><sodipodi:namedview
     id="namedview7"
     pagecolor="#ffffff"
     bordercolor="#000000"
     borderopacity="0.25"
     inkscape:showpageshadow="2"
     inkscape:pageopacity="0.0"
     inkscape:pagecheckerboard="0"
     inkscape:deskcolor="#d1d1d1"
     inkscape:document-units="mm"
     showgrid="false"
     inkscape:zoom="4.7572176"
     inkscape:cx="22.807449"
     inkscape:cy="52.236417"
     inkscape:window-width="1368"
     inkscape:window-height="860"
     inkscape:window-x="-6"
     inkscape:window-y="-6"
     inkscape:window-maximized="1"
     inkscape:current-layer="layer1" /><defs
     id="defs2" /><g
     inkscape:label="Layer 1"
     inkscape:groupmode="layer"
     id="layer1"><path
       d="M 41.752623,10.382842 C 41.374681,6.6879739 40.772622,3.8111315 39.820126,2.6803612 35.892992,-1.96904 8.3836953,-2.3092897 5.2603245,2.6803612 4.4962906,3.9028155 3.9604481,6.7694709 3.6008428,10.388954 2.4405299,10.525462 1.5369325,11.502406 1.5369325,12.698374 v 4.526137 c 0,1.006488 0.6377136,1.855075 1.5280678,2.186156 -0.2108733,7.128946 -0.03973,14.566562 0.276071,18.265505 0,2.855449 1.9182345,2.381748 1.9182345,2.381748 h 1.7980265 v 3.082622 c 0,1.222455 1.2601467,2.211624 2.8126636,2.211624 1.5545541,0 2.8147011,-0.989169 2.8147011,-2.211624 V 40.05792 h 20.91823 v 3.082622 c 0,1.222455 1.259128,2.211624 2.813683,2.211624 1.552517,0 2.812663,-0.989169 2.812663,-2.211624 V 40.05792 h 0.590853 c 0,0 2.257466,0.309689 2.402123,-1.035011 0,-3.688756 0.232266,-11.863919 0.04075,-19.580662 0.946384,-0.296445 1.637071,-1.168462 1.637071,-2.217736 v -4.526137 c 10e-4,-1.224492 -0.946384,-2.217736 -2.147445,-2.315532 z M 11.97873,3.3435427 H 33.101721 V 6.539242 H 11.97873 Z m 0.301538,33.0745193 c -1.658463,0 -3.0021437,-1.344699 -3.0021437,-3.003162 0,-1.657445 1.3436807,-3.001126 3.0021437,-3.001126 1.658463,0 3.003163,1.343681 3.003163,3.001126 0,1.658463 -1.343681,3.003162 -3.003163,3.003162 z m 20.708376,0 c -1.657444,0 -3.004181,-1.344699 -3.004181,-3.003162 0,-1.657445 1.345718,-3.001126 3.004181,-3.001126 1.658463,0 3.002144,1.343681 3.002144,3.001126 10e-4,1.658463 -1.343681,3.003162 -3.002144,3.003162 z M 36.805758,23.276679 H 8.2746931 V 8.3118007 H 36.805758 Z"
       id="path4121"
       style="fill:#000000;stroke-width:1.01871"
       transform="matrix(0.39249072,0,0,0.39249072,0.77106285,8.6001392)" /><path
       style="fill:#000000;stroke-width:0.0398767"
       d="m 20.903485,26.429717 c -0.0326,-0.01225 -0.09038,-0.04978 -0.128524,-0.08349 -0.06562,-0.05808 -0.06927,-0.588115 -0.06927,-10.07071 0,-6.8487101 -0.01353,-10.1327215 -0.04235,-10.3999336 C 20.540373,4.7423669 19.894078,3.7994346 18.906683,3.3127532 18.195355,2.9621472 19.024789,2.9950559 10.565727,2.9818195 L 3.0550837,2.9701231 2.9643061,2.883389 2.8735285,2.7966549 V 1.4764636 c 0,-1.27131318 0.00271,-1.3231607 0.079955,-1.40147145 0.07982,-0.0811333 0.097001,-0.0812981 7.7595585,-0.0692573 l 7.679617,0.0121089 0.452278,0.11329184 c 1.20092,0.3008074 2.150232,0.83798904 2.990002,1.69193511 1.010082,1.0271367 1.621351,2.3454305 1.755705,3.7864599 0.02692,0.288643 0.04086,3.8881355 0.04086,10.5261624 l 2.6e-5,10.087525 -0.115534,0.117557 -0.115536,0.117558 -1.218872,-0.0032 c -0.670377,-0.0017 -1.245551,-0.0132 -1.278182,-0.02536 z M 8.0151125,8.5642586 c -0.022458,-0.042782 -0.040856,-0.091811 -0.040856,-0.1089433 0,-0.017131 0.491675,-0.5324357 1.0926218,-1.1451196 L 10.159512,6.1962295 8.9087263,4.9345707 C 8.22079,4.2406589 7.6579403,3.645385 7.6579403,3.6117401 c 0,-0.130066 0.090237,-0.1576948 0.5148767,-0.1576948 h 0.4199862 l 1.2767211,1.301913 c 0.7021957,0.7160515 1.2922387,1.3268487 1.3112197,1.3573259 0.01894,0.03048 0.03477,0.081848 0.03517,0.1141587 2.97e-4,0.03231 -0.519436,0.5888174 -1.15503,1.2366744 L 8.9052631,8.6420396 H 8.4807177 c -0.3792783,0 -0.4289152,-0.00826 -0.4654834,-0.077789 z m 2.1563185,0.014587 c -0.03423,-0.03476 -0.0621,-0.083789 -0.0621,-0.1089443 0,-0.025155 0.493353,-0.5487241 1.096329,-1.1634803 L 12.301992,6.1886846 11.043656,4.9064728 C 9.8904123,3.731348 9.7890683,3.6171521 9.8301013,3.5391511 c 0.04153,-0.078918 0.07711,-0.08511 0.4890097,-0.08511 h 0.44423 l 1.294105,1.3185194 c 1.000315,1.019183 1.294106,1.3410828 1.294106,1.4179074 0,0.076647 -0.264745,0.3685596 -1.156762,1.2754808 L 11.038015,8.642041 h -0.402209 c -0.31292,0 -0.415996,-0.014022 -0.464334,-0.063203 z"
       id="path4124"
       sodipodi:nodetypes="csscsscccssscsssscccsccssscssscsscscssssscssscssscss" /></g></svg>
