<?xml version="1.0" encoding="UTF-8" standalone="no"?>
<!-- Created with Inkscape (http://www.inkscape.org/) -->

<svg
   width="100"
   height="100"
   viewBox="0 0 93.750001 93.750002"
   id="svg2"
   version="1.1"
   inkscape:version="1.2.1 (9c6d41e410, 2022-07-14)"
   sodipodi:docname="Chademo_type4_cable_attached.svg"
   inkscape:export-filename="/Users/sss/Desktop/Plug/chademo type4.png"
   inkscape:export-xdpi="600"
   inkscape:export-ydpi="600"
   xml:space="preserve"
   xmlns:inkscape="http://www.inkscape.org/namespaces/inkscape"
   xmlns:sodipodi="http://sodipodi.sourceforge.net/DTD/sodipodi-0.dtd"
   xmlns="http://www.w3.org/2000/svg"
   xmlns:svg="http://www.w3.org/2000/svg"
   xmlns:rdf="http://www.w3.org/1999/02/22-rdf-syntax-ns#"
   xmlns:cc="http://creativecommons.org/ns#"
   xmlns:dc="http://purl.org/dc/elements/1.1/"><defs
     id="defs4" /><sodipodi:namedview
     id="base"
     pagecolor="#ffffff"
     bordercolor="#666666"
     borderopacity="1.0"
     inkscape:pageopacity="0.0"
     inkscape:pageshadow="2"
     inkscape:zoom="2.8"
     inkscape:cx="109.46429"
     inkscape:cy="88.392857"
     inkscape:document-units="px"
     inkscape:current-layer="layer1"
     showgrid="true"
     inkscape:snap-grids="false"
     inkscape:snap-to-guides="true"
     inkscape:window-width="1368"
     inkscape:window-height="860"
     inkscape:window-x="-6"
     inkscape:window-y="-6"
     inkscape:window-maximized="1"
     inkscape:showpageshadow="2"
     inkscape:pagecheckerboard="0"
     inkscape:deskcolor="#d1d1d1"><inkscape:grid
       type="xygrid"
       id="grid4211"
       originx="0"
       originy="0" /></sodipodi:namedview><metadata
     id="metadata7"><rdf:RDF><cc:Work
         rdf:about=""><dc:format>image/svg+xml</dc:format><dc:type
           rdf:resource="http://purl.org/dc/dcmitype/StillImage" /></cc:Work></rdf:RDF></metadata><g
     inkscape:label="Layer 1"
     inkscape:groupmode="layer"
     id="layer1"><path
       style="color:#000000;fill:#000000;fill-rule:evenodd;-inkscape-stroke:none"
       d="m 76.632812,32.882812 c -5.485453,10e-7 -9.839844,4.682527 -9.839843,10.1875 0,5.504974 4.35439,10.185547 9.839843,10.185547 5.485454,10e-7 9.841797,-4.680573 9.841797,-10.185547 10e-7,-5.504974 -4.356342,-10.1875 -9.841797,-10.1875 z m 0,6.294922 c 1.907369,0 3.546876,1.622693 3.546875,3.892578 0,2.269886 -1.639506,3.890626 -3.546875,3.890625 -1.907367,0 -3.544921,-1.620739 -3.544921,-3.890625 -10e-7,-2.269885 1.637553,-3.892577 3.544921,-3.892578 z"
       id="path4213" /><path
       style="color:#000000;fill:#000000;fill-rule:evenodd;-inkscape-stroke:none"
       d="m 49.654297,32.882812 c -5.485454,0 -9.841798,4.682526 -9.841797,10.1875 0,5.504974 4.356343,10.185548 9.841797,10.185547 5.485454,10e-7 9.839843,-4.680573 9.839844,-10.185547 0,-5.504974 -4.35439,-10.1875 -9.839844,-10.1875 z m 0,6.294922 c 1.907368,0 3.544922,1.622693 3.544922,3.892578 0,2.269886 -1.637554,3.890626 -3.544922,3.890625 -1.907368,10e-7 -3.546875,-1.620739 -3.546875,-3.890625 0,-2.269885 1.639507,-3.892578 3.546875,-3.892578 z"
       id="ellipse4215" /><path
       style="color:#000000;fill:#000000;fill-rule:evenodd;-inkscape-stroke:none"
       d="m 371.42773,255.93359 c -41.36209,0 -75,33.63791 -75,75 0,41.3621 33.63791,75 75,75 41.3621,0 75,-33.6379 75,-75 0,-41.36209 -33.6379,-75 -75,-75 z m 0,10 c 35.9577,0 65,29.04231 65,65 0,35.9577 -29.0423,65 -65,65 -35.95769,0 -65,-29.0423 -65,-65 0,-35.95769 29.04231,-65 65,-65 z"
       id="path4221"
       transform="matrix(0.096852,0,0,0.09685159,27.031699,-5.9999914)" /><path
       style="color:#000000;fill:#000000;fill-rule:evenodd;-inkscape-stroke:none"
       d="m 58.009766,24.042969 c -1.075696,0 -1.939453,0.910249 -1.939454,2.007812 0,1.097564 0.863757,2.009765 1.939454,2.009766 1.075696,0 1.941406,-0.912201 1.941406,-2.009766 -10e-7,-1.097564 -0.86571,-2.007813 -1.941406,-2.007812 z m 0,0.707031 c 0.676418,0 1.232421,0.569824 1.232421,1.300781 10e-7,0.730958 -0.556003,1.302735 -1.232421,1.302735 -0.676418,-10e-7 -1.232422,-0.571778 -1.232422,-1.302735 0,-0.730956 0.556004,-1.300781 1.232422,-1.300781 z"
       id="path4223" /><path
       style="color:#000000;fill:#000000;fill-rule:evenodd;-inkscape-stroke:none"
       d="m 67.861328,24.042969 c -1.075696,-1e-6 -1.939452,0.910248 -1.939453,2.007812 0,1.097565 0.863756,2.009766 1.939453,2.009766 1.075696,-1e-6 1.941407,-0.912202 1.941406,-2.009766 0,-1.097563 -0.86571,-2.007812 -1.941406,-2.007812 z m 0,0.707031 c 0.676418,0 1.232422,0.569825 1.232422,1.300781 0,0.730957 -0.556004,1.302734 -1.232422,1.302735 -0.676418,0 -1.232422,-0.571777 -1.232422,-1.302735 C 66.628907,25.319824 67.18491,24.75 67.861328,24.75 Z"
       id="ellipse4225" /><path
       style="color:#000000;fill:#000000;fill-rule:evenodd;-inkscape-stroke:none"
       d="m 63.074219,28.830078 c -1.075696,1e-6 -1.939454,0.910249 -1.939453,2.007813 0,1.097563 0.863757,2.009765 1.939453,2.009765 1.075696,10e-7 1.941405,-0.912202 1.941406,-2.009765 0,-1.097565 -0.86571,-2.007813 -1.941406,-2.007813 z m 0,0.707031 c 0.676418,0 1.232422,0.569824 1.232422,1.300782 -10e-7,0.730957 -0.556004,1.302734 -1.232422,1.302734 -0.676418,0 -1.232422,-0.571778 -1.232422,-1.302734 0,-0.730957 0.556004,-1.300781 1.232422,-1.300782 z"
       id="ellipse4227" /><path
       style="color:#000000;fill:#000000;fill-rule:evenodd;-inkscape-stroke:none"
       d="m 372.14258,255.90039 c -11.10663,0 -20.03321,9.41561 -20.03321,20.74805 10e-6,11.33243 8.92658,20.74609 20.03321,20.74609 11.10663,0 20.0332,-9.41366 20.0332,-20.74609 1e-5,-11.33244 -8.92657,-20.74805 -20.0332,-20.74805 z m 0,7.31055 c 6.98401,0 12.72266,5.89031 12.72265,13.4375 0,7.54718 -5.73864,13.4375 -12.72265,13.4375 -6.98401,-10e-6 -12.72266,-5.89032 -12.72266,-13.4375 0,-7.54719 5.73865,-13.4375 12.72266,-13.4375 z"
       id="ellipse4229"
       transform="matrix(0.096852,0,0,0.09685159,27.031699,-5.6125966)" /><path
       style="color:#000000;fill:#000000;fill-rule:evenodd;-inkscape-stroke:none"
       d="m 371.42773,255.93359 c -41.36209,0 -75,33.63791 -75,75 0,41.3621 33.63791,75 75,75 41.3621,0 75,-33.6379 75,-75 0,-41.36209 -33.6379,-75 -75,-75 z m 0,10 c 35.9577,0 65,29.04231 65,65 0,35.9577 -29.0423,65 -65,65 -35.95769,0 -65,-29.0423 -65,-65 0,-35.95769 29.04231,-65 65,-65 z"
       id="circle4250"
       transform="matrix(0.096852,0,0,0.09685159,27.031699,27.898057)" /><path
       style="color:#000000;fill:#000000;fill-rule:evenodd;-inkscape-stroke:none"
       d="m 58.009766,57.939453 c -1.075697,10e-7 -1.939454,0.912202 -1.939454,2.009766 10e-7,1.097563 0.863758,2.009765 1.939454,2.009765 1.075696,10e-7 1.941405,-0.912201 1.941406,-2.009765 0,-1.097565 -0.86571,-2.009766 -1.941406,-2.009766 z m 0,0.708984 c 0.676418,0 1.232422,0.569824 1.232421,1.300782 0,0.730957 -0.556003,1.302734 -1.232421,1.302734 -0.676418,0 -1.232422,-0.571778 -1.232422,-1.302734 0,-0.730957 0.556004,-1.300781 1.232422,-1.300782 z"
       id="ellipse4252" /><path
       style="color:#000000;fill:#000000;fill-rule:evenodd;-inkscape-stroke:none"
       d="m 67.861328,57.939453 c -1.075697,0 -1.939453,0.912201 -1.939453,2.009766 10e-7,1.097564 0.863757,2.009766 1.939453,2.009765 1.075696,0 1.941406,-0.912202 1.941406,-2.009765 10e-7,-1.097564 -0.86571,-2.009765 -1.941406,-2.009766 z m 0,0.708984 c 0.676418,10e-7 1.232422,0.569825 1.232422,1.300782 0,0.730956 -0.556004,1.302734 -1.232422,1.302734 -0.676418,0 -1.232421,-0.571777 -1.232422,-1.302734 0,-0.730958 0.556004,-1.300782 1.232422,-1.300782 z"
       id="ellipse4254" /><path
       style="color:#000000;fill:#000000;fill-rule:evenodd;-inkscape-stroke:none"
       d="m 63.074219,62.726562 c -1.075696,10e-7 -1.939453,0.912203 -1.939453,2.009766 -10e-7,1.097564 0.863757,2.009765 1.939453,2.009766 1.075696,0 1.941406,-0.912202 1.941406,-2.009766 -10e-7,-1.097564 -0.86571,-2.009766 -1.941406,-2.009766 z m 0,0.708985 c 0.676418,0 1.232421,0.569824 1.232422,1.300781 0,0.730957 -0.556004,1.302735 -1.232422,1.302734 -0.676418,0 -1.232422,-0.571777 -1.232422,-1.302734 0,-0.730957 0.556004,-1.300781 1.232422,-1.300781 z"
       id="ellipse4256" /><path
       style="color:#000000;fill:#000000;fill-rule:evenodd;-inkscape-stroke:none"
       d="m 372.14258,255.90039 c -11.10663,0 -20.03321,9.41561 -20.03321,20.74805 10e-6,11.33243 8.92658,20.74609 20.03321,20.74609 11.10663,0 20.0332,-9.41366 20.0332,-20.74609 1e-5,-11.33244 -8.92657,-20.74805 -20.0332,-20.74805 z m 0,7.31055 c 6.98401,0 12.72266,5.89031 12.72265,13.4375 0,7.54718 -5.73864,13.4375 -12.72265,13.4375 -6.98401,-10e-6 -12.72266,-5.89032 -12.72266,-13.4375 0,-7.54719 5.73865,-13.4375 12.72266,-13.4375 z"
       id="ellipse4260"
       transform="matrix(0.096852,0,0,0.09685159,27.031699,28.285465)" /><path
       style="color:#000000;fill:#000000;fill-rule:evenodd;-inkscape-stroke:none"
       d="m 62.511719,12.451172 c -2.966396,0.03369 -5.898239,0.673591 -8.664063,1.564453 -2.830225,0.911588 -7.264502,3.393024 -7.722656,3.650391 l -4.441406,-0.859375 -5.451172,5.482421 0.953125,4.22461 c -0.185093,0.357559 -1.896925,3.644578 -2.609375,5.761719 -0.842577,2.503794 -1.530966,5.122204 -1.771485,7.810546 -0.236182,2.639721 -0.07346,5.310397 0.353516,7.898438 0.425928,2.581658 1.074538,5.203921 2.216797,7.632812 1.230297,2.61609 2.919538,5.015919 4.847656,7.132813 1.922797,2.111026 4.199548,3.856743 6.529297,5.398437 1.765395,1.168217 3.663501,2.14321 5.625,2.919922 1.753583,0.694359 3.582377,1.199425 5.429688,1.533203 1.800442,0.325269 3.634639,0.467865 5.455078,0.451172 1.843454,-0.01684 3.700894,-0.191112 5.519531,-0.55664 2.286201,-0.459532 4.586391,-1.090916 6.757812,-2.066407 2.12132,-0.952962 4.120102,-2.191112 5.9375,-3.625 2.17269,-1.714201 4.201042,-3.682057 5.884766,-5.916015 1.691034,-2.243658 3.180622,-4.728871 4.136719,-7.427735 1.118786,-3.15813 1.576973,-6.51854 1.710937,-9.802734 0.116512,-2.856429 -0.04174,-5.804263 -0.789062,-8.628906 -0.812877,-3.072443 -3.424111,-7.729903 -3.714844,-8.246094 l 1.152344,-4.029297 -5.958985,-5.958984 -3.884765,0.863281 c -0.484458,-0.281599 -4.77249,-2.765957 -7.582031,-3.646484 -3.179884,-0.99661 -6.552465,-1.598809 -9.919922,-1.560547 z m 0.01953,1.742187 c 3.145382,-0.03574 6.343646,0.531138 9.378906,1.482422 2.481942,0.777856 7.539063,3.658203 7.539063,3.658203 l 0.292968,0.169922 3.601563,-0.798828 4.556641,4.556641 -1.066407,3.728515 0.177735,0.316407 c 0,0 3.013279,5.486723 3.722656,8.167968 0.685896,2.592484 0.844282,5.370875 0.732422,8.113282 -0.129327,3.170497 -0.572956,6.359878 -1.611328,9.291015 -0.877798,2.47784 -2.272232,4.818842 -3.886719,6.960938 -1.574624,2.089204 -3.494901,3.95671 -5.572266,5.595703 -1.712179,1.350872 -3.592507,2.514928 -5.572265,3.404297 -2.007276,0.901749 -4.181751,1.504062 -6.386719,1.947265 -1.698787,0.34144 -3.44724,0.505551 -5.191406,0.521485 C 61.52657,71.324361 59.800461,71.19082 58.117187,70.886719 56.37549,70.572022 54.654952,70.09561 53.017578,69.447266 51.162491,68.71269 49.370776,67.790433 47.712891,66.693359 45.452983,65.197882 43.294893,63.533907 41.511719,61.576172 39.68425,59.569782 38.096333,57.305905 36.953125,54.875 c -1.044214,-2.220409 -1.663814,-4.686261 -2.074219,-7.173828 -0.407194,-2.468106 -0.558384,-4.994614 -0.33789,-7.458985 0.223086,-2.493501 0.870752,-4.983117 1.6875,-7.410156 C 36.866885,30.935032 38.875,27.003906 38.875,27.003906 l 0.146484,-0.28125 -0.878906,-3.882812 4.123047,-4.146485 4.144531,0.802735 0.279297,-0.154297 c 0,0 5.153687,-2.849965 7.693359,-3.667969 2.654639,-0.85505 5.420517,-1.449487 8.148438,-1.480469 z"
       id="path4271" /><path
       style="fill:#000000;stroke-width:1.33434"
       d="M 44.988111,93.113801 C 28.437907,89.637632 24.494652,76.136374 27.073931,33.635096 28.247919,14.290172 28.151662,11.656739 26.159478,8.6162701 23.257697,4.1875937 17.63075,3.9504802 16.764577,8.2203761 c -0.334958,1.651244 -0.909186,9.3862309 -1.27604,17.1888599 -0.369388,7.856561 -1.534538,16.262905 -2.611288,18.839919 -2.104623,5.03709 -6.7441748,9.005108 -10.5290956,9.005108 -3.2244707,0 -3.08750685,-4.838929 0.1609886,-5.688435 5.3913918,-1.409879 7.1446756,-6.852095 8.043671,-24.96764 0.702053,-14.1472109 1.296406,-17.686622 3.351314,-19.9572642 4.304693,-4.7566415 13.522069,-2.80500429 16.948989,3.5886884 1.880413,3.5083339 1.952278,6.3784348 1.077239,43.0216388 -0.674362,28.239557 2.152298,34.329457 13.459817,38.709072 9.508487,3.682816 15.48965,-7.603646 15.749564,-10.020403 0.103907,-0.96616 0.762827,-5.079848 -0.769018,-5.536082 0.259912,-0.40552 7.34029,-1.037015 7.485806,-0.562453 0.134729,2.761211 -0.438541,5.337873 -1.094338,7.989814 -2.231956,6.71492 -10.395745,15.672481 -21.774071,13.282602 z"
       id="path174"
       sodipodi:nodetypes="sssssssssssssscccss" /></g></svg>
