<?xml version="1.0" encoding="UTF-8" standalone="no"?>
<!-- Created with Inkscape (http://www.inkscape.org/) -->

<svg
   width="100"
   height="100"
   viewBox="0 0 93.750001 93.750002"
   id="svg2"
   version="1.1"
   inkscape:version="1.2.1 (9c6d41e410, 2022-07-14)"
   sodipodi:docname="Chademo_type4.svg"
   inkscape:export-filename="/Users/sss/Desktop/Plug/chademo type4.png"
   inkscape:export-xdpi="600"
   inkscape:export-ydpi="600"
   xmlns:inkscape="http://www.inkscape.org/namespaces/inkscape"
   xmlns:sodipodi="http://sodipodi.sourceforge.net/DTD/sodipodi-0.dtd"
   xmlns="http://www.w3.org/2000/svg"
   xmlns:svg="http://www.w3.org/2000/svg"
   xmlns:rdf="http://www.w3.org/1999/02/22-rdf-syntax-ns#"
   xmlns:cc="http://creativecommons.org/ns#"
   xmlns:dc="http://purl.org/dc/elements/1.1/">
  <defs
     id="defs4" />
  <sodipodi:namedview
     id="base"
     pagecolor="#ffffff"
     bordercolor="#666666"
     borderopacity="1.0"
     inkscape:pageopacity="0.0"
     inkscape:pageshadow="2"
     inkscape:zoom="3.959798"
     inkscape:cx="3.4092648"
     inkscape:cy="65.786185"
     inkscape:document-units="px"
     inkscape:current-layer="layer1"
     showgrid="true"
     inkscape:snap-grids="false"
     inkscape:snap-to-guides="true"
     inkscape:window-width="1368"
     inkscape:window-height="860"
     inkscape:window-x="-6"
     inkscape:window-y="-6"
     inkscape:window-maximized="1"
     inkscape:showpageshadow="2"
     inkscape:pagecheckerboard="0"
     inkscape:deskcolor="#d1d1d1">
    <inkscape:grid
       type="xygrid"
       id="grid4211"
       originx="0"
       originy="0" />
  </sodipodi:namedview>
  <metadata
     id="metadata7">
    <rdf:RDF>
      <cc:Work
         rdf:about="">
        <dc:format>image/svg+xml</dc:format>
        <dc:type
           rdf:resource="http://purl.org/dc/dcmitype/StillImage" />
      </cc:Work>
    </rdf:RDF>
  </metadata>
  <g
     inkscape:label="Layer 1"
     inkscape:groupmode="layer"
     id="layer1">
    <ellipse
       style="fill:none;fill-rule:evenodd;stroke:#000000;stroke-width:9.73842;stroke-linecap:butt;stroke-linejoin:miter;stroke-miterlimit:4;stroke-dasharray:none;stroke-opacity:1"
       id="path4213"
       cx="67.967758"
       cy="47.367542"
       rx="10.353447"
       ry="10.88848" />
    <ellipse
       ry="10.88848"
       rx="10.353447"
       cy="47.367542"
       cx="26.231588"
       id="ellipse4215"
       style="fill:none;fill-rule:evenodd;stroke:#000000;stroke-width:9.73842;stroke-linecap:butt;stroke-linejoin:miter;stroke-miterlimit:4;stroke-dasharray:none;stroke-opacity:1" />
    <g
       style="stroke:#000000;stroke-opacity:1"
       id="g4234"
       transform="matrix(0.14982212,0,0,0.14982149,-8.7625891,-28.539179)">
      <circle
         r="70"
         cy="330.93365"
         cx="371.42859"
         id="path4221"
         style="fill:none;fill-rule:evenodd;stroke:#000000;stroke-width:10;stroke-linecap:butt;stroke-linejoin:miter;stroke-miterlimit:4;stroke-dasharray:none;stroke-opacity:1" />
    </g>
    <ellipse
       style="fill:none;fill-rule:evenodd;stroke:#000000;stroke-width:1.09511;stroke-linecap:butt;stroke-linejoin:miter;stroke-miterlimit:4;stroke-dasharray:none;stroke-opacity:1"
       id="path4223"
       cx="39.159061"
       cy="21.041758"
       rx="2.453789"
       ry="2.5607944" />
    <ellipse
       ry="2.5607944"
       rx="2.453789"
       cy="21.041758"
       cx="54.398132"
       id="ellipse4225"
       style="fill:none;fill-rule:evenodd;stroke:#000000;stroke-width:1.09511;stroke-linecap:butt;stroke-linejoin:miter;stroke-miterlimit:4;stroke-dasharray:none;stroke-opacity:1" />
    <ellipse
       style="fill:none;fill-rule:evenodd;stroke:#000000;stroke-width:1.09511;stroke-linecap:butt;stroke-linejoin:miter;stroke-miterlimit:4;stroke-dasharray:none;stroke-opacity:1"
       id="ellipse4227"
       cx="46.99263"
       cy="28.447227"
       rx="2.453789"
       ry="2.5607944" />
    <g
       style="stroke:#000000;stroke-opacity:1"
       id="g4231"
       transform="matrix(0.14982212,0,0,0.14982149,-8.7625891,-27.939911)">
      <ellipse
         style="fill:none;fill-rule:evenodd;stroke:#000000;stroke-width:7.30949;stroke-linecap:butt;stroke-linejoin:miter;stroke-miterlimit:4;stroke-dasharray:none;stroke-opacity:1"
         id="ellipse4229"
         cx="372.14288"
         cy="276.64792"
         rx="16.378016"
         ry="17.092304" />
    </g>
    <g
       style="stroke:#000000;stroke-opacity:1"
       id="g4248"
       transform="matrix(0.14982212,0,0,0.14982149,-8.7625891,23.898328)">
      <circle
         style="fill:none;fill-rule:evenodd;stroke:#000000;stroke-width:10;stroke-linecap:butt;stroke-linejoin:miter;stroke-miterlimit:4;stroke-dasharray:none;stroke-opacity:1"
         id="circle4250"
         cx="371.42859"
         cy="330.93365"
         r="70" />
    </g>
    <ellipse
       ry="2.5607944"
       rx="2.453789"
       cy="73.47934"
       cx="39.159061"
       id="ellipse4252"
       style="fill:none;fill-rule:evenodd;stroke:#000000;stroke-width:1.09511;stroke-linecap:butt;stroke-linejoin:miter;stroke-miterlimit:4;stroke-dasharray:none;stroke-opacity:1" />
    <ellipse
       style="fill:none;fill-rule:evenodd;stroke:#000000;stroke-width:1.09511;stroke-linecap:butt;stroke-linejoin:miter;stroke-miterlimit:4;stroke-dasharray:none;stroke-opacity:1"
       id="ellipse4254"
       cx="54.398132"
       cy="73.47934"
       rx="2.453789"
       ry="2.5607944" />
    <ellipse
       ry="2.5607944"
       rx="2.453789"
       cy="80.884766"
       cx="46.99263"
       id="ellipse4256"
       style="fill:none;fill-rule:evenodd;stroke:#000000;stroke-width:1.09511;stroke-linecap:butt;stroke-linejoin:miter;stroke-miterlimit:4;stroke-dasharray:none;stroke-opacity:1" />
    <g
       style="stroke:#000000;stroke-opacity:1"
       id="g4258"
       transform="matrix(0.14982212,0,0,0.14982149,-8.7625891,24.497616)">
      <ellipse
         ry="17.092304"
         rx="16.378016"
         cy="276.64792"
         cx="372.14288"
         id="ellipse4260"
         style="fill:none;fill-rule:evenodd;stroke:#000000;stroke-width:7.30949;stroke-linecap:butt;stroke-linejoin:miter;stroke-miterlimit:4;stroke-dasharray:none;stroke-opacity:1" />
    </g>
    <path
       style="fill:none;fill-rule:evenodd;stroke:#000000;stroke-width:2.69679;stroke-linecap:butt;stroke-linejoin:miter;stroke-miterlimit:4;stroke-dasharray:none;stroke-opacity:1"
       d="m 20.987806,9.4841307 c 0,0 7.87856,-4.4042267 12.146293,-5.7788226 4.192511,-1.3503919 8.598087,-2.3043239 13.002411,-2.3543459 5.037421,-0.05723 10.121544,0.847729 14.928708,2.3543459 4.217054,1.3216529 11.932253,5.7788226 11.932253,5.7788226 l 5.778867,-1.2841919 8.133203,8.1331682 -1.712256,5.992862 c 0,0 4.673194,8.365291 5.885867,12.948857 1.108533,4.18993 1.353814,8.618382 1.177176,12.948857 -0.203645,4.992446 -0.899899,10.058323 -2.568374,14.768127 -1.418444,4.003972 -3.650238,7.737385 -6.206926,11.129589 -2.520201,3.343792 -5.573671,6.310124 -8.860917,8.903684 -2.729986,2.1539 -5.731686,4.01139 -8.903704,5.43636 -3.232056,1.45197 -6.692758,2.40524 -10.166497,3.10347 -2.720587,0.54681 -5.508149,0.80936 -8.28303,0.83471 -2.738017,0.0251 -5.49219,-0.18741 -8.186703,-0.6742 -2.775954,-0.50157 -5.521145,-1.26229 -8.143913,-2.30082 -2.951976,-1.16892 -5.806472,-2.63552 -8.454241,-4.38763 -3.549916,-2.34913 -6.979039,-4.98615 -9.845459,-8.133172 C 9.7357682,73.714606 7.1993112,70.105919 5.3634992,66.202269 3.6723493,62.606222 2.6928753,58.672464 2.046007,54.751622 1.4008081,50.840896 1.1577133,46.820727 1.5109282,42.872918 1.8695089,38.86497 2.9029003,34.915034 4.1863223,31.101232 5.2606733,27.908659 8.3599332,21.897911 8.3599332,21.897911 L 6.9473322,15.648203 14.35282,8.1999388 Z"
       id="path4271"
       inkscape:connector-curvature="0"
       sodipodi:nodetypes="caaaccccaaaaaaaaaaaaaaaacccc" />
  </g>
</svg>
