<?xml version="1.0" encoding="UTF-8" standalone="no"?>
<!-- Created with Inkscape (http://www.inkscape.org/) -->

<svg
   width="100"
   height="100"
   viewBox="0 0 93.750001 93.750002"
   id="svg2"
   version="1.1"
   inkscape:version="1.2.1 (9c6d41e410, 2022-07-14)"
   sodipodi:docname="Chademo_type4.svg"
   inkscape:export-filename="/Users/sss/Desktop/Plug/chademo type4.png"
   inkscape:export-xdpi="600"
   inkscape:export-ydpi="600"
   xmlns:inkscape="http://www.inkscape.org/namespaces/inkscape"
   xmlns:sodipodi="http://sodipodi.sourceforge.net/DTD/sodipodi-0.dtd"
   xmlns="http://www.w3.org/2000/svg"
   xmlns:svg="http://www.w3.org/2000/svg"
   xmlns:rdf="http://www.w3.org/1999/02/22-rdf-syntax-ns#"
   xmlns:cc="http://creativecommons.org/ns#"
   xmlns:dc="http://purl.org/dc/elements/1.1/">
  <defs
     id="defs4" />
  <sodipodi:namedview
     id="base"
     pagecolor="#ffffff"
     bordercolor="#666666"
     borderopacity="1.0"
     inkscape:pageopacity="0.0"
     inkscape:pageshadow="2"
     inkscape:zoom="3.959798"
     inkscape:cx="-0.63134534"
     inkscape:cy="66.038722"
     inkscape:document-units="px"
     inkscape:current-layer="layer1"
     showgrid="true"
     inkscape:snap-grids="false"
     inkscape:snap-to-guides="true"
     inkscape:window-width="1368"
     inkscape:window-height="860"
     inkscape:window-x="-6"
     inkscape:window-y="-6"
     inkscape:window-maximized="1"
     inkscape:showpageshadow="2"
     inkscape:pagecheckerboard="0"
     inkscape:deskcolor="#d1d1d1">
    <inkscape:grid
       type="xygrid"
       id="grid4211"
       originx="0"
       originy="0" />
  </sodipodi:namedview>
  <metadata
     id="metadata7">
    <rdf:RDF>
      <cc:Work
         rdf:about="">
        <dc:format>image/svg+xml</dc:format>
        <dc:type
           rdf:resource="http://purl.org/dc/dcmitype/StillImage" />
      </cc:Work>
    </rdf:RDF>
  </metadata>
  <g
     inkscape:label="Layer 1"
     inkscape:groupmode="layer"
     id="layer1">
    <path
       style="color:#000000;fill:#000000;fill-rule:evenodd;-inkscape-stroke:none"
       d="m 67.966797,31.609375 c -8.485547,0 -15.222656,7.242069 -15.222656,15.757812 0,8.515744 6.737109,15.757813 15.222656,15.757813 8.485547,0 15.222656,-7.242069 15.222656,-15.757813 0,-8.515743 -6.737109,-15.757812 -15.222656,-15.757812 z m 0,9.738281 c 2.950543,0 5.484375,2.508203 5.484375,6.019531 0,3.511329 -2.533832,6.019532 -5.484375,6.019532 -2.950543,0 -5.482422,-2.508203 -5.482422,-6.019532 0,-3.511328 2.531879,-6.019531 5.482422,-6.019531 z"
       id="path4213" />
    <path
       style="color:#000000;fill:#000000;fill-rule:evenodd;-inkscape-stroke:none"
       d="m 26.232422,31.609375 c -8.485547,0 -15.222656,7.242069 -15.222656,15.757812 0,8.515744 6.737109,15.757813 15.222656,15.757813 8.485547,0 15.222656,-7.242069 15.222656,-15.757813 0,-8.515743 -6.737109,-15.757812 -15.222656,-15.757812 z m 0,9.738281 c 2.950543,0 5.484375,2.508203 5.484375,6.019531 0,3.511329 -2.533832,6.019532 -5.484375,6.019532 -2.950543,0 -5.484375,-2.508203 -5.484375,-6.019532 0,-3.511328 2.533832,-6.019531 5.484375,-6.019531 z"
       id="ellipse4215" />
    <path
       style="color:#000000;fill:#000000;fill-rule:evenodd;-inkscape-stroke:none"
       d="m 371.42773,255.93359 c -41.36209,0 -75,33.63791 -75,75 0,41.3621 33.63791,75 75,75 41.3621,0 75,-33.6379 75,-75 0,-41.36209 -33.6379,-75 -75,-75 z m 0,10 c 35.9577,0 65,29.04231 65,65 0,35.9577 -29.0423,65 -65,65 -35.95769,0 -65,-29.0423 -65,-65 0,-35.95769 29.04231,-65 65,-65 z"
       id="path4221"
       transform="matrix(0.14982212,0,0,0.14982149,-8.7625891,-28.539179)" />
    <path
       style="color:#000000;fill:#000000;fill-rule:evenodd;-inkscape-stroke:none"
       d="m 39.158203,17.933594 c -1.664014,0 -3,1.40958 -3,3.107422 0,1.697841 1.335986,3.109375 3,3.109375 1.664014,0 3.001953,-1.411534 3.001953,-3.109375 0,-1.697842 -1.337939,-3.107422 -3.001953,-3.107422 z m 0,1.095703 c 1.046364,0 1.90625,0.880987 1.90625,2.011719 0,1.130731 -0.859886,2.013671 -1.90625,2.013671 -1.046364,0 -1.90625,-0.88294 -1.90625,-2.013671 0,-1.130732 0.859886,-2.011719 1.90625,-2.011719 z"
       id="path4223" />
    <path
       style="color:#000000;fill:#000000;fill-rule:evenodd;-inkscape-stroke:none"
       d="m 54.398437,17.933594 c -1.664013,0 -3.001953,1.40958 -3.001953,3.107422 0,1.697841 1.33794,3.109375 3.001953,3.109375 1.664014,0 3.001954,-1.411534 3.001954,-3.109375 0,-1.697842 -1.33794,-3.107422 -3.001954,-3.107422 z m 0,1.095703 c 1.046364,0 1.90625,0.880987 1.90625,2.011719 0,1.130731 -0.859886,2.013671 -1.90625,2.013671 -1.046363,0 -1.906249,-0.88294 -1.90625,-2.013671 0,-1.130732 0.859887,-2.011719 1.90625,-2.011719 z"
       id="ellipse4225" />
    <path
       style="color:#000000;fill:#000000;fill-rule:evenodd;-inkscape-stroke:none"
       d="m 372.14258,255.90039 c -11.10663,0 -20.03321,9.41561 -20.03321,20.74805 0,11.33243 8.92658,20.74609 20.03321,20.74609 11.10663,0 20.0332,-9.41366 20.0332,-20.74609 0,-11.33244 -8.92657,-20.74805 -20.0332,-20.74805 z m 0,7.31055 c 6.98401,0 12.72265,5.89031 12.72265,13.4375 0,7.54718 -5.73864,13.4375 -12.72265,13.4375 -6.98401,0 -12.72266,-5.89032 -12.72266,-13.4375 0,-7.54719 5.73865,-13.4375 12.72266,-13.4375 z"
       id="ellipse4260"
       transform="matrix(0.14982212,0,0,0.14982149,-8.7625891,24.497616)" />
    <path
       style="color:#000000;fill:#000000;fill-rule:evenodd;-inkscape-stroke:none"
       d="m 46.992187,25.339844 c -1.664013,0 -3,1.40958 -3,3.107422 0,1.697841 1.335987,3.107422 3,3.107421 1.664014,0 3.001954,-1.40958 3.001954,-3.107421 0,-1.697842 -1.33794,-3.107422 -3.001954,-3.107422 z m 0,1.09375 c 1.046364,0 1.90625,0.88294 1.90625,2.013672 0,1.130731 -0.859886,2.013671 -1.90625,2.013671 -1.046363,0 -1.906249,-0.88294 -1.90625,-2.013671 0,-1.130732 0.859887,-2.013672 1.90625,-2.013672 z"
       id="ellipse4227" />
    <path
       style="color:#000000;fill:#000000;fill-rule:evenodd;-inkscape-stroke:none"
       d="m 372.14258,255.90039 c -11.10663,0 -20.03321,9.41561 -20.03321,20.74805 0,11.33243 8.92658,20.74609 20.03321,20.74609 11.10663,0 20.0332,-9.41366 20.0332,-20.74609 0,-11.33244 -8.92657,-20.74805 -20.0332,-20.74805 z m 0,7.31055 c 6.98401,0 12.72265,5.89031 12.72265,13.4375 0,7.54718 -5.73864,13.4375 -12.72265,13.4375 -6.98401,0 -12.72266,-5.89032 -12.72266,-13.4375 0,-7.54719 5.73865,-13.4375 12.72266,-13.4375 z"
       id="ellipse4229"
       transform="matrix(0.14982212,0,0,0.14982149,-8.7625891,-27.939911)" />
    <path
       style="color:#000000;fill:#000000;fill-rule:evenodd;-inkscape-stroke:none"
       d="m 39.158203,70.371094 c -1.664014,0 -3,1.40958 -3,3.107422 0,1.697841 1.335986,3.109375 3,3.109375 1.664014,0 3.001953,-1.411534 3.001953,-3.109375 0,-1.697842 -1.337939,-3.107422 -3.001953,-3.107422 z m 0,1.095703 c 1.046364,0 1.90625,0.880987 1.90625,2.011719 0,1.130731 -0.859886,2.013671 -1.90625,2.013671 -1.046364,0 -1.90625,-0.88294 -1.90625,-2.013671 0,-1.130732 0.859886,-2.011719 1.90625,-2.011719 z"
       id="ellipse4252" />
    <path
       style="color:#000000;fill:#000000;fill-rule:evenodd;-inkscape-stroke:none"
       d="m 371.42773,255.93359 c -41.36209,0 -75,33.63791 -75,75 0,41.3621 33.63791,75 75,75 41.3621,0 75,-33.6379 75,-75 0,-41.36209 -33.6379,-75 -75,-75 z m 0,10 c 35.9577,0 65,29.04231 65,65 0,35.9577 -29.0423,65 -65,65 -35.95769,0 -65,-29.0423 -65,-65 0,-35.95769 29.04231,-65 65,-65 z"
       id="circle4250"
       transform="matrix(0.14982212,0,0,0.14982149,-8.7625891,23.898328)" />
    <path
       style="color:#000000;fill:#000000;fill-rule:evenodd;-inkscape-stroke:none"
       d="m 54.398437,70.371094 c -1.664013,0 -3.001953,1.40958 -3.001953,3.107422 0,1.697841 1.33794,3.109375 3.001953,3.109375 1.664014,0 3.001954,-1.411534 3.001954,-3.109375 0,-1.697842 -1.33794,-3.107422 -3.001954,-3.107422 z m 0,1.095703 c 1.046364,0 1.90625,0.880987 1.90625,2.011719 0,1.130731 -0.859886,2.013671 -1.90625,2.013671 -1.046363,0 -1.90625,-0.88294 -1.90625,-2.013671 0,-1.130732 0.859887,-2.011719 1.90625,-2.011719 z"
       id="ellipse4254" />
    <path
       style="color:#000000;fill:#000000;fill-rule:evenodd;-inkscape-stroke:none"
       d="m 46.992187,77.777344 c -1.664013,0 -2.999999,1.40958 -3,3.107422 0,1.697841 1.335987,3.107421 3,3.107421 1.664014,0 3.001954,-1.40958 3.001954,-3.107421 0,-1.697842 -1.33794,-3.107422 -3.001954,-3.107422 z m 0,1.09375 c 1.046364,0 1.90625,0.88294 1.90625,2.013672 0,1.130731 -0.859886,2.013671 -1.90625,2.013671 -1.046363,0 -1.90625,-0.88294 -1.90625,-2.013671 0,-1.130732 0.859887,-2.013672 1.90625,-2.013672 z"
       id="ellipse4256" />
    <path
       style="color:#000000;fill:#000000;fill-rule:evenodd;-inkscape-stroke:none"
       d="M 46.121094,0.00195313 C 41.532323,0.05406997 36.999207,1.0437852 32.720703,2.421875 28.343659,3.8316789 21.487175,7.6685291 20.775391,8.0683594 l -6.871094,-1.328125 -8.435547,8.4824216 1.4707031,6.50586 c -0.360654,0.697888 -2.9466686,5.720385 -4.03125,8.943359 -1.3033987,3.873165 -2.36817109,7.921432 -2.74023435,12.080078 -0.36534899,4.083429 -0.11362795,8.215262 0.546875,12.21875 0.65887445,3.993614 1.66075245,8.047392 3.42773435,11.804688 1.9031698,4.046878 4.5193118,7.762447 7.5019529,11.037109 2.974409,3.265583 6.493724,5.964735 10.097656,8.349609 2.730922,1.807135 5.666894,3.314115 8.701172,4.515625 2.71265,1.07412 5.542753,1.858671 8.400391,2.375 2.785137,0.503162 5.623389,0.721128 8.439453,0.695313 2.851673,-0.02605 5.723826,-0.295887 8.537109,-0.861328 3.536567,-0.710859 7.094113,-1.686309 10.453125,-3.195313 3.281507,-1.474156 6.374181,-3.389315 9.185547,-5.607422 3.360973,-2.651729 6.498933,-5.69464 9.103516,-9.15039 2.615891,-3.470755 4.921387,-7.317267 6.400391,-11.492188 1.73067,-4.88537 2.437299,-10.081729 2.644531,-15.162109 0.180235,-4.418663 -0.06466,-8.980118 -1.220703,-13.34961 -1.257018,-4.751175 -5.291916,-11.950944 -5.744141,-12.753906 l 1.78125,-6.234375 -9.216797,-9.2187498 -6.005859,1.3359376 C 72.456913,7.625954 65.81677,3.7806674 61.46875,2.4179688 56.54973,0.87629503 51.330274,-0.05722823 46.121094,0.00195313 Z m 0.03125,2.69726567 c 4.865651,-0.055279 9.814467,0.8214116 14.509765,2.2929687 3.839361,1.2032813 11.660157,5.6601565 11.660157,5.6601565 l 0.455078,0.261719 5.568359,-1.2363286 7.048828,7.0468746 -1.648437,5.769532 0.273437,0.490234 c 0,0 4.662419,8.487099 5.759766,12.634766 1.061024,4.01036 1.305853,8.306549 1.132812,12.548828 -0.200057,4.904502 -0.883958,9.838818 -2.490234,14.373047 -1.357881,3.833015 -3.516192,7.455885 -6.013672,10.769531 -2.435813,3.231827 -5.405628,6.120864 -8.619141,8.65625 -2.6486,2.089688 -5.55857,3.889843 -8.621093,5.265625 -3.105094,1.394933 -6.468002,2.324165 -9.878907,3.009765 -2.627885,0.528178 -5.333166,0.783946 -8.03125,0.808594 -2.659964,0.02438 -5.32971,-0.181927 -7.933593,-0.652344 -2.694264,-0.486809 -5.353837,-1.223624 -7.886719,-2.226562 -2.869668,-1.136328 -5.64242,-2.562683 -8.207031,-4.259766 -3.495893,-2.31338 -6.835325,-4.88756 -9.59375,-7.916015 C 10.809774,72.892372 8.352435,69.38932 6.5839844,65.628906 4.9686699,62.194115 4.011814,58.379312 3.3769531,54.53125 2.7470596,50.713294 2.5124355,46.804368 2.8535156,42.992187 3.198613,39.134946 4.2014011,35.285682 5.4648437,31.53125 6.4523499,28.596748 9.5585938,22.515625 9.5585938,22.515625 l 0.2246093,-0.435547 -1.3574218,-6.005859 6.3769527,-6.4140627 6.41211,1.2421877 0.43164,-0.242188 c 0,0 7.971727,-4.4064896 11.900391,-5.6718748 4.10651,-1.3226913 8.3856,-2.2411354 12.605469,-2.2890624 z"
       id="path4271" />
  </g>
</svg>
