<?xml version="1.0" encoding="UTF-8" standalone="no"?>
<!-- Created with Inkscape (http://www.inkscape.org/) -->

<svg
   width="100"
   height="100"
   viewBox="0 0 93.750001 93.750002"
   id="svg2"
   version="1.1"
   inkscape:version="1.2.1 (9c6d41e410, 2022-07-14)"
   sodipodi:docname="Chademo_type4_cable_attached.svg"
   inkscape:export-filename="/Users/sss/Desktop/Plug/chademo type4.png"
   inkscape:export-xdpi="600"
   inkscape:export-ydpi="600"
   xml:space="preserve"
   xmlns:inkscape="http://www.inkscape.org/namespaces/inkscape"
   xmlns:sodipodi="http://sodipodi.sourceforge.net/DTD/sodipodi-0.dtd"
   xmlns="http://www.w3.org/2000/svg"
   xmlns:svg="http://www.w3.org/2000/svg"
   xmlns:rdf="http://www.w3.org/1999/02/22-rdf-syntax-ns#"
   xmlns:cc="http://creativecommons.org/ns#"
   xmlns:dc="http://purl.org/dc/elements/1.1/"><defs
     id="defs4" /><sodipodi:namedview
     id="base"
     pagecolor="#ffffff"
     bordercolor="#666666"
     borderopacity="1.0"
     inkscape:pageopacity="0.0"
     inkscape:pageshadow="2"
     inkscape:zoom="2.8"
     inkscape:cx="-77.678571"
     inkscape:cy="88.392857"
     inkscape:document-units="px"
     inkscape:current-layer="layer1"
     showgrid="true"
     inkscape:snap-grids="false"
     inkscape:snap-to-guides="true"
     inkscape:window-width="1368"
     inkscape:window-height="860"
     inkscape:window-x="-6"
     inkscape:window-y="-6"
     inkscape:window-maximized="1"
     inkscape:showpageshadow="2"
     inkscape:pagecheckerboard="0"
     inkscape:deskcolor="#d1d1d1"><inkscape:grid
       type="xygrid"
       id="grid4211"
       originx="0"
       originy="0" /></sodipodi:namedview><metadata
     id="metadata7"><rdf:RDF><cc:Work
         rdf:about=""><dc:format>image/svg+xml</dc:format><dc:type
           rdf:resource="http://purl.org/dc/dcmitype/StillImage" /></cc:Work></rdf:RDF></metadata><g
     inkscape:label="Layer 1"
     inkscape:groupmode="layer"
     id="layer1"><ellipse
       style="fill:none;fill-rule:evenodd;stroke:#000000;stroke-width:6.29537;stroke-linecap:butt;stroke-linejoin:miter;stroke-miterlimit:4;stroke-dasharray:none;stroke-opacity:1"
       id="path4213"
       cx="76.633781"
       cy="43.069653"
       rx="6.6929507"
       ry="7.0388212" /><ellipse
       ry="7.0388212"
       rx="6.6929507"
       cy="43.069653"
       cx="49.653576"
       id="ellipse4215"
       style="fill:none;fill-rule:evenodd;stroke:#000000;stroke-width:6.29537;stroke-linecap:butt;stroke-linejoin:miter;stroke-miterlimit:4;stroke-dasharray:none;stroke-opacity:1" /><g
       style="stroke:#000000;stroke-opacity:1"
       id="g4234"
       transform="matrix(0.096852,0,0,0.09685159,27.031699,-5.9999914)"><circle
         r="70"
         cy="330.93365"
         cx="371.42859"
         id="path4221"
         style="fill:none;fill-rule:evenodd;stroke:#000000;stroke-width:10;stroke-linecap:butt;stroke-linejoin:miter;stroke-miterlimit:4;stroke-dasharray:none;stroke-opacity:1" /></g><ellipse
       style="fill:none;fill-rule:evenodd;stroke:#000000;stroke-width:0.707931;stroke-linecap:butt;stroke-linejoin:miter;stroke-miterlimit:4;stroke-dasharray:none;stroke-opacity:1"
       id="path4223"
       cx="58.01049"
       cy="26.051435"
       rx="1.5862436"
       ry="1.6554168" /><ellipse
       ry="1.6554168"
       rx="1.5862436"
       cy="26.051435"
       cx="67.861748"
       id="ellipse4225"
       style="fill:none;fill-rule:evenodd;stroke:#000000;stroke-width:0.707931;stroke-linecap:butt;stroke-linejoin:miter;stroke-miterlimit:4;stroke-dasharray:none;stroke-opacity:1" /><ellipse
       style="fill:none;fill-rule:evenodd;stroke:#000000;stroke-width:0.707931;stroke-linecap:butt;stroke-linejoin:miter;stroke-miterlimit:4;stroke-dasharray:none;stroke-opacity:1"
       id="ellipse4227"
       cx="63.074478"
       cy="30.838675"
       rx="1.5862436"
       ry="1.6554168" /><g
       style="stroke:#000000;stroke-opacity:1"
       id="g4231"
       transform="matrix(0.096852,0,0,0.09685159,27.031699,-5.6125966)"><ellipse
         style="fill:none;fill-rule:evenodd;stroke:#000000;stroke-width:7.30949;stroke-linecap:butt;stroke-linejoin:miter;stroke-miterlimit:4;stroke-dasharray:none;stroke-opacity:1"
         id="ellipse4229"
         cx="372.14288"
         cy="276.64792"
         rx="16.378016"
         ry="17.092304" /></g><g
       style="stroke:#000000;stroke-opacity:1"
       id="g4248"
       transform="matrix(0.096852,0,0,0.09685159,27.031699,27.898057)"><circle
         style="fill:none;fill-rule:evenodd;stroke:#000000;stroke-width:10;stroke-linecap:butt;stroke-linejoin:miter;stroke-miterlimit:4;stroke-dasharray:none;stroke-opacity:1"
         id="circle4250"
         cx="371.42859"
         cy="330.93365"
         r="70" /></g><ellipse
       ry="1.6554168"
       rx="1.5862436"
       cy="59.949532"
       cx="58.01049"
       id="ellipse4252"
       style="fill:none;fill-rule:evenodd;stroke:#000000;stroke-width:0.707931;stroke-linecap:butt;stroke-linejoin:miter;stroke-miterlimit:4;stroke-dasharray:none;stroke-opacity:1" /><ellipse
       style="fill:none;fill-rule:evenodd;stroke:#000000;stroke-width:0.707931;stroke-linecap:butt;stroke-linejoin:miter;stroke-miterlimit:4;stroke-dasharray:none;stroke-opacity:1"
       id="ellipse4254"
       cx="67.861748"
       cy="59.949532"
       rx="1.5862436"
       ry="1.6554168" /><ellipse
       ry="1.6554168"
       rx="1.5862436"
       cy="64.736755"
       cx="63.074478"
       id="ellipse4256"
       style="fill:none;fill-rule:evenodd;stroke:#000000;stroke-width:0.707931;stroke-linecap:butt;stroke-linejoin:miter;stroke-miterlimit:4;stroke-dasharray:none;stroke-opacity:1" /><g
       style="stroke:#000000;stroke-opacity:1"
       id="g4258"
       transform="matrix(0.096852,0,0,0.09685159,27.031699,28.285465)"><ellipse
         ry="17.092304"
         rx="16.378016"
         cy="276.64792"
         cx="372.14288"
         id="ellipse4260"
         style="fill:none;fill-rule:evenodd;stroke:#000000;stroke-width:7.30949;stroke-linecap:butt;stroke-linejoin:miter;stroke-miterlimit:4;stroke-dasharray:none;stroke-opacity:1" /></g><path
       style="fill:none;fill-rule:evenodd;stroke:#000000;stroke-width:1.74333;stroke-linecap:butt;stroke-linejoin:miter;stroke-miterlimit:4;stroke-dasharray:none;stroke-opacity:1"
       d="m 46.263746,18.580047 c 0,0 5.093069,-2.847096 7.851931,-3.735699 2.710234,-0.872957 5.558204,-1.489623 8.405365,-1.521959 3.256423,-0.037 6.543037,0.548011 9.650612,1.521959 2.726101,0.854377 7.713565,3.735699 7.713565,3.735699 l 3.735729,-0.830161 5.257681,5.25766 -1.106881,3.874065 c 0,0 3.020969,5.407714 3.804898,8.370744 0.716608,2.708566 0.875168,5.571325 0.760982,8.370746 -0.131646,3.227349 -0.581737,6.502168 -1.660317,9.546805 -0.916948,2.588354 -2.359684,5.001806 -4.012446,7.194685 -1.629176,2.161583 -3.603081,4.079158 -5.72811,5.755757 -1.764791,1.392381 -3.705229,2.593149 -5.75577,3.514316 -2.089351,0.938621 -4.32651,1.554858 -6.572097,2.006226 -1.758714,0.353484 -3.560724,0.523209 -5.354536,0.539596 -1.769983,0.01623 -3.550408,-0.12115 -5.292268,-0.435835 -1.794506,-0.324238 -3.569125,-0.816003 -5.264605,-1.487355 -1.908295,-0.755645 -3.753573,-1.703723 -5.465215,-2.836369 -2.294831,-1.518587 -4.511576,-3.223279 -6.364563,-5.257662 -1.877795,-2.061644 -3.51748,-4.394468 -4.704234,-6.917968 -1.093238,-2.324653 -1.726413,-4.867617 -2.14458,-7.402232 -0.417088,-2.528076 -0.574239,-5.1269 -0.345901,-7.678948 0.231803,-2.590925 0.899834,-5.144348 1.729497,-7.609767 0.69451,-2.063828 2.698016,-5.949456 2.698016,-5.949456 l -0.91317,-4.040103 4.787253,-4.814905 z"
       id="path4271"
       inkscape:connector-curvature="0"
       sodipodi:nodetypes="caaaccccaaaaaaaaaaaaaaaacccc" /><path
       style="fill:#000000;stroke-width:1.33434"
       d="M 44.988111,93.113801 C 28.437907,89.637632 24.494652,76.136374 27.073931,33.635096 28.247919,14.290172 28.151662,11.656739 26.159478,8.6162701 23.257697,4.1875937 17.63075,3.9504802 16.764577,8.2203761 c -0.334958,1.651244 -0.909186,9.3862309 -1.27604,17.1888599 -0.369388,7.856561 -1.534538,16.262905 -2.611288,18.839919 -2.104623,5.03709 -6.7441748,9.005108 -10.5290956,9.005108 -3.2244707,0 -3.08750685,-4.838929 0.1609886,-5.688435 5.3913918,-1.409879 7.1446756,-6.852095 8.043671,-24.96764 0.702053,-14.1472109 1.296406,-17.686622 3.351314,-19.9572642 4.304693,-4.7566415 13.522069,-2.80500429 16.948989,3.5886884 1.880413,3.5083339 1.952278,6.3784348 1.077239,43.0216388 -0.674362,28.239557 2.152298,34.329457 13.459817,38.709072 9.508487,3.682816 15.48965,-7.603646 15.749564,-10.020403 0.103907,-0.96616 0.762827,-5.079848 -0.769018,-5.536082 0.259912,-0.40552 7.34029,-1.037015 7.485806,-0.562453 0.134729,2.761211 -0.438541,5.337873 -1.094338,7.989814 -2.231956,6.71492 -10.395745,15.672481 -21.774071,13.282602 z"
       id="path174"
       sodipodi:nodetypes="sssssssssssssscccss" /></g></svg>
