<?xml version="1.0" encoding="UTF-8" standalone="no"?>
<!-- Created with Inkscape (http://www.inkscape.org/) -->

<svg
   version="1.1"
   id="svg2"
   width="72"
   height="72"
   viewBox="0 0 72 72"
   sodipodi:docname="Type2_mennekes_cable_attached.svg"
   inkscape:version="1.2.1 (9c6d41e410, 2022-07-14)"
   xml:space="preserve"
   xmlns:inkscape="http://www.inkscape.org/namespaces/inkscape"
   xmlns:sodipodi="http://sodipodi.sourceforge.net/DTD/sodipodi-0.dtd"
   xmlns="http://www.w3.org/2000/svg"
   xmlns:svg="http://www.w3.org/2000/svg"><defs
     id="defs6" /><sodipodi:namedview
     id="namedview4"
     pagecolor="#ffffff"
     bordercolor="#000000"
     borderopacity="0.25"
     inkscape:showpageshadow="2"
     inkscape:pageopacity="0.0"
     inkscape:pagecheckerboard="0"
     inkscape:deskcolor="#d1d1d1"
     showgrid="false"
     inkscape:zoom="2.1954292"
     inkscape:cx="-58.075205"
     inkscape:cy="45.776926"
     inkscape:window-width="1368"
     inkscape:window-height="860"
     inkscape:window-x="-6"
     inkscape:window-y="-6"
     inkscape:window-maximized="1"
     inkscape:current-layer="g8" /><g
     inkscape:groupmode="layer"
     inkscape:label="Image"
     id="g8"><path
       id="path359"
       style="color:#000000;display:inline;fill:#000000;fill-rule:evenodd;stroke-width:0.5509;stroke-linejoin:round;-inkscape-stroke:none"
       d="m 33.279425,2.3228349 c -0.391254,-7.43e-5 -0.776185,0.093627 -1.123754,0.2732822 0,0 -1.702954,0.8387707 -3.138028,2.0260539 -1.223608,1.0123242 -2.940527,2.5694911 -4.146346,4.393711 -0.949662,1.436706 -2.161783,3.215701 -2.949558,5.310148 -0.840127,2.233647 -1.413901,4.649503 -1.505405,7.138306 -0.113711,3.093118 0.214216,6.330625 1.295733,9.392884 1.317936,3.731657 3.438137,7.201088 6.099366,10.099646 2.043596,2.225834 4.540264,3.876658 7.058208,5.157015 2.087525,1.06149 3.410788,1.32993 4.928495,1.863498 5.031718,1.768971 10.589669,0.888167 10.589668,0.888167 0.08652,-0.01154 0.171996,-0.02641 0.256791,-0.04712 0,0 3.726816,-0.832234 6.033402,-1.889412 1.945034,-0.891476 3.601448,-2.018237 5.107542,-3.185147 1.58325,-1.226692 3.050301,-2.669744 4.202884,-3.988501 1.079487,-1.235116 1.88528,-2.248022 2.801138,-3.889553 0.891096,-1.597139 1.959542,-3.731015 2.558482,-6.214803 0.600115,-2.488647 0.797774,-5.462944 0.640799,-7.870985 -0.15648,-2.400473 -0.723218,-4.337484 -1.274529,-6.007492 C 70.12068,13.974341 69.401644,12.545786 68.60109,11.105541 67.764441,9.600336 66.612041,7.7781704 65.239254,6.2642125 63.579409,4.4336696 60.885594,2.7421767 60.885594,2.7421767 60.480783,2.4686274 60.003043,2.3227649 59.514473,2.3228305 Z m 5.206488,2.9707613 c 3.105987,0 5.604631,2.6195142 5.604631,5.7318498 0,3.112335 -2.498644,5.727136 -5.604631,5.727136 -3.105986,0 -5.606988,-2.614801 -5.606988,-5.727136 0,-3.1123356 2.501002,-5.7318498 5.606988,-5.7318498 z m 15.982272,0 c 3.105986,0 5.606986,2.6195142 5.606986,5.7318498 0,3.112335 -2.501,5.727136 -5.606986,5.727136 -3.105987,0 -5.606989,-2.614801 -5.606989,-5.727136 0,-3.1123356 2.501002,-5.7318498 5.606989,-5.7318498 z M 38.485913,8.881597 c -1.104676,0 -2.018987,0.909718 -2.018987,2.143849 0,1.234131 0.914311,2.139137 2.018987,2.139137 1.104677,0 2.018987,-0.905006 2.018987,-2.139137 0,-1.234131 -0.91431,-2.143849 -2.018987,-2.143849 z m 15.982272,0 c -1.104677,0 -2.018988,0.909718 -2.018988,2.143849 0,1.234131 0.914311,2.139137 2.018988,2.139137 1.104676,0 2.018986,-0.905006 2.018986,-2.139137 0,-1.234131 -0.91431,-2.143849 -2.018986,-2.143849 z M 30.0024,15.320211 c 3.830381,0 7.015801,3.084614 7.015801,6.893297 0,3.80868 -3.18542,6.890939 -7.015801,6.890939 -3.830382,0 -7.015803,-3.082259 -7.015803,-6.890939 0,-3.808683 3.185421,-6.893297 7.015803,-6.893297 z m 16.229638,0 c 3.830382,0 7.013447,3.084614 7.013447,6.893297 0,3.80868 -3.183065,6.890939 -7.013447,6.890939 -3.830381,0 -7.015804,-3.082259 -7.015804,-6.890939 0,-3.808683 3.185423,-6.893297 7.015804,-6.893297 z m 15.982271,0 c 3.830382,0 7.013446,3.084614 7.013446,6.893297 0,3.80868 -3.183064,6.890939 -7.013446,6.890939 -3.830382,0 -7.015803,-3.082259 -7.015803,-6.890939 0,-3.808683 3.185421,-6.893297 7.015803,-6.893297 z M 30.0024,18.90821 c -1.937251,0 -3.427802,1.482146 -3.427802,3.305298 0,1.823148 1.490551,3.302938 3.427802,3.302938 1.93725,0 3.427799,-1.47979 3.427799,-3.302938 0,-1.823152 -1.490549,-3.305298 -3.427799,-3.305298 z m 16.229638,0 c -1.93725,0 -3.430158,1.482146 -3.430158,3.305298 0,1.823148 1.492908,3.302938 3.430158,3.302938 1.937251,0 3.425444,-1.47979 3.425444,-3.302938 0,-1.823152 -1.488193,-3.305298 -3.425444,-3.305298 z m 15.982271,0 c -1.937251,0 -3.427802,1.482146 -3.427802,3.305298 0,1.823148 1.490551,3.302938 3.427802,3.302938 1.93725,0 3.427801,-1.47979 3.427801,-3.302938 0,-1.823152 -1.490551,-3.305298 -3.427801,-3.305298 z m -24.34328,10.179747 c 3.830381,0 7.015803,3.084616 7.015803,6.893296 0,3.808681 -3.185422,6.893296 -7.015803,6.893296 -3.830382,0 -7.015802,-3.084615 -7.015802,-6.893296 0,-3.80868 3.18542,-6.893296 7.015802,-6.893296 z m 16.719661,0 c 3.830381,0 7.015802,3.084616 7.015802,6.893296 0,3.808681 -3.185421,6.893296 -7.015802,6.893296 -3.830382,0 -7.015802,-3.084615 -7.015802,-6.893296 0,-3.80868 3.18542,-6.893296 7.015802,-6.893296 z m -16.719661,3.588 c -1.93725,0 -3.427801,1.482146 -3.427801,3.305296 0,1.823151 1.490551,3.305295 3.427801,3.305295 1.937251,0 3.427801,-1.482144 3.427801,-3.305295 0,-1.82315 -1.49055,-3.305296 -3.427801,-3.305296 z m 16.719661,0 c -1.93725,0 -3.427802,1.482146 -3.427802,3.305296 0,1.823151 1.490552,3.305295 3.427802,3.305295 1.937251,0 3.4278,-1.482144 3.4278,-3.305295 0,-1.82315 -1.490549,-3.305296 -3.4278,-3.305296 z" /><path
       style="fill:#000000;stroke-width:0.879455"
       d="M 27.090037,69.266212 C 17.226943,66.567726 15.38585,56.966112 15.720431,26.045621 15.782551,20.304701 15.641628,17.12377 15.752888,8.1088347 15.798014,4.4532121 10.735387,4.4750998 10.217577,7.5778488 10.017331,8.777735 9.6740572,14.398414 9.4547445,20.068246 9.2339164,25.777268 8.5373703,31.885792 7.8936759,33.758397 6.6354956,37.418632 3.8618996,40.302018 1.599216,40.302018 c -1.92763257,0 -1.84575715,-3.516241 0.09625,-4.133539 C 4.9185195,35.143981 5.9666582,31.18936 6.504088,18.025579 6.9237893,7.7454153 7.2791035,5.1734794 8.5075559,3.5235021 11.080972,0.06705759 17.84386,1.3713543 18.639922,6.1312464 c 0.45959,2.7480293 0.333443,4.6316056 0.643989,31.2619566 0.219335,18.808643 2.01198,25.621222 9.369251,27.816961 8.979744,2.709791 18.882658,-11.785201 15.396843,-17.1818 0.555702,-1.93695 4.129363,-4.685099 5.186579,0.807593 0.04141,11.40899 -10.900932,22.431284 -22.146547,20.430255 z"
       id="path174-7"
       sodipodi:nodetypes="cssssssssssscccc"
       transform="translate(-0.19545764,0.3135424)" /></g></svg>
