<?xml version="1.0" encoding="UTF-8" standalone="no"?>
<!-- Created with Inkscape (http://www.inkscape.org/) -->

<svg
   version="1.1"
   id="svg2"
   width="72"
   height="72"
   viewBox="0 0 72 72"
   sodipodi:docname="Type2_mennekes_cable_attached.svg"
   inkscape:version="1.2.1 (9c6d41e410, 2022-07-14)"
   xml:space="preserve"
   xmlns:inkscape="http://www.inkscape.org/namespaces/inkscape"
   xmlns:sodipodi="http://sodipodi.sourceforge.net/DTD/sodipodi-0.dtd"
   xmlns="http://www.w3.org/2000/svg"
   xmlns:svg="http://www.w3.org/2000/svg"><defs
     id="defs6" /><sodipodi:namedview
     id="namedview4"
     pagecolor="#ffffff"
     bordercolor="#000000"
     borderopacity="0.25"
     inkscape:showpageshadow="2"
     inkscape:pageopacity="0.0"
     inkscape:pagecheckerboard="0"
     inkscape:deskcolor="#d1d1d1"
     showgrid="false"
     inkscape:zoom="6.5555556"
     inkscape:cx="50.720339"
     inkscape:cy="43.550847"
     inkscape:window-width="1368"
     inkscape:window-height="860"
     inkscape:window-x="-6"
     inkscape:window-y="-6"
     inkscape:window-maximized="1"
     inkscape:current-layer="g8" /><g
     inkscape:groupmode="layer"
     inkscape:label="Image"
     id="g8"><path
       style="fill:#000000"
       d="M 33.715696,70.872159 C 21.351084,68.089081 18.357168,58.14867 20.290173,26.296696 21.170001,11.79892 21.097865,9.8253315 19.604845,7.5466959 17.430148,4.2276886 13.213111,4.0499865 12.563972,7.25 c -0.251033,1.2375 -0.68137,7.034375 -0.956305,12.881944 -0.276835,5.887987 -1.150043,12.188 -1.9569945,14.119307 C 8.0733876,38.026226 4.5963406,41 1.7597856,41 -0.65674139,41 -0.55410039,37.373533 1.8804466,36.736884 5.9209446,35.68027 7.2349166,31.60168 7.9086516,18.025243 8.4347996,7.4228193 8.8802296,4.7702588 10.420248,3.0685583 13.646344,-0.49623838 20.554172,0.96638802 23.122427,5.7580498 24.531675,8.3873197 24.585533,10.538276 23.929747,38 c -0.505391,21.163731 1.351736,26.504641 10.087267,29.009958 6.561414,1.881789 15.459199,-2.526799 14.776771,-7.321451 -0.277368,-1.948753 0.01808,-2.674738 -1.216543,-2.904234 C 48.273883,54.786604 52.250608,54.950589 53.237908,57 l -0.608913,3.807935 c -1.191747,7.45278 -9.90835,12.091095 -18.913299,10.064224 z"
       id="path174"
       sodipodi:nodetypes="ssssssssssssssccss" /><path
       id="path359"
       style="color:#000000;display:inline;fill:#000000;fill-rule:evenodd;stroke-linejoin:round;-inkscape-stroke:none"
       d="m 23.389299,4.8243406 c -0.710209,-1.356e-4 -1.408943,0.169954 -2.039854,0.4960651 0,0 -3.091229,1.5225494 -5.696196,3.6777241 -2.221112,1.8375862 -5.337686,4.6641772 -7.5265051,7.9755292 -1.7238433,2.607931 -3.9241016,5.83719 -5.354082,9.639059 -1.5250158,4.054551 -2.56653933,8.439848 -2.73263458,12.957562 -0.20641181,5.614672 0.38884683,11.49144 2.35203288,17.0501 2.3923391,6.77376 6.2409571,13.071525 11.0716598,18.333027 3.709567,4.04037 8.241553,7.036969 12.812165,9.361091 3.789305,1.926835 6.191313,2.414109 8.946277,3.382651 9.13365,3.211061 19.222524,1.612212 19.222523,1.612212 0.157055,-0.02095 0.31221,-0.04793 0.466131,-0.08553 0,0 6.76497,-1.510686 10.95192,-3.429691 3.530654,-1.618218 6.537401,-3.663532 9.271286,-5.781725 2.873942,-2.226711 5.536953,-4.846161 7.629139,-7.239985 1.959502,-2.242005 3.422188,-4.080648 5.084667,-7.060375 1.617529,-2.899151 3.556989,-6.772595 4.644196,-11.281204 1.089334,-4.517429 1.448129,-9.916417 1.163187,-14.287531 -0.284044,-4.357365 -1.312797,-7.873456 -2.313545,-10.904879 -1.077572,-3.264107 -2.382778,-5.857239 -3.835952,-8.471595 -1.518702,-2.73227 -3.610553,-6.039892 -6.102456,-8.78805 C 78.39028,8.6559662 73.500428,5.585544 73.500428,5.585544 72.765611,5.0889935 71.898409,4.8242216 71.011549,4.8243406 Z m 9.450896,5.3925694 c 5.638033,0 10.173611,4.754982 10.173611,10.404539 0,5.649557 -4.535578,10.395985 -10.173611,10.395985 -5.638032,0 -10.177888,-4.746428 -10.177888,-10.395985 0,-5.649557 4.539856,-10.404539 10.177888,-10.404539 z m 29.011256,0 c 5.638033,0 10.177887,4.754982 10.177887,10.404539 0,5.649557 -4.539854,10.395985 -10.177887,10.395985 -5.638032,0 -10.177888,-4.746428 -10.177888,-10.395985 0,-5.649557 4.539856,-10.404539 10.177888,-10.404539 z m -29.011256,6.512993 c -2.005224,0 -3.664895,1.651333 -3.664895,3.891546 0,2.240212 1.659671,3.882992 3.664895,3.882992 2.005226,0 3.664894,-1.64278 3.664894,-3.882992 0,-2.240213 -1.659668,-3.891546 -3.664894,-3.891546 z m 29.011256,0 c -2.005225,0 -3.664895,1.651333 -3.664895,3.891546 0,2.240212 1.65967,3.882992 3.664895,3.882992 2.005226,0 3.664894,-1.64278 3.664894,-3.882992 0,-2.240213 -1.659668,-3.891546 -3.664894,-3.891546 z M 17.440794,28.417368 c 6.952966,0 12.735189,5.599241 12.735189,12.512815 0,6.913574 -5.782223,12.508538 -12.735189,12.508538 -6.952966,0 -12.7351888,-5.594964 -12.7351888,-12.508538 0,-6.913574 5.7822228,-12.512815 12.7351888,-12.512815 z m 29.460281,0 c 6.952967,0 12.730912,5.599241 12.730912,12.512815 0,6.913574 -5.777945,12.508538 -12.730912,12.508538 -6.952964,0 -12.735189,-5.594964 -12.735189,-12.508538 0,-6.913574 5.782225,-12.512815 12.735189,-12.512815 z m 29.011256,0 c 6.952966,0 12.730912,5.599241 12.730912,12.512815 0,6.913574 -5.777946,12.508538 -12.730912,12.508538 -6.952967,0 -12.735189,-5.594964 -12.735189,-12.508538 0,-6.913574 5.782222,-12.512815 12.735189,-12.512815 z m -58.471537,6.512993 c -3.516525,0 -6.222196,2.690412 -6.222196,5.999822 0,3.30941 2.705671,5.995546 6.222196,5.995546 3.516526,0 6.222196,-2.686136 6.222196,-5.995546 0,-3.30941 -2.70567,-5.999822 -6.222196,-5.999822 z m 29.460281,0 c -3.516525,0 -6.226473,2.690412 -6.226473,5.999822 0,3.30941 2.709948,5.995546 6.226473,5.995546 3.516526,0 6.217919,-2.686136 6.217919,-5.995546 0,-3.30941 -2.701393,-5.999822 -6.217919,-5.999822 z m 29.011256,0 c -3.516527,0 -6.222196,2.690412 -6.222196,5.999822 0,3.30941 2.705669,5.995546 6.222196,5.995546 3.516525,0 6.222196,-2.686136 6.222196,-5.995546 0,-3.30941 -2.705671,-5.999822 -6.222196,-5.999822 z M 31.724048,53.408786 c 6.952966,0 12.735189,5.599242 12.735189,12.512815 0,6.913575 -5.782223,12.512815 -12.735189,12.512815 -6.952965,0 -12.735189,-5.59924 -12.735189,-12.512815 0,-6.913573 5.782224,-12.512815 12.735189,-12.512815 z m 30.349777,0 c 6.952965,0 12.735188,5.599242 12.735188,12.512815 0,6.913575 -5.782223,12.512815 -12.735188,12.512815 -6.952966,0 -12.735189,-5.59924 -12.735189,-12.512815 0,-6.913573 5.782223,-12.512815 12.735189,-12.512815 z m -30.349777,6.512993 c -3.516524,0 -6.222196,2.690413 -6.222196,5.999822 0,3.309411 2.705672,5.999822 6.222196,5.999822 3.516527,0 6.222196,-2.690411 6.222196,-5.999822 0,-3.309409 -2.705669,-5.999822 -6.222196,-5.999822 z m 30.349777,0 c -3.516526,0 -6.222196,2.690413 -6.222196,5.999822 0,3.309411 2.70567,5.999822 6.222196,5.999822 3.516525,0 6.222196,-2.690411 6.222196,-5.999822 0,-3.309409 -2.705671,-5.999822 -6.222196,-5.999822 z"
       transform="matrix(0.45671928,0,0,0.45671928,29.095,16.380615)" /></g></svg>
