<?xml version="1.0" encoding="UTF-8" standalone="no"?>
<svg
   version="1.1"
   id="svg2"
   viewBox="0 0 93.750001 93.750002"
   height="100"
   width="100"
   inkscape:version="1.2.1 (9c6d41e410, 2022-07-14)"
   sodipodi:docname="Type2_mennekes.svg"
   inkscape:export-filename="/Users/sss/Desktop/EV Plugs/type 2 mennekes.png"
   inkscape:export-xdpi="600"
   inkscape:export-ydpi="600"
   xmlns:inkscape="http://www.inkscape.org/namespaces/inkscape"
   xmlns:sodipodi="http://sodipodi.sourceforge.net/DTD/sodipodi-0.dtd"
   xmlns="http://www.w3.org/2000/svg"
   xmlns:svg="http://www.w3.org/2000/svg"
   xmlns:rdf="http://www.w3.org/1999/02/22-rdf-syntax-ns#"
   xmlns:cc="http://creativecommons.org/ns#"
   xmlns:dc="http://purl.org/dc/elements/1.1/">
  <sodipodi:namedview
     pagecolor="#ffffff"
     bordercolor="#666666"
     borderopacity="1"
     objecttolerance="10"
     gridtolerance="10"
     guidetolerance="10"
     inkscape:pageopacity="0"
     inkscape:pageshadow="2"
     inkscape:window-width="1368"
     inkscape:window-height="860"
     id="namedview18"
     showgrid="true"
     inkscape:zoom="2.5371827"
     inkscape:cx="103.85535"
     inkscape:cy="82.177764"
     inkscape:window-x="-6"
     inkscape:window-y="-6"
     inkscape:window-maximized="1"
     inkscape:current-layer="layer1"
     inkscape:showpageshadow="2"
     inkscape:pagecheckerboard="0"
     inkscape:deskcolor="#d1d1d1"
     inkscape:document-units="mm">
    <inkscape:grid
       type="xygrid"
       id="grid4146"
       originx="0"
       originy="0" />
  </sodipodi:namedview>
  <defs
     id="defs4" />
  <metadata
     id="metadata7">
    <rdf:RDF>
      <cc:Work
         rdf:about="">
        <dc:format>image/svg+xml</dc:format>
        <dc:type
           rdf:resource="http://purl.org/dc/dcmitype/StillImage" />
      </cc:Work>
    </rdf:RDF>
  </metadata>
  <g
     id="layer1">
    <path
       style="color:#000000;fill:#000000;fill-rule:evenodd;-inkscape-stroke:none"
       d="m 58.757812,51.453125 c -5.455074,0 -9.992187,4.392237 -9.992187,9.816406 0,5.42417 4.537113,9.816406 9.992187,9.816406 5.455075,0 9.990235,-4.392236 9.990235,-9.816406 0,-5.424169 -4.53516,-9.816406 -9.990235,-9.816406 z m 0,5.109375 c 2.758954,0 4.88086,2.110574 4.88086,4.707031 0,2.596458 -2.121906,4.707031 -4.88086,4.707031 -2.758953,0 -4.882812,-2.110573 -4.882812,-4.707031 0,-2.596457 2.123859,-4.707031 4.882812,-4.707031 z"
       id="ellipse4206" />
    <path
       style="color:#000000;fill:#000000;fill-rule:evenodd;-inkscape-stroke:none"
       d="m 34.945312,51.453125 c -5.455074,0 -9.992187,4.392237 -9.992187,9.816406 0,5.42417 4.537113,9.816406 9.992187,9.816406 5.455075,0 9.990235,-4.392236 9.990235,-9.816406 0,-5.424169 -4.53516,-9.816406 -9.990235,-9.816406 z m 0,5.109375 c 2.758954,0 4.88086,2.110574 4.88086,4.707031 0,2.596458 -2.121906,4.707031 -4.88086,4.707031 -2.758953,0 -4.882812,-2.110573 -4.882812,-4.707031 0,-2.596457 2.123859,-4.707031 4.882812,-4.707031 z"
       id="ellipse4208" />
    <path
       style="color:#000000;fill:#000000;fill-rule:evenodd;-inkscape-stroke:none"
       d="m 23.738281,31.84375 c -5.455075,0 -9.990234,4.392237 -9.990234,9.816406 0,5.42417 4.535159,9.814453 9.990234,9.814453 5.455075,0 9.992188,-4.390283 9.992188,-9.814453 0,-5.424169 -4.537113,-9.816406 -9.992188,-9.816406 z m 0,5.109375 c 2.758954,0 4.882813,2.110574 4.882813,4.707031 0,2.596458 -2.123859,4.705078 -4.882813,4.705078 -2.758954,0 -4.880859,-2.10862 -4.880859,-4.705078 0,-2.596457 2.121905,-4.707031 4.880859,-4.707031 z"
       id="ellipse4210" />
    <path
       style="color:#000000;fill:#000000;fill-rule:evenodd;-inkscape-stroke:none"
       d="m 46.851562,31.84375 c -5.455074,0 -9.992187,4.392237 -9.992187,9.816406 0,5.42417 4.537113,9.814453 9.992187,9.814453 5.455075,0 9.990235,-4.390283 9.990235,-9.814453 0,-5.424169 -4.53516,-9.816406 -9.990235,-9.816406 z m 0,5.109375 c 2.758954,0 4.88086,2.110574 4.88086,4.707031 0,2.596458 -2.121906,4.705078 -4.88086,4.705078 -2.758953,0 -4.882812,-2.10862 -4.882812,-4.705078 0,-2.596457 2.123859,-4.707031 4.882812,-4.707031 z"
       id="ellipse4212" />
    <path
       style="color:#000000;fill:#000000;fill-rule:evenodd;-inkscape-stroke:none"
       d="m 69.613281,31.84375 c -5.455075,0 -9.992187,4.392237 -9.992187,9.816406 0,5.42417 4.537112,9.814453 9.992187,9.814453 5.455075,0 9.990235,-4.390283 9.990235,-9.814453 0,-5.424169 -4.53516,-9.816406 -9.990235,-9.816406 z m 0,5.109375 c 2.758954,0 4.88086,2.110574 4.88086,4.707031 0,2.596458 -2.121906,4.705078 -4.88086,4.705078 -2.758954,0 -4.882812,-2.10862 -4.882812,-4.705078 0,-2.596457 2.123858,-4.707031 4.882812,-4.707031 z"
       id="ellipse4214" />
    <path
       style="color:#000000;fill:#000000;fill-rule:evenodd;-inkscape-stroke:none"
       d="m 58.582031,17.566406 c -4.42342,0 -7.984375,3.727695 -7.984375,8.160156 0,4.432462 3.560955,8.158204 7.984375,8.158204 4.423421,0 7.984375,-3.725742 7.984375,-8.158204 0,-4.432461 -3.560954,-8.160156 -7.984375,-8.160156 z m 0,5.109375 c 1.573236,0 2.875,1.293182 2.875,3.050781 0,1.7576 -1.301764,3.048829 -2.875,3.048829 -1.573236,0 -2.875,-1.291229 -2.875,-3.048829 0,-1.757599 1.301764,-3.050781 2.875,-3.050781 z"
       id="ellipse4216" />
    <path
       style="color:#000000;fill:#000000;fill-rule:evenodd;-inkscape-stroke:none"
       d="m 35.820312,17.566406 c -4.42342,0 -7.984375,3.727695 -7.984375,8.160156 0,4.432462 3.560955,8.158204 7.984375,8.158204 4.423421,0 7.982422,-3.725742 7.982422,-8.158204 0,-4.432461 -3.559001,-8.160156 -7.982422,-8.160156 z m 0,5.109375 c 1.573236,0 2.875,1.293182 2.875,3.050781 0,1.7576 -1.301764,3.048829 -2.875,3.048829 -1.573235,0 -2.875,-1.291229 -2.875,-3.048829 0,-1.757599 1.301765,-3.050781 2.875,-3.050781 z"
       id="ellipse4218" />
    <path
       style="color:#000000;fill:#000000;fill-rule:evenodd;stroke-linejoin:round;-inkscape-stroke:none"
       d="m 23.388672,4.8242187 a 4.4431041,4.4431041 0 0 0 -2.041016,0.4960938 c 0,0 -3.088389,1.5206044 -5.693359,3.6757813 -2.221114,1.8375882 -5.338523,4.6652062 -7.5273439,7.9765622 -1.723845,2.607933 -3.9254868,5.838753 -5.3554687,9.640625 -1.5250173,4.054555 -2.56632649,8.439312 -2.7324219,12.957031 -0.20641202,5.614677 0.38837451,11.492116 2.3515625,17.050782 2.3923415,6.773766 6.2415582,13.072476 11.072266,18.333984 3.70957,4.040374 8.243837,7.035251 12.814453,9.359375 3.789309,1.926837 6.190345,2.41427 8.945312,3.382813 9.133659,3.211064 19.222657,1.613281 19.222656,1.613281 a 4.4431041,4.4431041 0 0 0 0.466797,-0.08789 c 0,0 6.762265,-1.508727 10.949219,-3.427734 3.530658,-1.618219 6.539551,-3.663055 9.273438,-5.78125 2.873945,-2.226713 5.536718,-4.846409 7.628906,-7.240235 1.959504,-2.242008 3.423456,-4.082771 5.085937,-7.0625 1.61753,-2.899154 3.55537,-6.770682 4.642578,-11.279296 1.089335,-4.517433 1.449005,-9.915992 1.164063,-14.28711 C 93.372206,35.787162 92.342546,32.267754 91.341797,29.236328 90.264224,25.972218 88.957081,23.379984 87.503906,20.765625 85.985202,18.033352 83.894249,14.72863 81.402344,11.980469 78.389363,8.657635 73.501953,5.5859375 73.501953,5.5859375 A 4.4431041,4.4431041 0 0 0 71.013672,4.8242187 Z m 1.263672,8.8847653 h 44.832031 c 1.139981,0.832204 4.323164,3.123308 5.335937,4.240235 1.715853,1.892302 3.632941,4.824456 4.916016,7.132812 1.348618,2.426254 2.313369,4.350759 3.167969,6.939453 0.931407,2.82138 1.671465,5.399086 1.886719,8.701172 0.214358,3.288335 -0.152265,8.37061 -0.9375,11.626953 -0.787366,3.26518 -2.331503,6.467824 -3.761719,9.03125 -1.38525,2.482837 -2.154373,3.410861 -4.019531,5.544922 -1.73247,1.982246 -4.095863,4.295567 -6.378907,6.064453 -2.423083,1.877387 -4.84051,3.491516 -7.535156,4.726563 -1.981787,0.908313 -8.715756,2.692366 -9.101562,2.794922 -0.342354,0.03552 -8.897468,0.909025 -14.888672,-1.197266 C 34.86327,78.152646 33.293767,77.914457 30.304687,76.394531 26.383978,74.40088 22.740798,71.922013 20.007812,68.945312 15.984087,64.562752 12.737173,59.233365 10.769531,53.662109 9.2802787,49.445367 8.7435112,44.641959 8.9179688,39.896484 c 0.1232543,-3.35246 0.9224019,-6.839476 2.1699222,-10.15625 0.924953,-2.459161 2.72073,-5.249275 4.451172,-7.867187 1.190293,-1.800735 4.022484,-4.577791 5.779296,-6.03125 1.113883,-0.921551 2.61426,-1.729318 3.333985,-2.132813 z"
       id="path4231" />
  </g>
</svg>
