<?xml version="1.0" encoding="UTF-8" standalone="no"?>
<!-- Created with Inkscape (http://www.inkscape.org/) -->

<svg
   width="100"
   height="100"
   version="1.1"
   viewBox="0 0 26.458334 26.458334"
   id="svg24"
   sodipodi:docname="IEC_60309-2_16-20A_2P+E_socket.svg"
   inkscape:version="1.2.1 (9c6d41e410, 2022-07-14)"
   xmlns:inkscape="http://www.inkscape.org/namespaces/inkscape"
   xmlns:sodipodi="http://sodipodi.sourceforge.net/DTD/sodipodi-0.dtd"
   xmlns="http://www.w3.org/2000/svg"
   xmlns:svg="http://www.w3.org/2000/svg"
   xmlns:rdf="http://www.w3.org/1999/02/22-rdf-syntax-ns#"
   xmlns:cc="http://creativecommons.org/ns#"
   xmlns:dc="http://purl.org/dc/elements/1.1/">
  <defs
     id="defs28" />
  <sodipodi:namedview
     id="namedview26"
     pagecolor="#ffffff"
     bordercolor="#000000"
     borderopacity="0.25"
     inkscape:showpageshadow="2"
     inkscape:pageopacity="0.0"
     inkscape:pagecheckerboard="0"
     inkscape:deskcolor="#d1d1d1"
     inkscape:document-units="mm"
     showgrid="false"
     inkscape:zoom="4.8217504"
     inkscape:cx="29.138796"
     inkscape:cy="66.05485"
     inkscape:window-width="1368"
     inkscape:window-height="860"
     inkscape:window-x="-6"
     inkscape:window-y="-6"
     inkscape:window-maximized="1"
     inkscape:current-layer="svg24" />
  <metadata
     id="metadata2">
    <rdf:RDF>
      <cc:Work
         rdf:about="">
        <dc:format>image/svg+xml</dc:format>
        <dc:type
           rdf:resource="http://purl.org/dc/dcmitype/StillImage" />
      </cc:Work>
    </rdf:RDF>
  </metadata>
  <path
     id="path2946"
     d="M 13.250672,1.4677203 A 11.117947,11.117947 0 0 0 2.1326921,12.585702 11.117947,11.117947 0 0 0 13.250672,23.703683 11.117947,11.117947 0 0 0 24.368653,12.585702 11.117947,11.117947 0 0 0 13.250672,1.4677203 Z m 0,2.0831138 A 9.0348999,9.0348999 0 0 1 22.28554,12.585702 9.0348999,9.0348999 0 0 1 13.250672,21.620568 9.0348999,9.0348999 0 0 1 4.2158059,12.585702 9.0348999,9.0348999 0 0 1 13.250672,3.5508341 Z"
     style="stroke-width:0.501939;fill:#000000" />
  <path
     id="path2949"
     d="M 13.250672,0 C 6.2978477,1.512e-5 0.66147345,5.6363901 0.66145833,12.589215 0.66147397,19.542041 6.2978483,25.178415 13.250672,25.17843 20.203497,25.178415 25.839871,19.542041 25.839887,12.589215 25.839872,5.6363901 20.203498,1.512e-5 13.250672,0 Z m 0,1.0425238 c 6.37707,-1.98e-5 11.546711,5.1696217 11.546691,11.5466912 2e-5,6.37707 -5.169621,11.546711 -11.546691,11.546691 C 6.8736033,24.135926 1.7039621,18.966285 1.703982,12.589215 1.7039616,6.2121455 6.8736033,1.042504 13.250672,1.0425238 Z"
     sodipodi:nodetypes="cccccccccc"
     style="stroke-width:0.521294;fill:#000000" />
  <path
     style="color:#000000;fill:#000000;-inkscape-stroke:none"
     d="m 24.150391,28.199219 c -2.588629,0 -4.701172,2.112543 -4.701172,4.701172 0,2.588628 2.112543,4.699218 4.701172,4.699218 2.588628,0 4.699218,-2.11059 4.699218,-4.699218 0,-2.588629 -2.110589,-4.701172 -4.699218,-4.701172 z m 0,1.201172 c 1.940101,0 3.5,1.559898 3.5,3.5 -10e-7,1.940101 -1.559899,3.5 -3.5,3.5 -1.940102,0 -3.5,-1.559899 -3.5,-3.5 0,-1.940102 1.559898,-3.5 3.5,-3.5 z"
     id="path2937"
     transform="matrix(0.50193887,0,0,0.50193887,1.1288756,0.4639038)" />
  <path
     style="color:#000000;fill:#000000;-inkscape-stroke:none"
     d="m 31.728516,16.474609 c -1.8178,0 -3.300782,1.482982 -3.300782,3.300782 0,1.8178 1.482982,3.298828 3.300782,3.298828 1.8178,0 3.298828,-1.481028 3.298828,-3.298828 0,-1.8178 -1.481028,-3.300782 -3.298828,-3.300782 z m 0,0.800782 c 1.385448,0 2.5,1.114551 2.5,2.5 0,1.385448 -1.114552,2.5 -2.5,2.5 -1.385449,0 -2.5,-1.114552 -2.5,-2.5 0,-1.385449 1.114551,-2.5 2.5,-2.5 z"
     id="path2940"
     transform="matrix(0.50193887,0,0,0.50193887,1.1288756,0.4639038)" />
  <path
     style="color:#000000;fill:#000000;-inkscape-stroke:none"
     d="m 16.572266,16.474609 c -1.817801,0 -3.300782,1.482981 -3.300782,3.300782 0,1.8178 1.482981,3.298828 3.300782,3.298828 1.8178,0 3.298828,-1.481028 3.298828,-3.298828 0,-1.8178 -1.481028,-3.300782 -3.298828,-3.300782 z m 0,0.800782 c 1.385448,0 2.5,1.114551 2.5,2.5 0,1.385448 -1.114552,2.5 -2.5,2.5 -1.385449,0 -2.5,-1.114552 -2.5,-2.5 0,-1.385449 1.114551,-2.500001 2.5,-2.5 z"
     id="path2943"
     transform="matrix(0.50193887,0,0,0.50193887,1.1288756,0.4639038)" />
  <path
     id="path2952"
     d="m 10.766582,24.929783 c 0.466917,0.936194 1.422909,1.528027 2.469077,1.528551 1.04617,-5.03e-4 2.002162,-0.592357 2.469078,-1.528551 -0.798444,0.158785 -1.623979,0.242782 -2.469078,0.242784 -0.845186,-2e-6 -1.670556,-0.08396 -2.469077,-0.242784 z"
     sodipodi:nodetypes="cccsc"
     style="stroke-width:0.501939;fill:#000000" />
</svg>
