<?xml version="1.0" encoding="UTF-8" standalone="no"?>
<!-- Created with Inkscape (http://www.inkscape.org/) -->

<svg
   width="100"
   height="100"
   version="1.1"
   viewBox="0 0 26.458334 26.458334"
   id="svg28"
   sodipodi:docname="IEC_60309-2_125-100A_3P+N+E_socket.svg"
   inkscape:version="1.2.1 (9c6d41e410, 2022-07-14)"
   xmlns:inkscape="http://www.inkscape.org/namespaces/inkscape"
   xmlns:sodipodi="http://sodipodi.sourceforge.net/DTD/sodipodi-0.dtd"
   xmlns="http://www.w3.org/2000/svg"
   xmlns:svg="http://www.w3.org/2000/svg"
   xmlns:rdf="http://www.w3.org/1999/02/22-rdf-syntax-ns#"
   xmlns:cc="http://creativecommons.org/ns#"
   xmlns:dc="http://purl.org/dc/elements/1.1/">
  <defs
     id="defs32" />
  <sodipodi:namedview
     id="namedview30"
     pagecolor="#ffffff"
     bordercolor="#000000"
     borderopacity="0.25"
     inkscape:showpageshadow="2"
     inkscape:pageopacity="0.0"
     inkscape:pagecheckerboard="0"
     inkscape:deskcolor="#d1d1d1"
     inkscape:document-units="mm"
     showgrid="false"
     inkscape:zoom="5.4297101"
     inkscape:cx="59.211264"
     inkscape:cy="50.739357"
     inkscape:window-width="1368"
     inkscape:window-height="860"
     inkscape:window-x="-6"
     inkscape:window-y="-6"
     inkscape:window-maximized="1"
     inkscape:current-layer="svg28" />
  <metadata
     id="metadata2">
    <rdf:RDF>
      <cc:Work
         rdf:about="">
        <dc:format>image/svg+xml</dc:format>
        <dc:type
           rdf:resource="http://purl.org/dc/dcmitype/StillImage" />
      </cc:Work>
    </rdf:RDF>
  </metadata>
  <path
     id="path2495"
     d="M 13.213,1.1223276 A 11.693735,11.693795 0 0 0 1.5191802,12.816212 11.693735,11.693795 0 0 0 13.213,24.509949 11.693735,11.693795 0 0 0 24.906676,12.816212 11.693735,11.693795 0 0 0 13.213,1.1223276 Z m 0,1.6907119 A 10.003075,10.003126 0 0 1 23.215973,12.816212 10.003075,10.003126 0 0 1 13.213,22.819238 10.003075,10.003126 0 0 1 3.2098832,12.816212 10.003075,10.003126 0 0 1 13.213,2.8130395 Z"
     style="stroke-width:0.281779;fill:#000000" />
  <path
     id="path2498"
     d="M 13.203441,0 C 6.1305583,-3.0699877e-5 0.3968443,5.7337137 0.396875,12.806638 0.3969297,19.879501 6.1306184,25.613151 13.203441,25.613121 20.276209,25.613068 26.009805,19.87944 26.00986,12.806638 26.009891,5.7337724 20.276267,5.3400123e-5 13.203441,0 Z m 0,0.58877171 c 6.747667,3.46e-5 12.2177,5.47016319 12.21765,12.21786629 -3.3e-5,6.747644 -5.470042,12.217681 -12.21765,12.217713 C 6.4557779,25.024402 0.98567707,19.55434 0.98564497,12.806638 0.98559427,6.0588748 6.4557192,0.58872231 13.203441,0.58877171 Z"
     sodipodi:nodetypes="cccccccccc"
     style="stroke-width:0.294404;fill:#000000" />
  <path
     id="path2501"
     d="m 14.917915,25.476172 c -0.558152,0.0743 -1.12752,0.112841 -1.705993,0.112853 -0.571335,3e-6 -1.133917,-0.03758 -1.685459,-0.110082 0.351687,0.603567 0.996383,0.976097 1.694923,0.979391 0.699684,-0.0034 1.345249,-0.377036 1.696529,-0.982158 z"
     sodipodi:nodetypes="csccc"
     style="stroke-width:0.281779;fill:#000000" />
  <path
     style="color:#000000;fill:#000000;stroke-linecap:round;stroke-linejoin:bevel;-inkscape-stroke:none"
     d="m 13.212891,16.408203 c -1.318607,0 -2.394532,1.077874 -2.394532,2.396484 0,1.318611 1.075925,2.394531 2.394532,2.394532 1.318606,0 2.394531,-1.075921 2.394531,-2.394532 0,-1.31861 -1.075925,-2.396484 -2.394531,-2.396484 z m 0,0.705078 c 0.937896,0 1.691406,0.753503 1.691406,1.691406 0,0.937904 -0.75351,1.689454 -1.691406,1.689454 -0.937896,-10e-7 -1.691407,-0.75155 -1.691407,-1.689454 0,-0.937903 0.753511,-1.691406 1.691407,-1.691406 z"
     id="path2489" />
  <path
     style="color:#000000;fill:#000000;-inkscape-stroke:none"
     d="m 63.710937,43.566406 c -3.583924,0 -6.499999,2.916075 -6.5,6.5 0,3.583925 2.916076,6.5 6.5,6.5 3.583925,0 6.5,-2.916075 6.5,-6.5 0,-3.583925 -2.916075,-6.5 -6.5,-6.5 z m 0,1 c 3.043486,0 5.5,2.456515 5.5,5.5 0,3.043486 -2.456514,5.5 -5.5,5.5 -3.043485,0 -5.5,-2.456514 -5.5,-5.5 0,-3.043485 2.456515,-5.5 5.5,-5.5 z"
     id="path2465"
     transform="matrix(0.28177675,0,0,0.28177821,0.95566291,0.5588055)" />
  <path
     style="color:#000000;fill:#000000;-inkscape-stroke:none"
     d="m 55.990234,19.808594 c -3.583925,0 -6.5,2.916075 -6.5,6.5 0,3.583925 2.916075,6.5 6.5,6.5 3.583925,0 6.5,-2.916075 6.5,-6.5 0,-3.583925 -2.916075,-6.5 -6.5,-6.5 z m 0,1 c 3.043486,0 5.5,2.456514 5.5,5.5 0,3.043485 -2.456514,5.5 -5.5,5.5 -3.043485,0 -5.5,-2.456515 -5.5,-5.5 0,-3.043486 2.456515,-5.5 5.5,-5.5 z"
     id="path2468"
     transform="matrix(0.28177675,0,0,0.28177821,0.95566291,0.5588055)" />
  <path
     style="color:#000000;fill:#000000;-inkscape-stroke:none"
     d="m 31.009766,19.808594 c -3.583925,0 -6.5,2.916075 -6.5,6.5 0,3.583925 2.916075,6.5 6.5,6.5 3.583925,0 6.5,-2.916075 6.5,-6.5 0,-3.583925 -2.916075,-6.5 -6.5,-6.5 z m 0,1 c 3.043485,0 5.5,2.456514 5.5,5.5 0,3.043485 -2.456515,5.5 -5.5,5.5 -3.043486,0 -5.5,-2.456515 -5.5,-5.5 0,-3.043486 2.456514,-5.5 5.5,-5.5 z"
     id="path2471"
     transform="matrix(0.28177675,0,0,0.28177821,0.95566291,0.5588055)" />
  <path
     style="color:#000000;fill:#000000;-inkscape-stroke:none"
     d="m 23.289062,43.566406 c -3.583924,0 -6.499999,2.916075 -6.5,6.5 0,3.583925 2.916076,6.5 6.5,6.5 3.583925,0 6.5,-2.916075 6.5,-6.5 0,-3.583925 -2.916075,-6.5 -6.5,-6.5 z m 0,1 c 3.043486,0 5.500001,2.456515 5.5,5.5 0,3.043486 -2.456514,5.5 -5.5,5.5 -3.043485,0 -5.5,-2.456514 -5.5,-5.5 0,-3.043485 2.456515,-5.5 5.5,-5.5 z"
     id="path2474"
     transform="matrix(0.28177675,0,0,0.28177821,0.95566291,0.5588055)" />
  <path
     style="color:#000000;fill:#000000;-inkscape-stroke:none"
     d="m 63.710937,43.566406 c -3.583924,0 -6.499999,2.916075 -6.5,6.5 0,3.583925 2.916076,6.5 6.5,6.5 3.583925,0 6.5,-2.916075 6.5,-6.5 0,-3.583925 -2.916075,-6.5 -6.5,-6.5 z m 0,1 c 3.043486,0 5.5,2.456515 5.5,5.5 0,3.043486 -2.456514,5.5 -5.5,5.5 -3.043485,0 -5.5,-2.456514 -5.5,-5.5 0,-3.043485 2.456515,-5.5 5.5,-5.5 z"
     id="path2477"
     transform="matrix(0.28177675,0,0,0.28177821,0.94821999,0.55492547)" />
  <path
     style="color:#000000;fill:#000000;-inkscape-stroke:none"
     d="m 55.990234,19.808594 c -3.583925,0 -6.5,2.916075 -6.5,6.5 0,3.583925 2.916075,6.5 6.5,6.5 3.583925,0 6.5,-2.916075 6.5,-6.5 0,-3.583925 -2.916075,-6.5 -6.5,-6.5 z m 0,1 c 3.043486,0 5.5,2.456514 5.5,5.5 0,3.043485 -2.456514,5.5 -5.5,5.5 -3.043485,0 -5.5,-2.456515 -5.5,-5.5 0,-3.043486 2.456515,-5.5 5.5,-5.5 z"
     id="path2480"
     transform="matrix(0.28177675,0,0,0.28177821,0.94821999,0.55492547)" />
  <path
     style="color:#000000;fill:#000000;-inkscape-stroke:none"
     d="m 31.009766,19.808594 c -3.583925,0 -6.5,2.916075 -6.5,6.5 0,3.583925 2.916075,6.5 6.5,6.5 3.583925,0 6.5,-2.916075 6.5,-6.5 0,-3.583925 -2.916075,-6.5 -6.5,-6.5 z m 0,1 c 3.043485,0 5.5,2.456514 5.5,5.5 0,3.043485 -2.456515,5.5 -5.5,5.5 -3.043486,0 -5.5,-2.456515 -5.5,-5.5 0,-3.043486 2.456514,-5.5 5.5,-5.5 z"
     id="path2483"
     transform="matrix(0.28177675,0,0,0.28177821,0.94821999,0.55492547)" />
  <path
     style="color:#000000;fill:#000000;-inkscape-stroke:none"
     d="m 23.289062,43.566406 c -3.583924,0 -6.499999,2.916075 -6.5,6.5 0,3.583925 2.916076,6.5 6.5,6.5 3.583925,0 6.5,-2.916075 6.5,-6.5 0,-3.583925 -2.916075,-6.5 -6.5,-6.5 z m 0,1 c 3.043486,0 5.500001,2.456515 5.5,5.5 0,3.043486 -2.456514,5.5 -5.5,5.5 -3.043485,0 -5.5,-2.456514 -5.5,-5.5 0,-3.043485 2.456515,-5.5 5.5,-5.5 z"
     id="path2486"
     transform="matrix(0.28177675,0,0,0.28177821,0.94821999,0.55492547)" />
  <path
     style="color:#000000;fill:#000000;stroke-linecap:round;stroke-linejoin:bevel;-inkscape-stroke:none"
     d="m 13.205078,16.404297 c -1.318607,0 -2.394531,1.077874 -2.394531,2.396484 0,1.318611 1.075924,2.394532 2.394531,2.394531 1.318606,0 2.396485,-1.075921 2.396485,-2.394531 0,-1.31861 -1.077879,-2.396484 -2.396485,-2.396484 z m 0,0.705078 c 0.937896,0 1.691406,0.753503 1.691406,1.691406 0,0.937904 -0.75351,1.689453 -1.691406,1.689453 -0.937896,10e-7 -1.689453,-0.751549 -1.689453,-1.689453 0,-0.937903 0.751557,-1.691406 1.689453,-1.691406 z"
     id="path2492" />
</svg>
