<?xml version="1.0" encoding="UTF-8" standalone="no"?>
<svg
   version="1.0"
   width="100"
   height="100"
   xml:space="preserve"
   id="svg9"
   sodipodi:docname="BS1363.svg"
   inkscape:version="1.2.1 (9c6d41e410, 2022-07-14)"
   xmlns:inkscape="http://www.inkscape.org/namespaces/inkscape"
   xmlns:sodipodi="http://sodipodi.sourceforge.net/DTD/sodipodi-0.dtd"
   xmlns="http://www.w3.org/2000/svg"
   xmlns:svg="http://www.w3.org/2000/svg"><defs
   id="defs13" /><sodipodi:namedview
   id="namedview11"
   pagecolor="#ffffff"
   bordercolor="#000000"
   borderopacity="0.25"
   inkscape:showpageshadow="2"
   inkscape:pageopacity="0.0"
   inkscape:pagecheckerboard="0"
   inkscape:deskcolor="#d1d1d1"
   inkscape:document-units="mm"
   showgrid="false"
   inkscape:zoom="1.5610417"
   inkscape:cx="114.98732"
   inkscape:cy="149.5796"
   inkscape:window-width="1368"
   inkscape:window-height="860"
   inkscape:window-x="-6"
   inkscape:window-y="-6"
   inkscape:window-maximized="1"
   inkscape:current-layer="g7" />

<g
   style="fill:#000000"
   id="g7"
   transform="matrix(0.32464216,0,0,0.32464217,0.92023794,0.92023796)">
	<path
   id="path781"
   d="m 143.62204,94.48819 h 15.11811 v 30.23622 h -15.11811 z"
   style="fill:#000000" />
	<path
   style="color:#000000;-inkscape-stroke:none;fill:#000000"
   d="M 5.2148437,0 C 2.3524228,0 0,2.3524227 0,5.2148437 V 94.785156 C 0,97.647577 2.3524228,100 5.2148437,100 H 94.785156 C 97.647577,100 100,97.647577 100,94.785156 V 5.2148437 C 100,2.3524227 97.647577,0 94.785156,0 Z m 0,3.0683594 H 94.785156 c 1.216103,0 2.146485,0.9303814 2.146485,2.1464843 V 94.785156 c 0,1.216103 -0.930382,2.146485 -2.146485,2.146485 H 5.2148437 c -1.2161027,0 -2.1464843,-0.930382 -2.1464843,-2.146485 V 5.2148437 c 0,-1.2161029 0.9303816,-2.1464843 2.1464843,-2.1464843 z"
   id="path784"
   transform="matrix(3.0803146,0,0,3.0803146,-2.8346224,-2.8346224)" /><path
   id="path787"
   d="m 96.377953,188.97638 h 24.566927 v 15.11811 H 96.377953 Z"
   style="fill:#000000" />
	<path
   id="path790"
   d="m 181.41733,188.97638 h 24.56693 v 15.11811 h -24.56693 z"
   style="fill:#000000" />
</g>
</svg>
