<?xml version="1.0" encoding="UTF-8" standalone="no"?>
<!-- Created with Inkscape (http://www.inkscape.org/) -->

<svg
   width="100"
   height="100"
   viewBox="0 0 93.750001 93.750002"
   id="svg2"
   version="1.1"
   inkscape:version="1.2.1 (9c6d41e410, 2022-07-14)"
   sodipodi:docname="Tesla-hpwc-model-s.svg"
   inkscape:export-filename="/Users/sss/Desktop/EV Plugs/tesla-hpwc-model-s.png"
   inkscape:export-xdpi="600.09003"
   inkscape:export-ydpi="600.09003"
   xmlns:inkscape="http://www.inkscape.org/namespaces/inkscape"
   xmlns:sodipodi="http://sodipodi.sourceforge.net/DTD/sodipodi-0.dtd"
   xmlns="http://www.w3.org/2000/svg"
   xmlns:svg="http://www.w3.org/2000/svg"
   xmlns:rdf="http://www.w3.org/1999/02/22-rdf-syntax-ns#"
   xmlns:cc="http://creativecommons.org/ns#"
   xmlns:dc="http://purl.org/dc/elements/1.1/">
  <defs
     id="defs4" />
  <sodipodi:namedview
     id="base"
     pagecolor="#ffffff"
     bordercolor="#666666"
     borderopacity="1.0"
     inkscape:pageopacity="0.0"
     inkscape:pageshadow="2"
     inkscape:zoom="3.959798"
     inkscape:cx="74.246212"
     inkscape:cy="70.710678"
     inkscape:document-units="px"
     inkscape:current-layer="layer2"
     showgrid="true"
     inkscape:snap-grids="false"
     inkscape:window-width="1203"
     inkscape:window-height="851"
     inkscape:window-x="6"
     inkscape:window-y="0"
     inkscape:window-maximized="0"
     inkscape:showpageshadow="2"
     inkscape:pagecheckerboard="0"
     inkscape:deskcolor="#d1d1d1">
    <inkscape:grid
       type="xygrid"
       id="grid4198"
       originx="0"
       originy="0" />
  </sodipodi:namedview>
  <metadata
     id="metadata7">
    <rdf:RDF>
      <cc:Work
         rdf:about="">
        <dc:format>image/svg+xml</dc:format>
        <dc:type
           rdf:resource="http://purl.org/dc/dcmitype/StillImage" />
      </cc:Work>
    </rdf:RDF>
  </metadata>
  <g
     inkscape:groupmode="layer"
     id="layer2"
     inkscape:label="Layer 2">
    <path
       id="path4164"
       style="fill:#000000;fill-opacity:1;fill-rule:evenodd;stroke:#000000;stroke-width:0.185903px;stroke-linecap:butt;stroke-linejoin:miter;stroke-opacity:1"
       d="m 47.941604,57.461518 c -7.015722,0.0201 -15.409594,1.724082 -22.159231,5.258131 -2.407332,1.201201 -4.20786,3.10846 -6.384837,3.56805 -2.176988,0.45959 -5.016208,-2.312998 -6.009392,-0.563353 -1.569892,2.765613 5.633586,7.699463 5.633586,7.699463 l 10.328693,6.009043 10.891718,2.816799 14.835561,-0.187559 12.581789,-3.568061 9.765,-5.633586 c 0,0 6.470362,-4.856645 4.882676,-7.323996 -1.269667,-1.973131 -5.275189,1.451606 -6.948213,1.126717 -1.673012,-0.3249 -3.759721,-2.68024 -5.821484,-3.755619 C 61.748825,58.840568 57.382814,57.81745 47.941604,57.461518 Z m -0.281846,4.420072 a 6.9413587,6.8474641 0 0 1 6.94139,6.847441 6.9413587,6.8474641 0 0 1 -6.94139,6.847453 6.9413587,6.8474641 0 0 1 -6.941401,-6.847453 6.9413587,6.8474641 0 0 1 6.941401,-6.847441 z m -20.187303,2.156425 a 4.409357,4.315462 0 0 1 4.409171,4.315221 4.409357,4.315462 0 0 1 -4.409171,4.315573 4.409357,4.315462 0 0 1 -4.409521,-4.315573 4.409357,4.315462 0 0 1 4.409521,-4.315221 z m 39.584881,0.02278 a 4.409357,4.315462 0 0 1 4.409171,4.315222 4.409357,4.315462 0 0 1 -4.409171,4.315572 4.409357,4.315462 0 0 1 -4.409521,-4.315572 4.409357,4.315462 0 0 1 4.409521,-4.315222 z" />
  </g>
  <g
     inkscape:label="Layer 1"
     inkscape:groupmode="layer"
     id="layer1">
    <ellipse
       style="fill:none;fill-rule:evenodd;stroke:#000000;stroke-width:5.57708;stroke-linecap:butt;stroke-linejoin:miter;stroke-miterlimit:4;stroke-dasharray:none;stroke-opacity:1"
       id="path4200"
       cx="21.845331"
       cy="29.983795"
       rx="15.433225"
       ry="15.996596" />
    <ellipse
       ry="15.996596"
       rx="15.433225"
       cy="29.983829"
       cx="71.797493"
       id="ellipse4202"
       style="fill:none;fill-rule:evenodd;stroke:#000000;stroke-width:5.57708;stroke-linecap:butt;stroke-linejoin:miter;stroke-miterlimit:4;stroke-dasharray:none;stroke-opacity:1" />
    <path
       style="fill:none;fill-rule:evenodd;stroke:#000000;stroke-width:6.50659;stroke-linecap:butt;stroke-linejoin:miter;stroke-miterlimit:4;stroke-dasharray:none;stroke-opacity:1"
       d="m 30.946544,11.066046 c 0,0 -6.150859,0.809821 -9.107827,1.701427 -3.838072,1.157294 -7.910202,2.230453 -11.072056,4.694755 -2.0456289,1.594334 -3.5319819,3.886348 -4.6947549,6.204628 -1.109134,2.211338 -1.590058,4.700713 -2.06569,7.128469 -0.459858,2.347196 -0.724506,4.744352 -0.751156,7.136028 -0.02524,2.261041 0.227271,4.5238 0.55959,6.760433 0.348221,2.34361 0.806374,4.682265 1.498551,6.948237 0.78782,2.579106 1.838792,5.079884 3.004638,7.511601 1.211728,2.527452 2.5106629,5.036982 4.1313789,7.323808 1.538965,2.171486 3.280899,4.228038 5.261894,6.005514 2.27464,2.040944 4.817001,3.81315 7.507827,5.261894 2.548483,1.37211 5.278367,2.446519 8.074977,3.19243 2.933858,0.782516 5.984483,1.108759 9.013926,1.314533 3.403823,0.231197 6.838538,0.232423 10.234557,-0.09394 3.263093,-0.313556 6.538933,-0.81703 9.671192,-1.784007 2.812254,-0.868193 5.516154,-2.117484 8.074965,-3.571788 2.068727,-1.175766 4.06692,-2.524065 5.821496,-4.131379 2.422428,-2.21912 4.537084,-4.79152 6.38486,-7.507827 1.795598,-2.639605 3.294035,-5.497519 4.506965,-8.450562 1.16633,-2.839594 2.02856,-5.815642 2.62906,-8.826134 0.52942,-2.654068 0.79154,-5.369138 0.84505,-8.074965 0.067,-3.38666 -0.006,-6.816585 -0.65727,-10.140667 -0.53205,-2.714859 -1.10423,-5.563741 -2.62905,-7.872078 -1.615995,-2.446367 -4.066756,-4.327069 -6.5802,-5.836591 -2.459652,-1.477228 -5.303604,-2.230581 -8.067429,-3.000876 -2.270844,-0.632894 -4.626709,-0.908617 -6.948237,-1.318306 l -3.19243,-0.563365"
       id="path4206"
       inkscape:connector-curvature="0"
       sodipodi:nodetypes="caaaaaaaaaaaaaaaaaaaaaaaaasc"
       inkscape:export-xdpi="600.09003"
       inkscape:export-ydpi="600.09003" />
    <path
       style="fill:none;fill-rule:evenodd;stroke:#000000;stroke-width:3.76709;stroke-linecap:butt;stroke-linejoin:miter;stroke-miterlimit:4;stroke-dasharray:none;stroke-opacity:1"
       d="m 25.185126,10.873219 c 0,0 4.48439,-0.943424 6.454507,-1.278022 1.970117,-0.334597 5.558881,-0.43038 9.310505,-0.579523 2.000517,-0.07957 4.002379,-0.184135 6.005128,-0.18688 2.19636,-0.0035 4.391587,0.103634 6.586264,0.18688 1.364375,0.05176 2.733156,0.05503 4.09135,0.194394 l 5.410767,0.555069"
       id="path4208"
       inkscape:connector-curvature="0"
       sodipodi:nodetypes="cssaasc" />
    <path
       sodipodi:nodetypes="cassc"
       inkscape:connector-curvature="0"
       id="path4214"
       d="m 86.954217,56.388908 c 0,0 1.14026,-5.472971 0.72265,-8.177315 -0.18152,-1.175461 -0.50846,-2.508326 -1.37164,-3.294019 -0.789331,-0.718466 -1.652347,-1.459294 -3.350865,-1.644925 -1.698518,-0.185642 -4.889826,1.498446 -4.889826,1.498446"
       style="fill:none;fill-rule:evenodd;stroke:#000000;stroke-width:5.31468;stroke-linecap:butt;stroke-linejoin:miter;stroke-miterlimit:4;stroke-dasharray:none;stroke-opacity:1" />
    <path
       style="fill:none;fill-rule:evenodd;stroke:#000000;stroke-width:5.21641;stroke-linecap:butt;stroke-linejoin:miter;stroke-miterlimit:4;stroke-dasharray:none;stroke-opacity:1"
       d="m 6.8262051,56.435491 c 0,0 -1.185358,-5.596783 -0.682538,-8.340583 0.229304,-1.251312 0.667256,-2.562714 1.639854,-3.446188 0,0 1.865267,-1.074421 2.8691419,-1.168218 1.003875,-0.09382 3.46924,0.534354 3.46924,0.534354"
       id="path4216"
       inkscape:connector-curvature="0"
       sodipodi:nodetypes="cassc" />
    <path
       sodipodi:nodetypes="csc"
       inkscape:connector-curvature="0"
       id="path4220"
       d="m 61.08803,17.171 c 0,0 2.246097,-2.963908 1.394379,-5.299374 C 61.63929,9.559737 58.746617,9.304075 58.746617,9.304075"
       style="fill:none;fill-rule:evenodd;stroke:#000000;stroke-width:3.74953;stroke-linecap:butt;stroke-linejoin:miter;stroke-miterlimit:4;stroke-dasharray:none;stroke-opacity:1" />
    <rect
       style="opacity:1;fill:none;fill-opacity:1;stroke:#000000;stroke-width:3.71806;stroke-linecap:round;stroke-linejoin:miter;stroke-miterlimit:4;stroke-dasharray:none;stroke-dashoffset:0;stroke-opacity:1"
       id="rect4224"
       width="6.7604423"
       height="3.3802211"
       x="2.4963462"
       y="39.245892"
       ry="1.6901106" />
    <rect
       ry="1.6901106"
       y="39.997051"
       x="83.246078"
       height="3.3802211"
       width="6.7604423"
       id="rect4226"
       style="opacity:1;fill:none;fill-opacity:1;stroke:#000000;stroke-width:3.71806;stroke-linecap:round;stroke-linejoin:miter;stroke-miterlimit:4;stroke-dasharray:none;stroke-dashoffset:0;stroke-opacity:1" />
    <path
       style="fill:none;fill-rule:evenodd;stroke:#000000;stroke-width:3.74953;stroke-linecap:butt;stroke-linejoin:miter;stroke-miterlimit:4;stroke-dasharray:none;stroke-opacity:1"
       d="m 32.388032,17.171 c 0,0 -2.246097,-2.963908 -1.394379,-5.299374 0.843107,-2.311889 3.73578,-2.567551 3.73578,-2.567551"
       id="path4157"
       inkscape:connector-curvature="0"
       sodipodi:nodetypes="csc" />
  </g>
</svg>
