<?xml version="1.0" encoding="UTF-8" standalone="no"?>
<!-- Created with Inkscape (http://www.inkscape.org/) -->

<svg
   width="100"
   height="100"
   viewBox="0 0 93.750001 93.750002"
   id="svg2"
   version="1.1"
   inkscape:version="1.2.1 (9c6d41e410, 2022-07-14)"
   sodipodi:docname="Tesla-hpwc-model-s_cable_attached.svg"
   inkscape:export-filename="/Users/sss/Desktop/EV Plugs/tesla-hpwc-model-s.png"
   inkscape:export-xdpi="600.09003"
   inkscape:export-ydpi="600.09003"
   xml:space="preserve"
   xmlns:inkscape="http://www.inkscape.org/namespaces/inkscape"
   xmlns:sodipodi="http://sodipodi.sourceforge.net/DTD/sodipodi-0.dtd"
   xmlns="http://www.w3.org/2000/svg"
   xmlns:svg="http://www.w3.org/2000/svg"
   xmlns:rdf="http://www.w3.org/1999/02/22-rdf-syntax-ns#"
   xmlns:cc="http://creativecommons.org/ns#"
   xmlns:dc="http://purl.org/dc/elements/1.1/"><defs
     id="defs4" /><sodipodi:namedview
     id="base"
     pagecolor="#ffffff"
     bordercolor="#666666"
     borderopacity="1.0"
     inkscape:pageopacity="0.0"
     inkscape:pageshadow="2"
     inkscape:zoom="3.959798"
     inkscape:cx="44.320443"
     inkscape:cy="68.437834"
     inkscape:document-units="px"
     inkscape:current-layer="layer1"
     showgrid="true"
     inkscape:snap-grids="false"
     inkscape:window-width="1203"
     inkscape:window-height="851"
     inkscape:window-x="6"
     inkscape:window-y="0"
     inkscape:window-maximized="0"
     inkscape:showpageshadow="2"
     inkscape:pagecheckerboard="0"
     inkscape:deskcolor="#d1d1d1"><inkscape:grid
       type="xygrid"
       id="grid4198"
       originx="0"
       originy="0" /></sodipodi:namedview><metadata
     id="metadata7"><rdf:RDF><cc:Work
         rdf:about=""><dc:format>image/svg+xml</dc:format><dc:type
           rdf:resource="http://purl.org/dc/dcmitype/StillImage" /></cc:Work></rdf:RDF></metadata><g
     inkscape:label="Layer 1"
     inkscape:groupmode="layer"
     id="layer1"><path
       id="path4200"
       style="color:#000000;fill:#000000;fill-rule:evenodd;stroke-width:1.16797"
       d="m 58.956601,5.2181346 c -1.513569,0.00207 -2.996727,0.079046 -4.450472,0.1368704 -2.736227,0.108773 -5.322723,0.158609 -6.995434,0.442694 -0.160003,0.02718 -0.391422,0.07159 -0.583844,0.106932 l -0.0044,-0.03208 c 0,0 -4.388482,0.526544 -7.046758,1.328086 -2.754812,0.830659 -6.05455,1.630389 -8.888114,3.838827 -1.930135,1.504319 -3.167604,3.492405 -4.101878,5.355109 -1.009863,2.013419 -1.374059,4.058126 -1.72159,5.832023 -0.362484,1.850194 -0.573258,3.746989 -0.594538,5.656656 -0.02064,1.851076 0.182204,3.633804 0.43414,5.329446 0.265826,1.78905 0.623436,3.619657 1.178381,5.436376 0.624246,2.043602 1.441115,3.982297 2.328961,5.83416 0.908633,1.895253 1.916215,3.854319 3.231458,5.710122 1.207222,1.703395 2.592591,3.346538 4.206669,4.79479 1.812504,1.62629 3.824883,3.030287 5.958201,4.178869 2.034729,1.095504 4.205168,1.949192 6.430836,2.54282 2.386812,0.636608 4.774569,0.882314 7.055315,1.037233 2.600515,0.176632 5.245016,0.180992 7.885099,-0.07272 2.480488,-0.238355 5.03916,-0.625367 7.557892,-1.402937 2.263963,-0.698926 4.398858,-1.691199 6.390202,-2.82298 1.622418,-0.922109 3.234205,-2.000866 4.694274,-3.338391 1.941187,-1.778266 3.601122,-3.805427 5.036456,-5.915428 1.418224,-2.084848 2.590033,-4.324453 3.535143,-6.62545 0.919713,-2.239177 1.590887,-4.562775 2.057353,-6.901334 0.419218,-2.101595 0.623501,-4.230565 0.665113,-6.334599 0.05038,-2.54644 0.006,-5.227122 -0.523963,-7.932149 C 92.299927,19.405049 91.878235,16.99409 90.415609,14.779905 88.931032,12.532379 86.837512,10.978874 84.833882,9.775537 82.643997,8.460327 80.342935,7.883218 78.338886,7.324678 76.437578,6.794774 74.633196,6.594874 73.024411,6.31097 L 70.879372,5.932434 70.881472,5.908914 68.071322,5.6202 C 67.853235,5.58357 67.716311,5.57529 67.716311,5.57529 v 0.0086 L 66.918666,5.50262 C 65.832469,5.391172 64.801295,5.391721 63.834759,5.355054 62.237282,5.2944553 60.611371,5.2156603 58.956561,5.2181843 Z m 0.0043,2.7566824 c 1.562422,-0.0023 3.151836,0.07552 4.769127,0.136872 1.032,0.03915 2.005223,0.04205 2.908526,0.134734 l 1.011569,0.104794 c 0.358408,0.08691 1.17133,0.345379 1.390104,0.945269 0.11473,0.314609 0.01915,0.960074 -0.243803,1.556918 -0.262947,0.596844 -0.581705,1.022261 -0.581705,1.022261 l 0.01711,0.01284 c -2.714542,2.527209 -4.424808,6.17255 -4.424808,10.201227 0,7.535399 5.958323,13.759894 13.345001,13.759894 1.959008,10e-7 3.814526,-0.443149 5.487705,-1.227568 l 0.01069,0.0214 c 0,0 0.499884,-0.263295 1.129193,-0.51113 0.624111,-0.24579 1.458052,-0.357437 1.334499,-0.374259 0.758849,0.08294 0.8075,0.20873 1.355888,0.707883 0.0029,0.0026 0.276211,0.540616 0.389228,1.272483 0.08194,0.530593 0.0066,1.998901 -0.153981,3.175852 -0.01672,0.122395 -0.03414,0.227839 -0.05133,0.344318 -0.176326,0.506044 -0.364462,1.006706 -0.566736,1.499175 -0.831588,2.024619 -1.856953,3.975525 -3.068924,5.75717 -0.426459,0.626914 -0.879047,1.231367 -1.343053,1.824245 -0.260026,0.115217 -0.514943,0.225586 -0.754934,0.318654 -0.458046,0.177626 -0.866932,0.283083 -1.146301,0.228833 -0.587663,-0.114136 -1.272647,-0.596397 -1.995363,-1.154868 -0.72273,-0.558475 -1.48511,-1.19013 -2.249845,-1.589003 -5.709505,-2.981318 -8.92619,-3.734106 -15.845051,-3.994947 h -0.0021 c -5.149181,0.01476 -11.303928,1.263148 -16.259944,3.858074 -1.776755,0.886559 -3.097596,2.276672 -4.662195,2.606982 -0.764288,0.161352 -1.671445,-0.251441 -2.485077,-0.558181 -0.08548,-0.03222 -0.164857,-0.05443 -0.248083,-0.08341 -0.131833,-0.17754 -0.267409,-0.351573 -0.395646,-0.532516 -1.05878,-1.49394 -1.954536,-3.210245 -2.820839,-5.017208 -0.710155,-1.481235 -1.337546,-2.972428 -1.839217,-4.471858 -0.07832,-0.942029 -0.09392,-1.867842 -0.02352,-2.251969 0.124929,-0.681738 0.355681,-1.13523 0.571013,-1.364441 0.116401,-0.06267 0.151546,-0.08833 0.344318,-0.179644 0.262248,-0.124223 0.60949,-0.222806 0.701469,-0.260913 -0.04524,-0.0066 -0.05645,-0.01324 -0.01497,-0.01711 0.05168,-0.0049 0.04945,0.0035 0.01711,0.01711 0.144231,0.02041 0.620462,0.05501 0.983766,0.12618 0.234817,0.046 0.449036,0.09316 0.609508,0.130455 1.900031,1.080902 4.082011,1.700205 6.407312,1.700203 7.386682,0 13.34714,-6.224494 13.34714,-13.759894 0,-4.158021 -1.818132,-7.911321 -4.68572,-10.445029 -0.116659,-0.18186 -0.276871,-0.453731 -0.425587,-0.79129 C 48.5395,10.256561 48.443908,9.611096 48.558643,9.296487 48.816637,8.589039 49.901002,8.354463 50.087757,8.319139 51.382841,8.238269 52.962178,8.177408 54.61522,8.111693 56.091834,8.052943 57.540838,7.976766 58.960901,7.974819 Z m -18.394288,4.441919 c 5.098592,10e-7 9.262372,4.267354 9.262372,9.672986 0,5.405638 -4.16378,9.672988 -9.262372,9.672988 -5.098592,2e-6 -9.258096,-4.26735 -9.258096,-9.672988 2e-6,-4.141206 2.44215,-7.611988 5.876934,-9.010013 0.292706,-0.111443 0.613312,-0.21127 0.919607,-0.316516 0.784875,-0.223867 1.609205,-0.346457 2.461555,-0.346457 z m 36.585407,0 c 5.098592,0 9.262371,4.267353 9.262371,9.672986 0,5.405638 -4.163779,9.67299 -9.262371,9.672988 -5.098591,0 -9.260234,-4.26735 -9.260234,-9.672988 0,-5.405632 4.161643,-9.672985 9.260234,-9.672986 z M 59.474162,45.518329 c 2.771442,-1.3e-5 5.015057,2.216313 5.015067,4.94877 -4e-6,2.732464 -2.243622,4.948786 -5.015067,4.948772 -2.771449,1.7e-5 -5.015064,-2.216304 -5.015069,-4.948772 9e-6,-2.732461 2.243623,-4.948787 5.015069,-4.94877 z m -14.784296,1.582579 c 1.747425,7.2e-5 3.160787,1.382446 3.160885,3.090309 4.5e-5,1.707964 -1.413359,3.092375 -3.160885,3.092448 -1.747626,6.3e-5 -3.163066,-1.384387 -3.163021,-3.092448 9.8e-5,-1.70796 1.415496,-3.090373 3.163021,-3.090309 z m 28.991162,0.01497 c 1.747426,7.1e-5 3.160786,1.38672 3.160882,3.094586 4.4e-5,1.70796 -1.413356,3.090236 -3.160882,3.090309 -1.747625,6.3e-5 -3.160927,-1.382251 -3.160883,-3.090309 9.7e-5,-1.707961 1.41336,-3.094649 3.160883,-3.094586 z" /><g
       inkscape:label="Image"
       id="g8"
       transform="matrix(0.93750001,0,0,0.93750001,-8.4362282,15.390634)"><path
         style="fill:#000000;stroke-width:1.17835"
         d="M 45.033811,78.517221 C 31.818573,74.901607 29.351753,62.036718 29.800047,20.607362 c 0.08323,-7.692071 -0.105582,-11.9540959 0.04349,-24.0329119 0.06047,-4.8980502 -6.722786,-4.8687232 -7.416582,-0.711451 -0.268303,1.607688 -0.728245,9.138652 -1.022095,16.7354739 -0.295881,7.649332 -1.22916,15.833944 -2.091624,18.342986 -1.685796,4.904229 -5.402047,8.767584 -8.433742,8.767584 -2.5827728,0 -2.4730706,-4.711296 0.128962,-5.538394 4.318464,-1.372691 5.722831,-6.671359 6.442916,-24.309078 0.562344,-13.7740559 1.038417,-17.2201089 2.684381,-19.4308591 3.448036,-4.6311789 12.509409,-2.8835939 13.576027,3.4940312 0.615789,3.681995 0.446769,6.20573701 0.862859,41.8868739 0.29388,25.201086 2.695787,34.329038 12.553554,37.271037 12.031666,3.630761 25.300257,-15.790606 20.629727,-23.021332 0.744567,-2.595256 5.532798,-6.277411 6.949328,1.082067 0.05548,15.286533 -14.605803,30.054945 -29.673435,27.373832 z"
         id="path174-7"
         sodipodi:nodetypes="cssssssssssscccc" /></g></g></svg>
