<?xml version="1.0" encoding="UTF-8" standalone="no"?>
<!-- Created with Inkscape (http://www.inkscape.org/) -->

<svg
   width="100"
   height="100"
   viewBox="0 0 93.750001 93.750002"
   id="svg2"
   version="1.1"
   inkscape:version="1.2.1 (9c6d41e410, 2022-07-14)"
   sodipodi:docname="Tesla-hpwc-model-s_cable_attached.svg"
   inkscape:export-filename="/Users/sss/Desktop/EV Plugs/tesla-hpwc-model-s.png"
   inkscape:export-xdpi="600.09003"
   inkscape:export-ydpi="600.09003"
   xml:space="preserve"
   xmlns:inkscape="http://www.inkscape.org/namespaces/inkscape"
   xmlns:sodipodi="http://sodipodi.sourceforge.net/DTD/sodipodi-0.dtd"
   xmlns="http://www.w3.org/2000/svg"
   xmlns:svg="http://www.w3.org/2000/svg"
   xmlns:rdf="http://www.w3.org/1999/02/22-rdf-syntax-ns#"
   xmlns:cc="http://creativecommons.org/ns#"
   xmlns:dc="http://purl.org/dc/elements/1.1/"><defs
     id="defs4" /><sodipodi:namedview
     id="base"
     pagecolor="#ffffff"
     bordercolor="#666666"
     borderopacity="1.0"
     inkscape:pageopacity="0.0"
     inkscape:pageshadow="2"
     inkscape:zoom="3.959798"
     inkscape:cx="48.73986"
     inkscape:cy="68.437834"
     inkscape:document-units="px"
     inkscape:current-layer="layer2"
     showgrid="true"
     inkscape:snap-grids="false"
     inkscape:window-width="1203"
     inkscape:window-height="851"
     inkscape:window-x="6"
     inkscape:window-y="0"
     inkscape:window-maximized="0"
     inkscape:showpageshadow="2"
     inkscape:pagecheckerboard="0"
     inkscape:deskcolor="#d1d1d1"><inkscape:grid
       type="xygrid"
       id="grid4198"
       originx="0"
       originy="0" /></sodipodi:namedview><metadata
     id="metadata7"><rdf:RDF><cc:Work
         rdf:about=""><dc:format>image/svg+xml</dc:format><dc:type
           rdf:resource="http://purl.org/dc/dcmitype/StillImage" /></cc:Work></rdf:RDF></metadata><g
     inkscape:groupmode="layer"
     id="layer2"
     inkscape:label="Layer 2"><path
       id="path4164"
       style="fill:#000000;fill-opacity:1;fill-rule:evenodd;stroke:#000000;stroke-width:0.116574px;stroke-linecap:butt;stroke-linejoin:miter;stroke-opacity:1"
       d="m 64.097616,57.799634 c -4.399358,0.01261 -9.662914,1.081122 -13.895417,3.297223 -1.509569,0.753239 -2.638628,1.949226 -4.003749,2.237422 -1.365125,0.288196 -3.145519,-1.450414 -3.768316,-0.353263 -0.984434,1.734237 3.53266,4.828113 3.53266,4.828113 l 6.476826,3.768098 6.829884,1.766334 9.302955,-0.117613 7.889678,-2.237429 6.123351,-3.532659 c 0,0 4.057379,-3.045464 3.061786,-4.592668 -0.796172,-1.237295 -3.30792,0.910261 -4.357025,0.706531 -1.049098,-0.203735 -2.357613,-1.680701 -3.650485,-2.355041 -4.884036,-2.550285 -7.621836,-3.191853 -13.542148,-3.415048 z m -0.176738,2.771701 a 4.3527267,4.2938481 0 0 1 4.352747,4.293833 4.3527267,4.2938481 0 0 1 -4.352747,4.293841 4.3527267,4.2938481 0 0 1 -4.352753,-4.293841 4.3527267,4.2938481 0 0 1 4.352753,-4.293833 z m -12.658877,1.352232 a 2.7649811,2.7061023 0 0 1 2.764864,2.705951 2.7649811,2.7061023 0 0 1 -2.764864,2.706172 2.7649811,2.7061023 0 0 1 -2.765085,-2.706172 2.7649811,2.7061023 0 0 1 2.765085,-2.705951 z m 24.822541,0.01429 a 2.7649811,2.7061023 0 0 1 2.764865,2.705952 2.7649811,2.7061023 0 0 1 -2.764865,2.70617 2.7649811,2.7061023 0 0 1 -2.765083,-2.70617 2.7649811,2.7061023 0 0 1 2.765083,-2.705952 z" /><path
       style="fill:#000000;stroke-width:1.31106"
       d="M 45.527671,93.256468 C 29.316963,89.607694 25.391769,76.575252 27.926048,34.815507 29.079553,15.8081 28.984978,13.220613 27.027544,10.233191 24.176394,5.8817851 18.647618,5.6488072 17.796561,9.8442069 17.467441,11.466639 16.903245,19.066673 16.54279,26.733167 c -0.362946,7.719485 -1.507772,15.979159 -2.56573,18.511212 -2.06791,4.949206 -6.6265161,8.847994 -10.3454006,8.847994 -3.16820393,0 -3.03363573,-4.754504 0.1581935,-5.589188 5.2973223,-1.38528 7.0200141,-6.732544 7.9033181,-24.532022 0.689811,-13.90038 1.273795,-17.3780384 3.292845,-19.6090639 4.229595,-4.67365085 13.28615,-2.7560648 16.653278,3.5260755 1.847604,3.4471224 1.918215,6.2671494 1.058443,42.2710284 -0.662597,27.746852 1.772201,34.749088 13.224979,38.033701 8.602387,2.467132 16.243061,-4.614927 15.348359,-10.900989 -0.363646,-2.554926 -0.325056,-3.082486 -1.943716,-3.383369 0.913336,-2.619057 7.659579,-2.946688 8.953985,-0.259794 l -0.679942,5.584306 C 66.405407,89.055665 57.33367,95.913811 45.527671,93.256468 Z"
       id="path174"
       sodipodi:nodetypes="ssssssssssssssccss" /></g><g
     inkscape:label="Layer 1"
     inkscape:groupmode="layer"
     id="layer1"><ellipse
       style="fill:none;fill-rule:evenodd;stroke:#000000;stroke-width:3.49722;stroke-linecap:butt;stroke-linejoin:miter;stroke-miterlimit:4;stroke-dasharray:none;stroke-opacity:1"
       id="path4200"
       cx="47.733395"
       cy="40.569141"
       rx="9.6777315"
       ry="10.031006" /><ellipse
       ry="10.031006"
       rx="9.6777315"
       cy="40.569168"
       cx="79.056953"
       id="ellipse4202"
       style="fill:none;fill-rule:evenodd;stroke:#000000;stroke-width:3.49722;stroke-linecap:butt;stroke-linejoin:miter;stroke-miterlimit:4;stroke-dasharray:none;stroke-opacity:1" /><path
       style="fill:none;fill-rule:evenodd;stroke:#000000;stroke-width:4.0801;stroke-linecap:butt;stroke-linejoin:miter;stroke-miterlimit:4;stroke-dasharray:none;stroke-opacity:1"
       d="m 53.440502,28.706366 c 0,0 -3.857027,0.507816 -5.711257,1.066916 -2.406745,0.725705 -4.96026,1.398653 -6.942968,2.943946 -1.282755,0.999761 -2.214805,2.437018 -2.943946,3.890744 -0.695506,1.386667 -0.99708,2.947683 -1.295335,4.470059 -0.288363,1.471858 -0.454317,2.975046 -0.471028,4.474797 -0.01582,1.417834 0.142515,2.836745 0.350902,4.239274 0.21836,1.469611 0.505654,2.936114 0.939698,4.35704 0.49402,1.617283 1.153054,3.18545 1.884123,4.710309 0.75984,1.584893 1.574364,3.158547 2.590669,4.59255 0.965041,1.361677 2.057357,2.651282 3.299583,3.765885 1.426361,1.279818 3.020603,2.391117 4.707943,3.299583 1.59808,0.860411 3.309911,1.534142 5.063585,2.001881 1.839739,0.490694 3.752698,0.695271 5.652374,0.824306 2.13444,0.144977 4.288251,0.145745 6.417798,-0.0589 2.046191,-0.196622 4.100377,-0.512336 6.064526,-1.118699 1.763484,-0.544419 3.459022,-1.327814 5.063579,-2.239766 1.297239,-0.737289 2.550248,-1.582769 3.650493,-2.590669 1.519035,-1.391547 2.845075,-3.004625 4.003762,-4.707943 1.125969,-1.65522 2.065595,-3.447336 2.826188,-5.299105 0.731372,-1.780627 1.272053,-3.646821 1.648608,-5.534615 0.331985,-1.66429 0.496352,-3.366833 0.529907,-5.063579 0.04201,-2.123677 -0.0038,-4.274484 -0.412155,-6.35892 -0.333633,-1.702411 -0.69243,-3.488863 -1.648602,-4.936355 -1.013344,-1.534046 -2.550146,-2.713381 -4.126254,-3.659959 -1.542377,-0.926326 -3.325738,-1.398733 -5.058853,-1.881762 -1.423982,-0.39687 -2.901276,-0.569769 -4.35704,-0.826672 l -2.001881,-0.353271"
       id="path4206"
       inkscape:connector-curvature="0"
       sodipodi:nodetypes="caaaaaaaaaaaaaaaaaaaaaaaaasc"
       inkscape:export-xdpi="600.09003"
       inkscape:export-ydpi="600.09003" /><path
       style="fill:none;fill-rule:evenodd;stroke:#000000;stroke-width:2.36223;stroke-linecap:butt;stroke-linejoin:miter;stroke-miterlimit:4;stroke-dasharray:none;stroke-opacity:1"
       d="m 49.827682,28.585449 c 0,0 2.812033,-0.591593 4.047436,-0.801411 1.235403,-0.209816 3.485815,-0.269878 5.83835,-0.363401 1.254467,-0.0499 2.509777,-0.115466 3.765644,-0.117188 1.377274,-0.0021 2.753838,0.06498 4.130057,0.117188 0.85556,0.03246 1.713883,0.03451 2.565568,0.121899 l 3.392936,0.348068"
       id="path4208"
       inkscape:connector-curvature="0"
       sodipodi:nodetypes="cssaasc" /><path
       sodipodi:nodetypes="cassc"
       inkscape:connector-curvature="0"
       id="path4214"
       d="m 88.561306,57.127031 c 0,0 0.715024,-3.431943 0.453153,-5.127759 -0.113826,-0.737098 -0.318841,-1.572899 -0.860117,-2.065585 -0.494967,-0.450529 -1.036139,-0.915081 -2.101231,-1.031485 -1.065092,-0.116411 -3.066269,0.939633 -3.066269,0.939633"
       style="fill:none;fill-rule:evenodd;stroke:#000000;stroke-width:3.33268;stroke-linecap:butt;stroke-linejoin:miter;stroke-miterlimit:4;stroke-dasharray:none;stroke-opacity:1" /><path
       style="fill:none;fill-rule:evenodd;stroke:#000000;stroke-width:3.27106;stroke-linecap:butt;stroke-linejoin:miter;stroke-miterlimit:4;stroke-dasharray:none;stroke-opacity:1"
       d="m 38.31533,57.156242 c 0,0 -0.743304,-3.509581 -0.428,-5.23014 0.14379,-0.784662 0.418417,-1.607004 1.028306,-2.161005 0,0 1.169655,-0.673739 1.799156,-0.732557 0.629501,-0.05883 2.17546,0.335078 2.17546,0.335078"
       id="path4216"
       inkscape:connector-curvature="0"
       sodipodi:nodetypes="cassc" /><path
       sodipodi:nodetypes="csc"
       inkscape:connector-curvature="0"
       id="path4220"
       d="m 72.341363,32.534608 c 0,0 1.408462,-1.858582 0.874375,-3.323086 -0.528697,-1.44972 -2.342608,-1.610037 -2.342608,-1.610037"
       style="fill:none;fill-rule:evenodd;stroke:#000000;stroke-width:2.35122;stroke-linecap:butt;stroke-linejoin:miter;stroke-miterlimit:4;stroke-dasharray:none;stroke-opacity:1" /><rect
       style="opacity:1;fill:none;fill-opacity:1;stroke:#000000;stroke-width:2.33149;stroke-linecap:round;stroke-linejoin:miter;stroke-miterlimit:4;stroke-dasharray:none;stroke-dashoffset:0;stroke-opacity:1"
       id="rect4224"
       width="4.2392793"
       height="2.1196396"
       x="35.600201"
       y="46.37714"
       ry="1.0598198" /><rect
       ry="1.0598198"
       y="46.848171"
       x="86.236046"
       height="2.1196396"
       width="4.2392793"
       id="rect4226"
       style="opacity:1;fill:none;fill-opacity:1;stroke:#000000;stroke-width:2.33149;stroke-linecap:round;stroke-linejoin:miter;stroke-miterlimit:4;stroke-dasharray:none;stroke-dashoffset:0;stroke-opacity:1" /><path
       style="fill:none;fill-rule:evenodd;stroke:#000000;stroke-width:2.35122;stroke-linecap:butt;stroke-linejoin:miter;stroke-miterlimit:4;stroke-dasharray:none;stroke-opacity:1"
       d="m 54.344417,32.534608 c 0,0 -1.408462,-1.858582 -0.874374,-3.323086 0.528688,-1.44972 2.3426,-1.610037 2.3426,-1.610037"
       id="path4157"
       inkscape:connector-curvature="0"
       sodipodi:nodetypes="csc" /></g></svg>
