<?xml version="1.0" encoding="UTF-8" standalone="no"?>
<!-- Created with Inkscape (http://www.inkscape.org/) -->

<svg
   width="100"
   height="100"
   viewBox="0 0 93.750001 93.750002"
   id="svg2"
   version="1.1"
   inkscape:version="1.2.1 (9c6d41e410, 2022-07-14)"
   sodipodi:docname="Tesla-hpwc-model-s_cable_attached.svg"
   inkscape:export-filename="/Users/sss/Desktop/EV Plugs/tesla-hpwc-model-s.png"
   inkscape:export-xdpi="600.09003"
   inkscape:export-ydpi="600.09003"
   xml:space="preserve"
   xmlns:inkscape="http://www.inkscape.org/namespaces/inkscape"
   xmlns:sodipodi="http://sodipodi.sourceforge.net/DTD/sodipodi-0.dtd"
   xmlns="http://www.w3.org/2000/svg"
   xmlns:svg="http://www.w3.org/2000/svg"
   xmlns:rdf="http://www.w3.org/1999/02/22-rdf-syntax-ns#"
   xmlns:cc="http://creativecommons.org/ns#"
   xmlns:dc="http://purl.org/dc/elements/1.1/"><defs
     id="defs4" /><sodipodi:namedview
     id="base"
     pagecolor="#ffffff"
     bordercolor="#666666"
     borderopacity="1.0"
     inkscape:pageopacity="0.0"
     inkscape:pageshadow="2"
     inkscape:zoom="3.959798"
     inkscape:cx="44.951788"
     inkscape:cy="68.437834"
     inkscape:document-units="px"
     inkscape:current-layer="layer1"
     showgrid="true"
     inkscape:snap-grids="false"
     inkscape:window-width="1203"
     inkscape:window-height="851"
     inkscape:window-x="6"
     inkscape:window-y="0"
     inkscape:window-maximized="0"
     inkscape:showpageshadow="2"
     inkscape:pagecheckerboard="0"
     inkscape:deskcolor="#d1d1d1"><inkscape:grid
       type="xygrid"
       id="grid4198"
       originx="0"
       originy="0" /></sodipodi:namedview><metadata
     id="metadata7"><rdf:RDF><cc:Work
         rdf:about=""><dc:format>image/svg+xml</dc:format><dc:type
           rdf:resource="http://purl.org/dc/dcmitype/StillImage" /></cc:Work></rdf:RDF></metadata><g
     inkscape:label="Layer 1"
     inkscape:groupmode="layer"
     id="layer1"><path
       style="color:#000000;fill:#000000;fill-rule:evenodd;-inkscape-stroke:none"
       d="m 47.732422,28.789062 c -6.324373,0 -11.425781,5.327595 -11.425781,11.779297 0,6.451703 5.101408,11.781251 11.425781,11.78125 6.324373,0 11.427734,-5.329548 11.427734,-11.78125 0,-6.451701 -5.103362,-11.779296 -11.427734,-11.779297 z m 0,3.498047 c 4.365343,10e-7 7.929687,3.653021 7.929687,8.28125 0,4.62823 -3.564344,8.283203 -7.929687,8.283203 -4.365344,10e-7 -7.927735,-3.654973 -7.927735,-8.283203 10e-7,-4.628229 3.562392,-8.28125 7.927735,-8.28125 z"
       id="path4200" /><path
       style="color:#000000;fill:#000000;fill-rule:evenodd;-inkscape-stroke:none"
       d="m 79.056641,28.789062 c -6.324373,10e-7 -11.425782,5.327595 -11.425782,11.779297 0,6.451702 5.101409,11.78125 11.425782,11.78125 6.324373,10e-7 11.425781,-5.329547 11.425781,-11.78125 0,-6.451702 -5.101408,-11.779297 -11.425781,-11.779297 z m 0,3.498047 c 4.365343,0 7.929687,3.65302 7.929687,8.28125 0,4.62823 -3.564344,8.283204 -7.929687,8.283203 -4.365344,0 -7.929688,-3.654973 -7.929688,-8.283203 0,-4.628229 3.564344,-8.281249 7.929688,-8.28125 z"
       id="ellipse4202" /><path
       style="color:#000000;fill:#000000;fill-rule:evenodd;-inkscape-stroke:none"
       d="m 53.173828,26.683594 c 0,0 -3.757222,0.450449 -6.033203,1.136718 -2.35863,0.711197 -5.183318,1.396278 -7.609375,3.28711 -1.652555,1.287978 -2.711809,2.991117 -3.511719,4.585937 -0.864631,1.723862 -1.177058,3.473403 -1.474609,4.992188 -0.310356,1.584112 -0.491547,3.208721 -0.509766,4.84375 -0.01768,1.584868 0.157342,3.110717 0.373047,4.5625 0.227595,1.531761 0.532676,3.098847 1.007813,4.654297 0.534469,1.749704 1.233978,3.410552 1.99414,4.996093 0.77796,1.622688 1.641486,3.299759 2.767578,4.888672 1.033606,1.458422 2.219611,2.865496 3.601563,4.105469 1.551839,1.392405 3.275046,2.594726 5.101562,3.578125 1.742107,0.937955 3.600274,1.667525 5.50586,2.175781 2.043555,0.545056 4.086319,0.756033 6.039062,0.888672 2.226526,0.151232 4.49155,0.15472 6.751953,-0.0625 2.123758,-0.204075 4.3142,-0.535426 6.470703,-1.201172 1.938374,-0.59841 3.765743,-1.446999 5.470704,-2.416015 1.389092,-0.789495 2.769439,-1.714205 4.019531,-2.859375 1.662016,-1.522528 3.083586,-3.257899 4.3125,-5.064453 1.214264,-1.785018 2.218154,-3.701792 3.027344,-5.671875 0.787447,-1.917151 1.362335,-3.907916 1.761718,-5.910157 0.358928,-1.799357 0.532734,-3.620431 0.56836,-5.421875 0.04313,-2.180226 0.0045,-4.47696 -0.449219,-6.792968 C 92.024456,38.269543 91.66439,36.2063 90.412109,34.310547 89.140971,32.38624 87.348292,31.055672 85.632812,30.025391 83.757863,28.899327 81.788105,28.405949 80.072266,27.927734 78.444393,27.474039 76.898905,27.301671 75.521484,27.058594 l -2.001953,-0.353516 -0.708984,4.017578 2.001953,0.353516 c 1.534104,0.270728 2.943974,0.443159 4.164062,0.783203 1.750387,0.487843 3.346839,0.937476 4.556641,1.664062 1.436734,0.862873 2.717109,1.891374 3.472656,3.035157 0.660062,0.999227 1.017263,2.509232 1.34961,4.205078 0.362987,1.852859 0.415891,3.858658 0.375,5.925781 -0.03149,1.592045 -0.187146,3.175859 -0.492188,4.705078 -0.353726,1.773344 -0.857908,3.514103 -1.533203,5.158203 -0.711995,1.733452 -1.589281,3.402315 -2.626953,4.927735 -1.088458,1.600078 -2.319262,3.090999 -3.695313,4.351562 -0.950396,0.870628 -2.073914,1.63523 -3.279296,2.320313 -1.50415,0.854885 -3.069612,1.574026 -4.658204,2.064453 -1.77179,0.546979 -3.689583,0.847941 -5.658203,1.037109 -1.998686,0.19207 -4.041634,0.19341 -6.083984,0.05469 -1.846605,-0.12543 -3.629706,-0.323435 -5.265625,-0.759766 -1.601759,-0.42722 -3.167043,-1.04526 -4.621094,-1.828125 -1.54816,-0.833531 -3.01162,-1.854256 -4.3125,-3.021484 -1.102498,-0.989231 -2.101572,-2.162805 -2.998047,-3.427735 -0.906515,-1.27909 -1.674296,-2.747826 -2.416015,-4.294922 -0.701974,-1.464172 -1.317915,-2.938969 -1.771485,-4.423828 -0.39295,-1.286399 -0.663921,-2.653089 -0.873047,-4.060547 -0.201068,-1.353271 -0.344034,-2.665218 -0.330078,-3.916015 0.0152,-1.36447 0.167224,-2.745868 0.433594,-4.105469 0.298958,-1.525964 0.590809,-2.897796 1.117188,-3.947266 0.658371,-1.312628 1.462047,-2.485723 2.375,-3.197265 1.539355,-1.199751 3.822488,-1.859398 6.277343,-2.59961 1.432475,-0.431929 5.388672,-0.998046 5.388672,-0.998046 z"
       id="path4206" /><path
       style="color:#000000;fill:#000000;fill-rule:evenodd;-inkscape-stroke:none"
       d="m 63.476562,26.123047 c -1.295895,0.0018 -2.56587,0.06768 -3.810546,0.117187 -2.342716,0.09313 -4.556132,0.135676 -5.988282,0.378907 -1.30503,0.221643 -4.09375,0.810547 -4.09375,0.810546 l 0.486328,2.3125 c 0,0 2.83618,-0.594976 4.001954,-0.792968 1.038653,-0.176401 3.325149,-0.253743 5.6875,-0.347657 1.264254,-0.05029 2.504867,-0.11552 3.720703,-0.117187 1.337722,-0.002 2.699283,0.06466 4.083984,0.117187 0.883583,0.03352 1.716839,0.03588 2.490234,0.115235 l 3.392579,0.349609 0.240234,-2.351562 -3.392578,-0.347657 c -0.929973,-0.09542 -1.81309,-0.09556 -2.640625,-0.126953 -1.367734,-0.05189 -2.760911,-0.119347 -4.177735,-0.117187 z"
       id="path4208" /><path
       style="color:#000000;fill:#000000;fill-rule:evenodd;-inkscape-stroke:none"
       d="m 86.234375,47.246094 c -1.1856,-0.129582 -1.996553,0.244524 -2.724609,0.53125 -0.728057,0.286725 -1.300782,0.589843 -1.300782,0.589843 l 1.554688,2.949219 c 0,0 0.427993,-0.225307 0.966797,-0.4375 0.538803,-0.212193 1.261134,-0.307141 1.140625,-0.320312 h 0.002 c 0.649715,0.07101 0.690636,0.180055 1.160156,0.607422 0.0024,0.0022 0.23722,0.461278 0.333984,1.08789 0.07015,0.454287 0.0047,1.713016 -0.132812,2.720703 -0.137523,1.007688 -0.304688,1.8125 -0.304688,1.8125 l 3.263672,0.679688 c 0,0 0.18923,-0.910733 0.34375,-2.042969 0.154521,-1.132236 0.316719,-2.43816 0.125,-3.679687 -0.130887,-0.847583 -0.306583,-2.059797 -1.386718,-3.042969 -0.520414,-0.473691 -1.560549,-1.293278 -3.041016,-1.455078 z"
       id="path4214" /><path
       style="color:#000000;fill:#000000;fill-rule:evenodd;-inkscape-stroke:none"
       d="m 40.5625,47.404297 c -0.797258,0.07449 -1.247603,0.332538 -1.683594,0.539062 -0.435991,0.206525 -0.779297,0.404297 -0.779297,0.404297 l -0.152343,0.08789 -0.13086,0.11914 c -1.025264,0.931314 -1.363286,2.127622 -1.537109,3.076172 -0.234267,1.278356 -0.07327,2.614664 0.08203,3.773438 0.1553,1.158774 0.353516,2.091797 0.353516,2.091797 l 3.201172,-0.679688 c 0,0 -0.174974,-0.821502 -0.3125,-1.847656 -0.137526,-1.026154 -0.188459,-2.305845 -0.107422,-2.748047 0.106962,-0.583694 0.303917,-0.973674 0.488281,-1.169922 0.09966,-0.05366 0.129874,-0.07416 0.294922,-0.152344 0.306211,-0.145048 0.755648,-0.253955 0.58789,-0.238281 -0.145473,0.0136 0.442681,0.0418 0.857422,0.123047 0.414741,0.08124 0.761719,0.169922 0.761719,0.169922 l 0.808594,-3.169922 c 0,0 -0.425794,-0.109934 -0.941406,-0.210937 -0.515613,-0.101003 -1.016042,-0.240394 -1.791016,-0.167969 z"
       id="path4216" /><path
       style="color:#000000;fill:#000000;fill-rule:evenodd;-inkscape-stroke:none"
       d="m 70.976562,26.429687 -0.207031,2.34375 c 0,0 1.100082,0.178999 1.341797,0.841797 0.09823,0.269362 0.01615,0.822976 -0.208984,1.333985 -0.225131,0.511009 -0.498047,0.875 -0.498047,0.875 l 1.875,1.419922 c 0,0 0.429812,-0.56325 0.77539,-1.347657 0.345579,-0.784406 0.701479,-1.89275 0.265625,-3.08789 -0.815677,-2.236639 -3.34375,-2.378907 -3.34375,-2.378907 z"
       id="path4220" /><path
       style="color:#000000;fill:#000000;stroke-linecap:round;-inkscape-stroke:none"
       d="m 36.660156,45.210937 c -1.212798,0 -2.226562,1.013766 -2.226562,2.226563 0,1.212797 1.013764,2.224609 2.226562,2.224609 h 2.119141 c 1.212798,0 2.226562,-1.011811 2.226562,-2.224609 0,-1.212798 -1.013764,-2.226563 -2.226562,-2.226563 z"
       id="rect4224" /><path
       style="color:#000000;fill:#000000;stroke-linecap:round;-inkscape-stroke:none"
       d="m 87.294922,45.681641 c -1.212798,0 -2.22461,1.013765 -2.22461,2.226562 0,1.212797 1.011812,2.224609 2.22461,2.224609 h 2.121094 c 1.212798,0 2.224609,-1.011811 2.224609,-2.224609 0,-1.212798 -1.011811,-2.226562 -2.224609,-2.226562 z"
       id="rect4226" /><path
       style="color:#000000;fill:#000000;fill-rule:evenodd;-inkscape-stroke:none"
       d="m 55.708984,26.429687 c 0,0 -2.528084,0.142262 -3.34375,2.378907 -0.435854,1.19514 -0.07995,2.303484 0.265625,3.08789 0.345579,0.784407 0.777344,1.347657 0.777344,1.347657 l 1.873047,-1.419922 c 0,0 -0.272917,-0.363991 -0.498047,-0.875 -0.22513,-0.511009 -0.307218,-1.064623 -0.208984,-1.333985 0.241709,-0.662792 1.341797,-0.841796 1.341797,-0.841797 z"
       id="path4157" /><path
       style="color:#000000;fill:#000000;fill-rule:evenodd;stroke-width:0.116574px;-inkscape-stroke:none"
       d="m 64.097616,57.799634 c -4.399358,0.01261 -9.662914,1.081122 -13.895417,3.297223 -1.509569,0.753239 -2.638628,1.949226 -4.003749,2.237422 -1.365125,0.288196 -3.145519,-1.450414 -3.768316,-0.353263 -0.984434,1.734237 3.53266,4.828113 3.53266,4.828113 l 6.476826,3.768098 6.829884,1.766334 9.302955,-0.117613 7.889678,-2.237429 6.123351,-3.532659 c 0,0 4.057379,-3.045464 3.061786,-4.592668 -0.796172,-1.237295 -3.30792,0.910261 -4.357025,0.706531 -1.049098,-0.203735 -2.357613,-1.680701 -3.650485,-2.355041 -4.884036,-2.550285 -7.621836,-3.191853 -13.542148,-3.415048 z m -0.176738,2.771701 a 4.3527267,4.2938481 0 0 1 4.352747,4.293833 4.3527267,4.2938481 0 0 1 -4.352747,4.293841 4.3527267,4.2938481 0 0 1 -4.352753,-4.293841 4.3527267,4.2938481 0 0 1 4.352753,-4.293833 z m -12.658877,1.352232 a 2.7649811,2.7061023 0 0 1 2.764864,2.705951 2.7649811,2.7061023 0 0 1 -2.764864,2.706172 2.7649811,2.7061023 0 0 1 -2.765085,-2.706172 2.7649811,2.7061023 0 0 1 2.765085,-2.705951 z m 24.822541,0.01429 a 2.7649811,2.7061023 0 0 1 2.764865,2.705952 2.7649811,2.7061023 0 0 1 -2.764865,2.70617 2.7649811,2.7061023 0 0 1 -2.765083,-2.70617 2.7649811,2.7061023 0 0 1 2.765083,-2.705952 z"
       id="path4987" /><path
       style="color:#000000;fill:#000000;fill-rule:evenodd;-inkscape-stroke:none"
       d="m 64.097656,57.742187 c -4.408658,0.01264 -9.678604,1.080996 -13.921875,3.302735 -1.521234,0.759059 -2.650647,1.949616 -3.990234,2.232422 -0.654373,0.138147 -1.432283,-0.215888 -2.128906,-0.478516 -0.348312,-0.131314 -0.676817,-0.23972 -0.966797,-0.244141 -0.28998,-0.0044 -0.54609,0.108035 -0.710938,0.398438 -0.259228,0.456672 -0.153099,0.998141 0.136719,1.541016 0.289818,0.542875 0.766013,1.096301 1.271484,1.59375 1.010943,0.994897 2.142578,1.769531 2.142578,1.769531 l 0.002,0.002 6.486328,3.771484 6.84375,1.771485 9.318359,-0.119141 7.904297,-2.240234 6.132812,-3.539063 0.0039,-0.002 c 0,0 1.01769,-0.763036 1.912109,-1.722656 0.44721,-0.47981 0.862639,-1.009169 1.107422,-1.521485 0.244783,-0.512315 0.319996,-1.016513 0.05664,-1.425781 -0.210742,-0.327503 -0.547468,-0.435143 -0.923829,-0.410156 -0.37636,0.02499 -0.801055,0.174276 -1.232421,0.353516 -0.431366,0.179239 -0.867595,0.388935 -1.259766,0.541015 -0.392171,0.152081 -0.741277,0.241762 -0.980469,0.195313 -0.503125,-0.09771 -1.090205,-0.510128 -1.708984,-0.988282 -0.618779,-0.478153 -1.271024,-1.019817 -1.925781,-1.361328 -4.888398,-2.552562 -7.642575,-3.196594 -13.566407,-3.419922 z m -0.002,0.115235 h 0.002 c 5.915121,0.223143 8.636619,0.860544 13.515625,3.408203 0.638114,0.332829 1.287233,0.869762 1.908203,1.349609 0.62097,0.479847 1.211841,0.905691 1.757813,1.011719 0.28536,0.05541 0.644246,-0.04655 1.042969,-0.201172 0.398722,-0.154621 0.836442,-0.365448 1.263671,-0.542969 0.42723,-0.17752 0.844014,-0.320426 1.195313,-0.34375 0.351299,-0.02332 0.629062,0.06433 0.816406,0.355469 0.234441,0.364333 0.175418,0.820594 -0.06055,1.314453 -0.235964,0.49386 -0.647158,1.015279 -1.089843,1.490235 -0.88537,0.949911 -1.896485,1.710937 -1.896485,1.710937 l -6.111328,3.523438 -7.875,2.234375 -9.287109,0.117187 -6.814453,-1.761719 -6.470704,-3.765625 c -0.0045,-0.0031 -1.123549,-0.770272 -2.123046,-1.753906 -0.500747,-0.492799 -0.969736,-1.039473 -1.25,-1.564453 -0.280265,-0.52498 -0.371661,-1.019241 -0.138672,-1.429687 0.146551,-0.258172 0.345757,-0.34188 0.607422,-0.337891 0.261665,0.004 0.582458,0.106158 0.927734,0.236328 0.690552,0.26034 1.484562,0.632471 2.195312,0.482422 1.390653,-0.293586 2.519677,-1.49477 4.017579,-2.242188 4.221146,-2.210154 9.477504,-3.278143 13.867187,-3.291015 z m -0.175781,2.65625 c -2.435021,-1.5e-5 -4.410148,1.948201 -4.410156,4.351562 4e-6,2.403365 1.975132,4.351577 4.410156,4.351563 2.435022,1.1e-5 4.412105,-1.948201 4.412109,-4.351563 -8e-6,-2.403359 -1.97709,-4.351573 -4.412109,-4.351562 z m 0,0.115234 c 2.372869,-1.1e-5 4.294913,1.896835 4.294922,4.236328 -4e-6,2.339497 -1.922049,4.236339 -4.294922,4.236328 -2.372875,1.5e-5 -4.292965,-1.896828 -4.292969,-4.236328 8e-6,-2.339496 1.920097,-4.236342 4.292969,-4.236328 z m -12.658203,1.236328 c -1.557865,-5.7e-5 -2.822179,1.236968 -2.822266,2.763672 -4e-5,1.526792 1.264311,2.765683 2.822266,2.765625 1.557867,-6.4e-5 2.824259,-1.238919 2.824218,-2.765625 -8.7e-5,-1.526617 -1.266441,-2.763607 -2.824218,-2.763672 z m 24.822265,0.01367 c -1.557864,-5.6e-5 -2.822179,1.238922 -2.822265,2.765625 -3.9e-5,1.52679 1.264312,2.763728 2.822265,2.763672 1.557867,-6.4e-5 2.824258,-1.236967 2.824219,-2.763672 -8.7e-5,-1.526618 -1.266441,-2.765561 -2.824219,-2.765625 z m -24.822265,0.103516 c 1.496121,6.2e-5 2.706947,1.184234 2.707031,2.646484 3.8e-5,1.462335 -1.210823,2.648376 -2.707031,2.648438 -1.496293,5.5e-5 -2.70707,-1.186021 -2.707032,-2.648438 8.4e-5,-1.462332 1.210826,-2.646539 2.707032,-2.646484 z m 24.822265,0.01367 c 1.496123,6.1e-5 2.706949,1.186187 2.707032,2.648437 3.7e-5,1.462334 -1.210824,2.646423 -2.707032,2.646485 -1.496291,5.4e-5 -2.707068,-1.184069 -2.707031,-2.646485 8.3e-5,-1.462332 1.210826,-2.648491 2.707031,-2.648437 z"
       id="path4989" /><path
       style="fill:#000000;stroke-width:1.31106"
       d="M 45.527671,93.256468 C 29.316963,89.607694 25.391769,76.575252 27.926048,34.815507 29.079553,15.8081 28.984978,13.220613 27.027544,10.233191 24.176394,5.8817851 18.647618,5.6488072 17.796561,9.8442069 17.467441,11.466639 16.903245,19.066673 16.54279,26.733167 c -0.362946,7.719485 -1.507772,15.979159 -2.56573,18.511212 -2.06791,4.949206 -6.6265161,8.847994 -10.3454006,8.847994 -3.16820393,0 -3.03363573,-4.754504 0.1581935,-5.589188 5.2973223,-1.38528 7.0200141,-6.732544 7.9033181,-24.532022 0.689811,-13.90038 1.273795,-17.3780384 3.292845,-19.6090639 4.229595,-4.67365085 13.28615,-2.7560648 16.653278,3.5260755 1.847604,3.4471224 1.918215,6.2671494 1.058443,42.2710284 -0.662597,27.746852 1.772201,34.749088 13.224979,38.033701 8.602387,2.467132 16.243061,-4.614927 15.348359,-10.900989 -0.363646,-2.554926 -0.325056,-3.082486 -1.943716,-3.383369 0.913336,-2.619057 7.659579,-2.946688 8.953985,-0.259794 l -0.679942,5.584306 C 66.405407,89.055665 57.33367,95.913811 45.527671,93.256468 Z"
       id="path174"
       sodipodi:nodetypes="ssssssssssssssccss" /></g></svg>
