<?xml version="1.0" encoding="UTF-8" standalone="no"?>
<!-- Created with Inkscape (http://www.inkscape.org/) -->

<svg
   width="100"
   height="100"
   viewBox="0 0 93.750001 93.750002"
   id="svg2"
   version="1.1"
   inkscape:version="1.2.1 (9c6d41e410, 2022-07-14)"
   sodipodi:docname="Tesla-hpwc-model-s.svg"
   inkscape:export-filename="/Users/sss/Desktop/EV Plugs/tesla-hpwc-model-s.png"
   inkscape:export-xdpi="600.09003"
   inkscape:export-ydpi="600.09003"
   xmlns:inkscape="http://www.inkscape.org/namespaces/inkscape"
   xmlns:sodipodi="http://sodipodi.sourceforge.net/DTD/sodipodi-0.dtd"
   xmlns="http://www.w3.org/2000/svg"
   xmlns:svg="http://www.w3.org/2000/svg"
   xmlns:rdf="http://www.w3.org/1999/02/22-rdf-syntax-ns#"
   xmlns:cc="http://creativecommons.org/ns#"
   xmlns:dc="http://purl.org/dc/elements/1.1/">
  <defs
     id="defs4" />
  <sodipodi:namedview
     id="base"
     pagecolor="#ffffff"
     bordercolor="#666666"
     borderopacity="1.0"
     inkscape:pageopacity="0.0"
     inkscape:pageshadow="2"
     inkscape:zoom="3.959798"
     inkscape:cx="70.45814"
     inkscape:cy="70.710678"
     inkscape:document-units="px"
     inkscape:current-layer="layer1"
     showgrid="true"
     inkscape:snap-grids="false"
     inkscape:window-width="1203"
     inkscape:window-height="851"
     inkscape:window-x="6"
     inkscape:window-y="0"
     inkscape:window-maximized="0"
     inkscape:showpageshadow="2"
     inkscape:pagecheckerboard="0"
     inkscape:deskcolor="#d1d1d1">
    <inkscape:grid
       type="xygrid"
       id="grid4198"
       originx="0"
       originy="0" />
  </sodipodi:namedview>
  <metadata
     id="metadata7">
    <rdf:RDF>
      <cc:Work
         rdf:about="">
        <dc:format>image/svg+xml</dc:format>
        <dc:type
           rdf:resource="http://purl.org/dc/dcmitype/StillImage" />
      </cc:Work>
    </rdf:RDF>
  </metadata>
  <g
     inkscape:label="Layer 1"
     inkscape:groupmode="layer"
     id="layer1">
    <path
       style="color:#000000;fill:#000000;fill-rule:evenodd;-inkscape-stroke:none"
       d="m 21.845703,11.199219 c -10.085576,0 -18.2226561,8.496527 -18.2226561,18.785156 -6e-7,10.28863 8.1370801,18.785156 18.2226561,18.785156 10.085577,0 18.220704,-8.496526 18.220703,-18.785156 0,-10.288629 -8.135127,-18.785156 -18.220703,-18.785156 z m 0,5.576172 c 6.961477,0 12.644531,5.828279 12.644531,13.208984 10e-7,7.380705 -5.683054,13.207031 -12.644531,13.207031 -6.961476,0 -12.6445316,-5.826326 -12.6445311,-13.207031 0,-7.380705 5.6830551,-13.208984 12.6445311,-13.208984 z"
       id="path4200" />
    <path
       style="color:#000000;fill:#000000;fill-rule:evenodd;-inkscape-stroke:none"
       d="m 71.796875,11.199219 c -10.085576,0 -18.220703,8.496527 -18.220703,18.785156 -10e-7,10.28863 8.135126,18.785156 18.220703,18.785156 10.085577,0 18.222657,-8.496526 18.222656,-18.785156 0,-10.288629 -8.13708,-18.785156 -18.222656,-18.785156 z m 0,5.576172 c 6.961476,0 12.644531,5.828279 12.644531,13.208984 10e-7,7.380705 -5.683054,13.207031 -12.644531,13.207031 -6.961477,0 -12.644532,-5.826326 -12.644531,-13.207031 0,-7.380705 5.683055,-13.208984 12.644531,-13.208984 z"
       id="ellipse4202" />
    <path
       style="color:#000000;fill:#000000;fill-rule:evenodd;-inkscape-stroke:none"
       d="m 30.521484,7.8398437 c 0,0 -5.991551,0.7180947 -9.621093,1.8125001 -3.761341,1.1341572 -8.263944,2.2288022 -12.1328129,5.2441402 -2.6353536,2.053957 -4.3278876,4.769216 -5.6035156,7.3125 -1.3788412,2.749068 -1.8750993,5.538909 -2.34960937,7.960938 -0.49493028,2.526211 -0.78344619,5.117206 -0.8125,7.724609 -0.02821376,2.527435 0.25171514,4.960221 0.59570312,7.275391 0.36294763,2.442724 0.84580805,4.939423 1.60351565,7.419922 0.8523263,2.790282 1.9713529,5.440263 3.1835937,7.96875 1.2406239,2.587724 2.6143611,5.264966 4.4101563,7.798828 1.6483061,2.325766 3.5403261,4.567518 5.7441411,6.544922 2.47474,2.220486 5.223945,4.136837 8.136718,5.705078 2.778164,1.49577 5.740432,2.660178 8.779297,3.470703 3.258886,0.869207 6.518742,1.206446 9.632813,1.417969 3.550673,0.241171 7.160918,0.244856 10.765625,-0.101563 3.38679,-0.325442 6.881303,-0.852387 10.320312,-1.914062 3.091152,-0.954294 6.003729,-2.306257 8.722656,-3.851563 2.215207,-1.259018 4.416617,-2.734325 6.410157,-4.560547 2.650442,-2.427997 4.919138,-5.197185 6.878906,-8.078125 1.936402,-2.846592 3.535745,-5.901248 4.826172,-9.042968 1.255754,-3.057311 2.173642,-6.232784 2.810547,-9.425782 0.572385,-2.869459 0.849438,-5.775646 0.90625,-8.648437 0.06878,-3.47681 0.0068,-7.136636 -0.716797,-10.830078 -0.534101,-2.725324 -1.110395,-6.015878 -3.107422,-9.039063 -2.027103,-3.068721 -4.88344,-5.189026 -7.619141,-6.832031 -2.99001,-1.795753 -6.132866,-2.58504 -8.86914,-3.3476562 C 70.820023,9.1007044 68.356746,8.8251407 66.160156,8.4375 l -3.193359,-0.5644531 -1.13086,6.4082031 3.19336,0.5625 c 2.446461,0.431736 4.692981,0.707728 6.638672,1.25 2.79137,0.777972 5.336336,1.495597 7.265625,2.654297 2.291182,1.376036 4.336132,3.017789 5.541015,4.841797 1.05261,1.593484 1.622346,4.000689 2.152344,6.705078 0.578902,2.954715 0.66092,6.152715 0.595703,9.449219 -0.05021,2.538857 -0.294796,5.065235 -0.78125,7.503906 -0.564094,2.82798 -1.372315,5.604691 -2.449219,8.226562 -1.13543,2.76436 -2.532709,5.422857 -4.1875,7.855469 -1.73578,2.551669 -3.698169,4.929215 -5.892578,6.939453 -1.515608,1.388403 -3.308225,2.608661 -5.230468,3.701172 -2.39869,1.363299 -4.894384,2.510878 -7.427735,3.292969 -2.825503,0.872277 -5.884048,1.352628 -9.023437,1.654297 -3.187325,0.306307 -6.446159,0.307159 -9.703125,0.08594 -2.94481,-0.200025 -5.785707,-0.517067 -8.394532,-1.21289 C 31.578463,77.10972 29.080516,76.127353 26.761719,74.878906 24.292846,73.549662 21.957347,71.919991 19.882812,70.058594 18.124641,68.481049 16.533137,66.610951 15.103516,64.59375 13.657882,62.553965 12.434783,60.213269 11.251953,57.746094 10.132504,55.411152 9.1471403,53.057378 8.4238281,50.689453 7.7971831,48.638012 7.3666968,46.457382 7.0332031,44.212891 6.7125538,42.054799 6.4855463,39.96144 6.5078125,37.966797 6.5320586,35.790853 6.7744339,33.588098 7.1992187,31.419922 7.6759717,28.986444 8.1410442,26.798604 8.9804688,25.125 c 1.0499152,-2.093271 2.3292562,-3.962948 3.7851562,-5.097656 2.454833,-1.913261 6.096923,-2.964103 10.011719,-4.144531 2.284388,-0.688805 8.59375,-1.591797 8.59375,-1.591797 z"
       id="path4206" />
    <path
       style="color:#000000;fill:#000000;fill-rule:evenodd;-inkscape-stroke:none"
       d="m 46.953125,6.9453125 c -2.066587,0.00283 -4.093228,0.1085513 -6.078125,0.1875 -3.735964,0.1485205 -7.266909,0.2175848 -9.550781,0.6054687 -2.081157,0.3534567 -6.527344,1.2910157 -6.527344,1.2910157 l 0.775391,3.6875001 c 0,0 4.523739,-0.947933 6.382812,-1.263672 1.656358,-0.281309 5.303037,-0.404922 9.070313,-0.554687 2.016133,-0.08019 3.992734,-0.18289 5.93164,-0.185547 h 0.002 c 2.133108,-0.0034 4.303418,0.101784 6.511719,0.185547 1.409059,0.05345 2.737361,0.05899 3.970703,0.185546 l 5.410156,0.554688 0.384766,-3.748047 -5.412109,-0.5546875 C 56.341175,7.1837627 54.93297,7.1828772 53.613281,7.1328125 51.432233,7.0500834 49.212733,6.9417117 46.953125,6.9453125 Z"
       id="path4208" />
    <path
       style="color:#000000;fill:#000000;fill-rule:evenodd;stroke-width:0.185903px;-inkscape-stroke:none"
       d="m 47.941604,57.461518 c -7.015722,0.0201 -15.409594,1.724082 -22.159231,5.258131 -2.407332,1.201201 -4.20786,3.10846 -6.384837,3.56805 -2.176988,0.45959 -5.016208,-2.312998 -6.009392,-0.563353 -1.569892,2.765613 5.633586,7.699463 5.633586,7.699463 l 10.328693,6.009043 10.891718,2.816799 14.835561,-0.187559 12.581789,-3.568061 9.765,-5.633586 c 0,0 6.470362,-4.856645 4.882676,-7.323996 -1.269667,-1.973131 -5.275189,1.451606 -6.948213,1.126717 -1.673012,-0.3249 -3.759721,-2.68024 -5.821484,-3.755619 C 61.748825,58.840568 57.382814,57.81745 47.941604,57.461518 Z m -0.281846,4.420072 a 6.9413587,6.8474641 0 0 1 6.94139,6.847441 6.9413587,6.8474641 0 0 1 -6.94139,6.847453 6.9413587,6.8474641 0 0 1 -6.941401,-6.847453 6.9413587,6.8474641 0 0 1 6.941401,-6.847441 z m -20.187303,2.156425 a 4.409357,4.315462 0 0 1 4.409171,4.315221 4.409357,4.315462 0 0 1 -4.409171,4.315573 4.409357,4.315462 0 0 1 -4.409521,-4.315573 4.409357,4.315462 0 0 1 4.409521,-4.315221 z m 39.584881,0.02278 a 4.409357,4.315462 0 0 1 4.409171,4.315222 4.409357,4.315462 0 0 1 -4.409171,4.315572 4.409357,4.315462 0 0 1 -4.409521,-4.315572 4.409357,4.315462 0 0 1 4.409521,-4.315222 z"
       id="path4534" />
    <path
       style="color:#000000;fill:#000000;fill-rule:evenodd;-inkscape-stroke:none"
       d="m 47.941406,57.369141 c -7.030553,0.02014 -15.436317,1.724538 -22.203125,5.267578 -2.425151,1.210518 -4.223573,3.109649 -6.359375,3.560547 -1.04354,0.220304 -2.285568,-0.342902 -3.396484,-0.761719 -0.555458,-0.209409 -1.07858,-0.381623 -1.541016,-0.388672 -0.462436,-0.007 -0.871881,0.167748 -1.134765,0.630859 -0.413396,0.728261 -0.245381,1.595207 0.216797,2.460938 0.462177,0.865731 1.221261,1.745774 2.027343,2.539062 C 17.162947,72.264311 18.96875,73.5 18.96875,73.5 l 0.0039,0.002 10.341797,6.017578 10.916016,2.822266 14.861328,-0.1875 12.603515,-3.574219 9.78125,-5.642578 0.0039,-0.002 c 0,0 1.622484,-1.217727 3.048828,-2.748047 0.713172,-0.76516 1.379172,-1.608784 1.769531,-2.425781 0.390359,-0.816998 0.505914,-1.622724 0.08594,-2.275391 -0.336073,-0.522275 -0.870515,-0.692191 -1.470704,-0.652344 -0.600188,0.03985 -1.276937,0.276664 -1.964843,0.5625 -0.687906,0.285836 -1.386319,0.620756 -2.011719,0.863282 -0.6254,0.242525 -1.179105,0.386573 -1.560547,0.3125 C 74.574613,66.416451 73.637166,65.75666 72.650391,64.994141 71.663615,64.231622 70.624229,63.36883 69.580078,62.824219 61.784477,58.753607 57.392136,57.725284 47.945312,57.369141 h -0.002 z m -0.0039,0.185546 h 0.0039 c 9.432528,0.35587 13.77227,1.37284 21.552735,5.435547 1.017609,0.530767 2.052698,1.385172 3.042968,2.150391 0.990271,0.765219 1.934018,1.444197 2.804688,1.613281 0.455069,0.08837 1.028213,-0.07373 1.664062,-0.320312 0.635849,-0.246577 1.332363,-0.582139 2.013672,-0.865235 0.68131,-0.283095 1.347982,-0.513586 1.908203,-0.550781 0.560222,-0.03719 1.002021,0.10407 1.300782,0.568359 0.373865,0.581008 0.27864,1.308139 -0.09766,2.095704 -0.376296,0.787564 -1.032325,1.621487 -1.738281,2.378906 -1.411913,1.514837 -3.023437,2.724609 -3.023437,2.724609 l -9.746094,5.623047 -12.558594,3.560547 -14.810547,0.1875 -10.867187,-2.810547 -10.3125,-5.998047 -0.002,-0.002 -0.0039,-0.002 c -0.0057,-0.0039 -1.792163,-1.229582 -3.386718,-2.798828 -0.798549,-0.785874 -1.547199,-1.656948 -1.994141,-2.494141 -0.446942,-0.837193 -0.5903,-1.626706 -0.21875,-2.28125 0.233707,-0.41171 0.553422,-0.54347 0.970703,-0.537109 0.417281,0.0064 0.925945,0.169369 1.476563,0.376953 1.101234,0.415167 2.366554,1.008816 3.5,0.769531 2.217692,-0.468185 4.019478,-2.384255 6.408203,-3.576172 h 0.002 C 32.557425,59.278311 40.937378,57.575341 47.9375,57.554687 Z m -0.277344,4.234375 c -3.883165,-2.3e-5 -7.035143,3.106777 -7.035156,6.939454 6e-6,3.832681 3.151986,6.941429 7.035156,6.941406 3.883166,1.7e-5 7.033197,-3.108729 7.033203,-6.941406 -1.3e-5,-3.832673 -3.150042,-6.939471 -7.033203,-6.939454 z m 0,0.185547 c 3.784051,-1.6e-5 6.847644,3.023081 6.847656,6.753907 -6e-6,3.73083 -3.0636,6.755876 -6.847656,6.755859 -3.784059,2.3e-5 -6.849603,-3.025025 -6.849609,-6.755859 1.3e-5,-3.73083 3.065554,-6.753929 6.849609,-6.753907 z m -20.1875,1.970703 c -2.48435,-9e-5 -4.501814,1.973547 -4.501953,4.408204 -6.4e-5,2.434797 2.01746,4.408293 4.501953,4.408203 2.484355,-1.03e-4 4.502017,-1.973543 4.501953,-4.408203 -1.39e-4,-2.434521 -2.017742,-4.408101 -4.501953,-4.408204 z m 39.583985,0.02344 c -2.484351,-9e-5 -4.501815,1.973546 -4.501954,4.408203 -6.3e-5,2.434797 2.017461,4.408294 4.501954,4.408203 2.484353,-1.02e-4 4.502016,-1.973542 4.501953,-4.408203 -1.39e-4,-2.434521 -2.017742,-4.4081 -4.501953,-4.408203 z m -39.583985,0.162109 c 2.385888,9.9e-5 4.316273,1.890785 4.316406,4.222657 6.2e-5,2.332006 -1.93038,4.222557 -4.316406,4.222656 -2.386159,8.7e-5 -4.316467,-1.890519 -4.316406,-4.222656 1.33e-4,-2.332003 1.930385,-4.222743 4.316406,-4.222657 z m 39.583985,0.02344 c 2.385888,9.8e-5 4.316273,1.890784 4.316406,4.222656 6.1e-5,2.332006 -1.930381,4.222558 -4.316406,4.222656 -2.38616,8.7e-5 -4.316467,-1.890519 -4.316407,-4.222656 1.33e-4,-2.332003 1.930385,-4.222743 4.316407,-4.222656 z"
       id="path4536" />
    <path
       style="color:#000000;fill:#000000;fill-rule:evenodd;-inkscape-stroke:none"
       d="m 83.242187,40.630859 c -1.890694,-0.206646 -3.182706,0.392365 -4.34375,0.84961 -1.161043,0.457245 -2.074218,0.941406 -2.074218,0.941406 l 2.480468,4.699219 c 0,0 0.681778,-0.358878 1.541016,-0.697266 0.859238,-0.338387 2.012491,-0.488761 1.820313,-0.509766 1.036109,0.113237 1.100861,0.287224 1.849609,0.96875 0.0038,0.0035 0.380845,0.735107 0.535156,1.734375 0.111872,0.724458 0.0084,2.730917 -0.210937,4.337891 -0.219311,1.606974 -0.486328,2.892578 -0.486328,2.892578 l 5.203125,1.083985 c 0,0 0.302411,-1.452219 0.548828,-3.257813 0.246416,-1.805594 0.503003,-3.887304 0.197265,-5.867187 -0.208728,-1.351652 -0.486475,-3.285635 -2.208984,-4.853516 -0.829912,-0.755404 -2.490639,-2.06424 -4.851563,-2.322266 z"
       id="path4214" />
    <path
       style="color:#000000;fill:#000000;fill-rule:evenodd;-inkscape-stroke:none"
       d="M 10.410156,40.882812 C 9.1387559,41.001606 8.4198914,41.41284 7.7246094,41.742187 7.0293273,42.071535 6.4824219,42.388672 6.4824219,42.388672 L 6.2382812,42.529297 6.0292969,42.71875 C 4.3942936,44.20393 3.8553227,46.112332 3.578125,47.625 c -0.3735896,2.038613 -0.1148464,4.16771 0.1328125,6.015625 0.2476589,1.847915 0.5644531,3.335937 0.5644531,3.335937 l 5.1015625,-1.082031 c 0,0 -0.2767791,-1.310842 -0.4960937,-2.947265 -0.2193146,-1.636423 -0.3011049,-3.677628 -0.171875,-4.382813 0.1703315,-0.929499 0.4837171,-1.549704 0.7773437,-1.863281 0.1589733,-0.08564 0.2083136,-0.118924 0.4726563,-0.244141 0.4883186,-0.231311 1.2030736,-0.403902 0.9355466,-0.378906 -0.231996,0.02168 0.705795,0.0638 1.367188,0.193359 0.661393,0.12956 1.216797,0.271485 1.216797,0.271485 l 1.287109,-5.054688 c 0,0 -0.677743,-0.174866 -1.5,-0.335937 -0.822257,-0.161072 -1.619598,-0.385033 -2.855469,-0.269532 z"
       id="path4216" />
    <path
       style="color:#000000;fill:#000000;fill-rule:evenodd;-inkscape-stroke:none"
       d="m 58.912109,7.4375 -0.330078,3.734375 c 0,0 1.753208,0.284828 2.138672,1.341797 0.156654,0.429554 0.02699,1.31204 -0.332031,2.126953 -0.359019,0.814913 -0.794922,1.398437 -0.794922,1.398437 l 2.988281,2.263672 c 0,0 0.687182,-0.899485 1.238281,-2.15039 0.5511,-1.250906 1.118892,-3.017919 0.423829,-4.923828 C 62.943369,7.6617112 58.912109,7.4375 58.912109,7.4375 Z"
       id="path4220" />
    <path
       style="color:#000000;fill:#000000;stroke-linecap:round;-inkscape-stroke:none"
       d="m 4.1855469,37.386719 c -1.9340655,0 -3.54882815,1.614762 -3.54882815,3.548828 0,1.934066 1.61476135,3.548828 3.54882815,3.548828 h 3.3808593 c 1.9340668,0 3.5488278,-1.614762 3.5488278,-3.548828 0,-1.934066 -1.6147623,-3.548828 -3.5488278,-3.548828 z"
       id="rect4224" />
    <path
       style="color:#000000;fill:#000000;stroke-linecap:round;-inkscape-stroke:none"
       d="m 84.935547,38.138672 c -1.934067,0 -3.548828,1.614761 -3.548828,3.548828 0,1.934067 1.614762,3.548828 3.548828,3.548828 h 3.380859 c 1.934066,0 3.548828,-1.614761 3.548828,-3.548828 0,-1.934067 -1.614761,-3.548828 -3.548828,-3.548828 z"
       id="rect4226" />
    <path
       style="color:#000000;fill:#000000;fill-rule:evenodd;-inkscape-stroke:none"
       d="m 34.564453,7.4375 c 0,0 -4.031275,0.2242044 -5.332031,3.791016 -0.695064,1.905909 -0.127272,3.672922 0.423828,4.923828 0.5511,1.250905 1.238281,2.15039 1.238281,2.15039 l 2.988281,-2.263672 c 0,0 -0.435903,-0.583524 -0.794921,-1.398437 -0.359019,-0.814913 -0.488685,-1.697399 -0.332032,-2.126953 0.385457,-1.056962 2.138672,-1.341797 2.138672,-1.341797 z"
       id="path4157" />
  </g>
</svg>
