<?xml version="1.0" encoding="UTF-8" standalone="no"?>
<svg
   width="100"
   height="100"
   version="1.1"
   id="svg4"
   sodipodi:docname="AC_1P.svg"
   inkscape:version="1.2.1 (9c6d41e410, 2022-07-14)"
   xml:space="preserve"
   xmlns:inkscape="http://www.inkscape.org/namespaces/inkscape"
   xmlns:sodipodi="http://sodipodi.sourceforge.net/DTD/sodipodi-0.dtd"
   xmlns="http://www.w3.org/2000/svg"
   xmlns:svg="http://www.w3.org/2000/svg"><defs
     id="defs8"><rect
       x="3.75"
       y="29.75"
       width="25"
       height="45.5"
       id="rect405" /><rect
       x="1.7977291"
       y="9.88751"
       width="19.999736"
       height="43.370214"
       id="rect395" /></defs><sodipodi:namedview
     id="namedview6"
     pagecolor="#ffffff"
     bordercolor="#000000"
     borderopacity="0.25"
     inkscape:showpageshadow="2"
     inkscape:pageopacity="0.0"
     inkscape:pagecheckerboard="0"
     inkscape:deskcolor="#d1d1d1"
     showgrid="false"
     inkscape:zoom="2.8284271"
     inkscape:cx="-37.299883"
     inkscape:cy="15.733126"
     inkscape:window-width="1368"
     inkscape:window-height="860"
     inkscape:window-x="-6"
     inkscape:window-y="-6"
     inkscape:window-maximized="1"
     inkscape:current-layer="svg4" /><path
     d="m 96.795796,46.013492 c -1.359582,-0.608464 -2.988234,-0.08327 -3.668025,1.152882 -0.04246,0.06405 -4.022078,7.365629 -10.154327,7.878019 C 77.797145,55.511951 72.847439,50.785138 69.561794,46.756462 63.571165,39.422857 57.368108,35.996238 51.214613,36.489416 41.973746,37.290027 36.854096,46.762866 36.6275,47.172778 c -0.651465,1.24255 -0.06374,2.715676 1.274599,3.311331 1.380818,0.595655 3.030724,0.09607 3.696348,-1.146476 0.02832,-0.08327 4.029157,-7.372034 10.161411,-7.884425 5.126733,-0.448342 10.125999,4.265662 13.390398,8.275124 5.601169,6.853236 11.365202,10.318284 17.107995,10.318284 0.43903,0 0.835571,-0.01281 1.26044,-0.05764 9.2267,-0.774994 14.353432,-10.267046 14.558789,-10.66415 0.67979,-1.242547 0.0921,-2.722079 -1.281684,-3.31133 z"
     id="path2"
     style="stroke-width:0.224484;fill:#000000" /><path
     style="fill:#000000;stroke-width:0.402012"
     d="M 10.452324,52.271455 V 35.166981 L 8.9447771,36.375883 C 7.1209006,37.838448 1.2264862,41.235056 0.5122505,41.235056 0.1499615,41.235056 0,40.472468 0,38.630145 v -2.604909 l 1.708553,-0.86721 c 3.887523,-1.973186 8.860543,-6.302322 10.187585,-8.868538 0.511267,-0.988683 0.81868,-1.13493 2.385626,-1.13493 h 1.798732 V 47.265243 69.375931 H 13.26641 10.452324 Z"
     id="path504"
     sodipodi:nodetypes="ccssscssscccccc" /></svg>
