<?xml version="1.0" encoding="UTF-8" standalone="no"?>
<svg
   width="100"
   height="100"
   version="1.1"
   id="svg4"
   sodipodi:docname="AC_3P.svg"
   inkscape:version="1.2.1 (9c6d41e410, 2022-07-14)"
   xml:space="preserve"
   xmlns:inkscape="http://www.inkscape.org/namespaces/inkscape"
   xmlns:sodipodi="http://sodipodi.sourceforge.net/DTD/sodipodi-0.dtd"
   xmlns="http://www.w3.org/2000/svg"
   xmlns:svg="http://www.w3.org/2000/svg"><defs
     id="defs8"><rect
       x="3.75"
       y="29.75"
       width="25"
       height="45.5"
       id="rect405" /><rect
       x="1.7977291"
       y="9.88751"
       width="19.999736"
       height="43.370214"
       id="rect395" /></defs><sodipodi:namedview
     id="namedview6"
     pagecolor="#ffffff"
     bordercolor="#000000"
     borderopacity="0.25"
     inkscape:showpageshadow="2"
     inkscape:pageopacity="0.0"
     inkscape:pagecheckerboard="0"
     inkscape:deskcolor="#d1d1d1"
     showgrid="false"
     inkscape:zoom="2.8284271"
     inkscape:cx="-37.299883"
     inkscape:cy="15.733126"
     inkscape:window-width="1368"
     inkscape:window-height="860"
     inkscape:window-x="-6"
     inkscape:window-y="-6"
     inkscape:window-maximized="1"
     inkscape:current-layer="svg4" /><path
     d="m 97.296275,46.930176 c -1.343925,-0.601458 -2.953824,-0.0823 -3.625787,1.139606 -0.04197,0.06331 -3.975762,7.28081 -10.037396,7.787301 -5.116692,0.462172 -10.0094,-4.210209 -13.25721,-8.192494 -5.921644,-7.249155 -12.053271,-10.636316 -18.135906,-10.148817 -9.134455,0.791392 -14.195151,10.155147 -14.419137,10.56034 -0.643964,1.228242 -0.063,2.684404 1.259922,3.273199 1.364916,0.588797 2.995823,0.09497 3.653782,-1.133273 0.028,-0.0823 3.982761,-7.287143 10.044399,-7.793634 5.067696,-0.443179 10.009395,4.21654 13.236203,8.179834 5.536668,6.774317 11.234328,10.199464 16.910991,10.199464 0.433974,0 0.825948,-0.01267 1.245924,-0.05698 9.120451,-0.76607 14.18815,-10.148817 14.39114,-10.541348 0.67196,-1.22824 0.091,-2.690734 -1.266925,-3.2732 z"
     id="path2"
     style="stroke-width:0.221899;fill:#000000" /><path
     style="fill:#000000;stroke-width:0.395694"
     d="M 8.138055,68.286692 C 3.3460714,66.577401 0.05677468,62.814102 -0.82195375,58.035502 -1.040633,56.846305 -0.97411079,56.752522 0.21743029,56.570207 0.91759004,56.463077 2.1439762,56.272639 2.9427345,56.147011 l 1.4522857,-0.228413 0.6356521,2.186567 c 0.6962219,2.394915 2.4228419,4.642987 4.3334852,5.642223 2.0430555,1.068486 5.6893485,0.863718 7.9223415,-0.444904 5.019747,-2.941765 5.985066,-10.071974 1.867246,-13.792176 -2.041027,-1.843946 -3.925078,-2.420054 -7.084853,-2.166418 l -2.5628375,0.20572 0.2459144,-1.794146 c 0.1352532,-0.986782 0.2459152,-2.036389 0.2459152,-2.332462 0,-0.377861 0.5602319,-0.539467 1.8795499,-0.54218 2.546882,-0.0053 5.782534,-1.542562 6.817268,-3.239023 2.322919,-3.808459 0.874095,-8.271958 -3.243306,-9.991894 -4.006465,-1.673597 -8.6245522,0.687325 -9.8623181,5.041949 -0.2601186,0.915129 -0.5818468,1.793889 -0.7149532,1.952802 -0.1331064,0.158913 -1.3629777,0.08047 -2.7330486,-0.174325 l -2.49103842,-0.463257 0.26012804,-1.3866 c 0.39152655,-2.087021 1.92294838,-4.815517 3.62349178,-6.455888 5.931569,-5.721684 17.0890065,-4.053229 20.7029575,3.095869 2.108053,4.170138 0.926986,9.642356 -2.62084,12.143094 l -1.716583,1.209959 2.072928,1.115531 c 4.056439,2.18294 5.6636,5.35419 5.351286,10.559162 -0.308392,5.139628 -3.166284,9.14885 -8.155239,11.440665 -3.010991,1.383182 -8.007785,1.635884 -11.030112,0.557826 z"
     id="path251" /></svg>
