<?xml version="1.0" encoding="UTF-8" standalone="no"?>
<svg
   width="100"
   height="100"
   version="1.1"
   id="svg4"
   sodipodi:docname="AC_Electric_Symbol.svg"
   inkscape:version="1.2.1 (9c6d41e410, 2022-07-14)"
   xmlns:inkscape="http://www.inkscape.org/namespaces/inkscape"
   xmlns:sodipodi="http://sodipodi.sourceforge.net/DTD/sodipodi-0.dtd"
   xmlns="http://www.w3.org/2000/svg"
   xmlns:svg="http://www.w3.org/2000/svg">
  <defs
     id="defs8" />
  <sodipodi:namedview
     id="namedview6"
     pagecolor="#ffffff"
     bordercolor="#000000"
     borderopacity="0.25"
     inkscape:showpageshadow="2"
     inkscape:pageopacity="0.0"
     inkscape:pagecheckerboard="0"
     inkscape:deskcolor="#d1d1d1"
     showgrid="false"
     inkscape:zoom="4.4500587"
     inkscape:cx="63.032876"
     inkscape:cy="61.235147"
     inkscape:window-width="1368"
     inkscape:window-height="860"
     inkscape:window-x="-6"
     inkscape:window-y="-6"
     inkscape:window-maximized="1"
     inkscape:current-layer="svg4" />
  <path
     d="m 97.476649,45.436664 c -2.1929,-0.981406 -4.81979,-0.134297 -5.91624,1.859508 -0.0685,0.103306 -6.4873,11.880187 -16.37814,12.706634 -8.34897,0.754132 -16.33246,-6.869847 -21.63195,-13.367792 C 43.887899,34.80648 33.882849,29.27961 23.957739,30.075067 9.0529392,31.366391 0.79533919,46.645344 0.42985919,47.306502 c -1.05076299,2.004137 -0.1028,4.380174 2.05583001,5.340919 2.22715,0.960746 4.88832,0.154959 5.96192,-1.849177 0.0457,-0.134297 6.4987198,-11.890517 16.3895698,-12.716965 8.26902,-0.723141 16.33245,6.880179 21.59767,13.347132 9.03425,11.053737 18.33119,16.642589 27.59387,16.642589 0.70812,0 1.34771,-0.02067 2.03299,-0.09297 14.88195,-1.250005 23.15097,-16.559947 23.482193,-17.200444 1.096448,-2.004135 0.14848,-4.390504 -2.067253,-5.340919 z"
     id="path2"
     style="stroke-width:0.362075;fill:#000000" />
</svg>
