<?xml version="1.0" encoding="UTF-8" standalone="no"?>
<!-- Created with Inkscape (http://www.inkscape.org/) -->

<svg
   version="1.1"
   id="svg2"
   width="100"
   height="100"
   viewBox="0 0 100 100"
   sodipodi:docname="cable_attached - Copy.svg"
   inkscape:version="1.2.1 (9c6d41e410, 2022-07-14)"
   xml:space="preserve"
   xmlns:inkscape="http://www.inkscape.org/namespaces/inkscape"
   xmlns:sodipodi="http://sodipodi.sourceforge.net/DTD/sodipodi-0.dtd"
   xmlns="http://www.w3.org/2000/svg"
   xmlns:svg="http://www.w3.org/2000/svg"><defs
     id="defs6" /><sodipodi:namedview
     id="namedview4"
     pagecolor="#ffffff"
     bordercolor="#000000"
     borderopacity="0.25"
     inkscape:showpageshadow="2"
     inkscape:pageopacity="0.0"
     inkscape:pagecheckerboard="0"
     inkscape:deskcolor="#d1d1d1"
     showgrid="false"
     inkscape:zoom="4.6354778"
     inkscape:cx="81.652856"
     inkscape:cy="44.979182"
     inkscape:window-width="1368"
     inkscape:window-height="860"
     inkscape:window-x="-6"
     inkscape:window-y="-6"
     inkscape:window-maximized="1"
     inkscape:current-layer="g8" /><g
     inkscape:groupmode="layer"
     inkscape:label="Image"
     id="g8"><path
       style="fill:#000000;stroke-width:1.33305"
       d="M 48.432373,98.342597 C 31.949697,94.63261 27.958651,81.381521 30.535445,38.921169 31.708302,19.594873 31.61214,16.963978 29.621866,13.926438 26.722882,9.5020275 21.101349,9.2651415 20.236012,13.530922 c -0.334638,1.649656 -0.908299,9.377194 -1.274804,17.172308 -0.369037,7.848996 -1.53307,16.247247 -2.608777,18.821776 -2.1026,5.032243 -6.7376887,8.996439 -10.5189627,8.996439 -3.221357,0 -3.084535,-4.83427 0.160844,-5.682958 C 11.38051,51.429966 13.132102,45.992993 14.030227,27.89489 14.731613,13.761303 15.325394,10.2253 17.378319,7.9568431 c 4.300553,-4.752058 13.509051,-2.802302 16.932672,3.5852339 1.8786,3.504954 1.950398,6.372295 1.076198,42.980207 -0.673711,28.212366 1.801934,35.332079 13.446859,38.671798 8.746707,2.508524 20.607923,-3.368356 19.69821,-9.759877 -0.369748,-2.597792 -1.413779,-3.134204 -3.059597,-3.440133 0.928657,-2.662996 7.667721,-2.87576 8.983844,-0.143788 l -0.811714,5.076175 c -1.588659,9.93495 -13.208347,16.118071 -25.212418,13.416138 z"
       id="path174"
       sodipodi:nodetypes="ssssssssssssssccss" /><g
       id="layer1"
       transform="matrix(0.12167706,0,0,0.13452508,25.486324,-25.187406)"><ellipse
         ry="32.689156"
         rx="33.477383"
         cy="446.20895"
         cx="425.64734"
         id="ellipse4206"
         style="fill:none;fill-opacity:1;fill-rule:evenodd;stroke:#000000;stroke-width:23;stroke-linecap:butt;stroke-linejoin:miter;stroke-miterlimit:4;stroke-dasharray:none;stroke-dashoffset:0;stroke-opacity:1" /><ellipse
         style="fill:none;fill-opacity:1;fill-rule:evenodd;stroke:#000000;stroke-width:23;stroke-linecap:butt;stroke-linejoin:miter;stroke-miterlimit:4;stroke-dasharray:none;stroke-dashoffset:0;stroke-opacity:1"
         id="ellipse4208"
         cx="318.4473"
         cy="446.20895"
         rx="33.477383"
         ry="32.689156" /><ellipse
         ry="32.689156"
         rx="33.477383"
         cy="357.92654"
         cx="268.00021"
         id="ellipse4210"
         style="fill:none;fill-opacity:1;fill-rule:evenodd;stroke:#000000;stroke-width:23;stroke-linecap:butt;stroke-linejoin:miter;stroke-miterlimit:4;stroke-dasharray:none;stroke-dashoffset:0;stroke-opacity:1" /><ellipse
         style="fill:none;fill-opacity:1;fill-rule:evenodd;stroke:#000000;stroke-width:23;stroke-linecap:butt;stroke-linejoin:miter;stroke-miterlimit:4;stroke-dasharray:none;stroke-dashoffset:0;stroke-opacity:1"
         id="ellipse4212"
         cx="372.04733"
         cy="357.92654"
         rx="33.477383"
         ry="32.689156" /><ellipse
         ry="32.689156"
         rx="33.477383"
         cy="357.92654"
         cx="474.51797"
         id="ellipse4214"
         style="fill:none;fill-opacity:1;fill-rule:evenodd;stroke:#000000;stroke-width:23;stroke-linecap:butt;stroke-linejoin:miter;stroke-miterlimit:4;stroke-dasharray:none;stroke-dashoffset:0;stroke-opacity:1" /><ellipse
         style="fill:none;fill-opacity:1;fill-rule:evenodd;stroke:#000000;stroke-width:23;stroke-linecap:butt;stroke-linejoin:miter;stroke-miterlimit:4;stroke-dasharray:none;stroke-dashoffset:0;stroke-opacity:1"
         id="ellipse4216"
         cx="424.85913"
         cy="286.19711"
         rx="24.440186"
         ry="25.228432" /><ellipse
         ry="25.228432"
         rx="24.440186"
         cy="286.19711"
         cx="322.38849"
         id="ellipse4218"
         style="fill:none;fill-opacity:1;fill-rule:evenodd;stroke:#000000;stroke-width:23;stroke-linecap:butt;stroke-linejoin:miter;stroke-miterlimit:4;stroke-dasharray:none;stroke-dashoffset:0;stroke-opacity:1" /><path
         id="path4231"
         d="m 266.42366,212.10296 h 214.40011 c 0,0 22.48143,15.20157 31.95271,25.64682 9.47129,10.44526 18.49346,24.48925 24.80002,35.83524 6.30656,11.34599 11.41582,21.50855 15.76495,34.6827 4.34913,13.17415 8.33496,26.90043 9.45883,44.14119 1.12387,17.24076 -0.50993,40.83133 -4.72941,58.32944 -4.21948,17.4981 -12.05744,33.4219 -18.91765,45.71768 -6.86021,12.29577 -11.88517,18.52633 -20.49414,28.37648 -8.60897,9.85015 -19.92154,20.95923 -31.52943,29.95295 -11.60789,8.99371 -23.82267,17.22465 -37.8353,23.64707 -14.01263,6.42242 -45.71768,14.18825 -45.71768,14.18825 0,0 -42.93148,5.75825 -77.2471,-6.30588 -13.63978,-4.79525 -22.57777,-6.42989 -37.83531,-14.18825 -19.11323,-9.71895 -37.52194,-22.04048 -52.02356,-37.83531 -19.93057,-21.70791 -35.90374,-47.88308 -45.71767,-75.67063 -7.77117,-22.00358 -10.31615,-46.04493 -9.45882,-69.36474 0.65128,-17.71506 4.79457,-35.43136 11.03529,-52.02355 5.30073,-14.09303 14.29531,-27.64889 22.07061,-39.41179 7.60607,-11.50687 20.999,-24.12154 29.95295,-31.52942 8.95395,-7.40788 22.0706,-14.18825 22.0706,-14.18825 z"
         style="fill:none;fill-rule:evenodd;stroke:#000000;stroke-width:40;stroke-linecap:butt;stroke-linejoin:round;stroke-miterlimit:4;stroke-dasharray:none;stroke-opacity:1"
         inkscape:connector-curvature="0"
         sodipodi:nodetypes="ccscccccccccssssssssc" /><ellipse
         ry="53.379299"
         rx="52.591053"
         cy="676.37378"
         cx="285.34134"
         id="path4151"
         style="fill:none;fill-opacity:1;fill-rule:evenodd;stroke:#000000;stroke-width:23;stroke-linecap:butt;stroke-linejoin:miter;stroke-miterlimit:4;stroke-dasharray:none;stroke-dashoffset:0;stroke-opacity:1" /><ellipse
         style="fill:none;fill-opacity:1;fill-rule:evenodd;stroke:#000000;stroke-width:23;stroke-linecap:butt;stroke-linejoin:miter;stroke-miterlimit:4;stroke-dasharray:none;stroke-dashoffset:0;stroke-opacity:1"
         id="ellipse4204"
         cx="457.17682"
         cy="674.7973"
         rx="52.591053"
         ry="53.379299" /><rect
         ry="95.939339"
         y="581.22272"
         x="176.78996"
         height="191.87868"
         width="388.93762"
         id="rect4235"
         style="fill:none;fill-opacity:1;stroke:#000000;stroke-width:30.4508;stroke-linecap:round;stroke-linejoin:round;stroke-miterlimit:4;stroke-dasharray:none;stroke-dashoffset:0;stroke-opacity:1" /><path
         id="path4237"
         d="m 291.64696,560.50306 160.80008,1.57647"
         style="fill:none;fill-rule:evenodd;stroke:#000000;stroke-width:23;stroke-linecap:butt;stroke-linejoin:miter;stroke-miterlimit:4;stroke-dasharray:none;stroke-opacity:1"
         inkscape:connector-curvature="0" /></g></g></svg>
