<?xml version="1.0" encoding="UTF-8" standalone="no"?>
<!-- Created with Inkscape (http://www.inkscape.org/) -->

<svg
   version="1.1"
   id="svg2"
   width="100"
   height="100"
   viewBox="0 0 100 100"
   sodipodi:docname="Combo-ccs1-eu_cable_attached.svg"
   inkscape:version="1.2.1 (9c6d41e410, 2022-07-14)"
   xml:space="preserve"
   xmlns:inkscape="http://www.inkscape.org/namespaces/inkscape"
   xmlns:sodipodi="http://sodipodi.sourceforge.net/DTD/sodipodi-0.dtd"
   xmlns="http://www.w3.org/2000/svg"
   xmlns:svg="http://www.w3.org/2000/svg"><defs
     id="defs6" /><sodipodi:namedview
     id="namedview4"
     pagecolor="#ffffff"
     bordercolor="#000000"
     borderopacity="0.25"
     inkscape:showpageshadow="2"
     inkscape:pageopacity="0.0"
     inkscape:pagecheckerboard="0"
     inkscape:deskcolor="#d1d1d1"
     showgrid="false"
     inkscape:zoom="6.5555556"
     inkscape:cx="74.974576"
     inkscape:cy="46.754237"
     inkscape:window-width="1368"
     inkscape:window-height="860"
     inkscape:window-x="-6"
     inkscape:window-y="-6"
     inkscape:window-maximized="1"
     inkscape:current-layer="layer1-2" /><g
     inkscape:groupmode="layer"
     inkscape:label="Image"
     id="g8"><path
       style="fill:#000000;stroke-width:1.33305"
       d="M 48.432373,98.342597 C 31.949697,94.63261 27.958651,81.381521 30.535445,38.921169 31.708302,19.594873 31.61214,16.963978 29.621866,13.926438 26.722882,9.5020275 21.101349,9.2651415 20.236012,13.530922 c -0.334638,1.649656 -0.908299,9.377194 -1.274804,17.172308 -0.369037,7.848996 -1.53307,16.247247 -2.608777,18.821776 -2.1026,5.032243 -6.7376887,8.996439 -10.5189627,8.996439 -3.221357,0 -3.084535,-4.83427 0.160844,-5.682958 C 11.38051,51.429966 13.132102,45.992993 14.030227,27.89489 14.731613,13.761303 15.325394,10.2253 17.378319,7.9568431 c 4.300553,-4.752058 13.509051,-2.802302 16.932672,3.5852339 1.8786,3.504954 1.950398,6.372295 1.076198,42.980207 -0.673711,28.212366 1.801934,35.332079 13.446859,38.671798 8.746707,2.508524 20.607923,-3.368356 19.69821,-9.759877 -0.369748,-2.597792 -1.413779,-3.134204 -3.059597,-3.440133 0.928657,-2.662996 7.667721,-2.87576 8.983844,-0.143788 l -0.811714,5.076175 c -1.588659,9.93495 -13.208347,16.118071 -25.212418,13.416138 z"
       id="path174"
       sodipodi:nodetypes="ssssssssssssssccss" /><g
       inkscape:label="Layer 1"
       id="layer1-2"
       transform="matrix(0.84576181,0,0,0.84576181,-309.62745,-462.91126)"><g
         id="rect4167"
         style="opacity:0.99"><path
           id="path470"
           style="color:#000000;fill:#000000;stroke-width:3.00106;stroke-linecap:round;-inkscape-stroke:none"
           d="M 438.40435 617.55199 C 432.05774 617.55199 426.94787 622.66187 426.94787 629.00847 L 426.94787 629.20245 C 426.94787 635.54904 432.05774 640.65893 438.40435 640.65893 L 461.94082 640.65893 C 468.28741 640.65893 473.3973 635.54904 473.3973 629.20245 L 473.3973 629.00847 C 473.3973 622.66187 468.28741 617.55199 461.94082 617.55199 L 438.40435 617.55199 z M 460.53445 620.88201 C 464.69193 620.88201 468.05356 624.36014 468.05356 628.58124 C 468.05356 632.80236 464.69193 636.2851 460.53445 636.2851 C 456.37696 636.2851 453.01534 632.80236 453.01534 628.58124 C 453.01534 624.36014 456.37696 620.88201 460.53445 620.88201 z M 439.79917 621.12218 C 443.95664 621.12218 447.31828 624.60492 447.31828 628.82603 C 447.31828 633.04715 443.95664 636.52757 439.79917 636.52757 C 435.64169 636.52757 432.28006 633.04715 432.28006 628.82603 C 432.28006 624.60492 435.64169 621.12218 439.79917 621.12218 z M 460.53445 623.28138 C 457.71183 623.28138 455.41702 625.62135 455.41702 628.58124 C 455.41702 631.54114 457.71183 633.88342 460.53445 633.88342 C 463.35707 633.88342 465.65419 631.54114 465.65419 628.58124 C 465.65419 625.62135 463.35707 623.28138 460.53445 623.28138 z M 439.79917 623.52617 C 436.97655 623.52617 434.67943 625.86613 434.67943 628.82603 C 434.67943 631.78593 436.97655 634.12589 439.79917 634.12589 C 442.62179 634.12589 444.91891 631.78593 444.91891 628.82603 C 444.91891 625.86613 442.62179 623.52617 439.79917 623.52617 z " /><path
           style="color:#000000;fill:#000000;stroke-linecap:round;-inkscape-stroke:none"
           d="m 438.4043,616.05273 c -7.15194,0 -12.95508,5.8051 -12.95508,12.95704 v 0.1914 c 0,7.15194 5.80314,12.95703 12.95508,12.95703 h 23.53711 c 7.15193,0 12.95703,-5.80509 12.95703,-12.95703 v -0.1914 c 0,-7.15194 -5.8051,-12.95704 -12.95703,-12.95704 z m 0,3 h 23.53711 c 5.54126,0 9.95507,4.41578 9.95507,9.95704 v 0.1914 c 0,5.54126 -4.41381,9.95703 -9.95507,9.95703 H 438.4043 c -5.54126,0 -9.95508,-4.41577 -9.95508,-9.95703 v -0.1914 c 0,-5.54126 4.41382,-9.95704 9.95508,-9.95704 z"
           id="path472" /></g><path
         id="path4200"
         style="fill:#000000;fill-opacity:1;fill-rule:evenodd;stroke:#000000;stroke-width:1.49975;stroke-linecap:butt;stroke-linejoin:miter;stroke-miterlimit:4;stroke-dasharray:none;stroke-opacity:1"
         d="m 450.06482,558.89277 a 25.225633,25.449527 0 0 0 -25.22558,25.4497 25.225633,25.449527 0 0 0 25.22558,25.44939 25.225633,25.449527 0 0 0 25.22557,-25.44939 25.225633,25.449527 0 0 0 -25.22557,-25.4497 z m -11.41869,5.57273 a 9.5777466,9.3538524 0 0 1 9.57773,9.35392 9.5777466,9.3538524 0 0 1 -9.57773,9.3539 9.5777466,9.3538524 0 0 1 -9.57775,-9.3539 9.5777466,9.3538524 0 0 1 9.57775,-9.35392 z m 23.28505,0.22384 a 9.5777466,9.3538524 0 0 1 9.57776,9.35391 9.5777466,9.3538524 0 0 1 -9.57776,9.35392 9.5777466,9.3538524 0 0 1 -9.57776,-9.35392 9.5777466,9.3538524 0 0 1 9.57776,-9.35391 z m 4.16428,20.76342 a 7.0840359,7.0840365 0 0 1 7.08424,7.08424 7.0840359,7.0840365 0 0 1 -7.08424,7.08395 7.0840359,7.0840365 0 0 1 -7.08394,-7.08395 7.0840359,7.0840365 0 0 1 7.08394,-7.08424 z m -32.12501,0.29214 a 6.907421,6.8814234 0 0 1 6.90746,6.88164 6.907421,6.8814234 0 0 1 -6.90746,6.88133 6.907421,6.8814234 0 0 1 -6.90744,-6.88133 6.907421,6.8814234 0 0 1 6.90744,-6.88164 z m 16.09437,5.13999 a 9.5777466,9.3538524 0 0 1 9.57774,9.35391 9.5777466,9.3538524 0 0 1 -9.57774,9.35391 9.5777466,9.3538524 0 0 1 -9.57776,-9.35391 9.5777466,9.3538524 0 0 1 9.57776,-9.35391 z" /><ellipse
         cx="438.56198"
         cy="573.11414"
         rx="2.7612395"
         ry="2.6855872"
         style="fill:#000000;fill-opacity:1;fill-rule:evenodd;stroke:#000000;stroke-width:0.159407;stroke-linecap:butt;stroke-linejoin:miter;stroke-miterlimit:4;stroke-dasharray:none;stroke-opacity:1"
         id="ellipse4236"
         inkscape:export-xdpi="600"
         inkscape:export-ydpi="600" /><ellipse
         id="ellipse4238"
         style="fill:#000000;fill-opacity:1;fill-rule:evenodd;stroke:#000000;stroke-width:0.159407;stroke-linecap:butt;stroke-linejoin:miter;stroke-miterlimit:4;stroke-dasharray:none;stroke-opacity:1"
         ry="2.6855872"
         rx="2.7612395"
         cy="573.19452"
         cx="462.11041"
         inkscape:export-xdpi="600"
         inkscape:export-ydpi="600" /><ellipse
         cx="450.1749"
         cy="599.88092"
         rx="2.7612395"
         ry="2.6855872"
         style="fill:#000000;fill-opacity:1;fill-rule:evenodd;stroke:#000000;stroke-width:0.159407;stroke-linecap:butt;stroke-linejoin:miter;stroke-miterlimit:4;stroke-dasharray:none;stroke-opacity:1"
         id="ellipse4242"
         inkscape:export-xdpi="600"
         inkscape:export-ydpi="600" /><ellipse
         style="fill:#000000;fill-opacity:1;fill-rule:evenodd;stroke:#000000;stroke-width:0.159407px;stroke-linecap:butt;stroke-linejoin:miter;stroke-opacity:1"
         id="path4244"
         cx="433.76343"
         cy="592.60809"
         rx="1.6532307"
         ry="1.6879947"
         inkscape:export-xdpi="600"
         inkscape:export-ydpi="600" /><ellipse
         ry="1.6879947"
         rx="1.6532307"
         cy="592.28986"
         cx="466.5087"
         id="ellipse4246"
         style="fill:#000000;fill-opacity:1;fill-rule:evenodd;stroke:#000000;stroke-width:0.159407px;stroke-linecap:butt;stroke-linejoin:miter;stroke-opacity:1"
         inkscape:export-xdpi="600"
         inkscape:export-ydpi="600" /><path
         style="fill:none;fill-opacity:1;fill-rule:evenodd;stroke:#000000;stroke-width:1.20042;stroke-linecap:butt;stroke-linejoin:miter;stroke-miterlimit:4;stroke-dasharray:none;stroke-opacity:1"
         d="m 443.61852,610.09052 c 0,0 -0.99602,-0.32788 -1.48545,-0.51536 -4.73739,-1.81467 -9.33081,-4.69063 -12.39896,-8.70049 -3.64406,-4.76254 -6.3058,-10.92197 -6.12369,-16.91595 0.20259,-6.66843 3.21393,-13.66483 7.94261,-18.37108 4.78132,-4.75863 11.86815,-8.01072 18.6136,-7.9426 6.98281,0.0705 14.25779,3.57657 19.09864,8.60954 4.44358,4.61993 7.05885,11.41723 7.21505,17.82541 0.14344,5.88497 -2.23037,12.00821 -5.82054,16.67341 -3.24427,4.21573 -8.30044,7.24651 -13.21748,8.94302 -0.30523,0.10532 -0.90946,0.33347 -0.90946,0.33347 l -0.0606,2.66775 c -0.0196,0.85912 -0.8388,1.91085 -1.69765,1.94018 -4.77708,0.16311 -4.83432,0.0689 -8.97334,0.12126 -0.91632,0.0116 -2.09973,-1.26658 -2.12207,-2.18271 z"
         id="path4248"
         inkscape:connector-curvature="0"
         sodipodi:nodetypes="csaaaaaaascssssc"
         inkscape:export-xdpi="600"
         inkscape:export-ydpi="600" /><path
         style="fill:none;fill-opacity:1;fill-rule:evenodd;stroke:#000000;stroke-width:1.20042;stroke-linecap:butt;stroke-linejoin:miter;stroke-miterlimit:4;stroke-dasharray:none;stroke-opacity:1"
         d="m 443.80541,550.90196 12.00425,-0.0857"
         id="path4271"
         inkscape:connector-curvature="0"
         inkscape:export-xdpi="600"
         inkscape:export-ydpi="600" /><path
         style="fill:#000000;fill-opacity:1;fill-rule:evenodd;stroke:#000000;stroke-width:1.20042;stroke-linecap:butt;stroke-linejoin:miter;stroke-miterlimit:4;stroke-dasharray:none;stroke-opacity:1"
         d="m 443.80541,556.13238 -0.0858,-7.1168 c 0,0 -0.77573,0.009 -1.11467,0.17149 -0.41951,0.20125 -0.89482,0.49766 -1.02894,0.94319 -0.77264,2.56662 -1.62915,6.94531 -1.62915,6.94531"
         id="path4273"
         inkscape:connector-curvature="0"
         sodipodi:nodetypes="ccasc"
         inkscape:export-xdpi="600"
         inkscape:export-ydpi="600" /><path
         sodipodi:nodetypes="ccasc"
         inkscape:connector-curvature="0"
         id="path4275"
         d="m 455.82078,556.21813 0.0857,-7.1168 c 0,0 0.77573,0.009 1.11469,0.17149 0.41949,0.20124 0.89481,0.49766 1.02893,0.94318 0.77264,2.56663 1.62915,6.94532 1.62915,6.94532"
         style="fill:#000000;fill-opacity:1;fill-rule:evenodd;stroke:#000000;stroke-width:1.20042;stroke-linecap:butt;stroke-linejoin:miter;stroke-miterlimit:4;stroke-dasharray:none;stroke-opacity:1"
         inkscape:export-xdpi="600"
         inkscape:export-ydpi="600" /><path
         inkscape:export-ydpi="600"
         inkscape:export-xdpi="600"
         sodipodi:nodetypes="cssaaaaasscssssc"
         inkscape:connector-curvature="0"
         id="path4162"
         d="m 442.3024,611.16047 c 0,0 -1.68371,-0.6468 -2.17175,-0.90485 -4.75,-2.51146 -8.55066,-4.53768 -11.36903,-8.28551 -3.78557,-5.034 -6.64538,-11.46657 -6.45347,-17.75944 0.2135,-7.00096 3.38702,-14.34623 8.37034,-19.28714 5.03881,-4.99593 12.5073,-8.41018 19.616,-8.33867 7.35886,0.074 15.02561,3.75492 20.12717,9.03886 4.68287,4.8503 7.43898,11.98654 7.60359,18.71425 0.15117,6.17843 -2.06774,12.43191 -6.13399,17.50484 -3.04821,3.80285 -6.92853,6.03145 -11.86784,8.54013 -0.30326,0.15402 -2.04978,0.71387 -2.04978,0.71387 l -0.0639,2.80078 c -0.0206,0.90196 0.32863,2.85496 -0.57647,2.88575 -5.03434,0.17125 -8.12619,0.0724 -12.4881,0.12731 -0.96567,0.0122 -2.3214,0.125 -2.35762,-0.83641 z"
         style="fill:none;fill-opacity:1;fill-rule:evenodd;stroke:#000000;stroke-width:4.20149;stroke-linecap:butt;stroke-linejoin:miter;stroke-miterlimit:4;stroke-dasharray:none;stroke-opacity:1" /></g></g></svg>
