<?xml version="1.0" encoding="UTF-8" standalone="no"?>
<svg
   version="1.1"
   id="svg2"
   viewBox="0 0 93.750001 93.750002"
   height="100"
   width="100"
   inkscape:version="1.2.1 (9c6d41e410, 2022-07-14)"
   sodipodi:docname="Combo-ccs1-eu.svg"
   inkscape:export-filename="/Users/sss/Desktop/Plug/combo-ccs-eu.png"
   inkscape:export-xdpi="600"
   inkscape:export-ydpi="600"
   xml:space="preserve"
   xmlns:inkscape="http://www.inkscape.org/namespaces/inkscape"
   xmlns:sodipodi="http://sodipodi.sourceforge.net/DTD/sodipodi-0.dtd"
   xmlns="http://www.w3.org/2000/svg"
   xmlns:svg="http://www.w3.org/2000/svg"
   xmlns:rdf="http://www.w3.org/1999/02/22-rdf-syntax-ns#"
   xmlns:cc="http://creativecommons.org/ns#"
   xmlns:dc="http://purl.org/dc/elements/1.1/"><sodipodi:namedview
     pagecolor="#ffffff"
     bordercolor="#666666"
     borderopacity="1"
     objecttolerance="10"
     gridtolerance="10"
     guidetolerance="10"
     inkscape:pageopacity="0"
     inkscape:pageshadow="2"
     inkscape:window-width="1368"
     inkscape:window-height="860"
     id="namedview18"
     showgrid="true"
     inkscape:zoom="3.5881182"
     inkscape:cx="40.271806"
     inkscape:cy="48.075339"
     inkscape:window-x="-6"
     inkscape:window-y="-6"
     inkscape:window-maximized="1"
     inkscape:current-layer="layer1-2"
     inkscape:showpageshadow="2"
     inkscape:pagecheckerboard="0"
     inkscape:deskcolor="#d1d1d1"
     inkscape:document-units="mm"><inkscape:grid
       type="xygrid"
       id="grid4146"
       originx="0"
       originy="0" /></sodipodi:namedview><defs
     id="defs4" /><metadata
     id="metadata7"><rdf:RDF><cc:Work
         rdf:about=""><dc:format>image/svg+xml</dc:format><dc:type
           rdf:resource="http://purl.org/dc/dcmitype/StillImage" /></cc:Work></rdf:RDF></metadata><g
     id="layer1"><g
       inkscape:label="Layer 1"
       id="layer1-2"
       transform="translate(-403.44772,-548.40845)"><path
         id="path4200"
         style="fill:#000000;fill-opacity:1;fill-rule:evenodd;stroke:#000000;stroke-width:1.14872;stroke-linecap:butt;stroke-linejoin:miter;stroke-miterlimit:4;stroke-dasharray:none;stroke-opacity:1"
         d="m 450.06482,564.84952 a 19.321289,19.492778 0 0 0 -19.32125,19.49291 19.321289,19.492778 0 0 0 19.32125,19.49268 19.321289,19.492778 0 0 0 19.32124,-19.49268 19.321289,19.492778 0 0 0 -19.32124,-19.49291 z m -8.74602,4.26837 a 7.335967,7.1644778 0 0 1 7.33596,7.16453 7.335967,7.1644778 0 0 1 -7.33596,7.16452 7.335967,7.1644778 0 0 1 -7.33597,-7.16452 7.335967,7.1644778 0 0 1 7.33597,-7.16453 z m 17.83492,0.17145 a 7.335967,7.1644778 0 0 1 7.33598,7.16452 7.335967,7.1644778 0 0 1 -7.33598,7.16453 7.335967,7.1644778 0 0 1 -7.33597,-7.16453 7.335967,7.1644778 0 0 1 7.33597,-7.16452 z m 3.18959,15.90351 a 5.4259374,5.4259379 0 0 1 5.42609,5.42609 5.4259374,5.4259379 0 0 1 -5.42609,5.42587 5.4259374,5.4259379 0 0 1 -5.42587,-5.42587 5.4259374,5.4259379 0 0 1 5.42587,-5.42609 z m -24.60579,0.22376 a 5.2906612,5.2707487 0 0 1 5.29069,5.27091 5.2906612,5.2707487 0 0 1 -5.29069,5.27068 5.2906612,5.2707487 0 0 1 -5.29068,-5.27068 5.2906612,5.2707487 0 0 1 5.29068,-5.27091 z m 12.3273,3.93692 a 7.335967,7.1644778 0 0 1 7.33596,7.16452 7.335967,7.1644778 0 0 1 -7.33596,7.16452 7.335967,7.1644778 0 0 1 -7.33598,-7.16452 7.335967,7.1644778 0 0 1 7.33598,-7.16452 z" /><ellipse
         cx="441.37534"
         cy="576.16644"
         rx="2.075948"
         ry="2.0257201"
         style="fill:#000000;fill-opacity:1;fill-rule:evenodd;stroke:#000000;stroke-width:0.120042;stroke-linecap:butt;stroke-linejoin:miter;stroke-miterlimit:4;stroke-dasharray:none;stroke-opacity:1"
         id="ellipse4236"
         inkscape:export-xdpi="600"
         inkscape:export-ydpi="600" /><ellipse
         id="ellipse4238"
         style="fill:#000000;fill-opacity:1;fill-rule:evenodd;stroke:#000000;stroke-width:0.120042;stroke-linecap:butt;stroke-linejoin:miter;stroke-miterlimit:4;stroke-dasharray:none;stroke-opacity:1"
         ry="2.0257201"
         rx="2.075948"
         cy="576.22705"
         cx="459.07944"
         inkscape:export-xdpi="600"
         inkscape:export-ydpi="600" /><ellipse
         cx="450.10611"
         cy="596.35645"
         rx="2.075948"
         ry="2.0257201"
         style="fill:#000000;fill-opacity:1;fill-rule:evenodd;stroke:#000000;stroke-width:0.120042;stroke-linecap:butt;stroke-linejoin:miter;stroke-miterlimit:4;stroke-dasharray:none;stroke-opacity:1"
         id="ellipse4242"
         inkscape:export-xdpi="600"
         inkscape:export-ydpi="600" /><ellipse
         style="fill:#000000;fill-opacity:1;fill-rule:evenodd;stroke:#000000;stroke-width:0.120042px;stroke-linecap:butt;stroke-linejoin:miter;stroke-opacity:1"
         id="path4244"
         cx="437.76767"
         cy="590.87061"
         rx="1.2429277"
         ry="1.273243"
         inkscape:export-xdpi="600"
         inkscape:export-ydpi="600" /><ellipse
         ry="1.273243"
         rx="1.2429277"
         cy="590.63055"
         cx="462.38614"
         id="ellipse4246"
         style="fill:#000000;fill-opacity:1;fill-rule:evenodd;stroke:#000000;stroke-width:0.120042px;stroke-linecap:butt;stroke-linejoin:miter;stroke-opacity:1"
         inkscape:export-xdpi="600"
         inkscape:export-ydpi="600" /><path
         style="fill:none;fill-opacity:1;fill-rule:evenodd;stroke:#000000;stroke-width:1.20042;stroke-linecap:butt;stroke-linejoin:miter;stroke-miterlimit:4;stroke-dasharray:none;stroke-opacity:1"
         d="m 443.61852,610.09052 c 0,0 -0.99602,-0.32788 -1.48545,-0.51536 -4.73739,-1.81467 -9.33081,-4.69063 -12.39896,-8.70049 -3.64406,-4.76254 -6.3058,-10.92197 -6.12369,-16.91595 0.20259,-6.66843 3.21393,-13.66483 7.94261,-18.37108 4.78132,-4.75863 11.86815,-8.01072 18.6136,-7.9426 6.98281,0.0705 14.25779,3.57657 19.09864,8.60954 4.44358,4.61993 7.05885,11.41723 7.21505,17.82541 0.14344,5.88497 -2.23037,12.00821 -5.82054,16.67341 -3.24427,4.21573 -8.30044,7.24651 -13.21748,8.94302 -0.30523,0.10532 -0.90946,0.33347 -0.90946,0.33347 l -0.0606,2.66775 c -0.0196,0.85912 -0.8388,1.91085 -1.69765,1.94018 -4.77708,0.16311 -4.83432,0.0689 -8.97334,0.12126 -0.91632,0.0116 -2.09973,-1.26658 -2.12207,-2.18271 z"
         id="path4248"
         inkscape:connector-curvature="0"
         sodipodi:nodetypes="csaaaaaaascssssc"
         inkscape:export-xdpi="600"
         inkscape:export-ydpi="600" /><path
         style="fill:none;fill-opacity:1;fill-rule:evenodd;stroke:#000000;stroke-width:1.20042;stroke-linecap:butt;stroke-linejoin:miter;stroke-miterlimit:4;stroke-dasharray:none;stroke-opacity:1"
         d="m 443.80541,550.90196 12.00425,-0.0857"
         id="path4271"
         inkscape:connector-curvature="0"
         inkscape:export-xdpi="600"
         inkscape:export-ydpi="600" /><path
         style="fill:#000000;fill-opacity:1;fill-rule:evenodd;stroke:#000000;stroke-width:1.20042;stroke-linecap:butt;stroke-linejoin:miter;stroke-miterlimit:4;stroke-dasharray:none;stroke-opacity:1"
         d="m 443.80541,556.13238 -0.0858,-7.1168 c 0,0 -0.77573,0.009 -1.11467,0.17149 -0.41951,0.20125 -0.89482,0.49766 -1.02894,0.94319 -0.77264,2.56662 -1.62915,6.94531 -1.62915,6.94531"
         id="path4273"
         inkscape:connector-curvature="0"
         sodipodi:nodetypes="ccasc"
         inkscape:export-xdpi="600"
         inkscape:export-ydpi="600" /><path
         sodipodi:nodetypes="ccasc"
         inkscape:connector-curvature="0"
         id="path4275"
         d="m 455.82078,556.21813 0.0857,-7.1168 c 0,0 0.77573,0.009 1.11469,0.17149 0.41949,0.20124 0.89481,0.49766 1.02893,0.94318 0.77264,2.56663 1.62915,6.94532 1.62915,6.94532"
         style="fill:#000000;fill-opacity:1;fill-rule:evenodd;stroke:#000000;stroke-width:1.20042;stroke-linecap:butt;stroke-linejoin:miter;stroke-miterlimit:4;stroke-dasharray:none;stroke-opacity:1"
         inkscape:export-xdpi="600"
         inkscape:export-ydpi="600" /><path
         inkscape:export-ydpi="600"
         inkscape:export-xdpi="600"
         sodipodi:nodetypes="cssaaaaasscssssc"
         inkscape:connector-curvature="0"
         id="path4162"
         d="m 442.3024,611.16047 c 0,0 -1.68371,-0.6468 -2.17175,-0.90485 -4.75,-2.51146 -8.55066,-4.53768 -11.36903,-8.28551 -3.78557,-5.034 -6.64538,-11.46657 -6.45347,-17.75944 0.2135,-7.00096 3.38702,-14.34623 8.37034,-19.28714 5.03881,-4.99593 12.5073,-8.41018 19.616,-8.33867 7.35886,0.074 15.02561,3.75492 20.12717,9.03886 4.68287,4.8503 7.43898,11.98654 7.60359,18.71425 0.15117,6.17843 -2.06774,12.43191 -6.13399,17.50484 -3.04821,3.80285 -6.92853,6.03145 -11.86784,8.54013 -0.30326,0.15402 -2.04978,0.71387 -2.04978,0.71387 l -0.0639,2.80078 c -0.0206,0.90196 0.32863,2.85496 -0.57647,2.88575 -5.03434,0.17125 -8.12619,0.0724 -12.4881,0.12731 -0.96567,0.0122 -2.3214,0.125 -2.35762,-0.83641 z"
         style="fill:none;fill-opacity:1;fill-rule:evenodd;stroke:#000000;stroke-width:4.20149;stroke-linecap:butt;stroke-linejoin:miter;stroke-miterlimit:4;stroke-dasharray:none;stroke-opacity:1" /><ellipse
         style="fill:none;fill-rule:evenodd;stroke:#000000;stroke-width:2.40085;stroke-linecap:butt;stroke-linejoin:miter;stroke-miterlimit:4;stroke-dasharray:none;stroke-opacity:1"
         id="path4163"
         cx="439.79883"
         cy="628.82538"
         rx="6.3193035"
         ry="6.5011959" /><ellipse
         ry="6.5011959"
         rx="6.3193035"
         cy="628.58289"
         cx="460.53448"
         id="ellipse4165"
         style="fill:none;fill-rule:evenodd;stroke:#000000;stroke-width:2.40085;stroke-linecap:butt;stroke-linejoin:miter;stroke-miterlimit:4;stroke-dasharray:none;stroke-opacity:1" /><rect
         style="opacity:0.99;fill:none;fill-opacity:1;stroke:#000000;stroke-width:3.00106;stroke-linecap:round;stroke-linejoin:miter;stroke-miterlimit:4;stroke-dasharray:none;stroke-dashoffset:0;stroke-opacity:1"
         id="rect4167"
         width="46.448948"
         height="23.10495"
         x="426.94888"
         y="617.55304"
         ry="11.455963" /></g></g></svg>
