<?xml version="1.0" encoding="UTF-8" standalone="no"?>
<!-- Created with Inkscape (http://www.inkscape.org/) -->

<svg
   version="1.1"
   id="svg2"
   width="72"
   height="72"
   viewBox="0 0 72 72"
   sodipodi:docname="Type1_J1772_cable_attached.svg"
   inkscape:version="1.2.1 (9c6d41e410, 2022-07-14)"
   xml:space="preserve"
   xmlns:inkscape="http://www.inkscape.org/namespaces/inkscape"
   xmlns:sodipodi="http://sodipodi.sourceforge.net/DTD/sodipodi-0.dtd"
   xmlns="http://www.w3.org/2000/svg"
   xmlns:svg="http://www.w3.org/2000/svg"><defs
     id="defs6" /><sodipodi:namedview
     id="namedview4"
     pagecolor="#ffffff"
     bordercolor="#000000"
     borderopacity="0.25"
     inkscape:showpageshadow="2"
     inkscape:pageopacity="0.0"
     inkscape:pagecheckerboard="0"
     inkscape:deskcolor="#d1d1d1"
     showgrid="false"
     inkscape:zoom="3.2777778"
     inkscape:cx="-6.7118644"
     inkscape:cy="48.966102"
     inkscape:window-width="1368"
     inkscape:window-height="860"
     inkscape:window-x="-6"
     inkscape:window-y="-6"
     inkscape:window-maximized="1"
     inkscape:current-layer="g8" /><g
     inkscape:groupmode="layer"
     inkscape:label="Image"
     id="g8"><path
       id="path4098"
       style="color:#000000;fill:#000000;fill-rule:evenodd;stroke-width:1.3072"
       d="m 51.456426,1.3001167 c -0.282393,-0.0017 -0.516317,0.015701 -0.694292,0.01794 -3.71786,0.046818 -6.405576,-0.037897 -10.789343,0.1112303 -0.848193,0.02885 -1.715945,0.7635491 -1.980617,1.3257938 -0.264672,0.5622436 -0.280184,0.9809461 -0.297811,1.3562925 -0.03525,0.7506942 0.03693,1.4427461 0.03409,1.5679888 L 37.703343,6.82037 c -0.07026,0.024478 -0.145308,0.0497 -0.211696,0.073555 -0.198295,0.071238 -0.297976,0.090137 -0.593826,0.2404011 -4.297758,2.1828222 -7.933267,4.2463449 -10.810872,7.8363569 -3.754247,4.68368 -5.819618,10.464134 -5.678128,16.246804 0.153058,6.255414 2.650546,12.767636 7.052361,17.326816 4.730283,4.899394 11.687866,8.267265 18.614934,8.336892 6.713033,0.06753 13.501745,-3.064399 18.182572,-7.705391 4.654891,-4.615278 7.54196,-11.302375 7.741272,-17.838116 C 72.183036,25.334212 69.522981,19.480832 66.08142,14.904305 63.373297,11.303093 59.78521,9.4222363 55.692148,7.2581156 55.377266,7.0916285 55.058783,6.9684605 54.739515,6.8401049 L 54.622902,3.7794767 c -0.02384,-0.6325292 -0.375383,-1.3732981 -0.852168,-1.7760972 -0.476786,-0.4028004 -0.946859,-0.532898 -1.324,-0.6063848 -0.377141,-0.073487 -0.707916,-0.09518 -0.990308,-0.096878 z m -1.485464,4.196254 c 0.151437,-0.00188 0.529894,0.1735137 0.82167,0.479008 0.127652,0.1336538 0.229589,0.2865216 0.310368,0.4323631 l 0.08611,2.3125145 c -1.689498,-0.406359 -3.449498,-0.627909 -5.261912,-0.627913 -1.592537,4e-6 -3.1467,0.1684 -4.646558,0.48439 l 0.04664,-2.0200864 c 0.05211,-0.186201 0.15819,-0.4017258 0.303192,-0.5740921 0.204171,-0.2426955 0.45955,-0.3782973 0.624326,-0.383924 4.106523,-0.1402142 4.14423,-0.057111 7.716156,-0.1022601 z M 35.972087,14.254863 c 4.265595,-3e-6 7.696449,3.359768 7.696421,7.500871 3.1e-5,4.141108 -3.430823,7.497286 -7.696421,7.497284 -4.265597,2e-6 -7.692863,-3.356178 -7.692833,-7.497284 -2.6e-5,-4.141102 3.427239,-7.500873 7.692833,-7.500871 z m 20.295947,0.193756 c 4.265598,-5e-6 7.696448,3.359766 7.696422,7.500872 2.4e-5,4.141104 -3.430825,7.499082 -7.696422,7.499076 -4.265592,0 -7.692859,-3.357977 -7.692833,-7.499076 -2.7e-5,-4.141102 3.42724,-7.50087 7.692833,-7.500872 z m -20.231361,4.214195 c -1.649323,8.9e-5 -3.013981,1.323308 -3.013983,2.958368 0,1.635062 1.364657,2.960073 3.013983,2.960161 1.649444,7.9e-5 3.017571,-1.32498 3.017571,-2.960161 -4e-6,-1.63518 -1.368129,-2.958447 -3.017571,-2.958368 z m 20.147041,0.06996 c -1.649326,8.9e-5 -3.015779,1.323304 -3.015777,2.958369 5e-6,1.635059 1.366455,2.95828 3.015777,2.958368 1.649441,7.8e-5 3.015774,-1.323189 3.015778,-2.958368 2e-6,-1.635183 -1.366332,-2.958446 -3.015778,-2.958369 z m 3.715452,13.814091 c 3.056927,3.8e-5 5.520342,2.46512 5.520255,5.522048 -3.9e-5,3.056835 -2.463418,5.520215 -5.520255,5.520253 -3.056923,8.7e-5 -5.522009,-2.46333 -5.522047,-5.520253 -8.7e-5,-3.057016 2.465035,-5.522135 5.522047,-5.522048 z m -28.001339,0.254753 c 2.97319,-1.6e-5 5.365933,2.388222 5.365967,5.346232 -3.1e-5,2.958011 -2.392775,5.342661 -5.365967,5.342644 -2.973192,1.9e-5 -5.365935,-2.38463 -5.365966,-5.342644 3.4e-5,-2.958012 2.392777,-5.346252 5.365966,-5.346232 z m 28.049779,3.179034 c -1.143105,-6.5e-5 -2.066805,0.95748 -2.066731,2.102613 1.21e-4,1.144993 0.923764,2.102676 2.066731,2.102611 1.142963,6e-5 2.068404,-0.957621 2.068525,-2.102611 7.4e-5,-1.145129 -0.925424,-2.102672 -2.068525,-2.102613 z m -28.015691,0.272694 c -1.142827,1.43e-4 -2.06661,0.957758 -2.066732,2.102613 -7.3e-5,1.144992 0.923766,2.102468 2.066732,2.102611 1.143104,6.4e-5 2.068598,-0.95748 2.068525,-2.102611 -1.21e-4,-1.144994 -0.925559,-2.102678 -2.068525,-2.102613 z m 13.995287,1.029778 c 4.265499,-2e-6 7.692729,3.358066 7.692833,7.499077 3.2e-5,4.141105 -3.427236,7.499078 -7.692833,7.499077 -4.265597,2e-6 -7.69645,-3.357972 -7.696422,-7.499077 1.06e-4,-4.141011 3.430921,-7.499079 7.696422,-7.499077 z m 0.04485,4.357718 c -1.649324,9e-5 -3.015777,1.323306 -3.015777,2.958367 2e-6,1.635062 1.366455,2.958279 3.015777,2.958368 1.649445,8.2e-5 3.015773,-1.323184 3.015777,-2.958368 0,-1.635183 -1.366329,-2.958449 -3.015777,-2.958367 z" /><path
       style="fill:#000000;stroke-width:0.879455"
       d="M 27.090037,70.566212 C 17.226943,67.867726 15.143821,61.432844 15.617957,38.633757 15.910594,24.562174 16.45167,11.598265 15.833991,9.1655266 14.861976,5.3372311 10.735387,5.7750998 10.217577,8.8778488 10.017331,10.077735 9.6740572,15.698414 9.4547445,21.368246 9.2339164,27.077268 8.5373703,33.185792 7.8936759,35.058397 6.6354956,38.718632 3.8618996,41.602018 1.599216,41.602018 c -1.92763257,0 -1.84575715,-3.516241 0.09625,-4.133539 C 4.9185195,36.443981 5.9666582,32.48936 6.504088,19.325579 6.9237893,9.0454153 7.2791035,6.4734794 8.5075559,4.8235021 11.080972,1.3670576 16.7438,2.3276002 18.792464,6.9736193 c 1.124138,2.5493533 1.014559,5.0925597 0.491447,31.7195837 -0.403144,20.520459 1.078262,25.699032 8.046484,28.1282 8.979744,2.709791 18.727038,-4.159838 16.330561,-11.112634 0.555702,-1.93695 3.973743,-5.307577 5.030959,0.185115 0.04141,11.40899 -12.336978,16.893436 -21.601878,14.672328 z"
       id="path174"
       sodipodi:nodetypes="cssssssssssscccc" /></g></svg>
