<?xml version="1.0" encoding="UTF-8" standalone="no"?>
<!-- Created with Inkscape (http://www.inkscape.org/) -->

<svg
   width="100"
   height="100"
   viewBox="0 0 93.750001 93.750002"
   id="svg2"
   version="1.1"
   inkscape:version="1.2.1 (9c6d41e410, 2022-07-14)"
   sodipodi:docname="Type1_J1772.svg"
   inkscape:export-filename="/Users/sss/Desktop/EV Plugs/type1.png"
   inkscape:export-xdpi="600"
   inkscape:export-ydpi="600"
   xmlns:inkscape="http://www.inkscape.org/namespaces/inkscape"
   xmlns:sodipodi="http://sodipodi.sourceforge.net/DTD/sodipodi-0.dtd"
   xmlns="http://www.w3.org/2000/svg"
   xmlns:svg="http://www.w3.org/2000/svg"
   xmlns:rdf="http://www.w3.org/1999/02/22-rdf-syntax-ns#"
   xmlns:cc="http://creativecommons.org/ns#"
   xmlns:dc="http://purl.org/dc/elements/1.1/">
  <defs
     id="defs4" />
  <sodipodi:namedview
     id="base"
     pagecolor="#ffffff"
     bordercolor="#666666"
     borderopacity="1.0"
     inkscape:pageopacity="0.0"
     inkscape:pageshadow="2"
     inkscape:zoom="3.959798"
     inkscape:cx="48.613591"
     inkscape:cy="40.784909"
     inkscape:document-units="px"
     inkscape:current-layer="layer1"
     showgrid="true"
     inkscape:snap-to-guides="false"
     inkscape:snap-grids="false"
     inkscape:window-width="1368"
     inkscape:window-height="860"
     inkscape:window-x="-6"
     inkscape:window-y="-6"
     inkscape:window-maximized="1"
     inkscape:showpageshadow="2"
     inkscape:pagecheckerboard="0"
     inkscape:deskcolor="#d1d1d1">
    <inkscape:grid
       type="xygrid"
       id="grid4198"
       originx="0"
       originy="0" />
  </sodipodi:namedview>
  <metadata
     id="metadata7">
    <rdf:RDF>
      <cc:Work
         rdf:about="">
        <dc:format>image/svg+xml</dc:format>
        <dc:type
           rdf:resource="http://purl.org/dc/dcmitype/StillImage" />
      </cc:Work>
    </rdf:RDF>
  </metadata>
  <g
     inkscape:label="Layer 1"
     inkscape:groupmode="layer"
     id="layer1">
    <path
       style="color:#000000;fill:#000000;fill-rule:evenodd;-inkscape-stroke:none"
       d="m 46.207031,12.117188 c -9.055509,-0.09144 -18.455605,4.233937 -24.839844,10.58789 -6.324998,6.29499 -10.31895,15.575502 -10.589843,24.492188 -0.245048,8.065929 3.309178,16.23986 8.148437,22.564453 4.121294,5.386261 10.234318,9.198194 16.513672,11.603515 0.503177,0.192737 1.044903,0.367396 1.449219,0.501953 l 0.06641,2.701172 c 0.02257,0.925393 0.526215,1.73265 1.162109,2.398438 0.635895,0.665788 1.432654,1.223147 2.398438,1.210937 5.38673,-0.06809 5.479267,0.05491 11.720703,-0.158203 0.870642,-0.02973 1.578369,-0.52873 2.089844,-1.136719 0.511475,-0.607988 0.862658,-1.356477 0.880859,-2.158203 l 0.06641,-2.947265 c 0.261978,-0.09751 0.457169,-0.172691 0.669922,-0.246094 6.528832,-2.252629 13.244661,-6.259175 17.605469,-11.925781 4.78303,-6.215252 7.946455,-14.344544 7.753906,-22.244141 C 81.094144,38.803527 77.629357,29.777814 71.673828,23.585937 65.213954,16.869692 55.571559,12.211748 46.207031,12.117188 Z m -0.01563,1.564453 c 8.851474,0.08938 18.185111,4.577026 24.353516,10.990234 5.636386,5.860068 8.994486,14.567426 9.193359,22.726562 0.181651,7.452469 -2.847068,15.297124 -7.429687,21.251954 -4.102478,5.330921 -10.576837,9.229301 -16.875,11.402343 -0.426571,0.147173 -1.207032,0.441407 -1.207032,0.441407 l -0.49414,0.1875 -0.0918,4.007812 c -0.0072,0.318874 -0.2044,0.815963 -0.513672,1.183594 -0.309271,0.36763 -0.695719,0.573509 -0.945312,0.582031 -6.220468,0.212394 -6.276844,0.08981 -11.6875,0.158203 -0.229412,0.0029 -0.802166,-0.265762 -1.244141,-0.728515 -0.441975,-0.462754 -0.723894,-1.085929 -0.730469,-1.355469 l -0.0918,-3.794922 -0.52539,-0.171875 c 0,0 -1.31054,-0.433472 -1.902344,-0.660156 C 29.920973,77.573758 24.052465,73.884777 20.169922,68.810547 15.502972,62.711151 12.113754,54.814629 12.34375,47.244141 12.601352,38.764959 16.462021,29.796571 22.472656,23.814453 28.561403,17.75459 37.650147,13.595392 46.191406,13.681641 Z"
       id="path4248" />
    <path
       style="color:#000000;fill:#000000;fill-rule:evenodd;-inkscape-stroke:none"
       d="m 53.554687,3.2089844 -15.658203,0.1113281 0.01172,1.5664062 15.65625,-0.1113281 z"
       id="path4271" />
    <path
       style="color:#000000;fill:#000000;fill-rule:evenodd;stroke-width:1.49832;-inkscape-stroke:none"
       d="M 46.065992,22.2965 A 25.201634,25.425314 0 0 0 20.864418,47.721703 25.201634,25.425314 0 0 0 46.065992,73.146906 25.201634,25.425314 0 0 0 71.267574,47.721703 25.201634,25.425314 0 0 0 46.065992,22.2965 Z m -11.407827,5.567155 a 9.5686348,9.3449534 0 0 1 9.568641,9.345011 9.5686348,9.3449534 0 0 1 -9.568641,9.34502 9.5686348,9.3449534 0 0 1 -9.568641,-9.34502 9.5686348,9.3449534 0 0 1 9.568641,-9.345011 z m 23.262904,0.223629 a 9.5686348,9.3449534 0 0 1 9.568649,9.345012 9.5686348,9.3449534 0 0 1 -9.568649,9.345011 9.5686348,9.3449534 0 0 1 -9.568633,-9.345011 9.5686348,9.3449534 0 0 1 9.568633,-9.345012 z m -23.189214,6.327774 a 2.7077531,2.6422387 0 0 0 -2.707604,2.642232 2.7077531,2.6422387 0 0 0 2.707604,2.642239 2.7077531,2.6422387 0 0 0 2.707885,-2.642239 2.7077531,2.6422387 0 0 0 -2.707885,-2.642232 z m 23.092316,0.07913 a 2.7077531,2.6422387 0 0 0 -2.707604,2.64224 2.7077531,2.6422387 0 0 0 2.707604,2.642232 2.7077531,2.6422387 0 0 0 2.707885,-2.642232 2.7077531,2.6422387 0 0 0 -2.707885,-2.64224 z m 4.257507,14.336764 a 7.0772963,7.077297 0 0 1 7.077208,7.077497 7.0772963,7.077297 0 0 1 -7.077208,7.077208 7.0772963,7.077297 0 0 1 -7.077496,-7.077208 7.0772963,7.077297 0 0 1 7.077496,-7.077497 z m -32.094722,0.29215 a 6.9008495,6.8748766 0 0 1 6.900888,6.874796 6.9008495,6.8748766 0 0 1 -6.900888,6.874804 6.9008495,6.8748766 0 0 1 -6.900896,-6.874804 6.9008495,6.8748766 0 0 1 6.900896,-6.874796 z m 16.079036,5.135101 a 9.5686348,9.3449534 0 0 1 9.56864,9.344722 9.5686348,9.3449534 0 0 1 -9.56864,9.345019 9.5686348,9.3449534 0 0 1 -9.568641,-9.345019 9.5686348,9.3449534 0 0 1 9.568641,-9.344722 z m 16.071305,0.005 a 1.621207,1.6607486 0 0 0 -1.621297,1.660859 1.621207,1.6607486 0 0 0 1.621297,1.66057 1.621207,1.6607486 0 0 0 1.621288,-1.66057 1.621207,1.6607486 0 0 0 -1.621288,-1.660859 z M 30.026229,54.57657 a 1.621207,1.6607486 0 0 0 -1.621008,1.660569 1.621207,1.6607486 0 0 0 1.621008,1.66086 1.621207,1.6607486 0 0 0 1.621297,-1.66086 1.621207,1.6607486 0 0 0 -1.621297,-1.660569 z m 16.093663,6.173811 a 2.7077531,2.6422387 0 0 0 -2.707604,2.642239 2.7077531,2.6422387 0 0 0 2.707604,2.642233 2.7077531,2.6422387 0 0 0 2.707893,-2.642233 2.7077531,2.6422387 0 0 0 -2.707893,-2.642239 z"
       id="path5403" />
    <path
       style="color:#000000;fill:#000000;fill-rule:evenodd;-inkscape-stroke:none"
       d="M 46.066406,21.546875 C 31.739541,21.546909 20.115297,33.279412 20.115234,47.722656 20.115297,62.1659 31.739541,73.89645 46.066406,73.896484 60.393275,73.896455 72.017516,62.165904 72.017578,47.722656 72.017516,33.279409 60.393275,21.546905 46.066406,21.546875 Z m 0,1.498047 c 5.391542,1.1e-5 10.329683,1.811734 14.371094,4.791015 -0.826109,-0.20916 -1.62429,-0.498048 -2.515625,-0.498046 -5.680041,1e-6 -10.318395,4.518089 -10.318359,10.09375 -3.6e-5,5.57566 4.638318,10.095702 10.318359,10.095703 5.6772,8e-6 10.309842,-4.516079 10.314453,-10.087891 1.430945,3.137531 2.281234,6.599721 2.28125,10.283203 -1e-5,2.25648 -0.396059,4.398876 -0.957031,6.47461 -0.802667,-3.467709 -3.771298,-6.115188 -7.478516,-6.115235 -4.313725,-1.21e-4 -7.826294,3.512446 -7.826172,7.826172 1.2e-5,0.932972 0.230012,1.802199 0.53125,2.632813 -1.804096,-2.953889 -4.96231,-5.031252 -8.720703,-5.03125 -5.67992,-4e-6 -10.318218,4.518207 -10.318359,10.09375 -2.4e-5,3.300006 1.730624,6.0899 4.234375,7.93164 -5.216912,-1.354617 -9.710838,-4.387617 -12.96875,-8.513672 0.914747,0.386363 1.919013,0.599617 2.972656,0.59961 4.214567,2.3e-5 7.650346,-3.419771 7.650391,-7.623047 -5e-5,-4.203273 -3.435827,-7.625024 -7.650391,-7.625 -3.666203,-2.5e-5 -6.59736,2.641649 -7.335937,6.082031 -0.607416,-2.153365 -1.0371,-4.381045 -1.03711,-6.732422 1.8e-5,-4.170653 1.121215,-8.037875 2.927735,-11.480469 -0.03426,0.334186 -0.201174,0.623805 -0.201172,0.966797 -4.1e-5,5.575668 4.638311,10.093754 10.318359,10.09375 5.680048,4e-6 10.3184,-4.518082 10.318359,-10.09375 3.6e-5,-5.575663 -4.638315,-10.093753 -10.318359,-10.09375 -0.97441,0 -1.855089,0.296445 -2.75,0.544922 4.000947,-2.880334 8.865684,-4.615221 14.158203,-4.615234 z m -11.408203,5.568359 c 4.889218,-3e-6 8.820343,3.849177 8.820313,8.595703 3.4e-5,4.74653 -3.931091,8.595707 -8.820313,8.595703 -4.889222,4e-6 -8.820347,-3.849173 -8.820312,-8.595703 -3e-5,-4.746526 3.931094,-8.595706 8.820312,-8.595703 z m 23.263672,0.222656 c 4.889222,-7e-6 8.81839,3.849174 8.818359,8.595704 3e-5,4.746529 -3.929138,8.59571 -8.818359,8.595703 -4.889215,-10e-7 -8.820342,-3.84918 -8.820313,-8.595703 -3e-5,-4.746524 3.931097,-8.595703 8.820313,-8.595704 z m -23.189453,4.830079 c -1.890453,1.01e-4 -3.457027,1.516518 -3.457031,3.390625 -10e-7,1.874109 1.566574,3.392476 3.457031,3.392578 1.890593,9e-5 3.457031,-1.518333 3.457031,-3.392578 -5e-6,-1.874242 -1.566441,-3.390715 -3.457031,-3.390625 z m 23.091797,0.07813 c -1.890457,1.01e-4 -3.457032,1.518468 -3.457032,3.392578 5e-6,1.874106 1.566579,3.390523 3.457032,3.390625 1.890589,9e-5 3.457026,-1.516384 3.457031,-3.390625 10e-7,-1.874246 -1.566438,-3.392668 -3.457031,-3.392578 z m -23.091797,1.419921 c 1.100406,-5.2e-5 1.958982,0.848191 1.958984,1.892579 0,1.044389 -0.858576,1.894583 -1.958984,1.894531 -1.100326,-5.9e-5 -1.958985,-0.850221 -1.958985,-1.894531 3e-6,-1.044309 0.858661,-1.892519 1.958985,-1.892579 z m 23.091797,0.08008 c 1.100409,-5.3e-5 1.958985,0.848188 1.958984,1.892578 -3e-6,1.044387 -0.858578,1.89263 -1.958984,1.892578 -1.100324,-5.9e-5 -1.958982,-0.84827 -1.958985,-1.892578 0,-1.044311 0.858659,-1.892519 1.958985,-1.892578 z m 4.257812,14.335937 c 3.503843,4.4e-5 6.328224,2.824282 6.328125,6.328125 -4.4e-5,3.503741 -2.824384,6.328081 -6.328125,6.328125 -3.503842,9.9e-5 -6.328081,-2.824282 -6.328125,-6.328125 -9.9e-5,-3.503945 2.824181,-6.328224 6.328125,-6.328125 z m -32.095703,0.292969 c 3.407863,-1.9e-5 6.152304,2.734534 6.152344,6.125 -3.6e-5,3.390468 -2.744478,6.125019 -6.152344,6.125 -3.407869,2.3e-5 -6.150355,-2.734529 -6.150391,-6.125 4e-5,-3.390468 2.742525,-6.125023 6.150391,-6.125 z m 32.150391,3.640625 c -1.310228,-7.5e-5 -2.369226,1.097604 -2.369141,2.410156 1.38e-4,1.312394 1.05907,2.410231 2.369141,2.410156 1.310065,6.7e-5 2.370956,-1.097767 2.371093,-2.410156 8.6e-5,-1.312547 -1.06087,-2.410223 -2.371093,-2.410156 z m -32.111328,0.314453 c -1.309909,1.65e-4 -2.369002,1.095972 -2.369141,2.408203 -8.6e-5,1.312391 1.059073,2.409992 2.369141,2.410156 1.310228,7.5e-5 2.371179,-1.097604 2.371093,-2.410156 -1.38e-4,-1.312393 -1.061023,-2.408278 -2.371093,-2.408203 z m 16.041015,1.179687 c 4.889111,-2e-6 8.818239,3.849282 8.81836,8.595704 3.4e-5,4.746528 -3.929139,8.595705 -8.81836,8.595703 -4.889221,3e-6 -8.820346,-3.849174 -8.820312,-8.595703 1.2e-4,-4.746422 3.931201,-8.595707 8.820312,-8.595704 z m 16.070313,0.0039 c 0.480658,-2.5e-5 0.873081,0.390094 0.873047,0.912109 -5.5e-5,0.521947 -0.392452,0.912134 -0.873047,0.912109 -0.480598,2.8e-5 -0.871039,-0.39016 -0.871094,-0.912109 -3.4e-5,-0.522017 0.390433,-0.912137 0.871094,-0.912109 z m -32.111328,0.314453 c 0.480597,-2.7e-5 0.872991,0.388207 0.873046,0.910156 3.5e-5,0.522017 -0.392386,0.912137 -0.873046,0.912109 -0.480597,-6e-5 -0.871128,-0.390161 -0.871094,-0.912109 5.5e-5,-0.521879 0.390561,-0.910096 0.871094,-0.910156 z m 16.09375,4.675781 c -1.890457,1.02e-4 -3.455079,1.516515 -3.455079,3.390625 5e-6,1.874107 1.564625,3.390524 3.455079,3.390625 1.890594,9.5e-5 3.457027,-1.516379 3.457031,-3.390625 0,-1.874249 -1.566434,-3.39072 -3.457031,-3.390625 z M 55.664062,60.125 c 1.401913,2.121806 3.691613,3.609452 6.417969,3.609375 1.042313,-1.3e-5 2.030862,-0.221781 2.941406,-0.59375 -3.251199,4.065562 -7.708148,7.053235 -12.875,8.394531 2.504224,-1.841703 4.236352,-4.631268 4.236329,-7.93164 -3.2e-5,-1.233835 -0.30542,-2.385736 -0.720704,-3.478516 z M 46.119141,61.5 c 1.100411,-5.5e-5 1.958984,0.848187 1.958984,1.892578 -2e-6,1.04439 -0.858575,1.892634 -1.958984,1.892578 -1.100324,-5.9e-5 -1.957029,-0.848269 -1.957032,-1.892578 0,-1.04431 0.856706,-1.892519 1.957032,-1.892578 z"
       id="path5405" />
    <path
       style="color:#000000;fill:#000000;fill-rule:evenodd;stroke-width:1.56577;-inkscape-stroke:none"
       d="m 53.573832,11.03794 0.11184,-9.2827687 c 0,0 1.011824,0.011563 1.45393,0.223679 0.547171,0.2624895 1.16715,0.6491249 1.342091,1.2302427 1.007785,3.3477679 2.124966,9.059098 2.124966,9.059098"
       id="path5383" />
    <path
       style="color:#000000;fill:#000000;fill-rule:evenodd;stroke-width:1.56577;-inkscape-stroke:none"
       d="M 37.901642,10.926101 37.789803,1.6433318 c 0,0 -1.011825,0.011563 -1.45393,0.2236789 -0.547172,0.2624896 -1.167149,0.6491251 -1.34209,1.2302427 -1.007786,3.347768 -2.124967,9.0590906 -2.124967,9.0590906"
       id="path5389" />
    <path
       style="color:#000000;fill:#000000;fill-rule:evenodd;-inkscape-stroke:none"
       d="m 38.5625,0.8515625 -0.78125,0.009766 c 0,0 -0.283249,0.002366 -0.626953,0.0351563 -0.343704,0.0327906 -0.730188,0.0612065 -1.15625,0.26562502 C 35.3885,1.4545217 34.538625,1.892877 34.244141,2.8710938 33.211545,6.3012755 32.099609,12.005859 32.099609,12.005859 l 1.53711,0.300782 c 0,0 1.124447,-5.7190278 2.107422,-8.9843754 0.0554,-0.1840173 0.444892,-0.5174336 0.929687,-0.75 0.0088,-0.00421 0.205345,-0.036531 0.34375,-0.064453 l 0.101563,8.4277345 1.564453,-0.01953 z"
       id="path5391" />
    <path
       style="color:#000000;fill:#000000;fill-rule:evenodd;-inkscape-stroke:none"
       d="m 52.912109,0.96289063 -0.121093,10.06640637 1.566406,0.01758 0.101562,-8.4257812 c 0.137171,0.027743 0.333079,0.06027 0.341797,0.064453 0.484796,0.2325667 0.876244,0.565984 0.931641,0.75 0.982974,3.2653474 2.105469,8.9824221 2.105469,8.9824221 L 59.375,12.117188 c 0,0 -1.111937,-5.7026313 -2.144531,-9.132813 -0.294485,-0.9782184 -1.142408,-1.4185257 -1.751953,-1.7109375 -0.426062,-0.204418 -0.8145,-0.2328344 -1.158204,-0.265625 -0.343703,-0.0327906 -0.625,-0.0351563 -0.625,-0.0351563 z"
       id="path5385" />
    <path
       style="color:#000000;fill:#000000;fill-rule:evenodd;-inkscape-stroke:none"
       d="M 46.392578,8.7753906 C 36.223841,8.6730914 25.940023,13.417193 18.849609,20.447266 11.798478,27.438384 7.4249638,37.56661 7.1230469,47.466797 c -0.2773293,9.093927 3.7536101,17.962116 8.9667971,24.894531 4.102201,5.45503 9.538217,8.303874 15.738281,11.582031 0.477289,0.252358 0.957473,0.436315 1.441406,0.63086 l 0.175781,4.640625 c 0.0361,0.958136 0.570748,2.081253 1.292969,2.691406 0.722221,0.610153 1.432619,0.804699 2.003906,0.916016 1.142575,0.222632 2.011582,0.125925 2.550782,0.11914 5.631724,-0.07093 9.707232,0.05792 16.347656,-0.167969 1.284825,-0.0437 2.59517,-1.158095 2.996094,-2.009765 0.400923,-0.85167 0.428374,-1.486115 0.455078,-2.054688 0.05341,-1.137145 -0.05902,-2.185194 -0.05469,-2.375 l 0.03906,-1.726562 c 0.106699,-0.03716 0.219513,-0.07511 0.320312,-0.111328 0.300373,-0.107914 0.452266,-0.137631 0.900391,-0.365235 6.510128,-3.306487 12.01803,-6.431074 16.376953,-11.86914 C 82.360667,65.16699 85.489708,56.40789 85.275391,47.648437 85.043547,38.172879 81.257605,28.308491 74.589844,21.402344 67.42452,13.980854 56.885512,8.8809486 46.392578,8.7753906 Z m -0.05469,5.4804684 c 8.704042,0.08756 18.165566,4.590479 24.308593,10.953125 5.548411,5.746778 8.952817,14.499278 9.150391,22.574219 0.180032,7.358137 -2.47966,14.911826 -7.400391,21.050781 -3.592898,4.482396 -8.20705,7.17231 -14.582031,10.410157 0.250343,-0.12715 -0.03151,0.01019 -0.269531,0.0957 -0.238018,0.08551 -0.54694,0.190775 -0.845703,0.291015 -0.597527,0.200482 -1.154297,0.378907 -1.154297,0.378907 l -1.857422,0.595703 -0.128906,5.603515 c -0.01112,0.487311 0.0094,0.72835 0.0293,1.107422 -5.287217,0.13083 -9.278575,0.08242 -14.365235,0.146485 -0.181569,0.0023 -0.197363,-0.0055 -0.361328,-0.0059 l -0.25,-6.664062 -1.6875,-0.648438 c 0,0 -0.531424,-0.205615 -1.136719,-0.449219 C 35.181814,79.451709 34.392203,79.101477 34.388672,79.099609 28.197484,75.826145 23.718809,73.390227 20.46875,69.068359 15.806555,62.868645 12.378264,54.955001 12.601563,47.632812 12.856605,39.26969 16.760167,30.236077 22.708984,24.337891 28.763253,18.335145 37.96222,14.171599 46.337891,14.255859 Z"
       id="path4162" />
  </g>
</svg>
