<?xml version="1.0" encoding="UTF-8" standalone="no"?>
<!-- Created with Inkscape (http://www.inkscape.org/) -->

<svg
   version="1.1"
   id="svg2"
   width="72"
   height="72"
   viewBox="0 0 72 72"
   sodipodi:docname="Type1_J1772_cable_attached.svg"
   inkscape:version="1.2.1 (9c6d41e410, 2022-07-14)"
   xml:space="preserve"
   xmlns:inkscape="http://www.inkscape.org/namespaces/inkscape"
   xmlns:sodipodi="http://sodipodi.sourceforge.net/DTD/sodipodi-0.dtd"
   xmlns="http://www.w3.org/2000/svg"
   xmlns:svg="http://www.w3.org/2000/svg"><defs
     id="defs6" /><sodipodi:namedview
     id="namedview4"
     pagecolor="#ffffff"
     bordercolor="#000000"
     borderopacity="0.25"
     inkscape:showpageshadow="2"
     inkscape:pageopacity="0.0"
     inkscape:pagecheckerboard="0"
     inkscape:deskcolor="#d1d1d1"
     showgrid="false"
     inkscape:zoom="6.5555556"
     inkscape:cx="38.059322"
     inkscape:cy="34.09322"
     inkscape:window-width="1368"
     inkscape:window-height="860"
     inkscape:window-x="-6"
     inkscape:window-y="-6"
     inkscape:window-maximized="1"
     inkscape:current-layer="g8" /><g
     inkscape:groupmode="layer"
     inkscape:label="Image"
     id="g8"><path
       style="fill:#000000;color:#000000;fill-rule:evenodd;stroke-width:1.11237;-inkscape-stroke:none"
       d="M 43.991795,24.12196 A 18.710066,18.876129 0 0 0 25.281775,42.998006 18.710066,18.876129 0 0 0 43.991795,61.874052 18.710066,18.876129 0 0 0 62.701822,42.998006 18.710066,18.876129 0 0 0 43.991795,24.12196 Z m -8.46934,4.133137 a 7.1038959,6.9378315 0 0 1 7.103901,6.937875 7.1038959,6.9378315 0 0 1 -7.103901,6.937881 7.1038959,6.9378315 0 0 1 -7.1039,-6.937881 7.1038959,6.9378315 0 0 1 7.1039,-6.937875 z m 17.270725,0.166026 a 7.1038959,6.9378315 0 0 1 7.103906,6.937876 7.1038959,6.9378315 0 0 1 -7.103906,6.937873 7.1038959,6.9378315 0 0 1 -7.103895,-6.937873 7.1038959,6.9378315 0 0 1 7.103895,-6.937876 z m -17.216016,4.697833 a 2.010276,1.9616371 0 0 0 -2.010165,1.961633 2.010276,1.9616371 0 0 0 2.010165,1.961637 2.010276,1.9616371 0 0 0 2.010374,-1.961637 2.010276,1.9616371 0 0 0 -2.010374,-1.961633 z m 17.144077,0.05874 a 2.010276,1.9616371 0 0 0 -2.010166,1.961639 2.010276,1.9616371 0 0 0 2.010166,1.961631 2.010276,1.9616371 0 0 0 2.010374,-1.961631 2.010276,1.9616371 0 0 0 -2.010374,-1.961639 z m 3.160836,10.643826 a 5.2542894,5.2542899 0 0 1 5.254224,5.254439 5.2542894,5.2542899 0 0 1 -5.254224,5.254223 5.2542894,5.2542899 0 0 1 -5.254437,-5.254223 5.2542894,5.2542899 0 0 1 5.254437,-5.254439 z m -23.827596,0.216896 a 5.1232927,5.10401 0 0 1 5.123322,5.103951 5.1232927,5.10401 0 0 1 -5.123322,5.103955 5.1232927,5.10401 0 0 1 -5.123327,-5.103955 5.1232927,5.10401 0 0 1 5.123327,-5.103951 z m 11.937314,3.812375 a 7.1038959,6.9378315 0 0 1 7.103899,6.93766 7.1038959,6.9378315 0 0 1 -7.103899,6.937881 7.1038959,6.9378315 0 0 1 -7.1039,-6.937881 7.1038959,6.9378315 0 0 1 7.1039,-6.93766 z m 11.931574,0.0037 a 1.203608,1.2329643 0 0 0 -1.203674,1.233046 1.203608,1.2329643 0 0 0 1.203674,1.232831 1.203608,1.2329643 0 0 0 1.203669,-1.232831 1.203608,1.2329643 0 0 0 -1.203669,-1.233046 z m -23.839731,0.232648 a 1.203608,1.2329643 0 0 0 -1.203461,1.232831 1.203608,1.2329643 0 0 0 1.203461,1.233046 1.203608,1.2329643 0 0 0 1.203674,-1.233046 1.203608,1.2329643 0 0 0 -1.203674,-1.232831 z m 11.948173,4.583528 a 2.010276,1.9616371 0 0 0 -2.010165,1.961637 2.010276,1.9616371 0 0 0 2.010165,1.961633 2.010276,1.9616371 0 0 0 2.01038,-1.961633 2.010276,1.9616371 0 0 0 -2.01038,-1.961637 z"
       id="path4098"
       transform="matrix(0.97619211,0,0,0.97619211,6.2318353,-7.588907)" /><path
       style="fill:#000000;color:#000000;fill-rule:evenodd;-inkscape-stroke:none"
       d="m 47.421875,20.478516 c -3.026106,0.03825 -3.077738,-0.03183 -6.583984,0.08789 -0.489102,0.0167 -0.888451,0.299076 -1.175782,0.640625 -0.28733,0.34155 -0.48391,0.760557 -0.49414,1.210938 l -0.03711,1.654297 c -0.147229,0.0548 -0.257266,0.09738 -0.376953,0.138671 -3.667697,1.265459 -7.440856,3.517847 -9.890625,6.701172 -2.686959,3.491539 -4.46364,8.058342 -4.355469,12.496094 0.11718,4.807512 2.064528,9.877063 5.410157,13.355469 3.628967,3.772986 9.045941,6.390203 14.30664,6.443359 5.08711,0.05137 10.36665,-2.377803 13.953125,-5.947265 3.553187,-3.536328 5.797036,-8.750645 5.949219,-13.759766 0.137658,-4.531193 -1.859579,-9.122818 -4.578125,-12.675781 -2.31521,-3.025838 -5.749799,-5.168295 -9.277344,-6.519532 -0.282199,-0.108094 -0.584955,-0.205516 -0.8125,-0.28125 l -0.03711,-1.517578 c -0.01268,-0.519855 -0.297071,-0.973635 -0.654297,-1.347656 -0.357226,-0.374021 -0.80315,-0.686556 -1.345703,-0.679687 z m 0.01172,0.878906 c 0.128866,-0.0016 0.45093,0.148241 0.699218,0.408203 0.248289,0.259962 0.406462,0.610298 0.410157,0.761719 l 0.05078,2.132812 0.294922,0.0957 c 0,0 0.735906,0.24375 1.068359,0.371094 3.415008,1.308129 6.713446,3.381876 8.894531,6.232422 2.621749,3.426455 4.525687,7.860413 4.396485,12.113281 -0.144716,4.763345 -2.31482,9.803497 -5.691406,13.164063 -3.420478,3.404251 -8.525998,5.739857 -13.324219,5.691406 -4.97249,-0.05024 -10.216415,-2.571081 -13.681641,-6.173828 -3.166344,-3.292007 -5.052342,-8.184025 -5.164062,-12.767578 -0.102049,-4.186569 1.599453,-8.592258 4.173828,-11.9375 2.304646,-2.994748 5.942354,-5.185501 9.480469,-6.40625 0.239621,-0.08268 0.677734,-0.248047 0.677734,-0.248047 l 0.277344,-0.105469 0.05078,-2.251953 c 0.0041,-0.179138 0.115323,-0.459492 0.289062,-0.666016 0.17374,-0.206523 0.391033,-0.321384 0.53125,-0.326172 3.494467,-0.119316 3.526859,-0.04947 6.566407,-0.08789 z"
       id="path4248"
       transform="matrix(0.97619211,0,0,0.97619211,6.2318353,-7.588907)" /><path
       style="fill:#000000;color:#000000;fill-rule:evenodd;-inkscape-stroke:none"
       d="m 48.107422,17.802734 c -3.163731,0.03984 -5.451252,-0.03315 -9.181641,0.09375 -0.721774,0.02455 -1.460323,0.650462 -1.685547,1.128907 -0.225223,0.478444 -0.238906,0.834893 -0.253906,1.154296 -0.03,0.638807 0.03173,1.227409 0.0293,1.333985 l -0.02148,0.970703 c -0.05979,0.02083 -0.123195,0.0422 -0.179688,0.0625 -0.16874,0.06062 -0.254103,0.07721 -0.505859,0.205078 -3.657198,1.857484 -6.750507,3.613031 -9.199219,6.667969 -3.194695,3.985602 -4.952432,8.905379 -4.832031,13.826172 0.130246,5.323076 2.256206,10.864483 6.001953,14.74414 4.025259,4.169165 9.945219,7.0345 15.839844,7.09375 5.712489,0.05747 11.489483,-2.607364 15.472656,-6.55664 3.961109,-3.927395 6.418284,-9.618066 6.58789,-15.179688 0.155797,-5.108689 -2.108495,-10.089955 -5.037109,-13.984375 -2.304491,-3.064468 -5.356833,-4.664289 -8.839844,-6.505859 -0.267951,-0.141673 -0.538863,-0.246244 -0.810547,-0.355469 l -0.09961,-2.605469 C 51.3723,19.35823 51.073691,18.72753 50.667969,18.384766 c -0.405723,-0.342765 -0.806023,-0.453091 -1.126953,-0.515625 -0.641861,-0.125068 -1.130694,-0.07022 -1.433594,-0.06641 z m 0.03906,3.078125 c 0.101902,-0.0013 0.11109,0.0018 0.203125,0.002 l 0.140625,3.744141 0.949219,0.365234 c 0,0 0.298636,0.113151 0.638672,0.25 0.340036,0.13685 0.783157,0.334881 0.785156,0.335938 3.478023,1.838933 5.992575,3.206871 7.81836,5.634766 2.61908,3.482808 4.547318,7.927631 4.421875,12.041015 -0.143274,4.698146 -2.337825,9.774472 -5.679688,13.087891 -3.4011,3.372157 -8.568237,5.711396 -13.273437,5.664062 -4.889645,-0.04915 -10.205277,-2.579949 -13.65625,-6.154297 -3.116926,-3.228355 -5.029632,-8.145383 -5.140625,-12.68164 -0.10114,-4.133576 1.393884,-8.377494 4.158203,-11.826172 2.018384,-2.518074 4.610131,-4.028734 8.191406,-5.847656 -0.140652,0.07144 0.01863,-0.0047 0.152344,-0.05273 0.133709,-0.04804 0.306774,-0.10775 0.474609,-0.164062 0.335671,-0.112624 0.648438,-0.212891 0.648438,-0.212891 l 1.042968,-0.333984 0.07227,-3.148438 c 0.0062,-0.273289 -0.0045,-0.408384 -0.01563,-0.621093 2.969578,-0.07345 5.211203,-0.04605 8.068359,-0.08203 z"
       id="path4162"
       transform="matrix(0.97619211,0,0,0.97619211,6.2318353,-7.588907)" /><path
       style="fill:#000000;color:#000000;fill-rule:evenodd;-inkscape-stroke:none"
       d="m 43.992187,23.566406 c -10.636474,2.7e-5 -19.265578,8.708765 -19.265625,19.431641 4.7e-5,10.722876 8.629151,19.431614 19.265625,19.43164 10.636478,-2.2e-5 19.265579,-8.708761 19.265625,-19.43164 -4.6e-5,-10.722879 -8.629147,-19.431618 -19.265625,-19.431641 z m 0,1.111328 c 4.001929,9e-6 7.665946,1.345615 10.666016,3.556641 -0.612425,-0.154802 -1.204556,-0.369142 -1.865234,-0.369141 -4.216946,10e-7 -7.660184,3.354689 -7.660157,7.494141 -2.5e-5,4.139451 3.443212,7.49414 7.660157,7.494141 4.2141,5e-6 7.653581,-3.35073 7.658203,-7.486329 1.061688,2.32875 1.6953,4.897099 1.695312,7.63086 -7e-6,1.674869 -0.294643,3.265894 -0.710937,4.80664 -0.596179,-2.574112 -2.800701,-4.539028 -5.552735,-4.539062 -3.202572,-9e-5 -5.810637,2.607974 -5.810546,5.810547 8e-6,0.693321 0.172427,1.337916 0.396484,1.955078 -1.339186,-2.193835 -3.685645,-3.736329 -6.476563,-3.736328 -4.216855,-3e-6 -7.660051,3.354777 -7.660156,7.49414 -1.8e-5,2.448891 1.283202,4.519275 3.140625,5.886719 -3.871499,-1.005926 -7.206912,-3.256393 -9.625,-6.318359 0.679122,0.286841 1.424792,0.445318 2.207031,0.445312 3.128956,1.8e-5 5.679654,-2.539583 5.679688,-5.660156 -3.6e-5,-3.120571 -2.550734,-5.660174 -5.679688,-5.660156 -2.722229,-1.8e-5 -4.89935,1.960893 -5.447265,4.515625 -0.451113,-1.598949 -0.769524,-3.253985 -0.769531,-5 1.3e-5,-3.098142 0.831194,-5.970452 2.173828,-8.527344 -0.02575,0.249596 -0.148439,0.466437 -0.148438,0.722656 -3e-5,4.139457 3.441253,7.494143 7.658203,7.494141 4.216951,3e-6 7.660187,-3.354684 7.660157,-7.494141 2.6e-5,-4.139454 -3.443209,-7.494143 -7.660157,-7.49414 -0.722624,-1e-6 -1.375315,0.21826 -2.039062,0.402343 2.969813,-2.137095 6.581838,-3.423818 10.509765,-3.423828 z m -8.470703,4.132813 c 3.62983,-3e-6 6.548851,2.858919 6.548828,6.382812 2.6e-5,3.523896 -2.918996,6.380862 -6.548828,6.38086 -3.629831,2e-6 -6.5469,-2.856965 -6.546875,-6.38086 -2.2e-5,-3.523892 2.917046,-6.382814 6.546875,-6.382812 z m 17.271485,0.166015 c 3.629832,-5e-6 6.548851,2.858918 6.548828,6.382813 2.1e-5,3.523894 -2.918997,6.380864 -6.548828,6.380859 -3.629827,0 -6.546897,-2.856969 -6.546875,-6.380859 -2.3e-5,-3.523891 2.917047,-6.382812 6.546875,-6.382813 z M 35.576172,32.5625 c -1.4035,7.6e-5 -2.56445,1.126215 -2.564453,2.517578 0,1.391365 1.160951,2.517503 2.564453,2.517578 1.403603,6.7e-5 2.568359,-1.126112 2.568359,-2.517578 -3e-6,-1.391464 -1.164758,-2.517645 -2.568359,-2.517578 z m 17.144531,0.05859 c -1.403503,7.5e-5 -2.566408,1.126211 -2.566406,2.517578 4e-6,1.391362 1.162907,2.517503 2.566406,2.517578 1.4036,6.7e-5 2.566402,-1.126115 2.566406,-2.517578 2e-6,-1.391467 -1.162802,-2.517645 -2.566406,-2.517578 z m -17.142578,1.054687 c 0.81696,-3.9e-5 1.453123,0.628927 1.453125,1.404297 0,0.775371 -0.636164,1.406289 -1.453125,1.40625 -0.816899,-4.4e-5 -1.455078,-0.630937 -1.455078,-1.40625 2e-6,-0.775311 0.63818,-1.404253 1.455078,-1.404297 z m 17.142578,0.05859 c 0.816962,-3.9e-5 1.455079,0.628925 1.455078,1.404297 -2e-6,0.775369 -0.638119,1.406289 -1.455078,1.40625 -0.816898,-4.4e-5 -1.453122,-0.630939 -1.453125,-1.40625 -10e-7,-0.775314 0.636225,-1.404253 1.453125,-1.404297 z m 3.162109,10.642578 c 2.601307,3.3e-5 4.69734,2.097912 4.697266,4.699219 -3.3e-5,2.60123 -2.096036,4.697233 -4.697266,4.697265 -2.601305,7.4e-5 -4.699185,-2.09596 -4.699218,-4.697265 -7.4e-5,-2.601382 2.097837,-4.699292 4.699218,-4.699219 z M 32.054687,44.59375 c 2.53005,-1.4e-5 4.566378,2.031695 4.566407,4.548828 -2.7e-5,2.517135 -2.036355,4.54689 -4.566407,4.546875 -2.530053,1.7e-5 -4.566379,-2.029738 -4.566406,-4.546875 2.9e-5,-2.517135 2.036355,-4.548845 4.566406,-4.548828 z m 23.869141,2.705078 c -0.972731,-5.5e-5 -1.759829,0.814607 -1.759766,1.789063 1.03e-4,0.974338 0.787153,1.789117 1.759766,1.789062 0.972611,5.1e-5 1.759663,-0.814727 1.759766,-1.789062 6.3e-5,-0.974453 -0.787038,-1.789113 -1.759766,-1.789063 z M 32.083984,47.53125 c -0.972494,1.22e-4 -1.759662,0.814843 -1.759765,1.789062 -6.3e-5,0.974337 0.787153,1.788941 1.759765,1.789063 0.972731,5.5e-5 1.759829,-0.814607 1.759766,-1.789063 -1.03e-4,-0.974338 -0.787152,-1.789117 -1.759766,-1.789062 z m 11.908203,0.875 c 3.629749,-2e-6 6.546786,2.858998 6.546875,6.382812 2.6e-5,3.523895 -2.917043,6.380861 -6.546875,6.38086 -3.629831,2e-6 -6.548853,-2.856965 -6.548828,-6.38086 9e-5,-3.523814 2.919079,-6.382814 6.548828,-6.382812 z m 11.931641,0.0039 c 0.356849,-1.8e-5 0.64651,0.290182 0.646484,0.677735 -4e-5,0.387502 -0.289681,0.675799 -0.646484,0.675781 -0.356804,2e-5 -0.648396,-0.288278 -0.648437,-0.675781 -2.5e-5,-0.387555 0.291587,-0.677755 0.648437,-0.677735 z m -23.839844,0.232422 c 0.356804,-2e-5 0.646444,0.290231 0.646485,0.677734 2.5e-5,0.387555 -0.289634,0.675802 -0.646485,0.675782 -0.356803,-4.5e-5 -0.648462,-0.288279 -0.648437,-0.675782 4.1e-5,-0.387452 0.291681,-0.677689 0.648437,-0.677734 z m 11.947266,3.472656 c -1.403501,7.6e-5 -2.566406,1.126213 -2.566406,2.517578 3e-6,1.391364 1.162907,2.517503 2.566406,2.517579 1.403604,7e-5 2.566403,-1.126112 2.566406,-2.517579 0,-1.391468 -1.1628,-2.517648 -2.566406,-2.517578 z m 7.087891,0.0918 c 1.040964,1.574292 2.740327,2.679745 4.763671,2.679688 0.773574,-10e-6 1.505821,-0.165424 2.181641,-0.441407 -2.413749,3.017771 -5.721075,5.236827 -9.556641,6.232422 1.858663,-1.367347 3.14455,-3.438821 3.144532,-5.888672 -2.3e-5,-0.915644 -0.22513,-1.771012 -0.533203,-2.582031 z m -7.087891,1.019531 c 0.816963,-4.1e-5 1.455078,0.630878 1.455078,1.40625 -2e-6,0.775372 -0.638117,1.404339 -1.455078,1.404297 -0.816898,-4.4e-5 -1.453123,-0.628985 -1.453125,-1.404297 0,-0.775312 0.636226,-1.406205 1.453125,-1.40625 z"
       id="path4100"
       transform="matrix(0.97619211,0,0,0.97619211,6.2318353,-7.588907)" /><path
       style="fill:#000000;stroke-width:0.969605"
       d="M 33.038906,69.418754 C 21.050116,66.720268 18.147201,57.081996 20.021452,26.198163 20.874538,12.141047 20.804594,10.227446 19.356954,8.018069 17.248358,4.799943 13.159497,4.6276422 12.530089,7.7303912 12.286686,8.9302774 11.86943,14.550956 11.602851,20.220788 11.33443,25.92981 10.487764,32.038334 9.7053404,33.910939 8.1759968,37.571174 4.8046346,40.45456 2.0542968,40.45456 c -2.34307651,0 -2.24355528,-3.516241 0.1169936,-4.133539 C 6.0889773,35.296523 7.3630111,31.341902 8.016268,18.178121 8.5264236,7.8979577 8.9583152,5.3260218 10.451524,3.6760445 13.579563,0.21959996 20.277427,1.6377697 22.76762,6.2837888 c 1.366413,2.5493533 1.418635,4.6349322 0.782782,31.2619562 -0.49003,20.520459 1.310649,25.699032 9.780664,28.1282 6.36198,1.824592 14.989316,-2.449998 14.32763,-7.098915 -0.268937,-1.889522 -0.140887,-2.723402 -1.337983,-2.945922 0.675467,-1.93695 4.689736,-2.313565 5.647027,-0.326445 l -0.590405,4.357769 c -0.982499,7.251804 -9.607186,11.723587 -18.338429,9.758322 z"
       id="path174"
       sodipodi:nodetypes="ssssssssssssssccss" /></g></svg>
