<?xml version="1.0" encoding="UTF-8" standalone="no"?>
<!-- Created with Inkscape (http://www.inkscape.org/) -->

<svg
   version="1.1"
   id="svg2"
   width="72"
   height="72"
   viewBox="0 0 72 72"
   sodipodi:docname="Type1_J1772_cable_attached.svg"
   inkscape:version="1.2.1 (9c6d41e410, 2022-07-14)"
   xml:space="preserve"
   xmlns:inkscape="http://www.inkscape.org/namespaces/inkscape"
   xmlns:sodipodi="http://sodipodi.sourceforge.net/DTD/sodipodi-0.dtd"
   xmlns="http://www.w3.org/2000/svg"
   xmlns:svg="http://www.w3.org/2000/svg"><defs
     id="defs6" /><sodipodi:namedview
     id="namedview4"
     pagecolor="#ffffff"
     bordercolor="#000000"
     borderopacity="0.25"
     inkscape:showpageshadow="2"
     inkscape:pageopacity="0.0"
     inkscape:pagecheckerboard="0"
     inkscape:deskcolor="#d1d1d1"
     showgrid="false"
     inkscape:zoom="6.5555556"
     inkscape:cx="87.101694"
     inkscape:cy="34.09322"
     inkscape:window-width="1368"
     inkscape:window-height="860"
     inkscape:window-x="-6"
     inkscape:window-y="-6"
     inkscape:window-maximized="1"
     inkscape:current-layer="g8" /><g
     inkscape:groupmode="layer"
     inkscape:label="Image"
     id="g8"><path
       style="fill:#000000;stroke-width:0.969605"
       d="M 33.038906,69.418754 C 21.050116,66.720268 18.147201,57.081996 20.021452,26.198163 20.874538,12.141047 20.804594,10.227446 19.356954,8.018069 17.248358,4.799943 13.159497,4.6276422 12.530089,7.7303912 12.286686,8.9302774 11.86943,14.550956 11.602851,20.220788 11.33443,25.92981 10.487764,32.038334 9.7053404,33.910939 8.1759968,37.571174 4.8046346,40.45456 2.0542968,40.45456 c -2.34307651,0 -2.24355528,-3.516241 0.1169936,-4.133539 C 6.0889773,35.296523 7.3630111,31.341902 8.016268,18.178121 8.5264236,7.8979577 8.9583152,5.3260218 10.451524,3.6760445 13.579563,0.21959996 20.277427,1.6377697 22.76762,6.2837888 c 1.366413,2.5493533 1.418635,4.6349322 0.782782,31.2619562 -0.49003,20.520459 1.310649,25.699032 9.780664,28.1282 6.36198,1.824592 14.989316,-2.449998 14.32763,-7.098915 -0.268937,-1.889522 -0.140887,-2.723402 -1.337983,-2.945922 0.675467,-1.93695 4.689736,-2.313565 5.647027,-0.326445 l -0.590405,4.357769 c -0.982499,7.251804 -9.607186,11.723587 -18.338429,9.758322 z"
       id="path174"
       sodipodi:nodetypes="ssssssssssssssccss" /><g
       inkscape:label="Layer 1"
       id="layer1"
       transform="matrix(0.97619211,0,0,0.97619211,6.2318353,-7.588907)"><path
         id="path4200"
         style="fill:#000000;fill-opacity:1;fill-rule:evenodd;stroke:#000000;stroke-width:1.11237;stroke-linecap:butt;stroke-linejoin:miter;stroke-miterlimit:4;stroke-dasharray:none;stroke-opacity:1"
         d="M 43.991795,24.12196 A 18.710066,18.876129 0 0 0 25.281775,42.998006 18.710066,18.876129 0 0 0 43.991795,61.874052 18.710066,18.876129 0 0 0 62.701822,42.998006 18.710066,18.876129 0 0 0 43.991795,24.12196 Z m -8.46934,4.133137 a 7.1038959,6.9378315 0 0 1 7.103901,6.937875 7.1038959,6.9378315 0 0 1 -7.103901,6.937881 7.1038959,6.9378315 0 0 1 -7.1039,-6.937881 7.1038959,6.9378315 0 0 1 7.1039,-6.937875 z m 17.270725,0.166026 a 7.1038959,6.9378315 0 0 1 7.103906,6.937876 7.1038959,6.9378315 0 0 1 -7.103906,6.937873 7.1038959,6.9378315 0 0 1 -7.103895,-6.937873 7.1038959,6.9378315 0 0 1 7.103895,-6.937876 z m -17.216016,4.697833 a 2.010276,1.9616371 0 0 0 -2.010165,1.961633 2.010276,1.9616371 0 0 0 2.010165,1.961637 2.010276,1.9616371 0 0 0 2.010374,-1.961637 2.010276,1.9616371 0 0 0 -2.010374,-1.961633 z m 17.144077,0.05874 a 2.010276,1.9616371 0 0 0 -2.010166,1.961639 2.010276,1.9616371 0 0 0 2.010166,1.961631 2.010276,1.9616371 0 0 0 2.010374,-1.961631 2.010276,1.9616371 0 0 0 -2.010374,-1.961639 z m 3.160836,10.643826 a 5.2542894,5.2542899 0 0 1 5.254224,5.254439 5.2542894,5.2542899 0 0 1 -5.254224,5.254223 5.2542894,5.2542899 0 0 1 -5.254437,-5.254223 5.2542894,5.2542899 0 0 1 5.254437,-5.254439 z m -23.827596,0.216896 a 5.1232927,5.10401 0 0 1 5.123322,5.103951 5.1232927,5.10401 0 0 1 -5.123322,5.103955 5.1232927,5.10401 0 0 1 -5.123327,-5.103955 5.1232927,5.10401 0 0 1 5.123327,-5.103951 z m 11.937314,3.812375 a 7.1038959,6.9378315 0 0 1 7.103899,6.93766 7.1038959,6.9378315 0 0 1 -7.103899,6.937881 7.1038959,6.9378315 0 0 1 -7.1039,-6.937881 7.1038959,6.9378315 0 0 1 7.1039,-6.93766 z m 11.931574,0.0037 a 1.203608,1.2329643 0 0 0 -1.203674,1.233046 1.203608,1.2329643 0 0 0 1.203674,1.232831 1.203608,1.2329643 0 0 0 1.203669,-1.232831 1.203608,1.2329643 0 0 0 -1.203669,-1.233046 z m -23.839731,0.232648 a 1.203608,1.2329643 0 0 0 -1.203461,1.232831 1.203608,1.2329643 0 0 0 1.203461,1.233046 1.203608,1.2329643 0 0 0 1.203674,-1.233046 1.203608,1.2329643 0 0 0 -1.203674,-1.232831 z m 11.948173,4.583528 a 2.010276,1.9616371 0 0 0 -2.010165,1.961637 2.010276,1.9616371 0 0 0 2.010165,1.961633 2.010276,1.9616371 0 0 0 2.01038,-1.961633 2.010276,1.9616371 0 0 0 -2.01038,-1.961637 z" /><path
         style="fill:none;fill-opacity:1;fill-rule:evenodd;stroke:#000000;stroke-width:0.879602;stroke-linecap:butt;stroke-linejoin:miter;stroke-miterlimit:4;stroke-dasharray:none;stroke-opacity:1"
         d="m 49.026586,24.33845 c 0,0 0.72983,0.240255 1.08845,0.377622 3.47128,1.329684 6.83708,3.437018 9.08523,6.375213 2.67015,3.489713 4.62052,8.002974 4.48709,12.395009 -0.14845,4.886238 -2.35499,10.012797 -5.81988,13.461247 -3.50348,3.48686 -8.69629,5.86979 -13.63896,5.81988 -5.1166,-0.0517 -10.44727,-2.6207 -13.99437,-6.30857 -3.25599,-3.38521 -5.17231,-8.365873 -5.28676,-13.06141 -0.10511,-4.312165 1.63428,-8.798909 4.26495,-12.217303 2.37721,-3.08904 6.08208,-5.309814 9.68499,-6.552919 0.22366,-0.07717 0.6664,-0.244343 0.6664,-0.244343 l 0.0444,-1.954772 c 0.0143,-0.629519 0.61463,-1.400163 1.24395,-1.42165 3.50036,-0.119518 3.5423,-0.05051 6.57513,-0.08885 0.67142,-0.0085 1.53855,0.928079 1.55493,1.599356 z"
         id="path4248"
         inkscape:connector-curvature="0"
         sodipodi:nodetypes="csaaaaaaascssssc"
         inkscape:export-xdpi="600"
         inkscape:export-ydpi="600" /><path
         inkscape:export-ydpi="600"
         inkscape:export-xdpi="600"
         sodipodi:nodetypes="cssaaaaasscssssc"
         inkscape:connector-curvature="0"
         id="path4162"
         d="m 49.990966,23.554452 c 0,0 1.23372,0.473941 1.59133,0.663018 3.48052,1.840253 6.26542,3.324953 8.33056,6.071137 2.77385,3.688618 4.86934,8.402037 4.72872,13.013078 -0.15644,5.129889 -2.48181,10.512076 -6.1333,14.132486 -3.69214,3.66072 -9.1646,6.16249 -14.37345,6.11009 -5.39214,-0.0542 -11.00989,-2.75139 -14.74801,-6.62315 -3.43134,-3.55401 -5.45085,-8.783034 -5.57147,-13.712706 -0.11077,-4.527189 1.51512,-9.10937 4.49463,-12.826514 2.23355,-2.786509 5.07682,-4.419499 8.69606,-6.257704 0.22221,-0.112864 1.50196,-0.523091 1.50196,-0.523091 l 0.0468,-2.052245 c 0.0151,-0.660908 -0.2408,-2.091949 0.42241,-2.114508 3.68887,-0.125484 5.9544,-0.05303 9.15055,-0.09328 0.70758,-0.0089 1.70098,-0.09159 1.72752,0.612867 z"
         style="fill:none;fill-opacity:1;fill-rule:evenodd;stroke:#000000;stroke-width:3.0786;stroke-linecap:butt;stroke-linejoin:miter;stroke-miterlimit:4;stroke-dasharray:none;stroke-opacity:1" /></g></g></svg>
