<?xml version="1.0" encoding="UTF-8" standalone="no"?>
<!-- Created with Inkscape (http://www.inkscape.org/) -->

<svg
   width="100"
   height="100"
   viewBox="0 0 93.750001 93.750002"
   id="svg2"
   version="1.1"
   inkscape:version="1.2.1 (9c6d41e410, 2022-07-14)"
   sodipodi:docname="Type1_J1772.svg"
   inkscape:export-filename="/Users/sss/Desktop/EV Plugs/type1.png"
   inkscape:export-xdpi="600"
   inkscape:export-ydpi="600"
   xmlns:inkscape="http://www.inkscape.org/namespaces/inkscape"
   xmlns:sodipodi="http://sodipodi.sourceforge.net/DTD/sodipodi-0.dtd"
   xmlns="http://www.w3.org/2000/svg"
   xmlns:svg="http://www.w3.org/2000/svg"
   xmlns:rdf="http://www.w3.org/1999/02/22-rdf-syntax-ns#"
   xmlns:cc="http://creativecommons.org/ns#"
   xmlns:dc="http://purl.org/dc/elements/1.1/">
  <defs
     id="defs4" />
  <sodipodi:namedview
     id="base"
     pagecolor="#ffffff"
     bordercolor="#666666"
     borderopacity="1.0"
     inkscape:pageopacity="0.0"
     inkscape:pageshadow="2"
     inkscape:zoom="3.959798"
     inkscape:cx="52.401663"
     inkscape:cy="40.65864"
     inkscape:document-units="px"
     inkscape:current-layer="layer1"
     showgrid="true"
     inkscape:snap-to-guides="false"
     inkscape:snap-grids="false"
     inkscape:window-width="1095"
     inkscape:window-height="831"
     inkscape:window-x="82"
     inkscape:window-y="21"
     inkscape:window-maximized="0"
     inkscape:showpageshadow="2"
     inkscape:pagecheckerboard="0"
     inkscape:deskcolor="#d1d1d1">
    <inkscape:grid
       type="xygrid"
       id="grid4198"
       originx="0"
       originy="0" />
  </sodipodi:namedview>
  <metadata
     id="metadata7">
    <rdf:RDF>
      <cc:Work
         rdf:about="">
        <dc:format>image/svg+xml</dc:format>
        <dc:type
           rdf:resource="http://purl.org/dc/dcmitype/StillImage" />
      </cc:Work>
    </rdf:RDF>
  </metadata>
  <g
     inkscape:label="Layer 1"
     inkscape:groupmode="layer"
     id="layer1">
    <path
       id="path4200"
       style="fill:#000000;fill-opacity:1;fill-rule:evenodd;stroke:#000000;stroke-width:1.49832;stroke-linecap:butt;stroke-linejoin:miter;stroke-miterlimit:4;stroke-dasharray:none;stroke-opacity:1"
       d="M 46.065992,22.2965 A 25.201634,25.425314 0 0 0 20.864418,47.721703 25.201634,25.425314 0 0 0 46.065992,73.146906 25.201634,25.425314 0 0 0 71.267574,47.721703 25.201634,25.425314 0 0 0 46.065992,22.2965 Z m -11.407827,5.567155 a 9.5686348,9.3449534 0 0 1 9.568641,9.345011 9.5686348,9.3449534 0 0 1 -9.568641,9.34502 9.5686348,9.3449534 0 0 1 -9.568641,-9.34502 9.5686348,9.3449534 0 0 1 9.568641,-9.345011 z m 23.262904,0.223629 a 9.5686348,9.3449534 0 0 1 9.568649,9.345012 9.5686348,9.3449534 0 0 1 -9.568649,9.345011 9.5686348,9.3449534 0 0 1 -9.568633,-9.345011 9.5686348,9.3449534 0 0 1 9.568633,-9.345012 z m -23.189214,6.327774 a 2.7077531,2.6422387 0 0 0 -2.707604,2.642232 2.7077531,2.6422387 0 0 0 2.707604,2.642239 2.7077531,2.6422387 0 0 0 2.707885,-2.642239 2.7077531,2.6422387 0 0 0 -2.707885,-2.642232 z m 23.092316,0.07913 a 2.7077531,2.6422387 0 0 0 -2.707604,2.64224 2.7077531,2.6422387 0 0 0 2.707604,2.642232 2.7077531,2.6422387 0 0 0 2.707885,-2.642232 2.7077531,2.6422387 0 0 0 -2.707885,-2.64224 z m 4.257507,14.336764 a 7.0772963,7.077297 0 0 1 7.077208,7.077497 7.0772963,7.077297 0 0 1 -7.077208,7.077208 7.0772963,7.077297 0 0 1 -7.077496,-7.077208 7.0772963,7.077297 0 0 1 7.077496,-7.077497 z m -32.094722,0.29215 a 6.9008495,6.8748766 0 0 1 6.900888,6.874796 6.9008495,6.8748766 0 0 1 -6.900888,6.874804 6.9008495,6.8748766 0 0 1 -6.900896,-6.874804 6.9008495,6.8748766 0 0 1 6.900896,-6.874796 z m 16.079036,5.135101 a 9.5686348,9.3449534 0 0 1 9.56864,9.344722 9.5686348,9.3449534 0 0 1 -9.56864,9.345019 9.5686348,9.3449534 0 0 1 -9.568641,-9.345019 9.5686348,9.3449534 0 0 1 9.568641,-9.344722 z m 16.071305,0.005 a 1.621207,1.6607486 0 0 0 -1.621297,1.660859 1.621207,1.6607486 0 0 0 1.621297,1.66057 1.621207,1.6607486 0 0 0 1.621288,-1.66057 1.621207,1.6607486 0 0 0 -1.621288,-1.660859 z M 30.026229,54.57657 a 1.621207,1.6607486 0 0 0 -1.621008,1.660569 1.621207,1.6607486 0 0 0 1.621008,1.66086 1.621207,1.6607486 0 0 0 1.621297,-1.66086 1.621207,1.6607486 0 0 0 -1.621297,-1.660569 z m 16.093663,6.173811 a 2.7077531,2.6422387 0 0 0 -2.707604,2.642239 2.7077531,2.6422387 0 0 0 2.707604,2.642233 2.7077531,2.6422387 0 0 0 2.707893,-2.642233 2.7077531,2.6422387 0 0 0 -2.707893,-2.642239 z" />
    <path
       style="fill:none;fill-opacity:1;fill-rule:evenodd;stroke:#000000;stroke-width:1.56577;stroke-linecap:butt;stroke-linejoin:miter;stroke-miterlimit:4;stroke-dasharray:none;stroke-opacity:1"
       d="m 37.657878,81.306142 c 0,0 -1.299159,-0.427676 -1.937539,-0.672201 C 29.541142,78.266985 23.54973,74.515741 19.547808,69.28549 14.794699,63.073489 11.322876,55.039479 11.560398,47.221262 11.824646,38.52332 15.752484,29.397593 21.920307,23.259033 28.156806,17.052119 37.400475,12.810276 46.198868,12.899121 c 9.10801,0.09197 18.59708,4.665092 24.911226,11.229825 5.795963,6.025978 9.207179,14.892006 9.410911,23.250483 0.1871,7.67604 -2.909165,15.662848 -7.591994,21.747895 -4.231647,5.498769 -10.826643,9.451945 -17.240147,11.664783 -0.398133,0.137361 -1.186255,0.434953 -1.186255,0.434953 l -0.07913,3.479669 c -0.02544,1.1206 -1.094096,2.492416 -2.214333,2.530665 -6.230958,0.212752 -6.305622,0.08992 -11.704321,0.158166 -1.195197,0.01511 -2.738766,-1.652063 -2.767913,-2.846997 z"
       id="path4248"
       inkscape:connector-curvature="0"
       sodipodi:nodetypes="csaaaaaaascssssc"
       inkscape:export-xdpi="600"
       inkscape:export-ydpi="600" />
    <path
       style="fill:none;fill-opacity:1;fill-rule:evenodd;stroke:#000000;stroke-width:1.56577;stroke-linecap:butt;stroke-linejoin:miter;stroke-miterlimit:4;stroke-dasharray:none;stroke-opacity:1"
       d="M 37.901642,4.1038172 53.559329,3.9919777"
       id="path4271"
       inkscape:connector-curvature="0"
       inkscape:export-xdpi="600"
       inkscape:export-ydpi="600" />
    <path
       style="fill:#000000;fill-opacity:1;fill-rule:evenodd;stroke:#000000;stroke-width:1.56577;stroke-linecap:butt;stroke-linejoin:miter;stroke-miterlimit:4;stroke-dasharray:none;stroke-opacity:1"
       d="M 37.901642,10.926101 37.789803,1.6433318 c 0,0 -1.011825,0.011563 -1.45393,0.2236789 -0.547172,0.2624896 -1.167149,0.6491251 -1.34209,1.2302427 -1.007786,3.347768 -2.124967,9.0590906 -2.124967,9.0590906"
       id="path4273"
       inkscape:connector-curvature="0"
       sodipodi:nodetypes="ccasc"
       inkscape:export-xdpi="600"
       inkscape:export-ydpi="600" />
    <path
       sodipodi:nodetypes="ccasc"
       inkscape:connector-curvature="0"
       id="path4275"
       d="m 53.573832,11.03794 0.11184,-9.2827687 c 0,0 1.011824,0.011563 1.45393,0.223679 0.547171,0.2624895 1.16715,0.6491249 1.342091,1.2302427 1.007785,3.3477679 2.124966,9.059098 2.124966,9.059098"
       style="fill:#000000;fill-opacity:1;fill-rule:evenodd;stroke:#000000;stroke-width:1.56577;stroke-linecap:butt;stroke-linejoin:miter;stroke-miterlimit:4;stroke-dasharray:none;stroke-opacity:1"
       inkscape:export-xdpi="600"
       inkscape:export-ydpi="600" />
    <path
       inkscape:export-ydpi="600"
       inkscape:export-xdpi="600"
       sodipodi:nodetypes="cssaaaaasscssssc"
       inkscape:connector-curvature="0"
       id="path4162"
       d="m 35.941202,82.701729 c 0,0 -2.196146,-0.843657 -2.832717,-1.180232 C 26.912853,78.245683 21.955475,75.602783 18.279341,70.714329 13.341645,64.148258 9.611471,55.75795 9.861785,47.549884 c 0.27848,-9.131664 4.417846,-18.712438 10.917827,-25.157097 6.572348,-6.516416 16.313823,-10.96978 25.586036,-10.8765 9.598498,0.09656 19.598589,4.897716 26.252771,11.789791 6.108092,6.326469 9.703012,15.634593 9.917721,24.409852 0.197175,8.058803 -2.697057,16.215496 -8.000847,22.832345 -3.975915,4.960236 -9.037195,7.867105 -15.479756,11.139275 -0.395564,0.200908 -2.673634,0.931148 -2.673634,0.931148 l -0.08334,3.653181 c -0.02684,1.176475 0.428651,3.723856 -0.75192,3.764013 -6.566517,0.223373 -10.599363,0.0944 -16.288797,0.166054 -1.259563,0.01585 -3.027894,0.163047 -3.075145,-1.090957 z"
       style="fill:none;fill-opacity:1;fill-rule:evenodd;stroke:#000000;stroke-width:5.48019;stroke-linecap:butt;stroke-linejoin:miter;stroke-miterlimit:4;stroke-dasharray:none;stroke-opacity:1" />
  </g>
</svg>
