<?xml version="1.0" encoding="UTF-8" standalone="no"?>
<!-- Created with Inkscape (http://www.inkscape.org/) -->

<svg
   version="1.1"
   id="svg2"
   width="100"
   height="100"
   viewBox="0 0 100 100"
   sodipodi:docname="Combo-ccs1-eu_cable_attached.svg"
   inkscape:version="1.2.1 (9c6d41e410, 2022-07-14)"
   xml:space="preserve"
   xmlns:inkscape="http://www.inkscape.org/namespaces/inkscape"
   xmlns:sodipodi="http://sodipodi.sourceforge.net/DTD/sodipodi-0.dtd"
   xmlns="http://www.w3.org/2000/svg"
   xmlns:svg="http://www.w3.org/2000/svg"><defs
     id="defs6" /><sodipodi:namedview
     id="namedview4"
     pagecolor="#ffffff"
     bordercolor="#000000"
     borderopacity="0.25"
     inkscape:showpageshadow="2"
     inkscape:pageopacity="0.0"
     inkscape:pagecheckerboard="0"
     inkscape:deskcolor="#d1d1d1"
     showgrid="false"
     inkscape:zoom="6.5555556"
     inkscape:cx="66.050847"
     inkscape:cy="46.906779"
     inkscape:window-width="1368"
     inkscape:window-height="860"
     inkscape:window-x="-6"
     inkscape:window-y="-6"
     inkscape:window-maximized="1"
     inkscape:current-layer="svg2" /><path
     id="path3006"
     style="fill:#000000;stroke-width:1.33305;stroke:none"
     d="M 66.154297 0.91210938 L 65.648438 0.91796875 C 65.648438 0.91796875 65.46502 0.9200085 65.242188 0.94140625 C 65.019355 0.96271943 64.768354 0.98090274 64.492188 1.1132812 C 64.096946 1.3028924 63.546416 1.5864078 63.355469 2.2207031 C 62.749044 4.2351799 62.128692 7.3238822 62.011719 7.9140625 C 58.769487 9.2496029 55.785028 11.225727 53.373047 13.617188 C 48.800973 18.150348 45.9653 24.717258 45.769531 31.136719 C 45.589706 37.033398 48.201711 42.784196 51.582031 47.279297 C 54.241966 50.816447 57.766869 52.665398 61.787109 54.791016 C 62.096438 54.954577 62.40904 55.073141 62.722656 55.199219 L 62.832031 58.123047 L 61.158203 58.123047 C 55.109371 58.123047 50.201172 63.0332 50.201172 69.082031 L 50.201172 69.242188 C 50.201172 75.291019 55.109371 80.201172 61.158203 80.201172 L 66.302734 80.201172 C 67.468398 80.569554 68.230668 81.308032 68.533203 83.433594 C 69.442915 89.825108 57.580683 95.701881 48.833984 93.193359 C 37.189071 89.853644 34.713008 82.733822 35.386719 54.521484 C 36.260918 17.913609 36.189145 15.047919 34.310547 11.542969 C 30.886929 5.1554392 21.679455 3.204978 17.378906 7.9570312 C 15.325983 10.225486 14.730682 13.760958 14.029297 27.894531 C 13.131173 45.992616 11.380333 51.429371 5.9941406 52.837891 C 2.7487649 53.686578 2.6126306 58.521484 5.8339844 58.521484 C 9.6152546 58.521484 14.248965 54.557629 16.351562 49.525391 C 17.427268 46.950864 18.591901 38.552113 18.960938 30.703125 C 19.327442 22.908019 19.90169 15.180904 20.236328 13.53125 C 21.101664 9.2654738 26.722113 9.5013752 29.621094 13.925781 C 31.611366 16.963318 31.708012 19.595598 30.535156 38.921875 C 27.958365 81.382185 31.948981 94.631814 48.431641 98.341797 C 60.4357 101.04373 72.055874 94.860721 73.644531 84.925781 L 74.400391 80.201172 L 81.064453 80.201172 C 87.113276 80.201172 92.023438 75.291019 92.023438 69.242188 L 92.023438 69.082031 C 92.023438 63.0332 87.113276 58.123047 81.064453 58.123047 L 79.443359 58.123047 C 79.448928 58.043285 79.46326 57.954216 79.466797 57.878906 C 79.501388 57.141572 79.42885 56.462868 79.431641 56.339844 L 79.457031 55.220703 C 79.525707 55.196768 79.599142 55.171781 79.664062 55.148438 C 79.858824 55.078493 79.957494 55.059678 80.248047 54.912109 C 84.469333 52.768114 88.040781 50.740982 90.867188 47.214844 C 94.554638 42.614488 96.582326 36.935643 96.443359 31.255859 C 96.293025 25.111736 93.839113 18.714396 89.515625 14.236328 C 86.793997 11.417402 83.319979 9.122771 79.542969 7.6855469 C 79.326631 6.6184682 78.783846 4.0358607 78.259766 2.2949219 C 78.068818 1.6606265 77.518279 1.3751496 77.123047 1.1855469 C 76.846881 1.0531599 76.59588 1.0349428 76.373047 1.0136719 C 76.150214 0.9923587 75.966797 0.99023438 75.966797 0.99023438 L 75.460938 0.984375 L 75.443359 2.4453125 L 66.173828 2.5097656 L 66.154297 0.91210938 z M 75.429688 3.4589844 L 75.392578 6.4921875 C 74.017131 6.2219857 72.6244 6.0647796 71.232422 6.0507812 C 69.556133 6.0339238 67.875366 6.222007 66.224609 6.5839844 L 66.1875 3.5234375 L 75.429688 3.4589844 z M 61.363281 15.125 C 65.502325 15.125008 68.830103 18.386053 68.830078 22.404297 C 68.830095 26.422541 65.502325 29.679679 61.363281 29.679688 C 57.224245 29.679688 53.896459 26.422541 53.896484 22.404297 C 53.896451 18.386044 57.224237 15.125 61.363281 15.125 z M 81.056641 15.316406 C 85.195693 15.316406 88.523463 18.573544 88.523438 22.591797 C 88.523463 26.61005 85.195693 29.869149 81.056641 29.869141 C 76.917588 29.869149 73.58981 26.61005 73.589844 22.591797 C 73.589818 18.573544 76.917588 15.316406 81.056641 15.316406 z M 61.291016 19.46875 C 59.965801 19.46875 58.888672 20.514741 58.888672 21.806641 C 58.88868 23.098532 59.96581 24.144531 61.291016 24.144531 C 62.616222 24.144531 63.693359 23.098532 63.693359 21.806641 C 63.693368 20.514741 62.61623 19.46875 61.291016 19.46875 z M 81.208984 19.537109 C 79.88377 19.537109 78.804688 20.583109 78.804688 21.875 C 78.804688 23.1669 79.88377 24.212891 81.208984 24.212891 C 82.53419 24.212891 83.611328 23.1669 83.611328 21.875 C 83.611328 20.583109 82.53419 19.537109 81.208984 19.537109 z M 84.578125 32.876953 C 87.544454 32.876869 89.935631 35.268054 89.935547 38.234375 C 89.935505 41.200611 87.544361 43.591881 84.578125 43.591797 C 81.611982 43.591763 79.220737 41.200518 79.220703 38.234375 C 79.220619 35.268139 81.611898 32.876995 84.578125 32.876953 z M 57.408203 33.123047 C 60.29328 33.12303 62.617272 35.440212 62.617188 38.310547 C 62.617145 41.180797 60.293187 43.496111 57.408203 43.496094 C 54.523236 43.496102 52.199261 41.180797 52.199219 38.310547 C 52.199126 35.440212 54.523143 33.123038 57.408203 33.123047 z M 84.927734 36.529297 C 84.118316 36.529297 83.460938 37.199294 83.460938 38.023438 C 83.460938 38.847581 84.118316 39.519531 84.927734 39.519531 C 85.737153 39.519531 86.394523 38.847581 86.394531 38.023438 C 86.394531 37.199294 85.737161 36.529297 84.927734 36.529297 z M 57.232422 36.798828 C 56.423003 36.798828 55.767578 37.468825 55.767578 38.292969 C 55.767578 39.117112 56.423003 39.789062 57.232422 39.789062 C 58.041849 39.789062 58.699227 39.117112 58.699219 38.292969 C 58.699219 37.468825 58.04184 36.798828 57.232422 36.798828 z M 71.019531 37.470703 C 75.158575 37.470703 78.486353 40.729803 78.486328 44.748047 C 78.486353 48.766291 75.158575 52.025391 71.019531 52.025391 C 66.880487 52.025399 63.552709 48.7663 63.552734 44.748047 C 63.552709 40.729794 66.880487 37.470695 71.019531 37.470703 z M 71.113281 42.105469 C 69.788075 42.105469 68.710938 43.153413 68.710938 44.445312 C 68.710938 45.737212 69.788075 46.783203 71.113281 46.783203 C 72.438496 46.783203 73.515633 45.737212 73.515625 44.445312 C 73.515633 43.153413 72.438496 42.105469 71.113281 42.105469 z M 75.957031 52.890625 L 75.898438 55.40625 C 75.859441 55.604885 75.764233 55.845314 75.599609 56.041016 C 75.399071 56.279393 75.148164 56.412437 74.986328 56.417969 C 70.95286 56.555684 70.914627 56.475137 67.40625 56.519531 C 67.257498 56.521223 66.888149 56.348887 66.601562 56.048828 C 66.475209 55.916531 66.372663 55.765237 66.292969 55.621094 L 66.191406 52.916016 C 67.745988 53.268364 69.359882 53.460934 71.019531 53.460938 C 72.717884 53.460933 74.36912 53.259122 75.957031 52.890625 z M 79.875 62.207031 C 83.391234 62.207031 86.234375 65.148708 86.234375 68.71875 C 86.234375 72.288809 83.391234 75.234375 79.875 75.234375 C 76.358757 75.234375 73.515625 72.288809 73.515625 68.71875 C 73.515625 65.148708 76.358757 62.207031 79.875 62.207031 z M 62.337891 62.410156 C 65.854116 62.410156 68.697266 65.355731 68.697266 68.925781 C 68.697266 72.49584 65.854116 75.439453 62.337891 75.439453 C 58.821656 75.439453 55.978516 72.49584 55.978516 68.925781 C 55.978516 65.355731 58.821656 62.410156 62.337891 62.410156 z M 79.875 64.236328 C 77.487738 64.236328 75.546875 66.215391 75.546875 68.71875 C 75.546875 71.222118 77.487738 73.203125 79.875 73.203125 C 82.262262 73.203125 84.205078 71.222118 84.205078 68.71875 C 84.205078 66.215391 82.262262 64.236328 79.875 64.236328 z M 62.337891 64.443359 C 59.950629 64.443359 58.007812 66.422413 58.007812 68.925781 C 58.007812 71.429149 59.950629 73.408203 62.337891 73.408203 C 64.725152 73.408203 66.667969 71.429149 66.667969 68.925781 C 66.667969 66.422413 64.725152 64.443359 62.337891 64.443359 z " /></svg>
