<?xml version="1.0" encoding="UTF-8" standalone="no"?>
<!-- Created with Inkscape (http://www.inkscape.org/) -->

<svg
   version="1.1"
   id="svg2"
   width="100"
   height="100"
   viewBox="0 0 100 100"
   sodipodi:docname="Combo-ccs2-eu_cable_attached.svg"
   inkscape:version="1.2.1 (9c6d41e410, 2022-07-14)"
   xml:space="preserve"
   xmlns:inkscape="http://www.inkscape.org/namespaces/inkscape"
   xmlns:sodipodi="http://sodipodi.sourceforge.net/DTD/sodipodi-0.dtd"
   xmlns="http://www.w3.org/2000/svg"
   xmlns:svg="http://www.w3.org/2000/svg"><defs
     id="defs6" /><sodipodi:namedview
     id="namedview4"
     pagecolor="#ffffff"
     bordercolor="#000000"
     borderopacity="0.25"
     inkscape:showpageshadow="2"
     inkscape:pageopacity="0.0"
     inkscape:pagecheckerboard="0"
     inkscape:deskcolor="#d1d1d1"
     showgrid="false"
     inkscape:zoom="1.1588695"
     inkscape:cx="-44.439863"
     inkscape:cy="62.560973"
     inkscape:window-width="1368"
     inkscape:window-height="860"
     inkscape:window-x="-6"
     inkscape:window-y="-6"
     inkscape:window-maximized="1"
     inkscape:current-layer="g8" /><g
     inkscape:groupmode="layer"
     inkscape:label="Image"
     id="g8"><path
       style="fill:#000000;stroke-width:1.37787"
       d="M 47.641306,98.319174 C 30.657598,94.472463 26.545234,80.733031 29.200356,36.707889 30.408865,16.669361 30.30978,13.94151 28.259007,10.792028 25.271901,6.2045644 19.479488,5.9589485 18.587847,10.381936 c -0.34481,1.71045 -0.935909,9.722771 -1.313555,17.805158 -0.380255,8.138255 -1.579671,16.846007 -2.688077,19.515415 -2.166514,5.217696 -6.9424975,9.327984 -10.8387126,9.327984 -3.31927805,0 -3.17829701,-5.012427 0.1657333,-5.892391 5.5499244,-1.46043 7.3547603,-7.097771 8.2801863,-25.862843 0.722706,-14.654452 1.334537,-18.3207673 3.449865,-20.6728236 4.431279,-4.92718554 13.919692,-2.9055752 17.447382,3.7173604 1.935705,3.6341222 2.009686,6.6071332 1.108912,44.5641552 -0.69419,29.252076 1.856708,36.634172 13.855609,40.096969 9.012585,2.600971 20.166555,-3.797574 19.229189,-10.424642 -0.380987,-2.693528 -0.388957,-2.944624 -2.084804,-3.261827 0.956886,-2.761136 7.9008,-2.981741 9.25693,-0.149087 l -0.836388,5.263247 C 71.983167,94.709693 60.01027,101.12068 47.641306,98.319174 Z"
       id="path4244"
       sodipodi:nodetypes="ssssssssssssssccss" /><path
       id="path4247"
       style="color:#000000;fill:#000000;stroke-width:0.138262;stroke-linecap:round;stroke-linejoin:round;-inkscape-stroke:none"
       d="m 57.083478,52.802724 c -7.481364,0 -13.565478,6.725204 -13.565478,14.996534 0,8.27133 6.084114,14.996533 13.565478,14.996533 h 28.047 c 7.481366,0 13.563367,-6.725203 13.563367,-14.996533 0,-8.27133 -6.082001,-14.996534 -13.563367,-14.996534 z m 25.360076,5.909965 c 4.566402,0 8.394262,3.882329 8.394262,8.767853 0,4.885522 -3.82786,8.767855 -8.394262,8.767855 -4.5664,0 -8.394259,-3.882333 -8.394259,-8.767855 0,-4.885524 3.827859,-8.767853 8.394259,-8.767853 z m -22.675262,0.21318 c 4.566398,0 8.396369,3.882331 8.396369,8.767854 0,4.885525 -3.829971,8.767854 -8.396369,8.767854 -4.566403,0 -8.394263,-3.882329 -8.394263,-8.767854 0,-4.885523 3.82786,-8.767854 8.394263,-8.767854 z m 22.675262,3.00564 c -3.098993,0 -5.483601,2.526933 -5.483601,5.549033 0,3.022101 2.384608,5.551145 5.483601,5.551145 3.098996,0 5.485713,-2.529044 5.485713,-5.551145 0,-3.0221 -2.386717,-5.549033 -5.485713,-5.549033 z m -22.675262,0.211069 c -3.098997,0 -5.483604,2.529044 -5.483604,5.551145 0,3.022101 2.384607,5.549033 5.483604,5.549033 3.098992,0 5.48571,-2.526932 5.48571,-5.549033 0,-3.022101 -2.386718,-5.551145 -5.48571,-5.551145 z" /><path
       id="path4250"
       style="color:#000000;fill:#000000;fill-rule:evenodd;stroke-width:0.149915;-inkscape-stroke:none"
       d="m 56.107644,0.638 c 0,0 -1.877146,0.987061 -3.158254,2.0643089 -1.28111,1.0772458 -3.198274,2.9107264 -4.286531,4.5840466 -1.11247,1.7105525 -2.39984,3.6835235 -3.158254,5.7329195 -0.892906,2.412824 -1.483656,4.987682 -1.57684,7.563792 -0.122663,3.39115 0.240679,6.888364 1.352558,10.088107 1.404153,4.040845 3.689175,7.846796 6.540792,11.003543 2.074856,2.296872 4.707822,4.088451 7.442496,5.501774 2.18301,1.128213 3.463259,1.364697 5.414805,2.062019 4.909794,1.754356 11.051603,0.917725 11.051603,0.917725 0,0 4.535901,-1.128077 6.540792,-2.062021 2.004893,-0.933943 3.753978,-2.131894 5.414806,-3.439752 1.660828,-1.307861 3.279062,-2.922787 4.510811,-4.355187 1.231751,-1.432401 1.950144,-2.338287 2.931687,-4.126329 0.98154,-1.788043 2.103687,-4.103798 2.707402,-6.648355 0.603713,-2.544562 0.835934,-5.974379 0.675133,-8.481516 -0.160799,-2.50714 -0.730294,-4.503724 -1.352558,-6.419498 -0.62226,-1.915775 -1.351933,-3.394128 -2.25426,-5.044052 C 94.001505,7.9295985 92.709355,5.8873451 91.354226,4.3684025 89.9991,2.8494637 86.781625,0.638 86.781625,0.638 Z m 8.00549,5.3621681 c 2.740321,0 5.076093,2.393013 5.076093,5.4125179 0,3.019504 -2.335772,5.412515 -5.076093,5.412515 -2.74032,0 -5.073805,-2.393011 -5.073805,-5.412515 0,-3.0195049 2.333485,-5.4125179 5.073805,-5.4125179 z m 14.663,0 c 2.740321,0 5.073804,2.393013 5.073804,5.4125179 0,3.019504 -2.333483,5.412515 -5.073804,5.412515 -2.74032,0 -5.076093,-2.393011 -5.076093,-5.412515 0,-3.0195049 2.335773,-5.4125179 5.076093,-5.4125179 z m -14.663,3.4878125 c -1.122177,0 -1.91784,0.8918814 -1.91784,1.9247054 0,1.032823 0.795663,1.924704 1.91784,1.924704 1.12218,0 1.920127,-0.891881 1.920127,-1.924704 0,-1.032824 -0.797947,-1.9247054 -1.920127,-1.9247054 z m 14.663,0 c -1.122178,0 -1.920128,0.8918814 -1.920128,1.9247054 0,1.032823 0.79795,1.924704 1.920128,1.924704 1.12218,0 1.917838,-0.891881 1.917838,-1.924704 0,-1.032824 -0.795658,-1.9247054 -1.917838,-1.9247054 z M 56.331926,15.346772 c 3.410703,0 6.369148,2.821852 6.369148,6.497308 0,3.675458 -2.958445,6.49731 -6.369148,6.49731 -3.410703,0 -6.366859,-2.821852 -6.366859,-6.49731 0,-3.675456 2.956156,-6.497308 6.366859,-6.497308 z m 14.887282,0 c 3.410703,0 6.366859,2.821852 6.366859,6.497308 0,3.675458 -2.956156,6.49731 -6.366859,6.49731 -3.410702,0 -6.36686,-2.821852 -6.36686,-6.49731 0,-3.675456 2.956158,-6.497308 6.36686,-6.497308 z m 14.660711,0 c 3.410702,0 6.369147,2.821852 6.369147,6.497308 0,3.675458 -2.958445,6.49731 -6.369147,6.49731 -3.410701,0 -6.366859,-2.821852 -6.366859,-6.49731 0,-3.675456 2.956158,-6.497308 6.366859,-6.497308 z m -29.547993,3.487812 c -1.880029,0 -3.210892,1.434243 -3.210892,3.009496 0,1.575255 1.330863,3.009498 3.210892,3.009498 1.880027,0 3.213181,-1.434243 3.213181,-3.009498 0,-1.575253 -1.333154,-3.009496 -3.213181,-3.009496 z m 14.887282,0 c -1.880026,0 -3.213181,1.434243 -3.213181,3.009496 0,1.575255 1.333155,3.009498 3.213181,3.009498 1.880029,0 3.21318,-1.434243 3.21318,-3.009498 0,-1.575253 -1.333151,-3.009496 -3.21318,-3.009496 z m 14.660711,0 c -1.880027,0 -3.210893,1.434243 -3.210893,3.009496 0,1.575255 1.330866,3.009498 3.210893,3.009498 1.880028,0 3.21318,-1.434243 3.21318,-3.009498 0,-1.575253 -1.333152,-3.009496 -3.21318,-3.009496 z m -22.329777,9.348892 c 3.410701,0 6.366858,2.82414 6.366858,6.499598 0,3.675455 -2.956157,6.497308 -6.366858,6.497308 -3.410702,0 -6.36686,-2.821853 -6.36686,-6.497308 0,-3.675458 2.956158,-6.499598 6.36686,-6.499598 z m 15.338132,0 c 3.410701,0 6.366859,2.82414 6.366859,6.499598 0,3.675455 -2.956158,6.497308 -6.366859,6.497308 -3.410701,0 -6.366858,-2.821853 -6.366858,-6.497308 0,-3.675458 2.956157,-6.499598 6.366858,-6.499598 z m -15.338132,3.490101 c -1.880028,0 -3.213181,1.434242 -3.213181,3.009497 0,1.575254 1.333153,3.009496 3.213181,3.009496 1.880025,0 3.213181,-1.434242 3.213181,-3.009496 0,-1.575255 -1.333156,-3.009497 -3.213181,-3.009497 z m 15.338132,0 c -1.880025,0 -3.213181,1.434242 -3.213181,3.009497 0,1.575254 1.333156,3.009496 3.213181,3.009496 1.880027,0 3.213182,-1.434242 3.213182,-3.009496 0,-1.575255 -1.333155,-3.009497 -3.213182,-3.009497 z" /><path
       style="color:#000000;fill:#000000;fill-rule:evenodd;stroke-width:0.149915"
       d="m 59.729897,49.558804 -0.02841,3.488201 23.006829,0.229364 0.02868,-3.488506 z"
       id="path4253" /></g></svg>
