<?xml version="1.0" encoding="UTF-8" standalone="no"?>
<svg
   version="1.1"
   id="svg2"
   viewBox="0 0 93.750001 93.750002"
   height="100"
   width="100"
   inkscape:version="1.2.1 (9c6d41e410, 2022-07-14)"
   sodipodi:docname="Combo-ccs2-eu.svg"
   inkscape:export-filename="/Users/sss/Desktop/Plug/combo-ccs-eu.png"
   inkscape:export-xdpi="600"
   inkscape:export-ydpi="600"
   xmlns:inkscape="http://www.inkscape.org/namespaces/inkscape"
   xmlns:sodipodi="http://sodipodi.sourceforge.net/DTD/sodipodi-0.dtd"
   xmlns="http://www.w3.org/2000/svg"
   xmlns:svg="http://www.w3.org/2000/svg"
   xmlns:rdf="http://www.w3.org/1999/02/22-rdf-syntax-ns#"
   xmlns:cc="http://creativecommons.org/ns#"
   xmlns:dc="http://purl.org/dc/elements/1.1/">
  <sodipodi:namedview
     pagecolor="#ffffff"
     bordercolor="#666666"
     borderopacity="1"
     objecttolerance="10"
     gridtolerance="10"
     guidetolerance="10"
     inkscape:pageopacity="0"
     inkscape:pageshadow="2"
     inkscape:window-width="1368"
     inkscape:window-height="860"
     id="namedview18"
     showgrid="true"
     inkscape:zoom="3.5881182"
     inkscape:cx="58.108454"
     inkscape:cy="68.977661"
     inkscape:window-x="-6"
     inkscape:window-y="-6"
     inkscape:window-maximized="1"
     inkscape:current-layer="layer1"
     inkscape:showpageshadow="2"
     inkscape:pagecheckerboard="0"
     inkscape:deskcolor="#d1d1d1"
     inkscape:document-units="mm">
    <inkscape:grid
       type="xygrid"
       id="grid4146"
       originx="0"
       originy="0" />
  </sodipodi:namedview>
  <defs
     id="defs4" />
  <metadata
     id="metadata7">
    <rdf:RDF>
      <cc:Work
         rdf:about="">
        <dc:format>image/svg+xml</dc:format>
        <dc:type
           rdf:resource="http://purl.org/dc/dcmitype/StillImage" />
      </cc:Work>
    </rdf:RDF>
  </metadata>
  <g
     id="layer1">
    <path
       style="color:#000000;fill:#000000;fill-rule:evenodd;-inkscape-stroke:none"
       d="m 55.189453,33.144531 c -3.846785,0 -7.048828,3.092643 -7.048828,6.916016 0,3.823373 3.202042,6.916016 7.048828,6.916015 3.846786,0 7.048829,-3.092642 7.048828,-6.916015 0,-3.823372 -3.202043,-6.916015 -7.048828,-6.916016 z m 0,3.603516 c 1.949357,0 3.445312,1.486248 3.445313,3.3125 0,1.826252 -1.495956,3.314453 -3.445313,3.314453 -1.949357,0 -3.447266,-1.488201 -3.447266,-3.314453 10e-7,-1.826252 1.497909,-3.3125 3.447266,-3.3125 z"
       id="ellipse4206" />
    <path
       style="color:#000000;fill:#000000;fill-rule:evenodd;-inkscape-stroke:none"
       d="m 38.386719,33.144531 c -3.846786,0 -7.048828,3.092643 -7.048828,6.916016 -10e-7,3.823373 3.202042,6.916016 7.048828,6.916015 3.846785,0 7.046875,-3.092642 7.046875,-6.916015 -10e-7,-3.823372 -3.20009,-6.916015 -7.046875,-6.916016 z m 0,3.603516 c 1.949357,0 3.445312,1.486248 3.445312,3.3125 0,1.826252 -1.495955,3.314453 -3.445312,3.314453 -1.949358,0 -3.447266,-1.488201 -3.447266,-3.314453 0,-1.826252 1.497909,-3.3125 3.447266,-3.3125 z"
       id="ellipse4208" />
    <path
       style="color:#000000;fill:#000000;fill-rule:evenodd;-inkscape-stroke:none"
       d="m 30.478516,19.332031 c -3.846786,1e-6 -7.048829,3.092643 -7.048829,6.916016 10e-7,3.823372 3.202044,6.916015 7.048829,6.916015 3.846785,10e-7 7.048827,-3.092642 7.048828,-6.916015 0,-3.823373 -3.202042,-6.916016 -7.048828,-6.916016 z m 0,3.601563 c 1.949357,0 3.447265,1.4882 3.447265,3.314453 0,1.826252 -1.497908,3.314453 -3.447265,3.314453 -1.949357,0 -3.447266,-1.488201 -3.447266,-3.314453 0,-1.826252 1.497908,-3.314453 3.447266,-3.314453 z"
       id="ellipse4210" />
    <path
       style="color:#000000;fill:#000000;fill-rule:evenodd;-inkscape-stroke:none"
       d="m 46.787109,19.332031 c -3.846785,1e-6 -7.048828,3.092643 -7.048828,6.916016 10e-7,3.823372 3.202043,6.916015 7.048828,6.916015 3.846786,10e-7 7.048828,-3.092642 7.048828,-6.916015 10e-7,-3.823373 -3.202042,-6.916016 -7.048828,-6.916016 z m 0,3.601563 c 1.949358,0 3.447266,1.4882 3.447266,3.314453 0,1.826252 -1.497908,3.314453 -3.447266,3.314453 -1.949357,0 -3.445312,-1.488201 -3.445312,-3.314453 0,-1.826252 1.495955,-3.314453 3.445312,-3.314453 z"
       id="ellipse4212" />
    <path
       style="color:#000000;fill:#000000;fill-rule:evenodd;-inkscape-stroke:none"
       d="m 62.849609,19.332031 c -3.846785,1e-6 -7.048828,3.092643 -7.048828,6.916016 10e-7,3.823372 3.202043,6.916015 7.048828,6.916015 3.846786,10e-7 7.048828,-3.092642 7.048828,-6.916015 10e-7,-3.823373 -3.202042,-6.916016 -7.048828,-6.916016 z m 0,3.601563 c 1.949358,0 3.445313,1.4882 3.445313,3.314453 0,1.826252 -1.495955,3.314453 -3.445313,3.314453 -1.949357,0 -3.447265,-1.488201 -3.447265,-3.314453 0,-1.826252 1.497908,-3.314453 3.447265,-3.314453 z"
       id="ellipse4214" />
    <path
       style="color:#000000;fill:#000000;fill-rule:evenodd;-inkscape-stroke:none"
       d="m 55.064453,9.2753906 c -3.118665,0 -5.630859,2.6253174 -5.630859,5.7500004 0,3.124683 2.512194,5.748047 5.630859,5.748046 3.118665,10e-7 5.632812,-2.623363 5.632813,-5.748046 -10e-7,-3.124683 -2.514148,-5.7500004 -5.632813,-5.7500004 z m 0,3.6035154 c 1.112813,0 2.03125,0.91097 2.03125,2.146485 0,1.235514 -0.918437,2.146484 -2.03125,2.146484 -1.112813,0 -2.029297,-0.91097 -2.029297,-2.146484 0,-1.235515 0.916484,-2.146485 2.029297,-2.146485 z"
       id="ellipse4216" />
    <path
       style="color:#000000;fill:#000000;fill-rule:evenodd;-inkscape-stroke:none"
       d="m 39.003906,9.2753906 c -3.118665,0 -5.632812,2.6253174 -5.632812,5.7500004 0,3.124683 2.514147,5.748047 5.632812,5.748046 3.118665,10e-7 5.630859,-2.623363 5.63086,-5.748046 -10e-7,-3.124683 -2.512195,-5.7500004 -5.63086,-5.7500004 z m 0,3.6035154 c 1.112813,0 2.029297,0.91097 2.029297,2.146485 0,1.235514 -0.916484,2.146484 -2.029297,2.146484 -1.112812,0 -2.029297,-0.91097 -2.029297,-2.146484 0,-1.235515 0.916485,-2.146485 2.029297,-2.146485 z"
       id="ellipse4218" />
    <path
       style="color:#000000;fill:#000000;fill-rule:evenodd;stroke-linejoin:round;-inkscape-stroke:none"
       d="M 30.230469,0.29882813 A 3.1324381,3.1324381 0 0 0 28.794922,0.6484375 c 0,0 -2.17963,1.0700052 -4.017578,2.5878906 -1.567204,1.2942977 -3.767616,3.2860945 -5.3125,5.6191407 -1.216417,1.8369912 -2.769893,4.1120752 -3.779297,6.7910152 -1.076308,2.856495 -1.810488,5.945596 -1.927734,9.128907 -0.145685,3.955723 0.274499,8.09724 1.660156,12.013671 1.688438,4.772236 4.403694,9.209813 7.8125,12.916016 2.617695,2.846072 5.81812,4.954896 9.042968,6.591797 2.67344,1.357015 4.36612,1.700439 6.310547,2.382812 6.442853,2.261056 13.560547,1.136719 13.560547,1.136719 a 3.1324381,3.1324381 0 0 0 0.328125,-0.0625 c 0,0 4.773411,-1.06295 7.726563,-2.414062 2.490867,-1.139617 4.613907,-2.578342 6.542968,-4.070313 2.027823,-1.568356 3.906439,-3.415336 5.382813,-5.101562 1.382709,-1.579253 2.416587,-2.875476 3.589844,-4.97461 1.14149,-2.042292 2.507965,-4.770424 3.27539,-7.947265 0.7689,-3.183045 1.023395,-6.986427 0.822266,-10.066407 -0.200499,-3.070254 -0.928539,-5.550084 -1.634766,-7.685546 -0.760545,-2.29971 -1.681571,-4.125189 -2.707031,-5.966797 C 74.398928,9.602558 72.922515,7.2737353 71.164062,5.3378906 69.037825,2.9971685 65.589844,0.8359375 65.589844,0.8359375 A 3.1324381,3.1324381 0 0 0 63.837891,0.29882813 Z M 31.123047,6.5625 h 31.636719 c 0.8026,0.5848585 3.052599,2.2011787 3.767578,2.9882813 1.210704,1.3328397 2.56348,3.3976767 3.46875,5.0234377 0.951588,1.708942 1.631508,3.063792 2.234375,4.886718 0.657188,1.987182 1.180202,3.801986 1.332031,6.126954 0.15119,2.31524 -0.10828,5.894788 -0.662109,8.1875 -0.555344,2.298905 -1.645176,4.555862 -2.654297,6.361328 -0.977359,1.748642 -1.517867,2.401101 -2.833985,3.904297 -1.222455,1.396216 -2.890815,3.027353 -4.501953,4.273437 -1.709893,1.322462 -3.416397,2.457944 -5.318359,3.328125 -1.400925,0.640945 -6.16334,1.90056 -6.427735,1.970703 -0.248375,0.02571 -6.278514,0.639795 -10.505859,-0.84375 -2.331528,-0.818221 -3.439173,-0.987751 -5.548828,-2.058594 -2.76697,-1.404486 -5.339156,-3.149428 -7.267578,-5.246093 -2.839234,-3.086939 -5.131398,-6.842177 -6.519531,-10.765625 -1.050535,-2.969239 -1.427763,-6.351523 -1.304688,-9.69336 0.08694,-2.360337 0.651148,-4.814618 1.53125,-7.15039 0.652318,-1.731242 1.917599,-3.696993 3.138672,-5.541016 0.839539,-1.267851 2.838356,-3.2241657 4.078125,-4.2480467 C 29.552726,7.4163722 30.616609,6.8458696 31.123047,6.5625 Z"
       id="path4231" />
    <path
       style="color:#000000;fill:#000000;fill-rule:evenodd;-inkscape-stroke:none"
       d="m 33.197266,65.921875 c -5.538858,-10e-7 -10.044922,4.578954 -10.044922,10.152344 0,5.573389 4.506065,10.152344 10.044922,10.152343 5.538856,0 10.042968,-4.578955 10.042968,-10.152343 0,-5.573389 -4.504112,-10.152344 -10.042968,-10.152344 z m 0,3.601562 c 3.566551,10e-7 6.441406,2.898694 6.441406,6.550782 -10e-7,3.652087 -2.874855,6.550781 -6.441406,6.550781 -3.566552,0 -6.443359,-2.898693 -6.44336,-6.550781 0,-3.652088 2.876808,-6.550782 6.44336,-6.550782 z"
       id="path4151" />
    <path
       style="color:#000000;fill:#000000;fill-rule:evenodd;-inkscape-stroke:none"
       d="m 60.130859,65.673828 c -5.538857,0 -10.044922,4.580908 -10.044922,10.154297 0,5.573389 4.506065,10.152344 10.044922,10.152344 5.538857,0 10.044922,-4.578955 10.044922,-10.152344 0,-5.573389 -4.506065,-10.154297 -10.044922,-10.154297 z m 0,3.603516 c 3.566552,0 6.44336,2.898693 6.44336,6.550781 0,3.652088 -2.876808,6.550781 -6.44336,6.550781 -3.566551,10e-7 -6.441406,-2.898693 -6.441406,-6.550781 0,-3.652088 2.874855,-6.550782 6.441406,-6.550781 z"
       id="ellipse4204" />
    <path
       style="color:#000000;fill:#000000;stroke-linecap:round;stroke-linejoin:round;-inkscape-stroke:none"
       d="m 31.193359,58.802734 c -9.595998,0 -17.396484,7.798533 -17.396484,17.394532 0,9.595997 7.800486,17.396484 17.396484,17.396484 h 30.941407 c 9.595997,0 17.394531,-7.800487 17.394531,-17.396484 0,-9.595999 -7.798534,-17.394532 -17.394531,-17.394532 z m 0,4.767578 h 30.941407 c 7.036572,0 12.626953,5.590381 12.626953,12.626954 0,7.036571 -5.590382,12.626953 -12.626953,12.626953 H 31.193359 c -7.036573,0 -12.626953,-5.590381 -12.626953,-12.626953 0,-7.036574 5.59038,-12.626954 12.626953,-12.626954 z"
       id="rect4235" />
    <path
       style="color:#000000;fill:#000000;fill-rule:evenodd;-inkscape-stroke:none"
       d="m 34.203125,56.142578 -0.03516,3.603516 25.203125,0.246093 0.03711,-3.601562 z"
       id="path4237" />
  </g>
</svg>
