<?xml version="1.0" encoding="UTF-8" standalone="no"?>
<!-- Created with Inkscape (http://www.inkscape.org/) -->

<svg
   version="1.1"
   id="svg2"
   width="100"
   height="100"
   viewBox="0 0 100 100"
   sodipodi:docname="Combo-ccs1-eu_cable_attached.svg"
   inkscape:version="1.2.1 (9c6d41e410, 2022-07-14)"
   xml:space="preserve"
   xmlns:inkscape="http://www.inkscape.org/namespaces/inkscape"
   xmlns:sodipodi="http://sodipodi.sourceforge.net/DTD/sodipodi-0.dtd"
   xmlns="http://www.w3.org/2000/svg"
   xmlns:svg="http://www.w3.org/2000/svg"><defs
     id="defs6" /><sodipodi:namedview
     id="namedview4"
     pagecolor="#ffffff"
     bordercolor="#000000"
     borderopacity="0.25"
     inkscape:showpageshadow="2"
     inkscape:pageopacity="0.0"
     inkscape:pagecheckerboard="0"
     inkscape:deskcolor="#d1d1d1"
     showgrid="false"
     inkscape:zoom="1.1588695"
     inkscape:cx="-210.55003"
     inkscape:cy="-31.496214"
     inkscape:window-width="1368"
     inkscape:window-height="860"
     inkscape:window-x="-6"
     inkscape:window-y="-6"
     inkscape:window-maximized="1"
     inkscape:current-layer="svg2" /><path
     id="path3006"
     style="fill:#000000;stroke:none;stroke-width:1.33305"
     d="m 66.154297,0.91210938 -0.505859,0.005859 c 0,0 -0.183418,0.00204 -0.40625,0.0234375 -0.222833,0.0213132 -0.473834,0.0394965 -0.75,0.17187492 -0.395242,0.1896112 -0.945772,0.4731266 -1.136719,1.1074219 -0.606425,2.0144768 -1.226777,5.1031791 -1.34375,5.6933594 -3.242232,1.3355404 -6.226691,3.3116649 -8.638672,5.7031259 -4.572074,4.53316 -7.407747,11.10007 -7.603516,17.519531 -0.179825,5.896679 2.43218,11.647477 5.8125,16.142578 2.659935,3.53715 6.184838,5.386101 10.205078,7.511719 0.309329,0.163561 0.621931,0.282125 0.935547,0.408203 l 0.109375,2.923828 h -1.673828 c -6.048832,0 -10.957031,4.910153 -10.957031,10.958984 v 0.160157 c 0,6.048831 4.908199,10.958984 10.957031,10.958984 h 5.144531 c 1.920711,-0.170937 1.82007,0.351814 2.122605,2.477376 C 69.335051,89.070062 57.580683,95.701881 48.833984,93.193359 37.189071,89.853644 34.713008,82.733822 35.386719,54.521484 36.260918,17.913609 36.189145,15.047919 34.310547,11.542969 30.886929,5.1554392 21.679455,3.204978 17.378906,7.9570312 15.325983,10.225486 14.730682,13.760958 14.029297,27.894531 c -0.898124,18.098085 -2.648964,23.53484 -8.0351564,24.94336 -3.2453757,0.848687 -3.38151,5.683593 -0.1601562,5.683593 3.7812702,0 8.4149806,-3.963855 10.5175776,-8.996093 1.075706,-2.574527 2.240339,-10.973278 2.609376,-18.822266 0.366504,-7.795106 0.940752,-15.522221 1.27539,-17.171875 0.865336,-4.2657762 6.485785,-4.0298748 9.384766,0.394531 1.990272,3.037537 2.086918,5.669817 0.914062,24.996094 -2.576791,42.46031 1.413825,55.709939 17.896485,59.419922 12.004059,2.701933 24.126538,-4.693749 25.715195,-14.628689 l 0.253555,-3.511936 h 6.664062 c 6.048823,0 10.958985,-4.910153 10.958985,-10.958984 v -0.160157 c 0,-6.048831 -4.910162,-10.958984 -10.958985,-10.958984 h -1.621094 c 0.0056,-0.07976 0.0199,-0.168831 0.02344,-0.244141 0.03459,-0.737334 -0.03795,-1.416038 -0.03516,-1.539062 l 0.02539,-1.119141 c 0.06868,-0.02394 0.142111,-0.04892 0.207031,-0.07227 0.194762,-0.06994 0.293432,-0.08876 0.583985,-0.236329 4.221286,-2.143995 7.792734,-4.171127 10.619141,-7.697265 3.68745,-4.600356 5.715138,-10.279201 5.576171,-15.958985 C 96.293025,25.111736 93.839113,18.714396 89.515625,14.236328 86.793997,11.417402 83.319979,9.122771 79.542969,7.6855469 79.326631,6.6184682 78.783846,4.0358607 78.259766,2.2949219 78.068818,1.6606265 77.518279,1.3751496 77.123047,1.1855469 76.846881,1.0531599 76.59588,1.0349428 76.373047,1.0136719 76.150214,0.9923587 75.966797,0.9902344 75.966797,0.9902344 l -0.505859,-0.005859 -0.01758,1.4609375 -9.269531,0.064453 z m 9.275391,2.54687502 -0.03711,3.0332031 C 74.017131,6.2219857 72.6244,6.0647796 71.232422,6.0507812 69.556133,6.0339238 67.875366,6.222007 66.224609,6.5839844 L 66.1875,3.5234375 Z M 61.363281,15.125 c 4.139044,8e-6 7.466822,3.261053 7.466797,7.279297 1.7e-5,4.018244 -3.327753,7.275382 -7.466797,7.275391 -4.139036,0 -7.466822,-3.257147 -7.466797,-7.275391 -3.3e-5,-4.018253 3.327753,-7.279297 7.466797,-7.279297 z m 19.69336,0.191406 c 4.139052,0 7.466822,3.257138 7.466797,7.275391 2.5e-5,4.018253 -3.327745,7.277352 -7.466797,7.277344 -4.139053,8e-6 -7.466831,-3.259091 -7.466797,-7.277344 -2.6e-5,-4.018253 3.327744,-7.275391 7.466797,-7.275391 z M 61.291016,19.46875 c -1.325215,0 -2.402344,1.045991 -2.402344,2.337891 8e-6,1.291891 1.077138,2.33789 2.402344,2.33789 1.325206,0 2.402343,-1.045999 2.402343,-2.33789 9e-6,-1.2919 -1.077129,-2.337891 -2.402343,-2.337891 z m 19.917968,0.06836 c -1.325214,0 -2.404296,1.046 -2.404296,2.337891 0,1.2919 1.079082,2.337891 2.404296,2.337891 1.325206,0 2.402344,-1.045991 2.402344,-2.337891 0,-1.291891 -1.077138,-2.337891 -2.402344,-2.337891 z m 3.369141,13.339844 c 2.966329,-8.4e-5 5.357506,2.391101 5.357422,5.357422 -4.2e-5,2.966236 -2.391186,5.357506 -5.357422,5.357422 -2.966143,-3.4e-5 -5.357388,-2.391279 -5.357422,-5.357422 -8.4e-5,-2.966236 2.391195,-5.35738 5.357422,-5.357422 z m -27.169922,0.246094 c 2.885077,-1.7e-5 5.209069,2.317165 5.208985,5.1875 -4.3e-5,2.87025 -2.324001,5.185564 -5.208985,5.185547 -2.884967,8e-6 -5.208942,-2.315297 -5.208984,-5.185547 -9.3e-5,-2.870335 2.323924,-5.187509 5.208984,-5.1875 z m 27.519531,3.40625 c -0.809418,0 -1.466796,0.669997 -1.466796,1.494141 0,0.824143 0.657378,1.496093 1.466796,1.496093 0.809419,0 1.466789,-0.67195 1.466797,-1.496093 0,-0.824144 -0.65737,-1.494141 -1.466797,-1.494141 z m -27.695312,0.269531 c -0.809419,0 -1.464844,0.669997 -1.464844,1.494141 0,0.824143 0.655425,1.496093 1.464844,1.496093 0.809427,0 1.466805,-0.67195 1.466797,-1.496093 0,-0.824144 -0.657379,-1.494141 -1.466797,-1.494141 z m 13.787109,0.671875 c 4.139044,0 7.466822,3.2591 7.466797,7.277344 2.5e-5,4.018244 -3.327753,7.277344 -7.466797,7.277344 -4.139044,8e-6 -7.466822,-3.259091 -7.466797,-7.277344 -2.5e-5,-4.018253 3.327753,-7.277352 7.466797,-7.277344 z m 0.09375,4.634766 c -1.325206,0 -2.402343,1.047944 -2.402343,2.339843 0,1.2919 1.077137,2.337891 2.402343,2.337891 1.325215,0 2.402352,-1.045991 2.402344,-2.337891 8e-6,-1.291899 -1.077129,-2.339843 -2.402344,-2.339843 z m 4.84375,10.785156 -0.05859,2.515625 c -0.039,0.198635 -0.134205,0.439064 -0.298829,0.634766 -0.200538,0.238377 -0.451445,0.371421 -0.613281,0.376953 -4.033468,0.137715 -4.071701,0.05717 -7.580078,0.101562 -0.148752,0.0017 -0.518101,-0.170644 -0.804688,-0.470703 -0.126353,-0.132297 -0.228899,-0.283591 -0.308593,-0.427734 l -0.101563,-2.705078 c 1.554582,0.352348 3.168476,0.544918 4.828125,0.544922 1.698353,-5e-6 3.349589,-0.201816 4.9375,-0.570313 z M 79.875,62.207031 c 3.516234,0 6.359375,2.941677 6.359375,6.511719 0,3.570059 -2.843141,6.515625 -6.359375,6.515625 -3.516243,0 -6.359375,-2.945566 -6.359375,-6.515625 0,-3.570042 2.843132,-6.511719 6.359375,-6.511719 z m -17.537109,0.203125 c 3.516225,0 6.359375,2.945575 6.359375,6.515625 0,3.570059 -2.84315,6.513672 -6.359375,6.513672 -3.516235,0 -6.359375,-2.943613 -6.359375,-6.513672 0,-3.57005 2.84314,-6.515625 6.359375,-6.515625 z M 79.875,64.236328 c -2.387262,0 -4.328125,1.979063 -4.328125,4.482422 0,2.503368 1.940863,4.484375 4.328125,4.484375 2.387262,0 4.330078,-1.981007 4.330078,-4.484375 0,-2.503359 -1.942816,-4.482422 -4.330078,-4.482422 z m -17.537109,0.207031 c -2.387262,0 -4.330079,1.979054 -4.330079,4.482422 0,2.503368 1.942817,4.482422 4.330079,4.482422 2.387261,0 4.330078,-1.979054 4.330078,-4.482422 0,-2.503368 -1.942817,-4.482422 -4.330078,-4.482422 z"
     sodipodi:nodetypes="ccccsccsssccsssscsssssssssscsssccssssccscccssscscccccccccscccscscsscscsssssssssssccccccccccssssssssssscscssssssscsccsccscsssssssssssssssssssss" /></svg>
