<?xml version="1.0" encoding="UTF-8" standalone="no"?>
<svg
   version="1.1"
   id="svg2"
   viewBox="0 0 93.750001 93.750002"
   height="100"
   width="100"
   inkscape:version="1.2.1 (9c6d41e410, 2022-07-14)"
   sodipodi:docname="Combo-ccs1-eu.svg"
   inkscape:export-filename="/Users/sss/Desktop/Plug/combo-ccs-eu.png"
   inkscape:export-xdpi="600"
   inkscape:export-ydpi="600"
   xml:space="preserve"
   xmlns:inkscape="http://www.inkscape.org/namespaces/inkscape"
   xmlns:sodipodi="http://sodipodi.sourceforge.net/DTD/sodipodi-0.dtd"
   xmlns="http://www.w3.org/2000/svg"
   xmlns:svg="http://www.w3.org/2000/svg"
   xmlns:rdf="http://www.w3.org/1999/02/22-rdf-syntax-ns#"
   xmlns:cc="http://creativecommons.org/ns#"
   xmlns:dc="http://purl.org/dc/elements/1.1/"><sodipodi:namedview
     pagecolor="#ffffff"
     bordercolor="#666666"
     borderopacity="1"
     objecttolerance="10"
     gridtolerance="10"
     guidetolerance="10"
     inkscape:pageopacity="0"
     inkscape:pageshadow="2"
     inkscape:window-width="1368"
     inkscape:window-height="860"
     id="namedview18"
     showgrid="true"
     inkscape:zoom="5.12"
     inkscape:cx="63.378907"
     inkscape:cy="49.121094"
     inkscape:window-x="-6"
     inkscape:window-y="-6"
     inkscape:window-maximized="1"
     inkscape:current-layer="layer1"
     inkscape:showpageshadow="2"
     inkscape:pagecheckerboard="0"
     inkscape:deskcolor="#d1d1d1"
     inkscape:document-units="mm"><inkscape:grid
       type="xygrid"
       id="grid4146"
       originx="0"
       originy="0" /></sodipodi:namedview><defs
     id="defs4" /><metadata
     id="metadata7"><rdf:RDF><cc:Work
         rdf:about=""><dc:format>image/svg+xml</dc:format><dc:type
           rdf:resource="http://purl.org/dc/dcmitype/StillImage" /></cc:Work></rdf:RDF></metadata><g
     id="layer1"><path
       id="path1830"
       style="fill:#000000;color:#000000;fill-rule:evenodd;stroke-width:0.120042;-inkscape-stroke:none;stroke:none;fill-opacity:1"
       d="M 444.3132 548.40845 L 443.71261 548.41577 C 443.71261 548.41577 443.49635 548.41794 443.23288 548.44324 C 442.96941 548.46844 442.67135 548.48997 442.34482 548.64649 C 441.8775 548.87068 441.22842 549.20755 441.00265 549.95752 C 440.28545 552.33999 439.54948 555.9921 439.41147 556.68848 C 435.57866 558.26757 432.05107 560.60512 429.19967 563.43225 C 423.79381 568.79211 420.44066 576.55682 420.20919 584.14698 C 419.99658 591.11901 423.08437 597.9172 427.08114 603.23206 C 430.22616 607.41427 434.3944 609.59942 439.14779 612.11267 C 439.51353 612.30606 439.88294 612.447 440.25375 612.59607 L 440.38559 616.0531 L 438.40439 616.0531 C 431.25245 616.0531 425.44967 621.85771 425.44967 629.00965 L 425.44967 629.20191 C 425.44967 636.35384 431.25245 642.15845 438.40439 642.15845 L 461.94076 642.15845 C 469.09269 642.15845 474.89914 636.35384 474.89914 629.20191 L 474.89914 629.00965 C 474.89914 621.85771 469.09269 616.0531 461.94076 616.0531 L 460.02365 616.0531 C 460.03018 615.95922 460.04695 615.8543 460.05111 615.76563 C 460.09201 614.89383 460.0057 614.09102 460.009 613.94556 L 460.04013 612.62171 C 460.12133 612.59341 460.20873 612.56508 460.28549 612.53748 C 460.51577 612.45478 460.63043 612.42998 460.97397 612.2555 C 465.96507 609.72051 470.18949 607.32617 473.53134 603.15699 C 477.89125 597.71768 480.28928 591.00355 480.12497 584.28797 C 479.94722 577.02336 477.04477 569.45939 471.93283 564.16468 C 468.71458 560.83137 464.60711 558.11678 460.14084 556.41748 C 459.88508 555.15598 459.24442 552.10215 458.62472 550.04358 C 458.39895 549.29361 457.74804 548.95673 457.28073 548.73255 C 456.9542 548.57602 456.65797 548.55445 456.3945 548.5293 C 456.13103 548.5041 455.91476 548.50183 455.91476 548.50183 L 455.31418 548.49451 L 455.29403 550.22119 L 444.33517 550.29993 L 444.3132 548.40845 z M 455.27939 551.42054 L 455.23544 555.00574 C 453.60869 554.68608 451.96355 554.50045 450.31723 554.48389 C 448.33463 554.46395 446.34614 554.68735 444.39377 555.1156 L 444.34982 551.49744 L 455.27939 551.42054 z M 450.27328 558.68616 C 456.94638 558.75326 464.20008 562.2035 468.90976 567.08155 C 472.56785 570.87043 475.00705 576.36349 475.71579 581.76477 C 475.80705 582.54429 475.86177 583.32227 475.88058 584.09388 C 476.01984 589.80744 473.69752 595.82123 470.18417 600.3866 C 469.043 601.86949 467.66051 603.20622 466.13388 604.38929 C 465.91007 604.55194 465.69404 604.71977 465.46188 604.87818 C 465.45901 604.88026 465.4556 604.88159 465.45273 604.88367 C 463.88783 605.95065 462.11481 606.93415 460.12069 607.96717 C 459.19791 608.38633 458.26876 608.76816 457.34115 609.09143 C 457.34106 609.09146 457.332 609.0951 457.332 609.0951 L 455.90744 609.55286 L 455.83053 612.92383 C 455.77026 613.14046 455.64805 613.39117 455.47897 613.59217 C 455.24186 613.87402 454.94522 614.03057 454.75387 614.03711 C 449.98484 614.19994 449.94088 614.10547 445.79269 614.15796 C 445.61681 614.15996 445.17939 613.9561 444.84054 613.60132 C 444.69168 613.44545 444.57028 613.26768 444.47616 613.09778 L 444.34982 609.69751 L 443.0571 609.19947 C 443.0571 609.19947 442.64774 609.04199 442.18368 608.85523 C 441.71963 608.66847 441.11521 608.40072 441.11252 608.3993 C 436.36593 605.88964 432.93284 604.02048 430.44113 600.70703 C 426.86677 595.95391 424.23661 589.88884 424.4078 584.27515 C 424.60333 577.86342 427.5979 570.93881 432.15866 566.41687 C 436.80027 561.81476 443.85194 558.62156 450.27328 558.68616 z M 450.06454 564.27454 C 439.08051 564.27456 430.17006 573.26781 430.17013 584.34107 C 430.17019 595.41423 439.0806 604.4094 450.06454 604.40943 C 461.04848 604.4094 469.96072 595.41423 469.96078 584.34107 C 469.96085 573.26781 461.04857 564.27457 450.06454 564.27454 z M 441.31759 569.6908 C 445.06599 569.6908 448.07971 572.6436 448.07968 576.2826 C 448.0797 579.9216 445.06599 582.87255 441.31759 582.87256 C 437.56919 582.87256 434.55732 579.9216 434.55734 576.2826 C 434.55731 572.64359 437.56919 569.69079 441.31759 569.6908 z M 459.1539 569.86292 C 462.9023 569.86291 465.916 572.81388 465.91598 576.45288 C 465.916 580.0919 462.9023 583.04469 459.1539 583.04468 C 455.40549 583.04468 452.39178 580.0919 452.39181 576.45288 C 452.39179 572.81389 455.40549 569.86292 459.1539 569.86292 z M 441.37436 574.07984 C 440.19619 574.07984 439.23935 575.01339 439.23935 576.16541 C 439.23935 577.31742 440.19619 578.25281 441.37436 578.25281 C 442.55253 578.25281 443.5112 577.31742 443.5112 576.16541 C 443.5112 575.01339 442.55253 574.07984 441.37436 574.07984 z M 459.08066 574.14026 C 457.90249 574.14026 456.94381 575.07382 456.94381 576.22583 C 456.94381 577.37785 457.90249 578.31324 459.08066 578.31324 C 460.25881 578.31324 461.21567 577.37785 461.21567 576.22583 C 461.21567 575.07382 460.25881 574.14026 459.08066 574.14026 z M 462.34359 585.76746 C 465.02995 585.76738 467.19597 587.9334 467.19589 590.61975 C 467.19586 593.30603 465.02987 595.4703 462.34359 595.47022 C 459.6574 595.47019 457.49133 593.30596 457.4913 590.61975 C 457.49122 587.93348 459.65732 585.76749 462.34359 585.76746 z M 437.73788 585.99085 C 440.35066 585.99084 442.45293 588.08807 442.45285 590.6875 C 442.45282 593.28686 440.35058 595.38417 437.73788 595.38416 C 435.12519 595.38416 433.02112 593.28685 433.02108 590.6875 C 433.021 588.08808 435.12511 585.99085 437.73788 585.99085 z M 462.31979 589.29773 C 461.6313 589.33357 461.08383 589.91885 461.08383 590.63074 C 461.08383 591.3656 461.66786 591.96375 462.38754 591.96375 C 463.10722 591.96375 463.68942 591.3656 463.68942 590.63074 C 463.68942 589.89588 463.10722 589.29773 462.38754 589.29773 C 462.36505 589.29773 462.342 589.29658 462.31979 589.29773 z M 437.76718 589.5376 C 437.0475 589.5376 436.4653 590.13576 436.4653 590.87061 C 436.4653 591.60547 437.0475 592.20362 437.76718 592.20362 C 438.48686 592.20362 439.07089 591.60547 439.07089 590.87061 C 439.07089 590.13576 438.48686 589.5376 437.76718 589.5376 z M 450.06454 589.92762 C 453.81294 589.92763 456.82665 592.87858 456.82663 596.51758 C 456.82665 600.15658 453.81294 603.10755 450.06454 603.10755 C 446.31614 603.10756 443.30244 600.15659 443.30246 596.51758 C 443.30244 592.87858 446.31614 589.92762 450.06454 589.92762 z M 450.10483 594.27088 C 448.92666 594.27088 447.96982 595.2026 447.96982 596.35462 C 447.96982 597.50663 448.92666 598.44202 450.10483 598.44202 C 451.28298 598.44202 452.24167 597.50663 452.24167 596.35462 C 452.24167 595.2026 451.28298 594.27088 450.10483 594.27088 z M 438.40439 619.05237 L 461.94076 619.05237 C 467.48202 619.05237 471.89621 623.46839 471.89621 629.00965 L 471.89621 629.20191 C 471.89621 634.74316 467.48202 639.15735 461.94076 639.15735 L 438.40439 639.15735 C 432.86313 639.15735 428.44894 634.74316 428.44894 629.20191 L 428.44894 629.00965 C 428.44894 623.46839 432.86313 619.05237 438.40439 619.05237 z M 460.53451 620.8816 C 456.37703 620.8816 453.0162 624.36007 453.0162 628.58118 C 453.0162 632.8023 456.37703 636.28443 460.53451 636.28443 C 464.69199 636.28443 468.05465 632.8023 468.05465 628.58118 C 468.05465 624.36007 464.69199 620.8816 460.53451 620.8816 z M 439.79965 621.12329 C 435.64217 621.12329 432.27951 624.60544 432.27951 628.82654 C 432.27951 633.04766 435.64217 636.52796 439.79965 636.52796 C 443.95713 636.52796 447.31796 633.04766 447.31796 628.82654 C 447.31796 624.60544 443.95713 621.12329 439.79965 621.12329 z M 460.53451 623.28211 C 463.35713 623.28211 465.65414 625.62128 465.65414 628.58118 C 465.65414 631.54108 463.35713 633.88208 460.53451 633.88208 C 457.7119 633.88208 455.41671 631.54108 455.41671 628.58118 C 455.41671 625.62128 457.7119 623.28211 460.53451 623.28211 z M 439.79965 623.52564 C 442.62227 623.52564 444.91745 625.86665 444.91745 628.82654 C 444.91745 631.78644 442.62227 634.12745 439.79965 634.12745 C 436.97703 634.12745 434.68002 631.78644 434.68002 628.82654 C 434.68002 625.86665 436.97703 623.52564 439.79965 623.52564 z "
       transform="translate(-403.44772,-548.40845)" /></g></svg>
