<?xml version="1.0" encoding="UTF-8" standalone="no"?>
<!-- Created with Inkscape (http://www.inkscape.org/) -->

<svg
   version="1.1"
   id="svg2"
   width="100"
   height="100"
   viewBox="0 0 100 100"
   sodipodi:docname="Combo-ccs2-eu_cable_attached.svg"
   inkscape:version="1.2.1 (9c6d41e410, 2022-07-14)"
   xml:space="preserve"
   xmlns:inkscape="http://www.inkscape.org/namespaces/inkscape"
   xmlns:sodipodi="http://sodipodi.sourceforge.net/DTD/sodipodi-0.dtd"
   xmlns="http://www.w3.org/2000/svg"
   xmlns:svg="http://www.w3.org/2000/svg"><defs
     id="defs6" /><sodipodi:namedview
     id="namedview4"
     pagecolor="#ffffff"
     bordercolor="#000000"
     borderopacity="0.25"
     inkscape:showpageshadow="2"
     inkscape:pageopacity="0.0"
     inkscape:pagecheckerboard="0"
     inkscape:deskcolor="#d1d1d1"
     showgrid="false"
     inkscape:zoom="4.6354778"
     inkscape:cx="68.493479"
     inkscape:cy="44.979182"
     inkscape:window-width="1368"
     inkscape:window-height="860"
     inkscape:window-x="-6"
     inkscape:window-y="-6"
     inkscape:window-maximized="1"
     inkscape:current-layer="g8" /><g
     inkscape:groupmode="layer"
     inkscape:label="Image"
     id="g8"><path
       style="fill:#000000;stroke-width:1.33305"
       d="M 48.432373,98.342597 C 31.949697,94.63261 27.958651,81.381521 30.535445,38.921169 31.708302,19.594873 31.61214,16.963978 29.621866,13.926438 26.722882,9.5020275 21.101349,9.2651415 20.236012,13.530922 c -0.334638,1.649656 -0.908299,9.377194 -1.274804,17.172308 -0.369037,7.848996 -1.53307,16.247247 -2.608777,18.821776 -2.1026,5.032243 -6.7376887,8.996439 -10.5189627,8.996439 -3.221357,0 -3.084535,-4.83427 0.160844,-5.682958 C 11.38051,51.429966 13.132102,45.992993 14.030227,27.89489 14.731613,13.761303 15.325394,10.2253 17.378319,7.9568431 c 4.300553,-4.752058 13.509051,-2.802302 16.932672,3.5852339 1.8786,3.504954 1.950398,6.372295 1.076198,42.980207 -0.673711,28.212366 1.801934,35.332079 13.446859,38.671798 8.746707,2.508524 20.607923,-3.368356 19.69821,-9.759877 -0.369748,-2.597792 -1.413779,-3.134204 -3.059597,-3.440133 0.928657,-2.662996 7.667721,-2.87576 8.983844,-0.143788 l -0.811714,5.076175 c -1.588659,9.93495 -13.208347,16.118071 -25.212418,13.416138 z"
       id="path4244"
       sodipodi:nodetypes="ssssssssssssssccss" /><path
       id="path4247"
       style="color:#000000;fill:#000000;stroke-width:0.922271;stroke-linecap:round;stroke-linejoin:round;-inkscape-stroke:none"
       d="m 272.90144,592.2296 c -52.47277,0 -95.14552,42.66425 -95.14552,95.13702 0,52.47278 42.67275,95.13703 95.14552,95.13703 h 196.71598 c 52.47279,0 95.13072,-42.66425 95.13072,-95.13703 0,-52.47277 -42.65793,-95.13702 -95.13072,-95.13702 z m 177.87045,37.49243 c 32.02781,0 58.87564,24.62924 58.87564,55.62268 0,30.99343 -26.84783,55.62269 -58.87564,55.62269 -32.02781,0 -58.87564,-24.62926 -58.87564,-55.62269 0,-30.99344 26.84783,-55.62268 58.87564,-55.62268 z m -159.03971,1.3524 c 32.02779,0 58.89043,24.62925 58.89043,55.62269 0,30.99344 -26.86264,55.62269 -58.89043,55.62269 -32.02782,0 -58.87565,-24.62925 -58.87565,-55.62269 0,-30.99344 26.84783,-55.62269 58.87565,-55.62269 z m 159.03971,19.06758 c -21.73572,0 -38.46088,16.0307 -38.46088,35.2027 0,19.17201 16.72516,35.2161 38.46088,35.2161 21.73572,0 38.47568,-16.04409 38.47568,-35.2161 0,-19.172 -16.73996,-35.2027 -38.47568,-35.2027 z m -159.03971,1.33901 c -21.73573,0 -38.46089,16.04409 -38.46089,35.2161 0,19.17201 16.72516,35.2027 38.46089,35.2027 21.73571,0 38.47567,-16.03069 38.47567,-35.2027 0,-19.17201 -16.73996,-35.2161 -38.47567,-35.2161 z"
       transform="matrix(0.12167706,0,0,0.13452508,25.486324,-25.187406)" /><path
       id="path4250"
       style="color:#000000;fill:#000000;fill-rule:evenodd;-inkscape-stroke:none"
       d="m 266.05714,261.30002 c 0,0 -13.16592,6.26185 -22.15136,13.09584 -8.98544,6.83398 -22.43204,18.46546 -30.06485,29.08089 -7.80264,10.85163 -16.83199,23.36803 -22.15136,36.36926 -6.26267,15.3068 -10.40606,31.64153 -11.05963,47.9842 -0.86034,21.51323 1.68807,43.69933 9.48656,63.99829 9.84845,25.63485 25.87513,49.77956 45.87579,69.80576 14.55262,14.5712 33.01971,25.93686 52.20016,34.90288 15.3112,7.15732 24.2906,8.65755 37.97835,13.08132 34.4363,11.12952 77.51371,5.82198 77.51371,5.82198 0,0 31.81389,-7.15644 45.87579,-13.08132 14.06191,-5.92487 26.32964,-13.52459 37.97835,-21.82156 11.64871,-8.29698 22.99868,-18.54197 31.63792,-27.62902 8.63925,-9.08706 13.67791,-14.83394 20.56225,-26.17716 6.88433,-11.34323 14.75484,-26.03422 18.98917,-42.17673 4.23432,-16.14253 5.86308,-37.90107 4.73525,-53.80618 -1.12781,-15.90513 -5.12213,-28.57132 -9.48656,-40.72487 -4.36442,-12.15355 -9.48219,-21.53213 -15.81093,-31.99914 -6.32874,-10.46702 -15.39162,-23.42294 -24.89621,-33.05901 -9.50459,-9.63605 -32.07131,-23.66543 -32.07131,-23.66543 z m 56.14889,34.01724 c 19.22005,0 35.60269,15.18112 35.60269,34.33665 0,19.15554 -16.38264,34.33665 -35.60269,34.33665 -19.22005,0 -35.58664,-15.18111 -35.58664,-34.33665 0,-19.15553 16.36659,-34.33665 35.58664,-34.33665 z m 102.84331,0 c 19.22006,0 35.58664,15.18112 35.58664,34.33665 0,19.15554 -16.36658,34.33665 -35.58664,34.33665 -19.22005,0 -35.60269,-15.18111 -35.60269,-34.33665 0,-19.15553 16.38264,-34.33665 35.60269,-34.33665 z m -102.84331,22.12645 c -7.87073,0 -13.45134,5.65804 -13.45134,12.2102 0,6.55217 5.58061,12.2102 13.45134,12.2102 7.87074,0 13.46738,-5.65803 13.46738,-12.2102 0,-6.55216 -5.59664,-12.2102 -13.46738,-12.2102 z m 102.84331,0 c -7.87073,0 -13.46738,5.65804 -13.46738,12.2102 0,6.55217 5.59665,12.2102 13.46738,12.2102 7.87074,0 13.45133,-5.65803 13.45133,-12.2102 0,-6.55216 -5.58059,-12.2102 -13.45133,-12.2102 z M 267.63021,354.6115 c 23.92197,0 44.67191,17.90164 44.67191,41.2185 0,23.31686 -20.74994,41.2185 -44.67191,41.2185 -23.92198,0 -44.65586,-17.90164 -44.65586,-41.2185 0,-23.31686 20.73388,-41.2185 44.65586,-41.2185 z m 104.41638,0 c 23.92198,0 44.65586,17.90164 44.65586,41.2185 0,23.31686 -20.73388,41.2185 -44.65586,41.2185 -23.92197,0 -44.65586,-17.90164 -44.65586,-41.2185 0,-23.31686 20.73389,-41.2185 44.65586,-41.2185 z m 102.82726,0 c 23.92197,0 44.67191,17.90164 44.67191,41.2185 0,23.31686 -20.74994,41.2185 -44.67191,41.2185 -23.92197,0 -44.65586,-17.90164 -44.65586,-41.2185 0,-23.31686 20.73389,-41.2185 44.65586,-41.2185 z m -207.24364,22.12645 c -13.18614,0 -22.52055,9.09874 -22.52055,19.09205 0,9.99331 9.33441,19.09205 22.52055,19.09205 13.18613,0 22.5366,-9.09874 22.5366,-19.09205 0,-9.99331 -9.35047,-19.09205 -22.5366,-19.09205 z m 104.41638,0 c -13.18613,0 -22.5366,9.09874 -22.5366,19.09205 0,9.99331 9.35047,19.09205 22.5366,19.09205 13.18614,0 22.5366,-9.09874 22.5366,-19.09205 0,-9.99331 -9.35046,-19.09205 -22.5366,-19.09205 z m 102.82726,0 c -13.18613,0 -22.52055,9.09874 -22.52055,19.09205 0,9.99331 9.33442,19.09205 22.52055,19.09205 13.18613,0 22.5366,-9.09874 22.5366,-19.09205 0,-9.99331 -9.35047,-19.09205 -22.5366,-19.09205 z m -156.61654,59.30876 c 23.92197,0 44.65586,17.91616 44.65586,41.23302 0,23.31685 -20.73389,41.2185 -44.65586,41.2185 -23.92197,0 -44.65586,-17.90165 -44.65586,-41.2185 0,-23.31686 20.73389,-41.23302 44.65586,-41.23302 z m 107.57856,0 c 23.92197,0 44.65586,17.91616 44.65586,41.23302 0,23.31685 -20.73389,41.2185 -44.65586,41.2185 -23.92197,0 -44.65586,-17.90165 -44.65586,-41.2185 0,-23.31686 20.73389,-41.23302 44.65586,-41.23302 z m -107.57856,22.14097 c -13.18613,0 -22.5366,9.09874 -22.5366,19.09205 0,9.99331 9.35047,19.09205 22.5366,19.09205 13.18612,0 22.5366,-9.09874 22.5366,-19.09205 0,-9.99331 -9.35048,-19.09205 -22.5366,-19.09205 z m 107.57856,0 c -13.18612,0 -22.5366,9.09874 -22.5366,19.09205 0,9.99331 9.35048,19.09205 22.5366,19.09205 13.18613,0 22.53661,-9.09874 22.53661,-19.09205 0,-9.99331 -9.35048,-19.09205 -22.53661,-19.09205 z"
       transform="matrix(0.12167706,0,0,0.13452508,25.486324,-25.187406)" /><path
       style="color:#000000;fill:#000000;fill-rule:evenodd"
       d="m 291.46289,571.65039 -0.19922,22.12891 161.36524,1.45507 0.20117,-22.13085 z"
       id="path4253"
       transform="matrix(0.12167706,0,0,0.13452508,25.486324,-25.187406)" /></g></svg>
