<?xml version="1.0" encoding="UTF-8" standalone="no"?>
<!-- Created with Inkscape (http://www.inkscape.org/) -->

<svg
   width="100"
   height="100"
   version="1.1"
   viewBox="0 0 100 100"
   id="svg62"
   sodipodi:docname="IEC_62196_Type_3C.svg"
   inkscape:version="1.2.1 (9c6d41e410, 2022-07-14)"
   xmlns:inkscape="http://www.inkscape.org/namespaces/inkscape"
   xmlns:sodipodi="http://sodipodi.sourceforge.net/DTD/sodipodi-0.dtd"
   xmlns="http://www.w3.org/2000/svg"
   xmlns:svg="http://www.w3.org/2000/svg"
   xmlns:rdf="http://www.w3.org/1999/02/22-rdf-syntax-ns#"
   xmlns:cc="http://creativecommons.org/ns#"
   xmlns:dc="http://purl.org/dc/elements/1.1/">
  <defs
     id="defs66" />
  <sodipodi:namedview
     id="namedview64"
     pagecolor="#ffffff"
     bordercolor="#000000"
     borderopacity="0.25"
     inkscape:showpageshadow="2"
     inkscape:pageopacity="0.0"
     inkscape:pagecheckerboard="0"
     inkscape:deskcolor="#d1d1d1"
     showgrid="false"
     inkscape:zoom="4.4500587"
     inkscape:cx="47.527463"
     inkscape:cy="58.089121"
     inkscape:window-width="1368"
     inkscape:window-height="860"
     inkscape:window-x="-6"
     inkscape:window-y="-6"
     inkscape:window-maximized="1"
     inkscape:current-layer="g60" />
  <metadata
     id="metadata2">
    <rdf:RDF>
      <cc:Work
         rdf:about="">
        <dc:format>image/svg+xml</dc:format>
        <dc:type
           rdf:resource="http://purl.org/dc/dcmitype/StillImage" />
      </cc:Work>
    </rdf:RDF>
  </metadata>
  <g
     transform="matrix(0.16666667,0,0,0.16666667,14,-87.086668)"
     id="g60">
    <path
       style="stroke-width:6.402;fill:#000000;stroke:none;color:#000000;stroke-linecap:square;stroke-linejoin:bevel;-inkscape-stroke:none"
       d="m 220,522.51953 c -121.354466,0 -220,98.64554 -220,220 v 160 c 0,121.35447 98.645534,219.99997 220,219.99997 121.35447,0 220,-98.6455 220,-219.99997 v -160 c 0,-121.35446 -98.64553,-220 -220,-220 z m 0,25 c 107.84348,0 195,87.15652 195,195 v 160 c 0,107.84347 -87.15652,194.99997 -195,194.99997 -107.84348,0 -195,-87.1565 -195,-194.99997 v -160 c 0,-107.84348 87.15652,-195 195,-195 z"
       id="path886"
       transform="matrix(0.9894427,0,0,0.9894427,-0.033792,8.6840818)" />
    <path
       style="stroke-width:6.402;fill:#000000;stroke:none;color:#000000;stroke-linecap:square;stroke-linejoin:bevel;-inkscape-stroke:none"
       d="m 220,519.31836 c -123.08901,0 -223.2011719,100.11217 -223.2011719,223.20117 v 160 c 0,123.08897 100.1121629,223.20117 223.2011719,223.20117 123.08901,0 223.20117,-100.1122 223.20117,-223.20117 v -160 C 443.20117,619.43053 343.08901,519.31836 220,519.31836 Z m 0,6.40234 c 119.61968,0 216.79883,97.17916 216.79883,216.79883 v 160 c 0,119.61967 -97.17915,216.79887 -216.79883,216.79887 -119.61968,0 -216.7988281,-97.1792 -216.7988281,-216.79887 v -160 C 3.2011719,622.89986 100.38032,525.7207 220,525.7207 Z m 0,18.59766 c -109.56802,0 -198.201172,88.63315 -198.201172,198.20117 v 160 c 0,109.56797 88.633152,198.20117 198.201172,198.20117 109.56802,0 198.20117,-88.6332 198.20117,-198.20117 v -160 C 418.20117,632.95151 329.56802,544.31836 220,544.31836 Z m 0,6.40234 c 106.11873,0 191.79883,85.68011 191.79883,191.79883 v 160 c 0,106.11867 -85.6801,191.79887 -191.79883,191.79887 -106.11873,0 -191.798828,-85.6802 -191.798828,-191.79887 v -160 C 28.201172,636.40081 113.88127,550.7207 220,550.7207 Z"
       id="path888"
       transform="matrix(0.9894427,0,0,0.9894427,-0.033792,8.6840818)" />
    <path
       style="stroke-width:6.33441;fill:#000000;stroke:none;color:#000000;stroke-linecap:square;stroke-linejoin:bevel;-inkscape-stroke:none"
       d="m 200.15025,1101.8204 a 24.736067,24.736067 0 0 1 34.98174,0"
       id="path892" />
    <path
       style="stroke-width:6.40199987;fill:#000000;stroke:none;color:#000000;stroke-linecap:square;stroke-linejoin:bevel;-inkscape-stroke:none"
       d="m 217.64062,1091.4277 c -7.1476,0 -14.2953,2.7173 -19.73046,8.1524 l -2.23829,2.2402 4.47852,4.4785 2.24023,-2.2383 c 8.44965,-8.4494 22.05231,-8.4494 30.50196,0 l 2.24023,2.2383 4.47852,-4.4785 -2.24024,-2.2402 c -5.43516,-5.4351 -12.58286,-8.1524 -19.73047,-8.1524 z"
       id="path894" />
    <path
       style="stroke-width:28.8937;fill:#000000;stroke:none;color:#000000;-inkscape-stroke:none"
       d="m 217.64359,538.0557 v 37.1041"
       id="path898" />
    <path
       style="stroke-width:6.40199987;fill:#000000;stroke:none;color:#000000;-inkscape-stroke:none"
       d="m 203.19727,538.05664 v 37.10352 h 28.89257 v -37.10352 z"
       id="path900" />
    <path
       style="fill:#000000;stroke-width:4.60199991;color:#000000;stroke-dasharray:none"
       d="m 112.75,878.66992 c -16.023448,0 -29.101563,13.07616 -29.101563,29.09961 0,16.02345 13.078115,29.10156 29.101563,29.10156 16.02345,0 29.10156,-13.07811 29.10156,-29.10156 0,-16.02345 -13.07811,-29.09961 -29.10156,-29.09961 z m 0,8.20117 c 11.59076,0 20.89844,9.30768 20.89844,20.89844 0,11.59076 -9.30768,20.90039 -20.89844,20.90039 -11.59076,0 -20.898437,-9.30963 -20.898438,-20.90039 0,-11.59076 9.307678,-20.89844 20.898438,-20.89844 z"
       id="circle12" />
    <path
       style="fill:#000000;stroke-width:15.40199969;stroke-dasharray:none;color:#000000;stroke-linecap:square;stroke-linejoin:bevel"
       d="m 120.25,643.66992 c -10.50061,0 -19.10156,8.59901 -19.10156,19.09961 0,10.50061 8.60095,19.10156 19.10156,19.10156 10.50061,0 19.10156,-8.60095 19.10156,-19.10156 0,-10.5006 -8.60095,-19.09961 -19.10156,-19.09961 z m 0,8.20117 c 6.06792,0 10.89844,4.83052 10.89844,10.89844 0,6.06792 -4.83052,10.90039 -10.89844,10.90039 -6.06792,0 -10.89844,-4.83247 -10.89844,-10.90039 0,-6.06792 4.83052,-10.89844 10.89844,-10.89844 z"
       id="path963" />
    <path
       style="fill:#000000;stroke-width:15.40199969;stroke-dasharray:none;color:#000000;stroke-linecap:square;stroke-linejoin:bevel"
       d="m 320.25,643.66992 c -10.50061,0 -19.10156,8.59901 -19.10156,19.09961 0,10.50061 8.60095,19.10156 19.10156,19.10156 10.50061,0 19.10156,-8.60095 19.10156,-19.10156 0,-10.5006 -8.60095,-19.09961 -19.10156,-19.09961 z m 0,8.20117 c 6.06792,0 10.89844,4.83052 10.89844,10.89844 0,6.06792 -4.83052,10.90039 -10.89844,10.90039 -6.06792,0 -10.89844,-4.83247 -10.89844,-10.90039 0,-6.06792 4.83052,-10.89844 10.89844,-10.89844 z"
       id="path966" />
    <path
       style="fill:#000000;stroke-width:4.60199991;color:#000000;stroke-dasharray:none"
       d="m 327.75,878.66992 c -16.02345,0 -29.10156,13.07616 -29.10156,29.09961 0,16.02345 13.07811,29.10156 29.10156,29.10156 16.02345,0 29.10156,-13.07811 29.10156,-29.10156 0,-16.02345 -13.07811,-29.09961 -29.10156,-29.09961 z m 0,8.20117 c 11.59076,0 20.89844,9.30768 20.89844,20.89844 0,11.59076 -9.30768,20.90039 -20.89844,20.90039 -11.59076,0 -20.89844,-9.30963 -20.89844,-20.90039 0,-11.59076 9.30768,-20.89844 20.89844,-20.89844 z"
       id="circle14" />
    <path
       style="fill:#000000;stroke-width:4.602;color:#000000;stroke-dasharray:none"
       d="m 113.21507,738.80943 c -16.023436,0 -29.101556,13.07616 -29.101556,29.09961 0,16.02345 13.07812,29.10156 29.101556,29.10156 16.02345,0 29.10156,-13.07811 29.10156,-29.10156 0,-16.02345 -13.07811,-29.09961 -29.10156,-29.09961 z m 0,8.20117 c 11.59076,0 20.89844,9.30768 20.89844,20.89844 0,11.59076 -9.30768,20.90039 -20.89844,20.90039 -11.59076,0 -20.898426,-9.30963 -20.898426,-20.90039 0,-11.59076 9.307666,-20.89844 20.898426,-20.89844 z"
       id="circle12-5" />
    <path
       style="fill:#000000;stroke-width:4.602;color:#000000;stroke-dasharray:none"
       d="m 328.21507,738.80943 c -16.02345,0 -29.10156,13.07616 -29.10156,29.09961 0,16.02345 13.07811,29.10156 29.10156,29.10156 16.02345,0 29.10156,-13.07811 29.10156,-29.10156 0,-16.02345 -13.07811,-29.09961 -29.10156,-29.09961 z m 0,8.20117 c 11.59076,0 20.89844,9.30768 20.89844,20.89844 0,11.59076 -9.30768,20.90039 -20.89844,20.90039 -11.59076,0 -20.89844,-9.30963 -20.89844,-20.90039 0,-11.59076 9.30768,-20.89844 20.89844,-20.89844 z"
       id="circle14-7" />
    <path
       style="fill:#000000;stroke-width:4.60199991;color:#000000;stroke-dasharray:none"
       d="m 220.25,986.19922 c -16.02345,0 -29.10156,13.07811 -29.10156,29.10158 0,16.0234 13.07811,29.0996 29.10156,29.0996 16.02345,0 29.10156,-13.0762 29.10156,-29.0996 0,-16.02347 -13.07811,-29.10158 -29.10156,-29.10158 z m 0,8.20117 c 11.59076,0 20.89844,9.30961 20.89844,20.90041 0,11.5907 -9.30768,20.8984 -20.89844,20.8984 -11.59076,0 -20.89844,-9.3077 -20.89844,-20.8984 0,-11.5908 9.30768,-20.90041 20.89844,-20.90041 z"
       id="circle16" />
  </g>
</svg>
