<?xml version="1.0" encoding="UTF-8" standalone="no"?>
<!-- Created with Inkscape (http://www.inkscape.org/) -->

<svg
   width="100"
   height="100"
   version="1.1"
   viewBox="0 0 100 100"
   id="svg72"
   sodipodi:docname="ChaoJi.svg"
   inkscape:version="1.2.1 (9c6d41e410, 2022-07-14)"
   xmlns:inkscape="http://www.inkscape.org/namespaces/inkscape"
   xmlns:sodipodi="http://sodipodi.sourceforge.net/DTD/sodipodi-0.dtd"
   xmlns="http://www.w3.org/2000/svg"
   xmlns:svg="http://www.w3.org/2000/svg"
   xmlns:rdf="http://www.w3.org/1999/02/22-rdf-syntax-ns#"
   xmlns:cc="http://creativecommons.org/ns#"
   xmlns:dc="http://purl.org/dc/elements/1.1/">
  <defs
     id="defs76" />
  <sodipodi:namedview
     id="namedview74"
     pagecolor="#ffffff"
     bordercolor="#000000"
     borderopacity="0.25"
     inkscape:showpageshadow="2"
     inkscape:pageopacity="0.0"
     inkscape:pagecheckerboard="0"
     inkscape:deskcolor="#d1d1d1"
     showgrid="false"
     inkscape:zoom="4.4952381"
     inkscape:cx="55.503178"
     inkscape:cy="32.145127"
     inkscape:window-width="1368"
     inkscape:window-height="860"
     inkscape:window-x="-6"
     inkscape:window-y="-6"
     inkscape:window-maximized="1"
     inkscape:current-layer="g70" />
  <metadata
     id="metadata2">
    <rdf:RDF>
      <cc:Work
         rdf:about="">
        <dc:format>image/svg+xml</dc:format>
        <dc:type
           rdf:resource="http://purl.org/dc/dcmitype/StillImage" />
      </cc:Work>
    </rdf:RDF>
  </metadata>
  <g
     transform="translate(0,50)"
     id="g70">
    <path
       id="path1096"
       style="color:#000000;fill:#000000;stroke-width:0.155041;-inkscape-stroke:none"
       d="M 24.418006,-32.584749 C 10.946045,-32.584249 0,-21.637909 0,-8.1658319 V 17.028286 c 0,8.334796 6.7816709,15.116467 15.116476,15.116467 l -0.08664,-0.0036 c 0,0 9.829132,0.730943 23.5671,1.034107 l 2.523655,1.682439 h 17.758817 l 2.523655,-1.682439 c 13.738558,-0.303155 23.5671,-1.034107 23.5671,-1.034107 l -0.08664,0.0036 c 8.334794,0 15.116475,-6.781671 15.116475,-15.116467 V -8.1658319 c 0,-13.4723801 -10.946538,-24.4189171 -24.418917,-24.4189171 h -8.93e-4 -8.93e-4 c -5.776244,0.0109 -11.347834,2.082933 -15.744453,5.814026 H 40.17826 c -4.40038,-3.734192 -9.97749,-5.806595 -15.758736,-5.814026 l -6.25e-4,0.930248 v -0.930248 z m -8.93e-4,2.32561 c 4.64e-4,0 7.77e-4,0 8.93e-4,0 3.13e-4,0 6.16e-4,0 8.93e-4,0 5.370964,0.0071 10.554359,1.970732 14.582613,5.523331 l 0.329736,0.290695 H 60.68175 l 0.329762,-0.290695 c 4.024869,-3.549616 9.203155,-5.51272 14.56959,-5.523331 12.215532,0 22.093305,9.877775 22.093305,22.0933071 V 17.028286 c 0,7.077948 -5.712917,12.790856 -12.790864,12.790856 h -0.04359 l -0.04332,0.0036 c 0,0 -9.912234,0.741635 -23.786331,1.038349 l -0.338551,0.0071 -2.496699,1.664263 H 41.824928 l -2.496708,-1.664272 -0.338543,-0.0071 C 25.116205,30.56435 15.203043,29.822715 15.203043,29.822715 l -0.04332,-0.0036 h -0.04332 c -7.0779475,0 -12.7908652,-5.712908 -12.7908652,-12.790856 V -8.1658319 c 0,-12.2148181 9.8766402,-22.0921461 22.0911812,-22.0933071 z m 0.0018,5.038826 A 17.054479,17.054479 0 0 0 7.3644177,-8.1658319 17.054479,17.054479 0 0 0 24.418899,8.8886407 17.054479,17.054479 0 0 0 41.473372,-8.1658319 17.054479,17.054479 0 0 0 24.418899,-25.220313 Z m 51.163436,0 A 17.054479,17.054479 0 0 0 58.527853,-8.1658319 17.054479,17.054479 0 0 0 75.582335,8.8886407 17.054479,17.054479 0 0 0 92.636806,-8.1658319 17.054479,17.054479 0 0 0 75.582335,-25.220313 Z m -51.163436,9.302441 a 7.7520357,7.7520357 0 0 1 7.752032,7.7520401 7.7520357,7.7520357 0 0 1 -7.752032,7.75203137 7.7520357,7.7520357 0 0 1 -7.75204,-7.75203137 7.7520357,7.7520357 0 0 1 7.75204,-7.7520401 z m 51.163436,0 a 7.7520357,7.7520357 0 0 1 7.752031,7.7520401 7.7520357,7.7520357 0 0 1 -7.752031,7.75203137 7.7520357,7.7520357 0 0 1 -7.75204,-7.75203137 7.7520357,7.7520357 0 0 1 7.75204,-7.7520401 z M 50.000613,1.9118098 A 11.628053,11.628053 0 0 0 38.372561,13.53987 11.628053,11.628053 0 0 0 50.000613,25.167922 11.628053,11.628053 0 0 0 61.628673,13.53987 11.628053,11.628053 0 0 0 50.000613,1.9118098 Z m 0,6.9768309 a 4.6512214,4.6512214 0 0 1 4.65122,4.6512293 4.6512214,4.6512214 0 0 1 -4.65122,4.651221 4.6512214,4.6512214 0 0 1 -4.651221,-4.651221 4.6512214,4.6512214 0 0 1 4.651221,-4.6512293 z" />
    <path
       id="path1072"
       style="color:#000000;fill:#000000;stroke-width:0.155041;stroke-linejoin:round;-inkscape-stroke:none"
       d="m 83.721381,10.981694 c -2.362704,0.0063 -4.581356,1.116091 -6.012669,2.989984 l -1.339949,0.12476 c -1.388084,-1.245791 -3.18134,-1.947393 -5.049428,-1.951939 a 0.23258432,0.23258432 0 0 0 -6.16e-4,0 c -4.192939,0 -7.596993,3.404054 -7.596993,7.596993 0,4.192947 3.404054,7.597002 7.596993,7.597002 a 0.23258432,0.23258432 0 0 0 6.16e-4,0 c 2.362856,-0.0063 4.581669,-1.11619 6.012973,-2.990289 l 1.33844,-0.125367 c 1.388235,1.246434 3.182037,1.948295 5.050633,1.952851 a 0.23258432,0.23258432 0 0 0 6.26e-4,0 c 4.192938,0 7.596991,-3.404055 7.596991,-7.597002 0,-4.192939 -3.404053,-7.596993 -7.596991,-7.596993 a 0.23258432,0.23258432 0 0 0 -6.26e-4,0 z m 6.26e-4,0.465123 h 3.03e-4 3.13e-4 c 3.941285,3.13e-4 7.13126,3.190504 7.13126,7.13187 0,3.941365 -3.189975,7.131547 -7.13126,7.131878 -1.793614,-0.0045 -3.519463,-0.684266 -4.834126,-1.904395 a 0.23258432,0.23258432 0 0 0 -0.329155,0.01268 l 0.05297,-0.05752 -1.309063,0.122642 0.05904,0.04296 a 0.23258432,0.23258432 0 0 0 -0.324617,0.04966 c -1.340656,1.816426 -3.461442,2.890637 -5.718974,2.896728 -3.941571,0 -7.131869,-3.190307 -7.131869,-7.131878 0,-3.941365 3.189977,-7.131539 7.131271,-7.131869 1.793605,0.0045 3.519462,0.684257 4.834117,1.904395 a 0.23258432,0.23258432 0 0 0 0.328556,-0.01215 l -0.05207,0.05636 1.308465,-0.122036 -0.05877,-0.04296 a 0.23258432,0.23258432 0 0 0 0.324617,-0.04966 c 1.340611,-1.816417 3.461415,-2.890627 5.718947,-2.896719 z m 0,4.806259 a 2.3256107,2.3256107 0 0 0 -2.32562,2.325611 2.3256107,2.3256107 0 0 0 2.32562,2.32561 2.3256107,2.3256107 0 0 0 2.32561,-2.32561 2.3256107,2.3256107 0 0 0 -2.32561,-2.325611 z m -12.403261,1.162805 a 2.3256107,2.3256107 0 0 0 -2.325611,2.325611 2.3256107,2.3256107 0 0 0 2.325611,2.32561 2.3256107,2.3256107 0 0 0 2.32561,-2.32561 2.3256107,2.3256107 0 0 0 -2.32561,-2.325611 z" />
    <path
       id="path1060"
       style="color:#000000;display:inline;fill:#000000;stroke-width:0.155041;stroke-linejoin:round;-inkscape-stroke:none"
       d="m 16.279281,10.981694 c -4.192947,0 -7.5970017,3.404054 -7.5970017,7.596993 0,4.192947 3.4040547,7.597002 7.5970017,7.597002 a 0.23258432,0.23258432 0 0 0 5.98e-4,0 c 1.868606,-0.0045 3.662399,-0.706417 5.050634,-1.952851 l 1.33844,0.125367 c 1.431304,1.874099 3.650126,2.984108 6.012973,2.990289 a 0.23258432,0.23258432 0 0 0 6.25e-4,0 c 4.192938,0 7.596993,-3.404055 7.596993,-7.597002 0,-4.192939 -3.404055,-7.596993 -7.596993,-7.596993 a 0.23258432,0.23258432 0 0 0 -6.25e-4,0 c -1.868088,0.0045 -3.661336,0.706148 -5.049419,1.951939 l -1.339949,-0.12476 c -1.431323,-1.873893 -3.649966,-2.983813 -6.012679,-2.989984 a 0.23258432,0.23258432 0 0 0 -5.98e-4,0 z m -6.07e-4,0.465123 h 3.12e-4 3.04e-4 c 2.257532,0.0063 4.378345,1.080302 5.718947,2.896719 a 0.23258432,0.23258432 0 0 0 0.324617,0.04966 l -0.05877,0.04296 1.308456,0.122035 -0.05207,-0.05636 a 0.23258432,0.23258432 0 0 0 0.328547,0.01215 c 1.314494,-1.219995 3.04011,-1.899876 4.833501,-1.904395 3.941571,0 7.131878,3.190298 7.131878,7.131869 0,3.941365 -3.189986,7.131548 -7.131271,7.131878 -2.257755,-0.0063 -4.378827,-1.080141 -5.719545,-2.896719 a 0.23258432,0.23258432 0 0 0 -0.324617,-0.04966 l 0.05904,-0.04296 -1.309063,-0.122642 0.05297,0.05752 a 0.23258432,0.23258432 0 0 0 -0.329164,-0.01268 c -1.314512,1.219987 -3.040119,1.899876 -4.83351,1.904396 -3.94157,0 -7.1318777,-3.190308 -7.1318777,-7.131879 0,-3.941365 3.1899857,-7.131538 7.1312707,-7.131869 z m 6.07e-4,4.806259 a 2.3256107,2.3256107 0 0 0 -2.32561,2.325611 2.3256107,2.3256107 0 0 0 2.32561,2.32561 2.3256107,2.3256107 0 0 0 2.32561,-2.32561 2.3256107,2.3256107 0 0 0 -2.32561,-2.325611 z m 12.403252,1.162805 a 2.3256107,2.3256107 0 0 0 -2.32561,2.325611 2.3256107,2.3256107 0 0 0 2.32561,2.32561 2.3256107,2.3256107 0 0 0 2.32561,-2.32561 2.3256107,2.3256107 0 0 0 -2.32561,-2.325611 z" />
  </g>
</svg>
