<?xml version="1.0" encoding="UTF-8" standalone="no"?>
<!-- Created with Inkscape (http://www.inkscape.org/) -->

<svg
   width="100"
   height="100"
   version="1.1"
   viewBox="0 0 100 100"
   id="svg72"
   sodipodi:docname="ChaoJi_cable_attached.svg"
   inkscape:version="1.2.1 (9c6d41e410, 2022-07-14)"
   xml:space="preserve"
   xmlns:inkscape="http://www.inkscape.org/namespaces/inkscape"
   xmlns:sodipodi="http://sodipodi.sourceforge.net/DTD/sodipodi-0.dtd"
   xmlns="http://www.w3.org/2000/svg"
   xmlns:svg="http://www.w3.org/2000/svg"
   xmlns:rdf="http://www.w3.org/1999/02/22-rdf-syntax-ns#"
   xmlns:cc="http://creativecommons.org/ns#"
   xmlns:dc="http://purl.org/dc/elements/1.1/"><defs
     id="defs76" /><sodipodi:namedview
     id="namedview74"
     pagecolor="#ffffff"
     bordercolor="#000000"
     borderopacity="0.25"
     inkscape:showpageshadow="2"
     inkscape:pageopacity="0.0"
     inkscape:pagecheckerboard="0"
     inkscape:deskcolor="#d1d1d1"
     showgrid="false"
     inkscape:zoom="0.56190476"
     inkscape:cx="-113.89831"
     inkscape:cy="-88.093221"
     inkscape:window-width="1368"
     inkscape:window-height="860"
     inkscape:window-x="-6"
     inkscape:window-y="-6"
     inkscape:window-maximized="1"
     inkscape:current-layer="g8" /><metadata
     id="metadata2"><rdf:RDF><cc:Work
         rdf:about=""><dc:format>image/svg+xml</dc:format><dc:type
           rdf:resource="http://purl.org/dc/dcmitype/StillImage" /></cc:Work></rdf:RDF></metadata><g
     transform="translate(0,50)"
     id="g70"><path
       id="path1096"
       style="fill:#000000;stroke:none;stroke-width:0.11365"
       d="M 45.210662,-29.825808 A 17.047568,17.047568 0 0 0 28.163765,-12.778241 V 5.6899583 A 10.228541,10.228541 0 0 0 38.392299,15.918495 c 0,0 7.290347,0.545395 17.481753,0.763368 l 1.838385,1.225511 H 70.21399 l 1.838384,-1.225511 C 82.244241,16.46389 89.534126,15.918495 89.534126,15.918495 A 10.228541,10.228541 0 0 0 99.76266,5.6899583 V -12.778241 A 17.047568,17.047568 0 0 0 82.715093,-29.825808 17.047568,17.047568 0 0 0 71.471249,-25.56392 H 56.46473 a 17.047568,17.047568 0 0 0 -11.253397,-4.261888 h -2.29e-4 z m 6.71e-4,4.546014 A 12.50155,12.50155 0 0 1 57.712877,-12.778241 12.50155,12.50155 0 0 1 45.211333,-0.27669704 12.50155,12.50155 0 0 1 32.70978,-12.778241 12.50155,12.50155 0 0 1 45.211333,-25.279794 Z m 37.50465,0 A 12.50155,12.50155 0 0 1 95.217539,-12.778241 12.50155,12.50155 0 0 1 82.715983,-0.27669704 12.50155,12.50155 0 0 1 70.214431,-12.778241 12.50155,12.50155 0 0 1 82.715983,-25.279794 Z m -37.50465,6.819024 a 5.6825229,5.6825229 0 0 0 -5.68253,5.682529 5.6825229,5.6825229 0 0 0 5.68253,5.6825202 5.6825229,5.6825229 0 0 0 5.682521,-5.6825202 5.6825229,5.6825229 0 0 0 -5.682521,-5.682529 z m 37.50465,0 a 5.6825229,5.6825229 0 0 0 -5.682519,5.682529 5.6825229,5.6825229 0 0 0 5.682519,5.6825202 5.6825229,5.6825229 0 0 0 5.68252,-5.6825202 5.6825229,5.6825229 0 0 0 -5.68252,-5.682529 z M 63.963658,-5.3909649 a 8.5237845,8.5237845 0 0 1 8.52378,8.5237899 8.5237845,8.5237845 0 0 1 -8.52378,8.523779 8.5237845,8.5237845 0 0 1 -8.523789,-8.523779 8.5237845,8.5237845 0 0 1 8.523789,-8.5237899 z m 0,5.11426786 A 3.4095137,3.4095137 0 0 0 60.554147,3.132825 3.4095137,3.4095137 0 0 0 63.963658,6.5423361 3.4095137,3.4095137 0 0 0 67.37317,3.132825 3.4095137,3.4095137 0 0 0 63.963658,-0.27669704 Z M 39.244678,1.2575896 a 0.17049273,0.17049273 0 0 1 4.51e-4,0 c 1.73195,0.00478 3.358302,0.8181319 4.407501,2.1917673 l 0.982232,0.091486 C 45.652385,2.6276276 46.966906,2.113325 48.336279,2.110001 a 0.17049273,0.17049273 0 0 1 4.5e-4,0 c 3.073572,0 5.568874,2.4953005 5.568874,5.5688735 0,3.0735735 -2.495302,5.5688735 -5.568874,5.5688735 a 0.17049273,0.17049273 0 0 1 -4.5e-4,0 c -1.732056,-0.0048 -3.358532,-0.81821 -4.407731,-2.191989 l -0.981122,-0.09186 c -1.017627,0.913675 -2.332552,1.428178 -3.702297,1.431512 a 0.17049273,0.17049273 0 0 1 -4.51e-4,0 c -3.073564,0 -5.568864,-2.4953013 -5.568864,-5.5688734 0,-3.073572 2.4953,-5.5688735 5.568864,-5.5688735 z m 49.437511,0 a 0.17049273,0.17049273 0 0 1 4.51e-4,0 c 3.073571,0 5.568876,2.4953006 5.568876,5.5688724 0,3.073563 -2.495305,5.568874 -5.568876,5.568874 a 0.17049273,0.17049273 0 0 1 -4.51e-4,0 c -1.369745,-0.003 -2.684671,-0.517837 -3.702298,-1.431512 l -0.981121,0.09186 c -1.049199,1.37378 -2.675684,2.187458 -4.407732,2.19199 a 0.17049273,0.17049273 0 0 1 -4.51e-4,0 c -3.073572,0 -5.568872,-2.495311 -5.568872,-5.5688738 0,-3.0735731 2.4953,-5.5688735 5.568872,-5.5688735 a 0.17049273,0.17049273 0 0 1 4.51e-4,0 c 1.369372,0.0029 2.683894,0.5176366 3.701408,1.4308417 l 0.982231,-0.091482 c 1.04921,-1.373624 2.67557,-2.1872449 4.407512,-2.1917669 z M 39.244678,1.4280594 a 5.3983968,5.3983968 0 0 0 -5.398395,5.3984026 5.3983968,5.3983968 0 0 0 5.398395,5.398394 5.3983968,5.3983968 0 0 0 3.659241,-1.441493 l 0.0059,0.0059 1.089002,0.102112 0.0096,-0.0067 a 5.3983968,5.3983968 0 0 0 4.329368,2.192634 5.3983968,5.3983968 0 0 0 5.398393,-5.3983943 5.3983968,5.3983968 0 0 0 -5.398393,-5.3984038 5.3983968,5.3983968 0 0 0 -3.65924,1.4415032 l -0.0059,-0.00668 -1.088331,-0.1014414 -0.0096,0.00668 A 5.3983968,5.3983968 0 0 0 39.24534,1.4277623 Z m 49.437951,0 a 5.3983968,5.3983968 0 0 0 -4.329366,2.1926583 l -0.0096,-0.00668 -1.08833,0.1014414 -0.0059,0.00668 A 5.3983968,5.3983968 0 0 0 79.590203,2.280666 5.3983968,5.3983968 0 0 0 74.1918,7.6790687 a 5.3983968,5.3983968 0 0 0 5.398403,5.3983933 5.3983968,5.3983968 0 0 0 4.329365,-2.192658 l 0.0096,0.0067 1.089003,-0.102112 0.0059,-0.0059 a 5.3983968,5.3983968 0 0 0 3.65923,1.441586 5.3983968,5.3983968 0 0 0 5.398406,-5.398337 5.3983968,5.3983968 0 0 0 -5.398406,-5.3984037 z M 39.244237,1.5985381 h 2.3e-4 2.3e-4 c 1.654849,0.00478 3.209482,0.7919055 4.192194,2.1234011 a 0.17049273,0.17049273 0 0 0 0.237952,0.036399 l -0.04311,0.031516 0.959146,0.089473 -0.03822,-0.041282 a 0.17049273,0.17049273 0 0 0 0.240838,0.00857 c 0.963573,-0.8942961 2.228513,-1.3926778 3.543131,-1.3959917 2.889309,0 5.227924,2.3386147 5.227924,5.227924 0,2.8891535 -2.338385,5.2276745 -5.227484,5.2279135 -1.655011,-0.0038 -3.209835,-0.791781 -4.192633,-2.123393 a 0.17049273,0.17049273 0 0 0 -0.237953,-0.0364 l 0.04329,-0.03151 -0.959586,-0.08994 0.03879,0.04214 a 0.17049273,0.17049273 0 0 0 -0.241279,-0.0096 c -0.96358,0.894295 -2.228521,1.392676 -3.54315,1.39598 -2.889309,0 -5.227913,-2.3386036 -5.227913,-5.2279119 0,-2.8891557 2.338375,-5.2276848 5.227473,-5.227924 z m 49.438392,0 h 2.3e-4 2.31e-4 c 2.889087,2.302e-4 5.227476,2.3387693 5.227476,5.2279239 0,2.8891556 -2.338389,5.227675 -5.227476,5.227915 -1.314782,-0.003 -2.579903,-0.501592 -3.543591,-1.395984 a 0.17049273,0.17049273 0 0 0 -0.241289,0.0096 l 0.03888,-0.04214 -0.959596,0.08994 0.04329,0.03151 a 0.17049273,0.17049273 0 0 0 -0.237955,0.0364 c -0.98274,1.331505 -2.537353,2.118936 -4.192203,2.1234 -2.889308,0 -5.227924,-2.338615 -5.227924,-5.2279137 0,-2.8891557 2.338387,-5.2276848 5.227475,-5.2279239 1.31478,0.0029 2.579903,0.5015911 3.543591,1.3959918 a 0.17049273,0.17049273 0 0 0 0.240837,-0.00857 l -0.03822,0.041282 0.959154,-0.089472 -0.04311,-0.031516 A 0.17049273,0.17049273 0 0 0 84.49039,3.7226092 C 85.473116,2.3910381 87.027748,1.6035967 88.682595,1.5991337 Z M 39.244678,5.1217065 A 1.7047568,1.7047568 0 0 0 37.539922,6.826462 1.7047568,1.7047568 0 0 0 39.244678,8.5312186 1.7047568,1.7047568 0 0 0 40.949443,6.826462 1.7047568,1.7047568 0 0 0 39.244678,5.1217065 Z m 49.437951,0 A 1.7047568,1.7047568 0 0 0 86.977873,6.826462 1.7047568,1.7047568 0 0 0 88.682629,8.5312186 1.7047568,1.7047568 0 0 0 90.387386,6.826462 1.7047568,1.7047568 0 0 0 88.682629,5.1217065 Z M 48.33672,5.9740842 A 1.7047568,1.7047568 0 0 0 46.631964,7.6788409 1.7047568,1.7047568 0 0 0 48.33672,9.3835968 1.7047568,1.7047568 0 0 0 50.041474,7.6788409 1.7047568,1.7047568 0 0 0 48.33672,5.9740842 Z m 31.253877,0 a 1.7047568,1.7047568 0 0 0 -1.704756,1.7047567 1.7047568,1.7047568 0 0 0 1.704756,1.7047559 1.7047568,1.7047568 0 0 0 1.704757,-1.7047559 1.7047568,1.7047568 0 0 0 -1.704757,-1.7047567 z" /><g
       inkscape:label="Image"
       id="g8"
       transform="translate(-24.565608,-17.2685)"><path
         style="fill:#000000;stroke-width:1.19539"
         d="M 61.409886,62.190916 C 48.00354,58.523016 45.501046,45.472085 45.955823,3.443611 c 0.08444,-7.8033081 -0.107108,-12.1269681 0.04412,-24.380459 0.06134,-4.968881 -6.820005,-4.939131 -7.523835,-0.72174 -0.272183,1.630938 -0.738776,9.270809 -1.036876,16.9774909 -0.300159,7.759951 -1.246934,16.0629221 -2.121871,18.6082481 -1.710174,4.975151 -5.480167,8.894374 -8.555704,8.894374 -2.620122,0 -2.508833,-4.779427 0.130827,-5.618486 4.380914,-1.392542 5.80559,-6.767834 6.536088,-24.6606181 0.570476,-13.9732439 1.053434,-17.4691309 2.723201,-19.7118519 3.497899,-4.69815 12.69031,-2.925293 13.772352,3.544559 0.624695,3.735241 0.45323,6.295479 0.875338,42.49261 0.29813,25.565524 2.734771,34.825477 12.735093,37.810021 12.205658,3.683266 25.666129,-16.018957 20.928058,-23.354249 0.755334,-2.632787 5.61281,-6.36819 7.049824,1.097715 0.05629,15.507595 -14.817021,30.489576 -30.102549,27.769691 z"
         id="path174-7"
         sodipodi:nodetypes="cssssssssssscccc" /></g></g></svg>
