<?xml version="1.0" encoding="UTF-8" standalone="no"?>
<!-- Created with Inkscape (http://www.inkscape.org/) -->

<svg
   width="100"
   height="100"
   version="1.1"
   viewBox="0 0 100 100"
   id="svg72"
   sodipodi:docname="ChaoJi_cable_attached.svg"
   inkscape:version="1.2.1 (9c6d41e410, 2022-07-14)"
   xml:space="preserve"
   xmlns:inkscape="http://www.inkscape.org/namespaces/inkscape"
   xmlns:sodipodi="http://sodipodi.sourceforge.net/DTD/sodipodi-0.dtd"
   xmlns="http://www.w3.org/2000/svg"
   xmlns:svg="http://www.w3.org/2000/svg"
   xmlns:rdf="http://www.w3.org/1999/02/22-rdf-syntax-ns#"
   xmlns:cc="http://creativecommons.org/ns#"
   xmlns:dc="http://purl.org/dc/elements/1.1/"><defs
     id="defs76" /><sodipodi:namedview
     id="namedview74"
     pagecolor="#ffffff"
     bordercolor="#000000"
     borderopacity="0.25"
     inkscape:showpageshadow="2"
     inkscape:pageopacity="0.0"
     inkscape:pagecheckerboard="0"
     inkscape:deskcolor="#d1d1d1"
     showgrid="false"
     inkscape:zoom="3.1786133"
     inkscape:cx="111.84122"
     inkscape:cy="90.762849"
     inkscape:window-width="1368"
     inkscape:window-height="860"
     inkscape:window-x="-6"
     inkscape:window-y="-6"
     inkscape:window-maximized="1"
     inkscape:current-layer="g70" /><metadata
     id="metadata2"><rdf:RDF><cc:Work
         rdf:about=""><dc:format>image/svg+xml</dc:format><dc:type
           rdf:resource="http://purl.org/dc/dcmitype/StillImage" /></cc:Work></rdf:RDF></metadata><g
     transform="translate(0,50)"
     id="g70"><path
       id="path1096"
       style="fill:#000000;stroke:none;stroke-width:0.102165"
       d="M 48.662281,-17.548773 A 15.324732,15.324732 0 0 0 33.338152,-2.2240414 V 14.377751 a 9.1948392,9.1948392 0 0 0 9.194834,9.194834 c 0,0 6.553579,0.490278 15.715036,0.686222 l 1.652597,1.101662 h 11.238139 l 1.652596,-1.101662 C 81.953225,24.062863 88.50639,23.572585 88.50639,23.572585 a 9.1948392,9.1948392 0 0 0 9.194836,-9.194834 V -2.2240414 A 15.324732,15.324732 0 0 0 82.376492,-17.548773 15.324732,15.324732 0 0 0 72.268957,-13.717593 H 58.779005 a 15.324732,15.324732 0 0 0 -10.116121,-3.83118 h -2.06e-4 z m 6.03e-4,4.086592 A 11.238137,11.238137 0 0 1 59.901015,-2.2240414 11.238137,11.238137 0 0 1 48.662884,9.0140892 11.238137,11.238137 0 0 1 37.424745,-2.2240414 11.238137,11.238137 0 0 1 48.662884,-13.462181 Z m 33.714409,0 A 11.238137,11.238137 0 0 1 93.615435,-2.2240414 11.238137,11.238137 0 0 1 82.377293,9.0140892 11.238137,11.238137 0 0 1 71.139154,-2.2240414 11.238137,11.238137 0 0 1 82.377293,-13.462181 Z m -33.714409,6.12989 a 5.1082439,5.1082439 0 0 0 -5.10825,5.1082496 5.1082439,5.1082439 0 0 0 5.10825,5.1082412 5.1082439,5.1082439 0 0 0 5.108241,-5.1082412 5.1082439,5.1082439 0 0 0 -5.108241,-5.1082496 z m 33.714409,0 a 5.1082439,5.1082439 0 0 0 -5.108241,5.1082496 5.1082439,5.1082439 0 0 0 5.108241,5.1082412 5.1082439,5.1082439 0 0 0 5.108241,-5.1082412 5.1082439,5.1082439 0 0 0 -5.108241,-5.1082496 z M 65.520089,4.4166721 a 7.662366,7.662366 0 0 1 7.662361,7.6623709 7.662366,7.662366 0 0 1 -7.662361,7.662361 7.662366,7.662366 0 0 1 -7.662371,-7.662361 7.662366,7.662366 0 0 1 7.662371,-7.6623709 z m 0,4.5974171 a 3.0649463,3.0649463 0 0 0 -3.064945,3.0649538 3.0649463,3.0649463 0 0 0 3.064945,3.064944 3.0649463,3.0649463 0 0 0 3.064944,-3.064944 3.0649463,3.0649463 0 0 0 -3.064944,-3.0649538 z M 43.299222,10.39332 a 0.15326264,0.15326264 0 0 1 4.05e-4,0 c 1.556919,0.0043 3.01891,0.735451 3.962077,1.970266 l 0.882968,0.08224 c 0.91469,-0.820925 2.096366,-1.283252 3.327349,-1.28624 a 0.15326264,0.15326264 0 0 1 4.04e-4,0 c 2.762956,0 5.00608,2.243124 5.00608,5.00608 0,2.762956 -2.243124,5.00608 -5.00608,5.00608 a 0.15326264,0.15326264 0 0 1 -4.04e-4,0 c -1.557014,-0.0043 -3.019117,-0.735521 -3.962284,-1.970464 l -0.881969,-0.08258 c -0.914785,0.821338 -2.096822,1.283846 -3.328141,1.286842 a 0.15326264,0.15326264 0 0 1 -4.05e-4,0 c -2.762947,0 -5.006071,-2.243124 -5.006071,-5.00608 0,-2.762955 2.243124,-5.00608 5.006071,-5.00608 z m 44.441328,0 a 0.15326264,0.15326264 0 0 1 4.05e-4,0 c 2.762955,0 5.006082,2.243124 5.006082,5.006079 0,2.762947 -2.243127,5.00608 -5.006082,5.00608 a 0.15326264,0.15326264 0 0 1 -4.05e-4,0 c -1.231318,-0.0026 -2.413356,-0.465504 -3.328141,-1.286842 l -0.881969,0.08258 c -0.943167,1.234944 -2.405278,1.966392 -3.962283,1.970465 a 0.15326264,0.15326264 0 0 1 -4.05e-4,0 c -2.762956,0 -5.00608,-2.243133 -5.00608,-5.00608 0,-2.762956 2.243124,-5.00608 5.00608,-5.00608 a 0.15326264,0.15326264 0 0 1 4.05e-4,0 c 1.230982,0.0026 2.412658,0.465324 3.32734,1.28624 l 0.882967,-0.08224 C 84.72164,11.12872 86.18364,10.397324 87.74055,10.393259 Z m -44.441328,0.153242 a 4.8528318,4.8528318 0 0 0 -4.852829,4.852837 4.8528318,4.8528318 0 0 0 4.852829,4.852829 4.8528318,4.8528318 0 0 0 3.289435,-1.295815 l 0.0052,0.0052 0.978946,0.09179 0.0086,-0.006 a 4.8528318,4.8528318 0 0 0 3.891837,1.971058 4.8528318,4.8528318 0 0 0 4.852829,-4.852829 4.8528318,4.8528318 0 0 0 -4.852829,-4.852838 4.8528318,4.8528318 0 0 0 -3.289435,1.295824 l -0.0052,-0.006 -0.978344,-0.09119 -0.0086,0.006 a 4.8528318,4.8528318 0 0 0 -3.891844,-1.971133 z m 44.441724,0 a 4.8528318,4.8528318 0 0 0 -3.891837,1.971067 l -0.0086,-0.006 -0.978343,0.09119 -0.0052,0.006 a 4.8528318,4.8528318 0 0 0 -3.289426,-1.295815 4.8528318,4.8528318 0 0 0 -4.852837,4.852837 4.8528318,4.8528318 0 0 0 4.852837,4.852829 4.8528318,4.8528318 0 0 0 3.891837,-1.971067 l 0.0086,0.006 0.978947,-0.09179 0.0052,-0.0052 a 4.8528318,4.8528318 0 0 0 3.289426,1.295816 4.8528318,4.8528318 0 0 0 4.85284,-4.852829 4.8528318,4.8528318 0 0 0 -4.85284,-4.852838 z m -44.44212,0.15325 h 2.07e-4 2.07e-4 c 1.487608,0.0043 2.885129,0.711875 3.768527,1.908809 a 0.15326264,0.15326264 0 0 0 0.213906,0.03272 l -0.03875,0.02833 0.862215,0.08043 -0.03436,-0.03711 a 0.15326264,0.15326264 0 0 0 0.216499,0.0077 c 0.866193,-0.803918 2.003298,-1.251933 3.18506,-1.254912 2.597314,0 4.699587,2.102273 4.699587,4.699587 0,2.597175 -2.102066,4.699363 -4.699191,4.699578 -1.487755,-0.0034 -2.885447,-0.711763 -3.768923,-1.908801 a 0.15326264,0.15326264 0 0 0 -0.213906,-0.03272 l 0.03892,-0.02833 -0.86261,-0.08086 0.03487,0.03789 a 0.15326264,0.15326264 0 0 0 -0.216895,-0.0086 c -0.866201,0.803918 -2.003306,1.251933 -3.185077,1.254904 -2.597314,0 -4.699578,-2.102265 -4.699578,-4.699578 0,-2.597176 2.102058,-4.699372 4.699182,-4.699587 z m 44.44212,0 h 2.07e-4 2.07e-4 c 2.597115,2.07e-4 4.699184,2.102412 4.699184,4.699587 0,2.597176 -2.102069,4.699363 -4.699184,4.699579 -1.181909,-0.0026 -2.319177,-0.4509 -3.185474,-1.254904 a 0.15326264,0.15326264 0 0 0 -0.216903,0.0086 l 0.03496,-0.03789 -0.862619,0.08086 0.03892,0.02833 a 0.15326264,0.15326264 0 0 0 -0.213907,0.03272 c -0.883424,1.196943 -2.280927,1.904796 -3.768536,1.908809 -2.597313,0 -4.699587,-2.102273 -4.699587,-4.699578 0,-2.597176 2.102067,-4.699372 4.699183,-4.699587 1.181908,0.0026 2.319177,0.4509 3.185473,1.254912 a 0.15326264,0.15326264 0 0 0 0.216499,-0.0077 l -0.03436,0.03711 0.862223,-0.08043 -0.03875,-0.02833 a 0.15326264,0.15326264 0 0 0 0.213906,-0.03272 c 0.883403,-1.196968 2.280924,-1.90483 3.768532,-1.908842 z m -44.441724,3.167115 a 1.5324732,1.5324732 0 0 0 -1.532472,1.532472 1.5324732,1.5324732 0 0 0 1.532472,1.532473 1.5324732,1.5324732 0 0 0 1.532481,-1.532473 1.5324732,1.5324732 0 0 0 -1.532481,-1.532472 z m 44.441724,0 a 1.5324732,1.5324732 0 0 0 -1.532472,1.532472 1.5324732,1.5324732 0 0 0 1.532472,1.532473 1.5324732,1.5324732 0 0 0 1.532473,-1.532473 1.5324732,1.5324732 0 0 0 -1.532473,-1.532472 z m -36.268529,0.766236 a 1.5324732,1.5324732 0 0 0 -1.532473,1.532473 1.5324732,1.5324732 0 0 0 1.532473,1.532472 1.5324732,1.5324732 0 0 0 1.532472,-1.532472 1.5324732,1.5324732 0 0 0 -1.532472,-1.532473 z m 28.095343,0 a 1.5324732,1.5324732 0 0 0 -1.532472,1.532473 1.5324732,1.5324732 0 0 0 1.532472,1.532472 1.5324732,1.5324732 0 0 0 1.532473,-1.532472 1.5324732,1.5324732 0 0 0 -1.532473,-1.532473 z" /><path
       style="fill:#000000;stroke-width:1.28657"
       d="M 44.005058,42.6345 C 28.097074,39.053865 24.245187,26.264792 26.732135,-14.715122 c 1.131966,-18.652465 1.039153,-21.191635 -0.881729,-24.123261 -2.797899,-4.270152 -8.223432,-4.498776 -9.058598,-0.381727 -0.32297,1.592136 -0.876634,9.050251 -1.230352,16.573568 -0.356174,7.575335 -1.479624,15.6807636 -2.517824,18.165538 -2.029288,4.85678425 -6.502769,8.6827643 -10.152213,8.6827643 -3.10903164,0 -2.97697774,-4.66571795 0.1552509,-5.4848139 5.1983889,-1.359412 6.8889215,-6.6068193 7.7557241,-24.0739134 0.676931,-13.640797 1.25001,-17.053512 3.231359,-19.242874 4.150603,-4.586379 13.038037,-2.704596 16.342293,3.460228 1.813092,3.38275 1.882386,6.150119 1.038677,41.48165145 C 30.764489,27.570743 33.153823,34.442218 44.392728,37.665493 52.83448,40.086554 64.282131,34.41458 63.404135,28.245905 63.047291,25.73869 62.03966,25.220981 60.451216,24.925717 c 0.896279,-2.570149 7.400386,-2.775493 8.670621,-0.138774 l -0.783421,4.899189 C 66.805155,39.274684 55.590592,45.242219 44.005058,42.6345 Z"
       id="path174"
       sodipodi:nodetypes="ssssssssssssssccss" /></g></svg>
